<svg width="20" height="21" viewBox="0 0 20 21" fill="none" xmlns="http://www.w3.org/2000/svg">
<path d="M10 1.75C7.68807 1.77805 5.47873 2.70893 3.84383 4.34383C2.20893 5.97873 1.27805 8.18807 1.25 10.5C1.27805 12.8119 2.20893 15.0213 3.84383 16.6562C5.47873 18.2911 7.68807 19.2219 10 19.25C12.3119 19.2219 14.5213 18.2911 16.1562 16.6562C17.7911 15.0213 18.7219 12.8119 18.75 10.5C18.7219 8.18807 17.7911 5.97873 16.1562 4.34383C14.5213 2.70893 12.3119 1.77805 10 1.75ZM15 11.125H10.625V15.5H9.375V11.125H5V9.875H9.375V5.5H10.625V9.875H15V11.125Z" fill="#03A186"/>
</svg>
