<svg width="25" height="24" viewBox="0 0 25 24" fill="none" xmlns="http://www.w3.org/2000/svg">
<path d="M17.75 22C18.3 22 18.7707 21.8043 19.162 21.413C19.5533 21.0217 19.7493 20.5507 19.75 20C19.7507 19.4493 19.5547 18.9787 19.162 18.588C18.7693 18.1973 18.2987 18.0013 17.75 18C17.2013 17.9987 16.7303 18.1947 16.337 18.588C15.9437 18.9813 15.748 19.452 15.75 20C15.752 20.548 15.9477 21.019 16.337 21.413C16.7263 21.807 17.1973 22.0027 17.75 22ZM7.75 22C8.3 22 8.77067 21.8043 9.162 21.413C9.55333 21.0217 9.74933 20.5507 9.75 20C9.75067 19.4493 9.55467 18.9787 9.162 18.588C8.76933 18.1973 8.29867 18.0013 7.75 18C7.20133 17.9987 6.73033 18.1947 6.337 18.588C5.94367 18.9813 5.748 19.452 5.75 20C5.752 20.548 5.94767 21.019 6.337 21.413C6.72633 21.807 7.19733 22.0027 7.75 22ZM18.6 6L16.2 11H9.2L6.45 6H18.6ZM19.55 4H4.8C4.41667 4 4.125 4.171 3.925 4.513C3.725 4.855 3.71667 5.20067 3.9 5.55L7.45 11.95C7.63333 12.2833 7.879 12.5417 8.187 12.725C8.495 12.9083 8.83267 13 9.2 13H16.65L17.75 15H5.75V17H17.75C18.5 17 19.0667 16.671 19.45 16.013C19.8333 15.355 19.85 14.7007 19.5 14.05L18.15 11.6L21.75 4H23.75V2H20.5L19.55 4Z" fill="white"/>
</svg>
