<svg width="123" height="110" viewBox="0 0 123 110" fill="none" xmlns="http://www.w3.org/2000/svg">
<path d="M66 110C80.8503 110 92.8889 108.632 92.8889 106.944C92.8889 105.257 80.8503 103.889 66 103.889C51.1497 103.889 39.1111 105.257 39.1111 106.944C39.1111 108.632 51.1497 110 66 110Z" fill="#7D7D78"/>
<path opacity="0.5" d="M60.4084 109.241C72.4135 109.241 82.1455 108.223 82.1455 106.967C82.1455 105.712 72.4135 104.694 60.4084 104.694C48.4033 104.694 38.6712 105.712 38.6712 106.967C38.6712 108.223 48.4033 109.241 60.4084 109.241Z" fill="white"/>
<path d="M109.529 88.1849V84.7154H105.659V77.984H100.098V50.6436H94.7786V67.1695H89.9424V61.2535H83.4156V76.5548H80.756V81.4506H74.4707V79.615H76.4029V78.5949H68.4241V79.8196H69.393V85.1246H65.2815V75.1255H50.7758V82.2661H40.3761V76.9611H36.5089V82.8799H28.2886V72.0653H24.9044V68.3941H18.8578V85.1246H12.814V88.7958H8.94678V100.017H117.024V88.1849H109.529Z" stroke="#494E4D" stroke-miterlimit="10"/>
<path d="M21.2361 72.0166H19.929V73.3237H21.2361V72.0166Z" fill="#494E4D"/>
<path d="M23.9582 72.0166H22.6511V73.3237H23.9582V72.0166Z" fill="#494E4D"/>
<path d="M21.2361 74.7422H19.929V76.0493H21.2361V74.7422Z" fill="#494E4D"/>
<path d="M23.9582 74.7422H22.6511V76.0493H23.9582V74.7422Z" fill="#494E4D"/>
<path d="M26.8991 74.7422H25.592V76.0493H26.8991V74.7422Z" fill="#494E4D"/>
<path d="M26.8991 77.4639H25.592V78.7709H26.8991V77.4639Z" fill="#494E4D"/>
<path d="M26.8991 80.1885H25.592V81.4955H26.8991V80.1885Z" fill="#494E4D"/>
<path d="M26.8991 82.9111H25.592V84.2182H26.8991V82.9111Z" fill="#494E4D"/>
<path d="M26.8991 85.6357H25.592V86.9428H26.8991V85.6357Z" fill="#494E4D"/>
<path d="M26.8991 88.3604H25.592V89.6674H26.8991V88.3604Z" fill="#494E4D"/>
<path d="M21.2361 77.4639H19.929V78.7709H21.2361V77.4639Z" fill="#494E4D"/>
<path d="M23.9582 77.4639H22.6511V78.7709H23.9582V77.4639Z" fill="#494E4D"/>
<path d="M21.2361 80.1885H19.929V81.4955H21.2361V80.1885Z" fill="#494E4D"/>
<path d="M23.9582 80.1885H22.6511V81.4955H23.9582V80.1885Z" fill="#494E4D"/>
<path d="M21.2361 82.9111H19.929V84.2182H21.2361V82.9111Z" fill="#494E4D"/>
<path d="M23.9582 82.9111H22.6511V84.2182H23.9582V82.9111Z" fill="#494E4D"/>
<path d="M21.2361 85.6357H19.929V86.9428H21.2361V85.6357Z" fill="#494E4D"/>
<path d="M15.2435 87.1611H13.9364V88.4682H15.2435V87.1611Z" fill="#494E4D"/>
<path d="M34.0908 84.2178H32.7838V85.5248H34.0908V84.2178Z" fill="#494E4D"/>
<path d="M36.705 84.2178H35.3979V85.5248H36.705V84.2178Z" fill="#494E4D"/>
<path d="M96.9552 52.1865H95.6481V53.4936H96.9552V52.1865Z" fill="#494E4D"/>
<path d="M98.589 52.1865H97.282V53.4936H98.589V52.1865Z" fill="#494E4D"/>
<path d="M96.9552 54.9111H95.6481V56.2182H96.9552V54.9111Z" fill="#494E4D"/>
<path d="M98.589 54.9111H97.282V56.2182H98.589V54.9111Z" fill="#494E4D"/>
<path d="M96.9552 57.6357H95.6481V58.9428H96.9552V57.6357Z" fill="#494E4D"/>
<path d="M98.589 57.6357H97.282V58.9428H98.589V57.6357Z" fill="#494E4D"/>
<path d="M96.9552 60.3584H95.6481V61.6655H96.9552V60.3584Z" fill="#494E4D"/>
<path d="M98.589 60.3584H97.282V61.6655H98.589V60.3584Z" fill="#494E4D"/>
<path d="M96.9552 63.084H95.6481V64.3911H96.9552V63.084Z" fill="#494E4D"/>
<path d="M98.589 63.084H97.282V64.3911H98.589V63.084Z" fill="#494E4D"/>
<path d="M96.9552 65.8057H95.6481V67.1127H96.9552V65.8057Z" fill="#494E4D"/>
<path d="M98.589 65.8057H97.282V67.1127H98.589V65.8057Z" fill="#494E4D"/>
<path d="M96.9552 68.5303H95.6481V69.8373H96.9552V68.5303Z" fill="#494E4D"/>
<path d="M98.589 68.5303H97.282V69.8373H98.589V68.5303Z" fill="#494E4D"/>
<path d="M96.9552 71.2559H95.6481V72.5629H96.9552V71.2559Z" fill="#494E4D"/>
<path d="M98.589 71.2559H97.282V72.5629H98.589V71.2559Z" fill="#494E4D"/>
<path d="M96.9552 73.9775H95.6481V75.2846H96.9552V73.9775Z" fill="#494E4D"/>
<path d="M98.589 73.9775H97.282V75.2846H98.589V73.9775Z" fill="#494E4D"/>
<path d="M85.8423 73.9775H84.5352V75.2846H85.8423V73.9775Z" fill="#494E4D"/>
<path d="M88.6752 73.9775H87.3681V75.2846H88.6752V73.9775Z" fill="#494E4D"/>
<path d="M91.5081 73.9775H90.201V75.2846H91.5081V73.9775Z" fill="#494E4D"/>
<path d="M85.8423 79.8623H84.5352V81.1694H85.8423V79.8623Z" fill="#494E4D"/>
<path d="M88.6752 79.8623H87.3681V81.1694H88.6752V79.8623Z" fill="#494E4D"/>
<path d="M91.5081 79.8623H90.201V81.1694H91.5081V79.8623Z" fill="#494E4D"/>
<path d="M85.8423 85.7441H84.5352V87.0512H85.8423V85.7441Z" fill="#494E4D"/>
<path d="M88.6752 85.7441H87.3681V87.0512H88.6752V85.7441Z" fill="#494E4D"/>
<path d="M91.5081 85.7441H90.201V87.0512H91.5081V85.7441Z" fill="#494E4D"/>
<path d="M96.9552 76.7021H95.6481V78.0092H96.9552V76.7021Z" fill="#494E4D"/>
<path d="M98.589 76.7021H97.282V78.0092H98.589V76.7021Z" fill="#494E4D"/>
<path d="M96.9552 79.4248H95.6481V80.7319H96.9552V79.4248Z" fill="#494E4D"/>
<path d="M98.589 79.4248H97.282V80.7319H98.589V79.4248Z" fill="#494E4D"/>
<path d="M96.9552 82.1494H95.6481V83.4565H96.9552V82.1494Z" fill="#494E4D"/>
<path d="M98.589 82.1494H97.282V83.4565H98.589V82.1494Z" fill="#494E4D"/>
<path d="M101.314 79.4248H100.007V80.7319H101.314V79.4248Z" fill="#494E4D"/>
<path d="M104.366 79.4248H103.059V80.7319H104.366V79.4248Z" fill="#494E4D"/>
<path d="M101.314 82.042H100.007V83.3491H101.314V82.042Z" fill="#494E4D"/>
<path d="M104.366 82.042H103.059V83.3491H104.366V82.042Z" fill="#494E4D"/>
<path d="M101.314 84.6553H100.007V85.9623H101.314V84.6553Z" fill="#494E4D"/>
<path d="M104.366 84.6553H103.059V85.9623H104.366V84.6553Z" fill="#494E4D"/>
<path d="M101.314 87.2695H100.007V88.5766H101.314V87.2695Z" fill="#494E4D"/>
<path d="M104.366 87.2695H103.059V88.5766H104.366V87.2695Z" fill="#494E4D"/>
<path d="M96.9552 84.874H95.6481V86.1811H96.9552V84.874Z" fill="#494E4D"/>
<path d="M98.589 84.874H97.282V86.1811H98.589V84.874Z" fill="#494E4D"/>
<path d="M96.9552 87.5967H95.6481V88.9038H96.9552V87.5967Z" fill="#494E4D"/>
<path d="M98.589 87.5967H97.282V88.9038H98.589V87.5967Z" fill="#494E4D"/>
<path d="M23.9582 85.6357H22.6511V86.9428H23.9582V85.6357Z" fill="#494E4D"/>
<path d="M21.2361 88.3604H19.929V89.6674H21.2361V88.3604Z" fill="#494E4D"/>
<path d="M23.9582 88.3604H22.6511V89.6674H23.9582V88.3604Z" fill="#494E4D"/>
<path d="M21.2361 91.083H19.929V92.3901H21.2361V91.083Z" fill="#494E4D"/>
<path d="M23.9582 91.083H22.6511V92.3901H23.9582V91.083Z" fill="#494E4D"/>
<path d="M21.2361 93.8076H19.929V95.1147H21.2361V93.8076Z" fill="#494E4D"/>
<path d="M23.9582 93.8076H22.6511V95.1147H23.9582V93.8076Z" fill="#494E4D"/>
<path d="M92.8152 94.6266V100.017H81.921V89.2988H92.8152V93.6661" stroke="#494E4D" stroke-miterlimit="10"/>
<path d="M112.864 98.3883V100.016H101.967V94.3506H104.218" stroke="#494E4D" stroke-miterlimit="10"/>
<path d="M105.545 94.3506H112.864V97.5046" stroke="#494E4D" stroke-miterlimit="10"/>
<path d="M32.5621 94.3506H40.3022V100.016H29.4053V94.3506H31.5278" stroke="#494E4D" stroke-miterlimit="10"/>
<path d="M15.5162 94.3506H16.5505V100.016H12.5185V94.3506H14.7036" stroke="#494E4D" stroke-miterlimit="10"/>
<path d="M88.2376 89.2988H86.4958V100.017H88.2376V89.2988Z" stroke="#494E4D" stroke-miterlimit="10"/>
<path d="M74.698 90.7558H72.9875V87.9229H78.7613V90.7558H76.2495" stroke="#494E4D" stroke-miterlimit="10"/>
<path d="M44.1155 85.9629H37.4693V88.3611H44.1155V85.9629Z" stroke="#494E4D" stroke-miterlimit="10"/>
<path d="M41.2825 85.9629H40.629V100.017H41.2825V85.9629Z" stroke="#494E4D" stroke-miterlimit="10"/>
<path d="M61.67 0.591797C51.9485 0.591797 42.6252 4.45363 35.7511 11.3277C28.877 18.2018 25.0152 27.5251 25.0152 37.2466C25.0152 55.5313 58.8285 98.622 58.8285 98.622H61.67C61.67 98.622 98.3248 57.4891 98.3248 37.2466C98.3248 27.5251 94.4629 18.2018 87.5888 11.3277C80.7147 4.45363 71.3914 0.591797 61.67 0.591797ZM61.67 55.1477C58.1295 55.1477 54.6685 54.0978 51.7246 52.1308C48.7808 50.1638 46.4864 47.3681 45.1315 44.097C43.7766 40.826 43.4221 37.2267 44.1128 33.7542C44.8035 30.2817 46.5084 27.0921 49.0119 24.5885C51.5155 22.085 54.7052 20.3801 58.1776 19.6894C61.6501 18.9986 65.2495 19.3531 68.5205 20.708C71.7915 22.0629 74.5873 24.3574 76.5543 27.3012C78.5213 30.245 79.5712 33.7061 79.5712 37.2466C79.5712 39.5974 79.1081 41.9252 78.2085 44.097C77.3089 46.2689 75.9903 48.2423 74.328 49.9046C72.6657 51.5669 70.6923 52.8855 68.5205 53.7851C66.3486 54.6847 64.0208 55.1477 61.67 55.1477Z" fill="#494E4D" stroke="#494E4D" stroke-linecap="round" stroke-linejoin="round"/>
<path d="M58.8285 0.591797C49.1071 0.591797 39.7838 4.45363 32.9097 11.3277C26.0356 18.2018 22.1738 27.5251 22.1738 37.2466C22.1738 57.4891 58.8285 98.622 58.8285 98.622C58.8285 98.622 95.4833 57.4891 95.4833 37.2466C95.4833 27.5251 91.6215 18.2018 84.7474 11.3277C77.8733 4.45363 68.55 0.591797 58.8285 0.591797ZM58.8285 55.1477C55.288 55.1477 51.827 54.0978 48.8832 52.1308C45.9393 50.1638 43.6449 47.3681 42.29 44.097C40.9351 40.826 40.5806 37.2267 41.2713 33.7542C41.962 30.2817 43.667 27.0921 46.1705 24.5885C48.674 22.085 51.8637 20.3801 55.3362 19.6894C58.8087 18.9986 62.408 19.3531 65.679 20.708C68.95 22.0629 71.7458 24.3574 73.7128 27.3012C75.6798 30.245 76.7297 33.7061 76.7297 37.2466C76.7297 41.9943 74.8437 46.5475 71.4866 49.9046C68.1294 53.2617 63.5762 55.1477 58.8285 55.1477Z" fill="url(#paint0_linear_1791_11018)" stroke="#494E4D" stroke-linecap="round" stroke-linejoin="round"/>
<path d="M47.3008 59.5858L51.3498 52.6953L51.4209 55.1816L49.0056 60.0121L47.3008 59.5858Z" fill="white" stroke="#494E4D" stroke-linecap="round" stroke-linejoin="round"/>
<path d="M51.4209 82.8633C51.1929 84.0631 50.6694 85.1871 49.8979 86.1338C48.605 87.7335 46.8547 90.8535 46.7722 93.8199C46.6898 96.7864 43.2687 104.995 43.6466 105.603C44.0246 106.212 47.3746 107.05 48.6675 107.05C49.3466 107.05 50.4718 107.311 50.9208 106.649C50.9463 106.612 48.264 105.228 48.0793 105.095C47.8946 104.961 46.4 103.91 46.4483 103.776C46.4483 103.776 49.9547 94.2746 51.705 91.8423C53.4553 89.41 54.7482 87.5801 55.2796 86.0599C55.8109 84.5397 56.2883 83.0991 56.2883 83.0991L51.4209 82.8633Z" fill="white"/>
<mask id="mask0_1791_11018" style="mask-type:luminance" maskUnits="userSpaceOnUse" x="43" y="82" width="14" height="26">
<path d="M51.4209 82.8633C51.1929 84.0631 50.6694 85.1871 49.8979 86.1338C48.605 87.7335 46.8547 90.8535 46.7722 93.8199C46.6898 96.7864 43.2687 104.995 43.6466 105.603C44.0246 106.212 47.3746 107.05 48.6675 107.05C49.3466 107.05 50.4718 107.311 50.9208 106.649C50.9463 106.612 48.264 105.228 48.0793 105.095C47.8946 104.961 46.4 103.91 46.4483 103.776C46.4483 103.776 49.9547 94.2746 51.705 91.8423C53.4553 89.41 54.7482 87.5801 55.2796 86.0599C55.8109 84.5397 56.2883 83.0991 56.2883 83.0991L51.4209 82.8633Z" fill="white"/>
</mask>
<g mask="url(#mask0_1791_11018)">
<g style="mix-blend-mode:multiply">
<path d="M50.469 85.3212C51.9414 85.9518 53.4883 86.392 55.0721 86.6311C55.1574 86.4351 55.2341 86.2447 55.2995 86.0628C55.8336 84.5398 56.2883 83.0935 56.2883 83.0935L51.4209 82.8662C51.2583 83.7364 50.9355 84.5689 50.469 85.3212Z" fill="#FFED00"/>
</g>
</g>
<path d="M51.4209 82.8633C51.1929 84.0631 50.6694 85.1871 49.8979 86.1338C48.605 87.7335 46.8547 90.8535 46.7722 93.8199C46.6898 96.7864 43.2687 104.995 43.6466 105.603C44.0246 106.212 47.3746 107.05 48.6675 107.05C49.3466 107.05 50.4718 107.311 50.9208 106.649C50.9463 106.612 48.264 105.228 48.0793 105.095C47.8946 104.961 46.4 103.91 46.4483 103.776C46.4483 103.776 49.9547 94.2746 51.705 91.8423C53.4553 89.41 54.7482 87.5801 55.2796 86.0599C55.8109 84.5397 56.2883 83.0991 56.2883 83.0991L51.4209 82.8633Z" stroke="#494E4D" stroke-linecap="round" stroke-linejoin="round"/>
<path d="M62.4315 83.4849C63.1736 84.4558 63.6619 85.5965 63.8522 86.8037C64.1733 88.8353 65.3213 92.2223 67.4779 94.2653C69.6346 96.3083 73.445 104.901 74.1497 105.023C74.9765 105.171 76.2381 104.114 76.8519 103.685C77.6333 103.139 79.4262 102.025 79.6933 101.062C80.0144 99.9539 78.875 100.511 78.3948 100.869C77.7725 101.332 74.6668 101.721 74.6668 101.721C74.6668 101.721 69.9471 92.1911 69.3107 89.2644C68.6742 86.3377 68.1741 84.1498 67.404 82.729C66.634 81.3083 65.8611 80.0098 65.8611 80.0098L62.4315 83.4849Z" fill="white"/>
<mask id="mask1_1791_11018" style="mask-type:luminance" maskUnits="userSpaceOnUse" x="62" y="80" width="18" height="26">
<path d="M62.4315 83.4849C63.1736 84.4558 63.6619 85.5965 63.8522 86.8037C64.1733 88.8353 65.3213 92.2223 67.4779 94.2653C69.6346 96.3083 73.445 104.901 74.1497 105.023C74.9765 105.171 76.2381 104.114 76.8519 103.685C77.6333 103.139 79.4262 102.025 79.6933 101.062C80.0144 99.9539 78.875 100.511 78.3948 100.869C77.7725 101.332 74.6668 101.721 74.6668 101.721C74.6668 101.721 69.9471 92.1911 69.3107 89.2644C68.6742 86.3377 68.1741 84.1498 67.404 82.729C66.634 81.3083 65.8611 80.0098 65.8611 80.0098L62.4315 83.4849Z" fill="white"/>
</mask>
<g mask="url(#mask1_1791_11018)">
<g style="mix-blend-mode:multiply">
<path d="M67.404 82.7378C66.6283 81.3171 65.8583 80.0186 65.8583 80.0186L62.4315 83.4851C63.0133 84.2461 63.4373 85.1155 63.6789 86.0424C65.2253 85.7669 66.746 85.363 68.2252 84.8348C68.0236 84.1097 67.7484 83.4071 67.404 82.7378Z" fill="#FFED00"/>
</g>
</g>
<path d="M62.4315 83.4849C63.1736 84.4558 63.6619 85.5965 63.8522 86.8037C64.1733 88.8353 65.3213 92.2223 67.4779 94.2653C69.6346 96.3083 73.445 104.901 74.1497 105.023C74.9765 105.171 76.2381 104.114 76.8519 103.685C77.6333 103.139 79.4262 102.025 79.6933 101.062C80.0144 99.9539 78.875 100.511 78.3948 100.869C77.7725 101.332 74.6668 101.721 74.6668 101.721C74.6668 101.721 69.9471 92.1911 69.3107 89.2644C68.6742 86.3377 68.1741 84.1498 67.404 82.729C66.634 81.3083 65.8611 80.0098 65.8611 80.0098L62.4315 83.4849Z" stroke="#494E4D" stroke-linecap="round" stroke-linejoin="round"/>
<path d="M79.6962 101.063C80.0173 99.9544 78.8778 100.511 78.3976 100.869C77.7753 101.332 74.6696 101.722 74.6696 101.722C74.6696 101.722 74.3343 100.983 73.8456 99.8691C73.2403 100.348 72.5707 100.739 71.8566 101.031C72.9221 103.131 73.8058 104.975 74.1525 105.035C74.9794 105.183 76.241 104.126 76.8547 103.697C77.6276 103.14 79.4206 102.026 79.6962 101.063Z" fill="white" stroke="#494E4D" stroke-linecap="round" stroke-linejoin="round"/>
<path d="M51.5231 67.678L48.8834 82.2462C50.074 83.0082 51.3417 83.6425 52.6654 84.1386C54.7453 84.8944 58.3483 84.7069 58.3483 84.7069L59.769 77.6174L60.3373 84.2352C60.3373 84.2352 63.0793 84.5193 65.0655 84.1414C67.0517 83.7635 70.2654 81.6807 70.2654 81.6807L64.0142 70.0535L62.5934 67.3115L51.5317 67.0273L51.5231 67.678Z" fill="white"/>
<mask id="mask2_1791_11018" style="mask-type:luminance" maskUnits="userSpaceOnUse" x="48" y="67" width="23" height="18">
<path d="M51.5231 67.678L48.8834 82.2462C50.074 83.0082 51.3417 83.6425 52.6654 84.1386C54.7453 84.8944 58.3483 84.7069 58.3483 84.7069L59.769 77.6174L60.3373 84.2352C60.3373 84.2352 63.0793 84.5193 65.0655 84.1414C67.0517 83.7635 70.2654 81.6807 70.2654 81.6807L64.0142 70.0535L62.5934 67.3115L51.5317 67.0273L51.5231 67.678Z" fill="white"/>
</mask>
<g mask="url(#mask2_1791_11018)">
<g style="mix-blend-mode:multiply">
<path d="M59.86 76.0399C60.8204 74.838 61.167 67.7713 61.167 67.7713L51.5231 67.041V67.6775L50.3184 74.2896C53.0177 75.1591 59.1127 76.9719 59.86 76.0399Z" fill="#FFED00"/>
</g>
</g>
<path d="M51.5231 67.678L48.8834 82.2462C50.074 83.0082 51.3417 83.6425 52.6654 84.1386C54.7453 84.8944 58.3483 84.7069 58.3483 84.7069L59.769 77.6174L60.3373 84.2352C60.3373 84.2352 63.0793 84.5193 65.0655 84.1414C67.0517 83.7635 70.2654 81.6807 70.2654 81.6807L64.0142 70.0535L62.5934 67.3115L51.5317 67.0273L51.5231 67.678Z" stroke="#494E4D" stroke-miterlimit="10"/>
<path d="M67.8303 56.1764L73.229 57.5972L75.4311 51.0618L67.1909 49.499L65.344 55.5371L67.8303 56.1764Z" fill="#494E4D" stroke="#494E4D" stroke-linecap="round" stroke-linejoin="round"/>
<path d="M68.8844 53.1533L72.3169 53.9915" stroke="white" stroke-linecap="round" stroke-linejoin="round"/>
<path d="M68.552 53.9912L71.9844 54.8294" stroke="white" stroke-linecap="round" stroke-linejoin="round"/>
<path d="M62.2184 56.5314C62.2184 56.5314 63.9233 55.6079 64.4915 54.8265C65.0598 54.0451 65.6992 52.6954 65.9833 52.4823C66.2675 52.2692 67.6882 51.5589 67.9723 51.3457C68.2565 51.1326 68.6827 51.5589 68.1854 51.9851C67.6882 52.4113 66.6226 53.3348 66.6226 53.3348C66.6226 53.3348 66.9068 54.6134 66.5516 55.0396C66.3616 55.2746 66.1473 55.4889 65.9123 55.679L67.8303 56.1762C67.8303 56.1762 66.5516 57.0997 65.9833 57.2418C65.4203 57.3501 64.8508 57.4213 64.2784 57.4549L61.9342 59.3018L62.2184 56.5314Z" fill="white" stroke="#494E4D" stroke-linecap="round" stroke-linejoin="round"/>
<path d="M54.5465 41.0139C54.5465 41.0139 52.2733 44.3242 51.705 48.2C51.1367 52.0757 51.5175 67.6782 51.5175 67.6782C51.5175 67.6782 54.5408 68.9057 56.9162 68.9057C59.2917 68.9057 62.7782 69.096 62.8833 67.7691C62.9884 66.4421 62.2212 51.2233 61.1784 47.5351C60.4562 45.1286 59.4043 42.8337 58.0528 40.7156C58.0528 40.7156 55.683 39.1215 54.5465 41.0139Z" fill="#494E4D" stroke="#494E4D" stroke-linecap="round" stroke-linejoin="round"/>
<path d="M59.7321 43.8867L56.6775 63.3507L59.3769 64.3452L60.5845 45.6626L59.7321 43.8867Z" fill="white" stroke="#494E4D" stroke-linecap="round" stroke-linejoin="round"/>
<path d="M52.9695 33.4725C52.9695 33.4725 53.3474 35.2683 54.106 36.2145C54.8647 37.1607 56.2797 37.6353 56.2797 37.6353L55.8734 39.7863L58.5217 41.3945L59.4934 36.7828L59.7776 31.2988C59.7776 31.2988 53.1456 32.4326 52.9695 33.4725Z" fill="white" stroke="#494E4D" stroke-linecap="round" stroke-linejoin="round"/>
<path d="M52.9695 33.473C52.9695 33.473 53.3474 35.2688 54.106 36.215C54.8647 37.1612 56.2797 37.6358 56.2797 37.6358C56.2797 37.6358 58.5529 36.9737 58.7376 35.462C58.874 34.3709 58.6694 32.4984 58.5415 31.5352C56.6122 31.9159 53.1058 32.72 52.9695 33.473Z" fill="#494E4D" stroke="#494E4D" stroke-linecap="round" stroke-linejoin="round"/>
<path d="M56.8395 33.9421C56.8395 33.9421 55.8933 32.8055 55.3279 33.28C54.7624 33.7545 54.9471 35.0787 55.612 35.7407C56.2769 36.4028 57.1265 35.8345 57.1265 35.8345C57.1265 35.8345 57.5044 37.062 58.1665 37.6303C58.8285 38.1986 61.096 38.5765 61.8604 38.0082C62.6247 37.4399 62.332 35.36 62.332 35.36C62.332 35.36 63.6562 34.6979 63.5624 34.2234C63.4686 33.7489 62.5196 33.3709 62.5196 32.9959C62.5116 32.7096 62.4802 32.4245 62.4258 32.1434V31.3848L58.0784 32.331C58.0784 32.331 57.5072 34.5104 56.8395 33.9421Z" fill="white"/>
<mask id="mask3_1791_11018" style="mask-type:luminance" maskUnits="userSpaceOnUse" x="54" y="31" width="10" height="8">
<path d="M56.8395 33.9421C56.8395 33.9421 55.8933 32.8055 55.3279 33.28C54.7624 33.7545 54.9471 35.0787 55.612 35.7407C56.2769 36.4028 57.1265 35.8345 57.1265 35.8345C57.1265 35.8345 57.5044 37.062 58.1665 37.6303C58.8285 38.1986 61.096 38.5765 61.8604 38.0082C62.6247 37.4399 62.332 35.36 62.332 35.36C62.332 35.36 63.6562 34.6979 63.5624 34.2234C63.4686 33.7489 62.5196 33.3709 62.5196 32.9959C62.5116 32.7096 62.4802 32.4245 62.4258 32.1434V31.3848L58.0784 32.331C58.0784 32.331 57.5072 34.5104 56.8395 33.9421Z" fill="white"/>
</mask>
<g mask="url(#mask3_1791_11018)">
<g style="mix-blend-mode:multiply" opacity="0.5">
<g style="mix-blend-mode:multiply">
<path d="M58.0756 32.3395C57.9535 32.7961 57.7761 33.236 57.547 33.6494C59.2519 33.5727 61.0733 33.4647 62.7043 33.3226C62.6039 33.2427 62.537 33.1282 62.5167 33.0016C62.5088 32.7153 62.4774 32.4302 62.423 32.1491V31.3848L58.0756 32.3395Z" fill="#FFED00"/>
</g>
</g>
</g>
<path d="M56.8395 33.9421C56.8395 33.9421 55.8933 32.8055 55.3279 33.28C54.7624 33.7545 54.9471 35.0787 55.612 35.7407C56.2769 36.4028 57.1265 35.8345 57.1265 35.8345C57.1265 35.8345 57.5044 37.062 58.1665 37.6303C58.8285 38.1986 61.096 38.5765 61.8604 38.0082C62.6247 37.4399 62.332 35.36 62.332 35.36C62.332 35.36 63.6562 34.6979 63.5624 34.2234C63.4686 33.7489 62.5196 33.3709 62.5196 32.9959C62.5116 32.7096 62.4802 32.4245 62.4258 32.1434V31.3848L58.0784 32.331C58.0784 32.331 57.5072 34.5104 56.8395 33.9421Z" stroke="#494E4D" stroke-linecap="round" stroke-linejoin="round"/>
<path d="M52.9694 33.473L62.423 31.3845C62.423 31.3845 61.0988 26.7501 59.4934 26.3722C57.888 25.9943 54.7652 25.8039 53.0632 27.5088C51.3612 29.2137 52.9694 33.473 52.9694 33.473Z" fill="white" stroke="#494E4D" stroke-linecap="round" stroke-linejoin="round"/>
<path d="M59.3031 32.1488C60.549 32.4255 61.8127 32.6154 63.085 32.7171C64.7899 32.8108 68.6628 31.2963 67.7194 31.2026C66.7761 31.1088 62.423 31.393 62.423 31.393L59.3031 32.1488Z" fill="#494E4D" stroke="#494E4D" stroke-linecap="round" stroke-linejoin="round"/>
<path d="M54.9272 39.0283L54.0748 40.9207L58.3313 43.5661L59.1809 40.9207L54.9272 39.0283Z" fill="white" stroke="#494E4D" stroke-linecap="round" stroke-linejoin="round"/>
<path d="M46.1642 58.8047L61.2949 62.7117L59.7236 73.7763C59.6979 73.9572 59.6342 74.1306 59.5368 74.2852C59.4393 74.4397 59.3103 74.5719 59.1582 74.6731C59.006 74.7742 58.8342 74.8421 58.654 74.8722C58.4738 74.9022 58.2892 74.8938 58.1125 74.8475L44.357 71.273C44.0988 71.2064 43.8767 71.0419 43.7377 70.8144C43.5988 70.5868 43.5539 70.3141 43.6125 70.054L46.1642 58.8047Z" fill="white" stroke="#494E4D" stroke-linecap="round" stroke-linejoin="round"/>
<path d="M46.1642 58.8047C46.1642 58.8047 49.7359 67.4711 51.9238 68.6077C54.1117 69.7443 61.3006 62.7202 61.3006 62.7202" stroke="#494E4D" stroke-linecap="round" stroke-linejoin="round"/>
<path d="M49.1676 55.0088C49.1676 55.0088 48.2214 57.0887 48.5055 57.8502C48.7897 58.6118 60.5135 62.8626 60.5135 62.8626C60.5135 62.8626 60.6073 64.468 60.8914 64.8516C61.1347 65.2678 61.3256 65.7126 61.4597 66.1757C61.4597 66.1757 60.8914 67.4998 61.1756 67.784C61.4597 68.0681 62.3122 66.4599 62.3122 65.9882C62.3122 65.5165 62.4059 62.962 62.1246 62.2943C61.8433 61.6265 53.802 56.7165 53.802 56.7165L49.1676 55.0088Z" fill="white" stroke="#494E4D" stroke-linecap="round" stroke-linejoin="round"/>
<path d="M54.3589 43.6621L48.8749 55.2893L53.7906 56.7101L57.763 47.4441" fill="#494E4D"/>
<path d="M54.3589 43.6621L48.8749 55.2893L53.7906 56.7101L57.763 47.4441" stroke="#494E4D" stroke-linecap="round" stroke-linejoin="round"/>
<path d="M53.7906 56.7098L57.4106 48.5918" stroke="white" stroke-linecap="round" stroke-linejoin="round"/>
<path d="M56.1689 51.5733L57.9903 49.752" stroke="white" stroke-linecap="round" stroke-linejoin="round"/>
<path d="M50.7702 81.9424C53.04 83.1192 55.5904 83.6472 58.1409 83.4682" stroke="#494E4D" stroke-linecap="round" stroke-linejoin="round"/>
<path d="M49.537 81.1982C49.537 81.1982 49.7558 81.363 50.1621 81.6074" stroke="#494E4D" stroke-linecap="round" stroke-linejoin="round"/>
<path d="M67.9666 81.2749C68.3276 81.0791 68.6776 80.8638 69.0151 80.6299" stroke="#494E4D" stroke-linecap="round" stroke-linejoin="round"/>
<path d="M60.6925 83.0992C62.9108 83.0697 65.1005 82.5943 67.1313 81.7012" stroke="#494E4D" stroke-linecap="round" stroke-linejoin="round"/>
<path d="M59.7492 77.6062L61.7893 74.0742" stroke="#494E4D" stroke-linecap="round" stroke-linejoin="round"/>
<path d="M59.86 77.4223L63.2612 73.5664" stroke="#494E4D" stroke-linecap="round" stroke-linejoin="round"/>
<path d="M51.185 75.8896L50.9009 77.9866C51.5987 78.475 52.3646 78.8579 53.174 79.1232C54.5351 79.5779 57.4362 79.521 57.4362 79.521L57.834 77.532C57.834 77.532 52.7876 76.9637 51.7675 76.1113" stroke="#494E4D" stroke-linecap="round" stroke-linejoin="round"/>
<path d="M50.8469 78.7803C50.8469 78.7803 50.0513 80.7096 50.5627 81.1643C51.0742 81.6189 54.6999 82.9771 55.6774 82.8691C56.6548 82.7612 57.2061 80.3743 57.2061 80.3743" stroke="#494E4D" stroke-linecap="round" stroke-linejoin="round"/>
<path d="M79.6962 101.063C80.0173 99.9545 78.8778 100.511 78.3976 100.869C77.7754 101.333 74.6697 101.722 74.6697 101.722L74.2917 100.869C73.7223 101.37 73.0705 101.768 72.3652 102.046C73.1921 103.688 73.8542 104.978 74.144 105.027C74.9708 105.174 76.2325 104.117 76.8462 103.688C77.6276 103.14 79.4206 102.026 79.6962 101.063Z" fill="#494E4D" stroke="#494E4D" stroke-linecap="round" stroke-linejoin="round"/>
<path d="M77.3349 102.614C76.0563 103.279 74.5645 104.086 73.7035 104.538C73.8911 104.822 74.0417 105.007 74.144 105.024C74.9708 105.172 76.2324 104.115 76.8462 103.685C77.6276 103.14 79.4205 102.026 79.6876 101.063C79.824 100.597 79.6876 100.426 79.4745 100.412C79.0029 101.202 78.2698 102.137 77.3349 102.614Z" fill="white" stroke="#494E4D" stroke-linecap="round" stroke-linejoin="round"/>
<path d="M48.0992 105.095C47.9628 104.993 46.4199 103.91 46.4682 103.776C46.4682 103.776 46.7779 102.944 47.2524 101.711C46.4388 101.609 45.6431 101.395 44.8883 101.074C44.1325 103.37 43.4676 105.319 43.6551 105.603C44.0331 106.212 47.3831 107.05 48.676 107.05C49.3551 107.05 50.4803 107.311 50.9293 106.649C50.9548 106.612 48.2725 105.223 48.0992 105.095Z" fill="white" stroke="#494E4D" stroke-linecap="round" stroke-linejoin="round"/>
<path d="M50.9293 106.649C50.9548 106.612 48.2725 105.228 48.0878 105.094C47.9031 104.961 46.4085 103.91 46.4568 103.776L46.758 102.972C45.975 102.83 45.2079 102.611 44.4678 102.318C43.8995 104.04 43.4989 105.37 43.6438 105.603C44.0217 106.211 47.3718 107.049 48.6646 107.049C49.3551 107.049 50.4803 107.311 50.9293 106.649Z" fill="#494E4D" stroke="#494E4D" stroke-linecap="round" stroke-linejoin="round"/>
<path d="M48.2697 106.421C46.5279 106.316 44.5928 105.6 43.6466 105.208C43.6087 105.337 43.6087 105.474 43.6466 105.603C44.0245 106.211 47.3746 107.049 48.6675 107.049C49.3466 107.049 50.4718 107.311 50.9207 106.649C50.794 106.559 50.66 106.48 50.5201 106.413C49.7711 106.468 49.0191 106.471 48.2697 106.421Z" fill="white" stroke="#494E4D" stroke-linecap="round" stroke-linejoin="round"/>
<path d="M58.8115 32.1576L57.2941 28.5518" stroke="black" stroke-linecap="round" stroke-linejoin="round"/>
<path d="M57.1038 27.8893C57.1038 27.8893 56.6292 26.8437 57.01 26.3691" stroke="black" stroke-linecap="round" stroke-linejoin="round"/>
<defs>
<linearGradient id="paint0_linear_1791_11018" x1="82.5" y1="0.000382849" x2="12.8333" y2="102.056" gradientUnits="userSpaceOnUse">
<stop stop-color="#FFF682"/>
<stop offset="1" stop-color="#9D963C"/>
</linearGradient>
</defs>
</svg>
