<svg width="21" height="20" viewBox="0 0 21 20" fill="none" xmlns="http://www.w3.org/2000/svg">
<path d="M12.4167 14.4167V9.375C12.8083 9.55 13.225 9.68333 13.6667 9.75833V14.4167C13.6667 16.95 11.6167 19 9.08333 19C6.55 19 4.5 16.95 4.5 14.4167L4.5 5.66667C4.5 3.825 5.99167 2.33333 7.83333 2.33333C8.59167 2.33333 9.28333 2.59167 9.84167 3.025C9.66667 3.475 9.55833 3.95833 9.525 4.45833C9.26953 4.09819 8.90604 3.82872 8.48718 3.68898C8.06833 3.54923 7.61586 3.54647 7.19532 3.68107C6.77479 3.81568 6.40802 4.08068 6.14817 4.43767C5.88831 4.79466 5.74885 5.22511 5.75 5.66667L5.75 14.4167C5.75 16.2583 7.24167 17.75 9.08333 17.75C10.925 17.75 12.4167 16.2583 12.4167 14.4167ZM9.91667 12.75C9.91667 13.2083 9.54167 13.5833 9.08333 13.5833C8.625 13.5833 8.25 13.2083 8.25 12.75V6.5H7L7 12.75C7 13.3025 7.21949 13.8324 7.61019 14.2231C8.0009 14.6138 8.5308 14.8333 9.08333 14.8333C9.63587 14.8333 10.1658 14.6138 10.5565 14.2231C10.9472 13.8324 11.1667 13.3025 11.1667 12.75V8.55C10.6309 8.07147 10.2046 7.48312 9.91667 6.825V12.75ZM13.6667 4H11.1667V5.66667H13.6667V8.16667H15.3333V5.66667H17.8333V4H15.3333V1.5H13.6667V4Z" fill="black"/>
</svg>
