<svg width="182" height="40" viewBox="0 0 182 40" fill="none" xmlns="http://www.w3.org/2000/svg">
<path d="M19.5 0.000289917H13.1665V40.0002H19.5V0.000289917Z" fill="black"/>
<path d="M6.8335 0.000289917H0.5V40.0002H6.8335V0.000289917Z" fill="black"/>
<path d="M19.4999 18.8235H0.5V21.1765H19.4999V18.8235Z" fill="black"/>
<path d="M19.4999 0.000289917H0.5V2.3533H19.4999V0.000289917Z" fill="black"/>
<path d="M31.3001 0.000289917H27.5V40.0002H31.3001V0.000289917Z" fill="black"/>
<path d="M38.9 0.000289917H35.0999V40.0002H38.9V0.000289917Z" fill="black"/>
<path d="M46.4999 0.000289917H42.6998V40.0002H46.4999V0.000289917Z" fill="black"/>
<path d="M46.5 0.000289917H27.5V2.3533H46.5V0.000289917Z" fill="black"/>
<path d="M60.8335 0.000289917H54.5V40.0002H60.8335V0.000289917Z" fill="black"/>
<path d="M73.5 0.000289917H67.1665V40.0002H73.5V0.000289917Z" fill="black"/>
<path d="M73.4999 18.8235H54.5V21.1765H73.4999V18.8235Z" fill="black"/>
<path d="M73.4999 0.000289917H54.5V2.3533H73.4999V0.000289917Z" fill="black"/>
<path d="M100.5 3.05176e-05H81.5V2.35304H100.5V3.05176e-05Z" fill="black"/>
<path d="M81.5 37.6475V39.9952V40.0004H100.5V37.6475H81.5Z" fill="black"/>
<path d="M94.1665 3.05176e-05L81.5 37.647V39.9999H87.8335L100.5 2.35304V3.05176e-05H94.1665Z" fill="black"/>
<path d="M127.5 0H108.5V2.35301H127.5V0Z" fill="black"/>
<path d="M127.5 37.6475H108.5V40.0005H127.5V37.6475Z" fill="black"/>
<path d="M121.166 0H114.833V39.9999H121.166V0Z" fill="black"/>
<path d="M141.833 0.000289917H135.5V40.0002H141.833V0.000289917Z" fill="black"/>
<path d="M154.5 0.000289917H148.167V40.0002H154.5V0.000289917Z" fill="black"/>
<path d="M135.5 0.000289917L148.167 40.0002H154.5L141.833 0.000289917H135.5Z" fill="black"/>
<path d="M181.5 0H162.5V2.35301H181.5V0Z" fill="black"/>
<path d="M166.3 0H162.5V39.9999H166.3V0Z" fill="black"/>
<path d="M181.5 37.6475H162.5V40.0005H181.5V37.6475Z" fill="black"/>
<path d="M181.5 4.70605H170.1V7.05906H181.5V4.70605Z" fill="black"/>
<path d="M181.5 4.70605H177.7V40.0002H181.5V4.70605Z" fill="black"/>
<path d="M173.9 4.70605H170.1V35.2943H173.9V4.70605Z" fill="black"/>
</svg>
