<svg width="200" height="109" viewBox="0 0 200 109" fill="none" xmlns="http://www.w3.org/2000/svg">
<g clip-path="url(#clip0_2181_6048)">
<path d="M19.355 0H12.9032V108.218H19.355V0Z" fill="black"/>
<path d="M6.45181 0H0V108.218H6.45181V0Z" fill="black"/>
<path d="M19.3548 50.9268H0V57.2927H19.3548V50.9268Z" fill="black"/>
<path d="M19.3548 0H0V6.36597H19.3548V0Z" fill="black"/>
<path d="M32.2584 0H25.8066V108.218H32.2584V0Z" fill="black"/>
<path d="M45.1614 0H38.7096V108.218H45.1614V0Z" fill="black"/>
<path d="M58.0645 0H51.6127V108.218H58.0645V0Z" fill="black"/>
<path d="M58.0649 0H25.8066V6.36597H58.0649V0Z" fill="black"/>
<path d="M70.9679 0H64.5161V108.218H70.9679V0Z" fill="black"/>
<path d="M83.8711 0H77.4193V108.218H83.8711V0Z" fill="black"/>
<path d="M83.8709 50.9268H64.5161V57.2927H83.8709V50.9268Z" fill="black"/>
<path d="M83.8709 0H64.5161V6.36597H83.8709V0Z" fill="black"/>
<path d="M135.484 0H116.129V6.36597H135.484V0Z" fill="black"/>
<path d="M135.484 101.853H116.129V108.219H135.484V101.853Z" fill="black"/>
<path d="M129.032 0H122.581V108.218H129.032V0Z" fill="black"/>
<path d="M148.387 0H141.935V108.218H148.387V0Z" fill="black"/>
<path d="M161.29 0H154.839V108.218H161.29V0Z" fill="black"/>
<path d="M200 0H167.742V6.36597H200V0Z" fill="black"/>
<path d="M174.193 0H167.742V108.218H174.193V0Z" fill="black"/>
<path d="M200 101.853H167.742V108.219H200V101.853Z" fill="black"/>
<path d="M200 12.7314H180.645V19.0974H200V12.7314Z" fill="black"/>
<path d="M200 12.7314H193.548V108.218H200V12.7314Z" fill="black"/>
<path d="M187.097 12.7314H180.645V95.4868H187.097V12.7314Z" fill="black"/>
<path d="M109.677 0H90.3225V6.36597H109.677V0Z" fill="black"/>
<path d="M90.3225 101.853V108.204V108.218H109.677V101.853H90.3225Z" fill="black"/>
<path d="M103.226 0L90.3225 101.852V108.218H96.7743L109.677 6.36596V0H103.226Z" fill="black"/>
<path d="M141.935 0L154.839 108.218H161.29L148.387 0H141.935Z" fill="black"/>
</g>
<defs>
<clipPath id="clip0_2181_6048">
<rect width="200" height="108.218" fill="white"/>
</clipPath>
</defs>
</svg>
