<svg width="20" height="20" viewBox="0 0 20 20" fill="none" xmlns="http://www.w3.org/2000/svg">
<path d="M17.5 10C17.5 10.9849 17.306 11.9602 16.9291 12.8701C16.5522 13.7801 15.9997 14.6069 15.3033 15.3033C14.6069 15.9997 13.7801 16.5522 12.8701 16.9291C11.9602 17.306 10.9849 17.5 10 17.5C9.01509 17.5 8.03982 17.306 7.12987 16.9291C6.21993 16.5522 5.39314 15.9997 4.6967 15.3033C4.00026 14.6069 3.44781 13.7801 3.0709 12.8701C2.69399 11.9602 2.5 10.9849 2.5 10C2.5 8.01088 3.29018 6.10322 4.6967 4.6967C6.10322 3.29018 8.01088 2.5 10 2.5C11.9891 2.5 13.8968 3.29018 15.3033 4.6967C16.7098 6.10322 17.5 8.01088 17.5 10Z" stroke="black" stroke-width="1.5" stroke-linecap="round" stroke-linejoin="round"/>
<path d="M6.66663 7.50033C6.66663 7.72134 6.75442 7.9333 6.9107 8.08958C7.06698 8.24586 7.27895 8.33366 7.49996 8.33366C7.72097 8.33366 7.93293 8.24586 8.08921 8.08958C8.2455 7.9333 8.33329 7.72134 8.33329 7.50033C8.33329 7.27931 8.2455 7.06735 8.08921 6.91107C7.93293 6.75479 7.72097 6.66699 7.49996 6.66699C7.27895 6.66699 7.06698 6.75479 6.9107 6.91107C6.75442 7.06735 6.66663 7.27931 6.66663 7.50033ZM11.6666 7.50033C11.6666 7.72134 11.7544 7.9333 11.9107 8.08958C12.067 8.24586 12.2789 8.33366 12.5 8.33366C12.721 8.33366 12.9329 8.24586 13.0892 8.08958C13.2455 7.9333 13.3333 7.72134 13.3333 7.50033C13.3333 7.27931 13.2455 7.06735 13.0892 6.91107C12.9329 6.75479 12.721 6.66699 12.5 6.66699C12.2789 6.66699 12.067 6.75479 11.9107 6.91107C11.7544 7.06735 11.6666 7.27931 11.6666 7.50033ZM11.6666 12.5003C11.6666 12.7213 11.7544 12.9333 11.9107 13.0896C12.067 13.2459 12.2789 13.3337 12.5 13.3337C12.721 13.3337 12.9329 13.2459 13.0892 13.0896C13.2455 12.9333 13.3333 12.7213 13.3333 12.5003C13.3333 12.2793 13.2455 12.0674 13.0892 11.9111C12.9329 11.7548 12.721 11.667 12.5 11.667C12.2789 11.667 12.067 11.7548 11.9107 11.9111C11.7544 12.0674 11.6666 12.2793 11.6666 12.5003ZM6.66663 12.5003C6.66663 12.7213 6.75442 12.9333 6.9107 13.0896C7.06698 13.2459 7.27895 13.3337 7.49996 13.3337C7.72097 13.3337 7.93293 13.2459 8.08921 13.0896C8.2455 12.9333 8.33329 12.7213 8.33329 12.5003C8.33329 12.2793 8.2455 12.0674 8.08921 11.9111C7.93293 11.7548 7.72097 11.667 7.49996 11.667C7.27895 11.667 7.06698 11.7548 6.9107 11.9111C6.75442 12.0674 6.66663 12.2793 6.66663 12.5003Z" stroke="black" stroke-width="1.5" stroke-linecap="round" stroke-linejoin="round"/>
</svg>
