<svg width="25" height="24" viewBox="0 0 25 24" fill="none" xmlns="http://www.w3.org/2000/svg">
<path d="M3.75 6L6.75 2H18.75L21.75 6M3.75 6V20C3.75 20.5304 3.96071 21.0391 4.33579 21.4142C4.71086 21.7893 5.21957 22 5.75 22H19.75C20.2804 22 20.7891 21.7893 21.1642 21.4142C21.5393 21.0391 21.75 20.5304 21.75 20V6M3.75 6H21.75" stroke="white" stroke-width="2" stroke-linecap="round" stroke-linejoin="round"/>
<path d="M16.75 10C16.75 11.0609 16.3286 12.0783 15.5784 12.8284C14.8283 13.5786 13.8109 14 12.75 14C11.6891 14 10.6717 13.5786 9.92157 12.8284C9.17143 12.0783 8.75 11.0609 8.75 10" stroke="white" stroke-width="2" stroke-linecap="round" stroke-linejoin="round"/>
</svg>
