<svg width="21" height="20" viewBox="0 0 21 20" fill="none" xmlns="http://www.w3.org/2000/svg">
<path d="M6.58337 18.3334C6.12504 18.3334 5.73282 18.1704 5.40671 17.8442C5.0806 17.5181 4.91726 17.1256 4.91671 16.6667C4.91615 16.2079 5.07948 15.8156 5.40671 15.4901C5.73393 15.1645 6.12615 15.0012 6.58337 15.0001C7.0406 14.999 7.4331 15.1623 7.76087 15.4901C8.08865 15.8179 8.25171 16.2101 8.25004 16.6667C8.24837 17.1234 8.08532 17.5159 7.76087 17.8442C7.43643 18.1726 7.04393 18.3356 6.58337 18.3334ZM14.9167 18.3334C14.4584 18.3334 14.0662 18.1704 13.74 17.8442C13.4139 17.5181 13.2506 17.1256 13.25 16.6667C13.2495 16.2079 13.4128 15.8156 13.74 15.4901C14.0673 15.1645 14.4595 15.0012 14.9167 15.0001C15.3739 14.999 15.7664 15.1623 16.0942 15.4901C16.422 15.8179 16.585 16.2101 16.5834 16.6667C16.5817 17.1234 16.4187 17.5159 16.0942 17.8442C15.7698 18.1726 15.3773 18.3356 14.9167 18.3334ZM5.87504 5.00008L7.87504 9.16675H13.7084L16 5.00008H5.87504ZM5.08337 3.33341H17.375C17.6945 3.33341 17.9375 3.47591 18.1042 3.76091C18.2709 4.04591 18.2778 4.33397 18.125 4.62508L15.1667 9.95841C15.0139 10.2362 14.8092 10.4515 14.5525 10.6042C14.2959 10.757 14.0145 10.8334 13.7084 10.8334H7.50004L6.58337 12.5001H16.5834V14.1667H6.58337C5.95837 14.1667 5.48615 13.8926 5.16671 13.3442C4.84726 12.7959 4.83337 12.2506 5.12504 11.7084L6.25004 9.66675L3.25004 3.33341H1.58337V1.66675H4.29171L5.08337 3.33341Z" fill="black" fill-opacity="0.8"/>
</svg>
