<svg width="20" height="21" viewBox="0 0 20 21" fill="none" xmlns="http://www.w3.org/2000/svg">
<path d="M2.5 5.5V15.5H11.1C10.9232 14.9621 10.8332 14.3995 10.8333 13.8333H5.83333C5.83333 13.3913 5.65774 12.9674 5.34518 12.6548C5.03262 12.3423 4.60869 12.1667 4.16667 12.1667V8.83333C5.09167 8.83333 5.83333 8.09167 5.83333 7.16667H14.1667C14.1667 7.60869 14.3423 8.03262 14.6548 8.34518C14.9674 8.65774 15.3913 8.83333 15.8333 8.83333V8.88333C16.3917 8.88333 16.95 8.98333 17.5 9.16667V5.5H2.5ZM10 8C8.58333 8.025 7.5 9.08333 7.5 10.5C7.5 11.9167 8.58333 12.95 10 13C10.3167 13 10.6417 12.9333 10.95 12.8083C11.175 11.8917 11.55 11.025 12.475 10.175C12.375 9.06667 11.325 7.975 10 8ZM18.025 10.725L14.8 13.975L13.675 12.8333L12.5 14.0167L14.7917 16.3333L19.1917 11.9L18.025 10.725Z" fill="black" fill-opacity="0.75"/>
</svg>
