<svg width="25" height="25" viewBox="0 0 25 25" fill="none" xmlns="http://www.w3.org/2000/svg">
<path d="M9.83805 16.4904C11.1528 16.416 12.4065 15.9111 13.4058 15.0537C14.4052 14.1962 15.0948 13.0338 15.3682 11.7457C15.6416 10.4576 15.4836 9.1153 14.9187 7.92584C14.3537 6.73638 13.4131 5.7658 12.242 5.16378C11.0709 4.56175 9.73422 4.36172 8.43816 4.59452C7.14209 4.82732 5.9586 5.48003 5.07019 6.45199C4.18178 7.42395 3.63779 8.66118 3.52211 9.9729C3.40642 11.2846 3.72547 12.598 4.43005 13.7104L4.00605 14.9824V14.9844C3.84305 15.4714 3.76205 15.7144 3.81905 15.8774C3.86905 16.0184 3.98205 16.1304 4.12305 16.1804C4.28505 16.2384 4.52705 16.1574 5.01105 15.9964L5.01805 15.9944L6.29005 15.5704C7.34699 16.2415 8.58818 16.5634 9.83805 16.4904ZM9.83805 16.4904C10.1377 17.3417 10.6254 18.1145 11.2649 18.7513C11.9044 19.388 12.6793 19.8724 13.5318 20.1684C14.3844 20.4644 15.2927 20.5643 16.1892 20.4608C17.0858 20.3573 17.9474 20.0529 18.7101 19.5704L19.9821 19.9944H19.9851C20.4721 20.1574 20.7151 20.2384 20.8781 20.1804C20.9477 20.1554 21.0109 20.1152 21.0631 20.0628C21.1153 20.0104 21.1553 19.9471 21.1801 19.8774C21.2381 19.7154 21.1571 19.4714 20.9941 18.9824L20.5701 17.7104L20.7121 17.4754C21.2331 16.5628 21.5054 15.5293 21.5015 14.4784C21.4977 13.4275 21.2179 12.3961 20.6901 11.4873C20.1624 10.5785 19.4052 9.82429 18.4943 9.3001C17.5835 8.77592 16.551 8.50015 15.5001 8.50041L15.2751 8.50441L15.1621 8.51042" stroke="white" stroke-width="1.5" stroke-linecap="round" stroke-linejoin="round"/>
</svg>
