<svg width="26" height="20" viewBox="0 0 26 20" fill="none" xmlns="http://www.w3.org/2000/svg">
<g clip-path="url(#clip0_1796_13381)">
<path d="M11.75 1.875C11.75 0.839844 12.5898 0 13.625 0H17.375C18.4102 0 19.25 0.839844 19.25 1.875V7.5H20.8125V4.6875C20.8125 4.16797 21.2305 3.75 21.75 3.75C22.2695 3.75 22.6875 4.16797 22.6875 4.6875V7.5H23.625C24.6602 7.5 25.5 8.33984 25.5 9.375V18.125C25.5 19.1602 24.6602 20 23.625 20H13.625C12.5898 20 11.75 19.1602 11.75 18.125V1.875ZM14.25 3.125V4.375C14.25 4.71875 14.5312 5 14.875 5H16.125C16.4688 5 16.75 4.71875 16.75 4.375V3.125C16.75 2.78125 16.4688 2.5 16.125 2.5H14.875C14.5312 2.5 14.25 2.78125 14.25 3.125ZM14.875 6.25C14.5312 6.25 14.25 6.53125 14.25 6.875V8.125C14.25 8.46875 14.5312 8.75 14.875 8.75H16.125C16.4688 8.75 16.75 8.46875 16.75 8.125V6.875C16.75 6.53125 16.4688 6.25 16.125 6.25H14.875ZM14.25 10.625V11.875C14.25 12.2188 14.5312 12.5 14.875 12.5H16.125C16.4688 12.5 16.75 12.2188 16.75 11.875V10.625C16.75 10.2812 16.4688 10 16.125 10H14.875C14.5312 10 14.25 10.2812 14.25 10.625ZM21.125 10C20.7812 10 20.5 10.2812 20.5 10.625V11.875C20.5 12.2188 20.7812 12.5 21.125 12.5H22.375C22.7188 12.5 23 12.2188 23 11.875V10.625C23 10.2812 22.7188 10 22.375 10H21.125ZM20.5 14.375V15.625C20.5 15.9688 20.7812 16.25 21.125 16.25H22.375C22.7188 16.25 23 15.9688 23 15.625V14.375C23 14.0312 22.7188 13.75 22.375 13.75H21.125C20.7812 13.75 20.5 14.0312 20.5 14.375ZM9.25 6.25C9.25 6.48438 9.21094 6.67969 9.17188 6.875C9.95312 7.42188 10.5 8.35938 10.5 9.375C10.5 11.1328 9.09375 12.5 7.375 12.5H6.75V18.75C6.75 19.4531 6.16406 20 5.5 20C4.79688 20 4.25 19.4531 4.25 18.75V12.5H3.625C1.86719 12.5 0.5 11.1328 0.5 9.375C0.5 8.35938 1.00781 7.42188 1.78906 6.875C1.75 6.67969 1.75 6.48438 1.75 6.25C1.75 4.17969 3.39062 2.5 5.5 2.5C7.57031 2.5 9.25 4.17969 9.25 6.25Z" fill="black"/>
</g>
<defs>
<clipPath id="clip0_1796_13381">
<rect width="25" height="20" fill="white" transform="translate(0.5)"/>
</clipPath>
</defs>
</svg>
