<svg width="21" height="20" viewBox="0 0 21 20" fill="none" xmlns="http://www.w3.org/2000/svg">
<path d="M5.70703 1.30518L3.54258 1.8458L1.85156 5.79307L3.15195 6.66025L4.22461 4.51572L4.89062 4.70713L4.30195 10.5704H10.0781L10.4375 7.13682L10.4727 6.82041H10.6484L10.4375 4.70713L11.1055 4.51572L12.1758 6.66025L13.4766 5.79307L11.7852 1.8458L9.62109 1.30518C9.40625 1.45635 9.14453 1.54775 8.85937 1.61572C8.49219 1.70205 8.07812 1.74229 7.66406 1.74229C7.25 1.74229 6.83594 1.70205 6.46875 1.61572C6.18359 1.54775 5.92188 1.45674 5.70703 1.30518ZM11.1055 7.52354L11.0469 8.07041H18.0312L17.9727 7.52354H11.1055ZM10.9727 8.77354L9.92969 18.6954H12.3789L14.1953 10.2228H14.8828L16.6992 18.6954H19.1484L18.1055 8.77354H10.9727Z" fill="black" fill-opacity="0.8"/>
</svg>
