<svg width="22" height="20" viewBox="0 0 22 20" fill="none" xmlns="http://www.w3.org/2000/svg">
<path d="M10.375 15V16.25H5.6875C3.0625 16.25 1 14.125 1 11.5625C1 9.3125 2.625 7.375 4.8125 6.9375C4.8125 6.9375 5.1875 6.875 5.375 6.875H5.5L4.5 5.875L5.375 5L7.875 7.5L5.375 10L4.5 9.125L5.5 8.125H5.375C3.875 8.25 2.5 9.5625 2.3125 11.0625C2 13.1875 3.625 15 5.6875 15H10.375ZM12.25 15C11.9375 15 11.625 15.3125 11.625 15.625C11.625 15.9375 11.9375 16.25 12.25 16.25C12.5625 16.25 12.875 15.9375 12.875 15.625C12.875 15.3125 12.5625 15 12.25 15ZM17.1875 6.9375L17.125 6.875C16.625 4.375 14.6875 2.4375 12.1875 2C11.8125 1.875 11.375 1.875 11 1.875C9.1875 1.875 7.5 2.6875 6.375 3.9375L7.3125 4.875C8.0625 4 9.125 3.3125 10.375 3.1875C11 3.125 11.5625 3.125 12.1875 3.25C14.1875 3.6875 15.625 5.375 16 7.3125L16.125 7.9375C16.125 7.97917 16.1458 8 16.1875 8L16.875 8.125C17.625 8.25 18.3125 8.5625 18.8125 9.0625C19.625 9.875 20 11 19.75 12.125C19.4375 13.6875 18.1875 14.8125 16.625 14.9375L17.5625 13.9375L16.625 13.125L14.125 15.625L16.625 18.125L17.5 17.25L16.5 16.25C18.6875 16.125 20.5 14.5625 20.9375 12.4375C21 12.125 21 11.875 21 11.625C21 9.3125 19.4375 7.375 17.1875 6.9375Z" fill="black" stroke="black" stroke-width="0.5"/>
</svg>
