<svg width="18" height="16" viewBox="0 0 18 16" fill="none" xmlns="http://www.w3.org/2000/svg">
<path d="M8.5 12V13H4.75C2.65 13 1 11.3 1 9.25C1 7.45 2.3 5.9 4.05 5.55C4.05 5.55 4.35 5.5 4.5 5.5H4.6L3.8 4.7L4.5 4L6.5 6L4.5 8L3.8 7.3L4.6 6.5H4.5C3.3 6.6 2.2 7.65 2.05 8.85C1.8 10.55 3.1 12 4.75 12H8.5ZM10 12C9.75 12 9.5 12.25 9.5 12.5C9.5 12.75 9.75 13 10 13C10.25 13 10.5 12.75 10.5 12.5C10.5 12.25 10.25 12 10 12ZM13.95 5.55L13.9 5.5C13.5 3.5 11.95 1.95 9.95 1.6C9.65 1.5 9.3 1.5 9 1.5C7.55 1.5 6.2 2.15 5.3 3.15L6.05 3.9C6.65 3.2 7.5 2.65 8.5 2.55C9 2.5 9.45 2.5 9.95 2.6C11.55 2.95 12.7 4.3 13 5.85L13.1 6.35C13.1 6.38333 13.1167 6.4 13.15 6.4L13.7 6.5C14.3 6.6 14.85 6.85 15.25 7.25C15.9 7.9 16.2 8.8 16 9.7C15.75 10.95 14.75 11.85 13.5 11.95L14.25 11.15L13.5 10.5L11.5 12.5L13.5 14.5L14.2 13.8L13.4 13C15.15 12.9 16.6 11.65 16.95 9.95C17 9.7 17 9.5 17 9.3C17 7.45 15.75 5.9 13.95 5.55Z" fill="white" stroke="white" stroke-width="0.5"/>
</svg>
