<svg width="22" height="22" viewBox="0 0 22 22" fill="none" xmlns="http://www.w3.org/2000/svg">
<path d="M1.83337 10.083L4.40646 7.18909C4.75046 6.80197 5.17257 6.49211 5.64498 6.27992C6.1174 6.06772 6.62941 5.95801 7.14729 5.95801H7.33337M1.83337 17.8747H6.87504L10.5417 15.1247C10.5417 15.1247 11.2842 14.6233 12.375 13.7497C14.6667 11.9163 12.375 9.01417 10.0834 10.5413C8.21704 11.7853 6.41671 12.833 6.41671 12.833" stroke="black" stroke-width="1.5" stroke-linecap="round" stroke-linejoin="round"/>
<path d="M7.33337 12.3747V6.41634C7.33337 5.93011 7.52653 5.4638 7.87035 5.11998C8.21416 4.77616 8.68048 4.58301 9.16671 4.58301H18.3334C18.8196 4.58301 19.2859 4.77616 19.6297 5.11998C19.9736 5.4638 20.1667 5.93011 20.1667 6.41634V11.9163C20.1667 12.4026 19.9736 12.8689 19.6297 13.2127C19.2859 13.5565 18.8196 13.7497 18.3334 13.7497H12.375" stroke="black" stroke-width="1.5"/>
<path d="M17.875 9.17551L17.8842 9.16542M9.625 9.17551L9.63417 9.16542M13.75 10.9997C13.2638 10.9997 12.7975 10.8065 12.4536 10.4627C12.1098 10.1189 11.9167 9.65257 11.9167 9.16634C11.9167 8.68011 12.1098 8.2138 12.4536 7.86998C12.7975 7.52616 13.2638 7.33301 13.75 7.33301C14.2362 7.33301 14.7025 7.52616 15.0464 7.86998C15.3902 8.2138 15.5833 8.68011 15.5833 9.16634C15.5833 9.65257 15.3902 10.1189 15.0464 10.4627C14.7025 10.8065 14.2362 10.9997 13.75 10.9997Z" stroke="black" stroke-width="1.5" stroke-linecap="round" stroke-linejoin="round"/>
</svg>
