<svg width="22" height="22" viewBox="0 0 22 22" fill="none" xmlns="http://www.w3.org/2000/svg">
<g clip-path="url(#clip0_1059_1670)">
<path d="M11 0C12.0098 0 12.9837 0.128906 13.9219 0.386719C14.86 0.644531 15.7337 1.01693 16.543 1.50391C17.3522 1.99089 18.0934 2.5638 18.7666 3.22266C19.4398 3.88151 20.0163 4.62272 20.4961 5.44629C20.9759 6.26986 21.3447 7.14714 21.6025 8.07812C21.8604 9.00911 21.9928 9.98307 22 11C22 12.0098 21.8711 12.9837 21.6133 13.9219C21.3555 14.86 20.9831 15.7337 20.4961 16.543C20.0091 17.3522 19.4362 18.0934 18.7773 18.7666C18.1185 19.4398 17.3773 20.0163 16.5537 20.4961C15.7301 20.9759 14.8529 21.3447 13.9219 21.6025C12.9909 21.8604 12.0169 21.9928 11 22C10.6204 22 10.266 21.9284 9.93652 21.7852C9.6071 21.6419 9.31348 21.445 9.05566 21.1943C8.79785 20.9437 8.60091 20.6536 8.46484 20.3242C8.32878 19.9948 8.25716 19.6367 8.25 19.25C8.25 18.8704 8.29655 18.5016 8.38965 18.1436C8.48275 17.7855 8.63314 17.4417 8.84082 17.1123C8.88379 17.0335 8.92318 16.9727 8.95898 16.9297C8.99479 16.8867 9.03776 16.8294 9.08789 16.7578C9.26693 16.4785 9.39941 16.2243 9.48535 15.9951C9.57129 15.766 9.61784 15.4759 9.625 15.125C9.625 14.7454 9.55339 14.391 9.41016 14.0615C9.26693 13.7321 9.06999 13.4385 8.81934 13.1807C8.56868 12.9229 8.27865 12.7259 7.94922 12.5898C7.61979 12.4538 7.26172 12.3822 6.875 12.375C6.53125 12.375 6.24479 12.418 6.01562 12.5039C5.78646 12.5898 5.52865 12.7259 5.24219 12.9121C5.17057 12.9622 5.11328 13.0052 5.07031 13.041C5.02734 13.0768 4.96647 13.1162 4.8877 13.1592C4.56543 13.3597 4.22526 13.5065 3.86719 13.5996C3.50911 13.6927 3.13672 13.7428 2.75 13.75C2.37044 13.75 2.01595 13.6784 1.68652 13.5352C1.3571 13.3919 1.06348 13.195 0.805664 12.9443C0.547852 12.6937 0.350911 12.4036 0.214844 12.0742C0.078776 11.7448 0.00716146 11.3867 0 11C0 9.99023 0.128906 9.01628 0.386719 8.07812C0.644531 7.13997 1.01693 6.26628 1.50391 5.45703C1.99089 4.64779 2.5638 3.90658 3.22266 3.2334C3.88151 2.56022 4.62272 1.98372 5.44629 1.50391C6.26986 1.02409 7.14714 0.655273 8.07812 0.397461C9.00911 0.139648 9.98307 0.00716146 11 0ZM15.125 5.15625C14.8887 5.15625 14.6667 5.19922 14.459 5.28516C14.2513 5.37109 14.0687 5.49642 13.9111 5.66113C13.7536 5.82585 13.6318 6.00846 13.5459 6.20898C13.46 6.40951 13.4134 6.63151 13.4062 6.875C13.4062 7.11133 13.4492 7.33333 13.5352 7.54102C13.6211 7.7487 13.7464 7.93131 13.9111 8.08887C14.0758 8.24642 14.2585 8.36816 14.459 8.4541C14.6595 8.54004 14.8815 8.58659 15.125 8.59375C15.3613 8.59375 15.5833 8.55078 15.791 8.46484C15.9987 8.37891 16.1813 8.25358 16.3389 8.08887C16.4964 7.92415 16.6182 7.74154 16.7041 7.54102C16.79 7.34049 16.8366 7.11849 16.8438 6.875C16.8438 6.63867 16.8008 6.41667 16.7148 6.20898C16.6289 6.0013 16.5036 5.81869 16.3389 5.66113C16.1742 5.50358 15.9915 5.38184 15.791 5.2959C15.5905 5.20996 15.3685 5.16341 15.125 5.15625ZM5.5 9.96875C5.73633 9.96875 5.95833 9.92578 6.16602 9.83984C6.3737 9.75391 6.55631 9.62858 6.71387 9.46387C6.87142 9.29915 6.99316 9.11654 7.0791 8.91602C7.16504 8.7155 7.21159 8.49349 7.21875 8.25C7.21875 8.01367 7.17578 7.79167 7.08984 7.58398C7.00391 7.3763 6.87858 7.19369 6.71387 7.03613C6.54915 6.87858 6.36654 6.75684 6.16602 6.6709C5.96549 6.58496 5.74349 6.53841 5.5 6.53125C5.26367 6.53125 5.04167 6.57422 4.83398 6.66016C4.6263 6.74609 4.44369 6.87142 4.28613 7.03613C4.12858 7.20085 4.00684 7.38346 3.9209 7.58398C3.83496 7.78451 3.78841 8.00651 3.78125 8.25C3.78125 8.48633 3.82422 8.70833 3.91016 8.91602C3.99609 9.1237 4.12142 9.30632 4.28613 9.46387C4.45085 9.62142 4.63346 9.74316 4.83398 9.8291C5.03451 9.91504 5.25651 9.96159 5.5 9.96875ZM9.625 7.21875C9.86133 7.21875 10.0833 7.17578 10.291 7.08984C10.4987 7.00391 10.6813 6.87858 10.8389 6.71387C10.9964 6.54915 11.1182 6.36654 11.2041 6.16602C11.29 5.96549 11.3366 5.74349 11.3438 5.5C11.3438 5.26367 11.3008 5.04167 11.2148 4.83398C11.1289 4.6263 11.0036 4.44369 10.8389 4.28613C10.6742 4.12858 10.4915 4.00684 10.291 3.9209C10.0905 3.83496 9.86849 3.78841 9.625 3.78125C9.38867 3.78125 9.16667 3.82422 8.95898 3.91016C8.7513 3.99609 8.56868 4.12142 8.41113 4.28613C8.25358 4.45085 8.13184 4.63346 8.0459 4.83398C7.95996 5.03451 7.91341 5.25651 7.90625 5.5C7.90625 5.73633 7.94922 5.95833 8.03516 6.16602C8.12109 6.3737 8.24642 6.55631 8.41113 6.71387C8.57585 6.87142 8.75846 6.99316 8.95898 7.0791C9.1595 7.16504 9.38151 7.21159 9.625 7.21875ZM13.75 18.2188C13.9863 18.2188 14.2083 18.1758 14.416 18.0898C14.6237 18.0039 14.8063 17.8786 14.9639 17.7139C15.1214 17.5492 15.2432 17.3665 15.3291 17.166C15.415 16.9655 15.4616 16.7435 15.4688 16.5C15.4688 16.2637 15.4258 16.0417 15.3398 15.834C15.2539 15.6263 15.1286 15.4437 14.9639 15.2861C14.7992 15.1286 14.6165 15.0068 14.416 14.9209C14.2155 14.835 13.9935 14.7884 13.75 14.7812C13.5137 14.7812 13.2917 14.8242 13.084 14.9102C12.8763 14.9961 12.6937 15.1214 12.5361 15.2861C12.3786 15.4508 12.2568 15.6335 12.1709 15.834C12.085 16.0345 12.0384 16.2565 12.0312 16.5C12.0312 16.7363 12.0742 16.9583 12.1602 17.166C12.2461 17.3737 12.3714 17.5563 12.5361 17.7139C12.7008 17.8714 12.8835 17.9932 13.084 18.0791C13.2845 18.165 13.5065 18.2116 13.75 18.2188ZM16.5 14.0938C16.7363 14.0938 16.9583 14.0508 17.166 13.9648C17.3737 13.8789 17.5563 13.7536 17.7139 13.5889C17.8714 13.4242 17.9932 13.2415 18.0791 13.041C18.165 12.8405 18.2116 12.6185 18.2188 12.375C18.2188 12.1387 18.1758 11.9167 18.0898 11.709C18.0039 11.5013 17.8786 11.3187 17.7139 11.1611C17.5492 11.0036 17.3665 10.8818 17.166 10.7959C16.9655 10.71 16.7435 10.6634 16.5 10.6562C16.2637 10.6562 16.0417 10.6992 15.834 10.7852C15.6263 10.8711 15.4437 10.9964 15.2861 11.1611C15.1286 11.3258 15.0068 11.5085 14.9209 11.709C14.835 11.9095 14.7884 12.1315 14.7812 12.375C14.7812 12.6113 14.8242 12.8333 14.9102 13.041C14.9961 13.2487 15.1214 13.4313 15.2861 13.5889C15.4508 13.7464 15.6335 13.8682 15.834 13.9541C16.0345 14.04 16.2565 14.0866 16.5 14.0938Z" fill="url(#paint0_linear_1059_1670)"/>
</g>
<defs>
<linearGradient id="paint0_linear_1059_1670" x1="11" y1="0" x2="11" y2="22" gradientUnits="userSpaceOnUse">
<stop stop-color="#F9EC2A"/>
<stop offset="1" stop-color="#706A0E"/>
</linearGradient>
<clipPath id="clip0_1059_1670">
<rect width="22" height="22" fill="white"/>
</clipPath>
</defs>
</svg>
