<svg width="112" height="121" viewBox="0 0 112 121" fill="none" xmlns="http://www.w3.org/2000/svg">
<path d="M93.8491 65.5037L74.4664 58.1748C74.148 58.0544 73.8564 57.8725 73.6084 57.6393C73.3603 57.4061 73.1607 57.1264 73.0208 56.816C72.881 56.5056 72.8037 56.1707 72.7934 55.8304C72.783 55.4902 72.8399 55.1512 72.9607 54.8329L83.1037 28.0068C83.3469 27.3637 83.8357 26.8435 84.4624 26.5606C85.0891 26.2778 85.8024 26.2554 86.4456 26.4984L98.7394 31.1462L104.544 44.5513L97.191 64.0059C96.9457 64.6471 96.4561 65.1648 95.8296 65.4456C95.2032 65.7264 94.4909 65.7472 93.8491 65.5037Z" fill="#F5F5F5"/>
<path d="M98.7394 31.1465L95.8825 38.6965C95.7702 38.9927 95.7175 39.3082 95.7272 39.6248C95.7369 39.9415 95.8089 40.2531 95.9391 40.5419C96.0693 40.8307 96.2551 41.0911 96.4859 41.308C96.7167 41.525 96.988 41.6944 97.2843 41.8066L104.544 44.5515L98.7394 31.1465Z" fill="#EBEBEB"/>
<path d="M95.7306 39.3975C95.7306 39.3975 94.9444 41.1937 96.7966 42.5955C96.8665 42.6477 96.9395 42.6958 97.0151 42.7394C97.8999 43.2724 103.72 46.7369 103.774 46.5957L104.541 44.5649L97.2816 41.82C97.2816 41.82 95.4961 41.0604 95.7306 39.3975Z" fill="#E0E0E0"/>
<path d="M94.3741 37.7746C94.3368 37.8732 92.3007 37.1909 89.8249 36.2555C87.3491 35.3201 85.3716 34.4806 85.4089 34.39C85.4462 34.2994 87.4823 34.9736 89.9581 35.9091C92.4339 36.8445 94.4114 37.6706 94.3741 37.7746Z" fill="#E0E0E0"/>
<path d="M98.5502 44.2346C98.5129 44.3305 95.1816 43.1685 91.1068 41.6202C87.032 40.0718 83.7566 38.7499 83.794 38.6513C83.8313 38.5527 87.1625 39.7173 91.24 41.2684C95.3175 42.8194 98.5795 44.1359 98.5502 44.2346Z" fill="#E0E0E0"/>
<path d="M98.5315 48.3002C98.4942 48.3962 94.8644 47.1143 90.4218 45.4327C85.9792 43.751 82.4081 42.3119 82.4454 42.216C82.4827 42.12 86.1125 43.4019 90.5551 45.0836C94.9977 46.7652 98.5794 48.2016 98.5315 48.3002Z" fill="#E0E0E0"/>
<path d="M97.2603 51.6635C97.223 51.7594 93.5932 50.4776 89.1506 48.7959C84.7081 47.1143 81.1369 45.6645 81.1742 45.5792C81.2116 45.494 84.8413 46.7652 89.2839 48.4441C93.7265 50.1231 97.2976 51.5649 97.2603 51.6635Z" fill="#E0E0E0"/>
<path d="M95.9891 55.0268C95.9518 55.1227 92.3194 53.8409 87.8794 52.1592C83.4395 50.4776 79.8657 49.0385 79.9004 48.9426C79.935 48.8466 83.5674 50.1285 88.0127 51.8074C92.4579 53.4864 96.0237 54.9282 95.9891 55.0268Z" fill="#E0E0E0"/>
<path d="M94.7152 58.3901C94.6805 58.486 91.0481 57.2015 86.6082 55.5225C82.1683 53.8436 78.5918 52.4018 78.6291 52.3058C78.6664 52.2099 82.2962 53.4918 86.7388 55.1707C91.1814 56.8497 94.7525 58.2915 94.7152 58.3901Z" fill="#E0E0E0"/>
<path d="M29.2267 37.6536L3.67434 46.6019C2.79085 46.9113 2.32546 47.8783 2.63485 48.7618L15.4553 85.3712C15.7647 86.2547 16.7317 86.7201 17.6152 86.4107L43.1676 77.4624C44.0511 77.153 44.5165 76.186 44.2071 75.3025L31.3866 38.6931C31.0772 37.8096 30.1102 37.3442 29.2267 37.6536Z" fill="#EBEBEB"/>
<path d="M29.5544 39.9291L4.83704 48.585L17.5438 84.8699L42.2612 76.214L29.5544 39.9291Z" fill="#E0E0E0"/>
<path d="M29.112 39.7582L4.39468 48.4141L16.8593 84.0073L41.5766 75.3514L29.112 39.7582Z" fill="#FAFAFA"/>
<path d="M41.5721 75.3504L29.0758 39.7697L29.1211 39.7911L4.40839 48.4497L4.43238 48.4017C9.09083 61.7695 13.4268 74.1165 16.8887 83.9957L16.8487 83.9771L41.5747 75.3504L16.8674 84.041H16.838V84.0117C13.3735 74.1325 9.05086 61.7854 4.36575 48.4204V48.3831H4.4004L29.1158 39.7324H29.1504V39.7644L41.5721 75.3504Z" fill="#E0E0E0"/>
<path d="M32.8068 78.4211C32.8068 78.4211 38.3101 73.7787 39.2642 68.9443C38.7119 69.7107 38.0102 70.3572 37.2014 70.845C36.3925 71.3328 35.4932 71.6517 34.5577 71.7826C34.5577 71.7826 34.4485 76.8461 32.8068 78.4211Z" fill="#E0E0E0"/>
<path d="M12.8417 56.3459L11.5413 56.8013C11.0662 56.9677 10.8159 57.4877 10.9823 57.9628L11.4377 59.2631C11.6041 59.7382 12.1241 59.9885 12.5991 59.8221L13.8995 59.3667C14.3746 59.2004 14.6249 58.6803 14.4585 58.2053L14.0031 56.9049C13.8367 56.4298 13.3167 56.1795 12.8417 56.3459Z" fill="#EBEBEB"/>
<path d="M12.6833 58.5854C12.6742 58.5901 12.6642 58.5925 12.654 58.5925C12.6438 58.5925 12.6337 58.5901 12.6247 58.5854L12.0277 58.2389C12.0132 58.2279 12.0033 58.2119 11.9998 58.1941C11.9962 58.1763 11.9994 58.1577 12.0085 58.142C12.0177 58.1263 12.0323 58.1145 12.0495 58.1088C12.0668 58.1031 12.0856 58.1039 12.1023 58.111L12.6353 58.4148L13.2643 57.0823C13.2734 57.0646 13.2889 57.0509 13.3076 57.044C13.3264 57.0371 13.347 57.0374 13.3655 57.045C13.3746 57.0493 13.3826 57.0553 13.3893 57.0627C13.3959 57.0702 13.401 57.0789 13.4043 57.0883C13.4075 57.0978 13.4088 57.1078 13.4081 57.1177C13.4074 57.1277 13.4047 57.1374 13.4002 57.1463L12.7366 58.5641C12.7297 58.5712 12.7214 58.5768 12.7122 58.5805C12.7031 58.5842 12.6932 58.5858 12.6833 58.5854Z" fill="white"/>
<path d="M29.75 50.8352C29.75 50.8565 26.552 51.9998 22.5838 53.3883C18.6156 54.7768 15.3882 55.8854 15.3882 55.8667C15.3882 55.8481 18.5863 54.7021 22.5571 53.3137C26.528 51.9252 29.7447 50.8165 29.75 50.8352Z" fill="#E0E0E0"/>
<path d="M22.2134 55.957C22.2134 55.957 22.1308 55.9943 21.9815 56.053L21.3366 56.2928C20.8036 56.49 20.0361 56.7592 19.2046 57.0524C18.3731 57.3455 17.6056 57.6067 17.0726 57.7906L16.4196 58.0064C16.3406 58.0354 16.2595 58.0586 16.1771 58.0757C16.2516 58.0367 16.3292 58.0037 16.409 57.9771L17.0539 57.7399C17.5869 57.5401 18.3544 57.2709 19.1859 56.9777C20.0174 56.6846 20.7849 56.4261 21.3179 56.2395L21.9709 56.0237C22.0496 55.9945 22.1308 55.9722 22.2134 55.957Z" fill="#E0E0E0"/>
<path d="M30.0885 51.8167C30.0885 51.8354 26.8905 52.9787 22.9196 54.3671C18.9487 55.7556 15.724 56.8669 15.724 56.8456C15.724 56.8243 18.9221 55.6837 22.8956 54.2952C26.8691 52.9067 30.0885 51.7954 30.0885 51.8167Z" fill="#E0E0E0"/>
<path d="M14.698 61.6486L13.3976 62.104C12.9225 62.2704 12.6723 62.7904 12.8387 63.2655L13.294 64.5659C13.4604 65.0409 13.9804 65.2912 14.4555 65.1248L15.7559 64.6695C16.231 64.5031 16.4812 63.9831 16.3149 63.508L15.8595 62.2076C15.6931 61.7325 15.1731 61.4823 14.698 61.6486Z" fill="#EBEBEB"/>
<path d="M14.5408 63.8886C14.5312 63.8933 14.5207 63.8957 14.5101 63.8957C14.4995 63.8957 14.489 63.8933 14.4795 63.8886L13.8852 63.5421C13.8766 63.5374 13.869 63.531 13.8629 63.5233C13.8569 63.5156 13.8525 63.5067 13.85 63.4972C13.8475 63.4878 13.847 63.4779 13.8484 63.4682C13.8499 63.4585 13.8533 63.4492 13.8585 63.4409C13.8632 63.4322 13.8696 63.4247 13.8773 63.4186C13.8851 63.4126 13.8939 63.4082 13.9034 63.4057C13.9129 63.4032 13.9228 63.4026 13.9325 63.4041C13.9422 63.4056 13.9515 63.409 13.9598 63.4142L14.4928 63.718L15.1217 62.3722C15.1304 62.3546 15.1454 62.341 15.1637 62.3341C15.182 62.3272 15.2022 62.3275 15.2203 62.3349C15.2384 62.343 15.2524 62.358 15.2594 62.3765C15.2664 62.3949 15.2658 62.4155 15.2577 62.4335L14.5941 63.8539C14.5882 63.8632 14.5803 63.871 14.5711 63.877C14.562 63.883 14.5516 63.8869 14.5408 63.8886Z" fill="white"/>
<path d="M31.6076 56.1389C31.6076 56.1602 28.4096 57.3009 24.4387 58.692C20.4678 60.0831 17.2431 61.1891 17.2431 61.1705C17.2431 61.1518 20.4412 60.0058 24.412 58.6174C28.3829 57.2289 31.6023 56.1202 31.6076 56.1389Z" fill="#E0E0E0"/>
<path d="M24.0709 61.2617C24.0709 61.2617 23.9883 61.299 23.8364 61.3577L23.1941 61.5975C22.6611 61.7947 21.8936 62.0639 21.0621 62.357C20.2306 62.6502 19.4631 62.9114 18.9301 63.0952L18.2771 63.3111C18.1981 63.3401 18.117 63.3633 18.0346 63.3804C18.1088 63.3407 18.1864 63.3077 18.2665 63.2818L18.9114 63.0446C19.4444 62.8447 20.2119 62.5756 21.0434 62.2824C21.8749 61.9893 22.6424 61.7308 23.1754 61.5442L23.8284 61.3283C23.9071 61.2992 23.9883 61.2769 24.0709 61.2617Z" fill="#E0E0E0"/>
<path d="M31.954 57.1255C31.954 57.1441 28.756 58.2874 24.7851 59.6759C20.8142 61.0644 17.5896 62.1757 17.5896 62.1544C17.5896 62.133 20.7876 60.9924 24.7585 59.6039C28.7293 58.2155 31.954 57.0988 31.954 57.1255Z" fill="#E0E0E0"/>
<path d="M16.557 66.9514L15.2566 67.4068C14.7816 67.5731 14.5313 68.0931 14.6977 68.5682L15.1531 69.8686C15.3194 70.3437 15.8394 70.5939 16.3145 70.4276L17.6149 69.9722C18.09 69.8058 18.3402 69.2858 18.1739 68.8107L17.7185 67.5103C17.5521 67.0353 17.0321 66.785 16.557 66.9514Z" fill="#EBEBEB"/>
<path d="M16.3983 69.1918C16.3887 69.1965 16.3783 69.1989 16.3676 69.1989C16.357 69.1989 16.3465 69.1965 16.337 69.1918L15.74 68.8507C15.7303 68.8465 15.7216 68.8403 15.7144 68.8325C15.7072 68.8248 15.7018 68.8155 15.6985 68.8055C15.6952 68.7954 15.694 68.7848 15.6951 68.7743C15.6962 68.7638 15.6996 68.7536 15.7049 68.7445C15.7102 68.7353 15.7174 68.7274 15.7261 68.7213C15.7347 68.7152 15.7445 68.7109 15.7549 68.7089C15.7652 68.7068 15.7759 68.707 15.7862 68.7094C15.7966 68.7118 15.8062 68.7163 15.8146 68.7228L16.3476 69.0266L16.9766 67.6807C16.9803 67.6714 16.9859 67.6629 16.993 67.6557C17.0001 67.6486 17.0086 67.643 17.018 67.6392C17.0273 67.6354 17.0373 67.6336 17.0474 67.6338C17.0575 67.634 17.0674 67.6362 17.0766 67.6404C17.0857 67.6445 17.094 67.6505 17.1008 67.6579C17.1076 67.6653 17.1129 67.674 17.1162 67.6835C17.1196 67.693 17.121 67.7031 17.1204 67.7132C17.1197 67.7232 17.117 67.733 17.1125 67.742L16.4489 69.1625C16.4359 69.1778 16.418 69.1881 16.3983 69.1918Z" fill="white"/>
<path d="M33.4651 61.4416C33.4651 61.463 30.267 62.6036 26.2962 63.9947C22.3253 65.3859 19.1006 66.4919 19.1006 66.4705C19.1006 66.4492 22.2986 65.3086 26.2722 63.9201C30.2457 62.5316 33.4571 61.423 33.4651 61.4416Z" fill="#E0E0E0"/>
<path d="M25.9284 66.5615C25.8528 66.6001 25.7744 66.6331 25.6939 66.6601L25.049 66.9C24.516 67.0972 23.7511 67.3664 22.917 67.6595C22.0828 67.9527 21.3179 68.2112 20.7849 68.3977L20.132 68.6136C20.0528 68.6422 19.9718 68.6653 19.8895 68.6829C19.9637 68.6432 20.0413 68.6102 20.1214 68.5843L20.7663 68.3444C21.2993 68.1472 22.0668 67.878 22.8983 67.5849C23.7298 67.2917 24.4973 67.0332 25.0303 66.8467L25.6806 66.6308C25.7618 66.6031 25.8446 66.5799 25.9284 66.5615Z" fill="#E0E0E0"/>
<path d="M33.8195 62.4232C33.8195 62.4418 30.6215 63.5851 26.6506 64.9736C22.6798 66.3621 19.4551 67.4734 19.4551 67.452C19.4551 67.4307 22.6531 66.2901 26.624 64.899C30.5949 63.5078 33.8009 62.4018 33.8195 62.4232Z" fill="#E0E0E0"/>
<path d="M18.4133 72.2541L17.113 72.7095C16.6379 72.8759 16.3876 73.3959 16.554 73.871L17.0094 75.1713C17.1757 75.6464 17.6957 75.8967 18.1708 75.7303L19.4712 75.2749C19.9463 75.1085 20.1966 74.5885 20.0302 74.1135L19.5748 72.8131C19.4084 72.338 18.8884 72.0877 18.4133 72.2541Z" fill="#EBEBEB"/>
<path d="M18.2531 74.4952C18.2439 74.4992 18.2339 74.5012 18.2238 74.5012C18.2138 74.5012 18.2038 74.4992 18.1945 74.4952L17.5975 74.1487C17.5806 74.1385 17.5684 74.1219 17.5636 74.1027C17.5589 74.0834 17.562 74.0631 17.5722 74.0461C17.5825 74.0292 17.599 74.017 17.6183 74.0122C17.6375 74.0075 17.6579 74.0106 17.6748 74.0208L18.2078 74.3246L18.8368 72.9921C18.8449 72.9741 18.8599 72.9601 18.8784 72.9531C18.8969 72.9461 18.9174 72.9467 18.9354 72.9548C18.9529 72.9635 18.9665 72.9785 18.9735 72.9968C18.9804 73.0151 18.9801 73.0353 18.9727 73.0534L18.3064 74.4739C18.2921 74.4876 18.273 74.4952 18.2531 74.4952Z" fill="white"/>
<path d="M35.3226 66.7446C35.3226 66.7659 32.1246 67.9066 28.1537 69.295C24.1828 70.6835 20.9582 71.7948 20.9582 71.7735C20.9582 71.7522 24.1562 70.6115 28.1271 69.2231C32.0979 67.8346 35.3146 66.718 35.3226 66.7446Z" fill="#E0E0E0"/>
<path d="M27.7832 71.8652C27.709 71.9049 27.6314 71.9379 27.5514 71.9638L26.9065 72.2037C26.3735 72.4009 25.6059 72.6701 24.7744 72.9632C23.943 73.2564 23.1754 73.5149 22.6424 73.7014L21.9895 73.9173C21.8349 73.9653 21.747 73.9893 21.747 73.9866C21.8212 73.9469 21.8988 73.9139 21.9788 73.888L22.6238 73.6481C23.1568 73.4509 23.9243 73.1818 24.7558 72.8886C25.5873 72.5954 26.3548 72.3369 26.8878 72.1504L27.5407 71.9345C27.6199 71.9059 27.7009 71.8828 27.7832 71.8652Z" fill="#E0E0E0"/>
<path d="M35.6664 67.7269C35.6664 67.7455 32.4684 68.8888 28.4975 70.2773C24.5266 71.6658 21.3019 72.7744 21.3019 72.7558C21.3019 72.7371 24.5 71.5938 28.4708 70.2027C32.4417 68.8115 35.6584 67.7055 35.6664 67.7269Z" fill="#E0E0E0"/>
<path d="M7.19333 44.9454L7.84359 46.811C8.02546 47.3303 8.40607 47.7562 8.90179 47.9951C9.39751 48.2339 9.96778 48.2662 10.4873 48.0848L24.1588 43.2878C24.4159 43.1981 24.6527 43.0585 24.8557 42.8772C25.0588 42.6958 25.224 42.4762 25.3421 42.2309C25.4602 41.9856 25.5287 41.7194 25.5438 41.4476C25.5589 41.1758 25.5202 40.9036 25.4301 40.6468L24.7798 38.7812L7.19333 44.9454Z" fill="#E0E0E0"/>
<path d="M16.1691 42.4183C15.806 42.5461 15.413 42.5633 15.0401 42.4676C14.6672 42.372 14.331 42.1678 14.0741 41.881C13.8173 41.5942 13.6513 41.2376 13.5973 40.8564C13.5432 40.4752 13.6034 40.0866 13.7704 39.7396C13.9373 39.3927 14.2034 39.1031 14.535 38.9075C14.8666 38.7119 15.2488 38.6191 15.6332 38.6408C16.0176 38.6625 16.3869 38.7978 16.6944 39.0295C17.0018 39.2613 17.2336 39.579 17.3604 39.9425C17.53 40.4289 17.4998 40.9626 17.2765 41.4267C17.0532 41.8908 16.655 42.2474 16.1691 42.4183ZM15.1298 39.4522C14.9058 39.5304 14.71 39.6733 14.5673 39.8628C14.4245 40.0523 14.3411 40.2798 14.3277 40.5167C14.3143 40.7536 14.3715 40.9891 14.492 41.1935C14.6125 41.3979 14.7909 41.5619 15.0047 41.6649C15.2184 41.7678 15.4579 41.8051 15.6928 41.7719C15.9277 41.7387 16.1475 41.6366 16.3244 41.4785C16.5013 41.3203 16.6273 41.1133 16.6864 40.8835C16.7456 40.6538 16.7353 40.4116 16.6568 40.1877C16.5517 39.8878 16.3318 39.6419 16.0455 39.504C15.7592 39.366 15.4298 39.3474 15.1298 39.4522Z" fill="#E0E0E0"/>
<path d="M27.0957 47.2639C27.0957 47.2985 23.5032 48.5964 19.0447 50.1554C14.5861 51.7145 10.9617 52.9537 10.9483 52.9191C10.935 52.8844 14.5408 51.5865 18.9994 50.0275C23.4579 48.4685 27.0824 47.2186 27.0957 47.2639Z" fill="#E0E0E0"/>
<path d="M22.4772 47.9176C22.4772 47.9523 20.9048 48.5412 18.9354 49.2315C16.9659 49.9217 15.3589 50.4627 15.3456 50.4148C15.3323 50.3668 16.9206 49.7911 18.8901 49.1009C20.8595 48.4107 22.4665 47.883 22.4772 47.9176Z" fill="#E0E0E0"/>
<path d="M93.5159 101.919C94.4972 101.459 95.6004 101.325 96.6633 101.538C97.2336 101.632 97.8305 101.805 98.217 102.231C98.6034 102.658 98.6807 103.414 98.233 103.782C97.9439 103.979 97.5946 104.067 97.2469 104.03C96.4128 104.03 95.4907 103.873 94.8271 104.374C94.446 104.659 94.1955 105.133 93.7424 105.275C93.5144 105.328 93.2752 105.304 93.0619 105.208C92.8485 105.112 92.6728 104.948 92.5618 104.742C92.3464 104.325 92.2987 103.841 92.4286 103.39C92.4844 103.078 92.6116 102.783 92.8002 102.528C92.9888 102.273 93.2337 102.064 93.5159 101.919Z" fill="#31D3C6"/>
<path d="M91.3093 97.6868C91.8956 98.521 93.0335 98.2465 93.5612 97.7348C94.0889 97.2231 94.3101 96.4849 94.5126 95.7813C94.9763 94.169 95.4454 92.4794 95.1016 90.8377C95.016 90.3444 94.7976 89.8838 94.47 89.5052C94.3029 89.3174 94.0894 89.1767 93.8509 89.0972C93.6124 89.0177 93.3572 89.0021 93.1108 89.0522C92.5352 89.2041 92.1807 89.7664 91.9222 90.2994C91.1622 91.8796 90.7643 93.6095 90.7576 95.3629C90.7576 96.1784 90.8509 97.0312 91.3093 97.7055" fill="#31D3C6"/>
<path d="M89.7023 98.8865C90.0034 98.4935 90.204 98.0329 90.2866 97.5448C90.3693 97.0567 90.3316 96.5558 90.1766 96.0855C89.8545 95.1492 89.281 94.3194 88.519 93.687C87.6526 92.916 86.6441 92.3213 85.5502 91.9361C85.1275 91.7653 84.673 91.688 84.2177 91.7096C83.99 91.7225 83.769 91.7909 83.5738 91.9089C83.3787 92.0269 83.2155 92.1909 83.0983 92.3865C82.7839 92.9835 83.0984 93.7057 83.4075 94.2947C83.978 95.3344 84.6303 96.3272 85.3583 97.2635C85.9419 98.0177 86.6108 98.7612 87.5036 99.1024C88.3964 99.4435 89.3185 99.4008 89.7902 98.7852" fill="#31D3C6"/>
<path d="M91.2719 110.295C91.3012 110.171 91.3182 110.044 91.3226 109.917C91.3519 109.65 91.3839 109.293 91.4238 108.88C91.475 108.369 91.5533 107.861 91.6584 107.358C91.7938 106.746 91.9782 106.147 92.21 105.565C92.4376 104.983 92.7463 104.437 93.1268 103.942C93.4368 103.538 93.8328 103.208 94.2861 102.977C94.593 102.824 94.9223 102.722 95.2615 102.673C95.3891 102.669 95.516 102.651 95.6399 102.62C95.5115 102.606 95.3819 102.606 95.2535 102.62C94.902 102.648 94.5582 102.738 94.2381 102.886C93.7608 103.111 93.3421 103.443 93.0149 103.856C92.6189 104.359 92.2992 104.918 92.0661 105.514C91.8297 106.104 91.646 106.714 91.5171 107.337C91.419 107.846 91.3514 108.36 91.3146 108.877C91.2799 109.317 91.2693 109.677 91.2639 109.919C91.2518 110.044 91.2545 110.171 91.2719 110.295Z" fill="#263238"/>
<path d="M91.3413 109.498C91.3492 109.439 91.3492 109.38 91.3413 109.322V108.826C91.3413 108.389 91.3413 107.76 91.3626 106.961C91.4026 105.396 91.5358 103.715 91.797 101.343C92.0422 99.1123 92.3726 96.5165 92.7217 94.8296C92.7964 94.4458 92.871 94.0994 92.9429 93.7982C93.0149 93.4971 93.0682 93.2332 93.1242 93.0227C93.1801 92.8122 93.2094 92.6603 93.2414 92.5323C93.256 92.4745 93.2667 92.4157 93.2734 92.3564C93.2467 92.409 93.2261 92.4644 93.2121 92.5217C93.1721 92.6496 93.1242 92.8095 93.0655 93.0067C93.0069 93.2039 92.9323 93.4757 92.8577 93.7769C92.783 94.078 92.6951 94.4218 92.6125 94.8056C92.1853 96.8038 91.8642 98.8231 91.6504 100.855C91.3839 103.232 91.272 105.386 91.264 106.963C91.264 107.747 91.264 108.381 91.2906 108.829C91.2906 109.034 91.312 109.202 91.3199 109.333C91.3222 109.388 91.3293 109.443 91.3413 109.498Z" fill="#263238"/>
<path d="M91.3519 105.325C91.3668 105.148 91.3668 104.97 91.3519 104.792C91.3217 104.315 91.2674 103.839 91.1894 103.367C91.0751 102.665 90.9202 101.971 90.7256 101.288C90.5001 100.447 90.2097 99.6244 89.8568 98.8282C89.2538 97.3604 88.3897 96.0142 87.3064 94.8546C87.1176 94.6565 86.9164 94.4704 86.7041 94.2976C86.6135 94.2177 86.5309 94.1404 86.4376 94.0791L86.2058 93.9192C86.0661 93.8121 85.9171 93.7175 85.7607 93.6367C86.2724 94.0365 86.7576 94.4692 87.2132 94.9319C88.2638 96.0995 89.1058 97.4391 89.7023 98.8921C90.0478 99.6836 90.3398 100.497 90.5764 101.328C90.7769 102.005 90.9415 102.691 91.0694 103.385C91.1787 103.98 91.2427 104.451 91.28 104.798C91.291 104.975 91.315 105.152 91.3519 105.325Z" fill="#263238"/>
<path d="M87.3171 112.688L87.7355 118.418H95.0989L95.5147 112.688H87.3171Z" fill="#263238"/>
<path d="M96.3968 110.428H86.6082V112.688H96.3968V110.428Z" fill="#263238"/>
<path d="M86.6082 118.2V118.824H87.0665H96.2315V118.2H86.6082Z" fill="#455A64"/>
<path d="M87.5169 119.927L87.0666 118.823H95.8824L95.3548 119.927H87.5169Z" fill="#455A64"/>
<path d="M95.3814 114.559C95.3814 114.559 95.3814 114.581 95.3468 114.613L95.2375 114.759L94.8084 115.308L94.7898 115.332L94.7711 115.305L93.7184 113.85H93.7824L92.7431 115.319L92.7111 115.364L92.6738 115.321L91.4452 113.856H91.5145L91.4478 113.941L90.3472 115.319L90.3126 115.367L90.2779 115.319C89.9048 114.786 89.5557 114.295 89.2386 113.85H89.2998L88.0233 115.305L87.9993 115.332L87.9807 115.303C87.8128 115.02 87.6795 114.794 87.5809 114.631L87.4796 114.453C87.4662 114.433 87.4554 114.411 87.4477 114.389C87.4477 114.389 87.4637 114.405 87.4903 114.445L87.6049 114.618L88.0233 115.276H87.9833L89.2412 113.802L89.2732 113.765L89.3025 113.805L90.3499 115.268H90.2779L91.3839 113.89L91.4532 113.805L91.4878 113.76L91.5225 113.802L92.751 115.271H92.6818L93.7291 113.808L93.7584 113.765L93.7904 113.808C94.2035 114.402 94.5579 114.906 94.8218 115.281H94.7818L95.2295 114.748L95.3494 114.61L95.3814 114.559Z" fill="#E0E0E0"/>
<path d="M95.6186 112.649C95.6186 112.675 93.7744 112.697 91.4985 112.697C89.2226 112.697 87.3784 112.675 87.3784 112.649C87.3784 112.622 89.2226 112.604 91.4985 112.604C93.7744 112.604 95.6186 112.625 95.6186 112.649Z" fill="#455A64"/>
<path d="M95.9917 118.888C95.9917 118.912 93.985 118.933 91.5145 118.933C89.044 118.933 87.0373 118.912 87.0373 118.888C87.0373 118.864 89.0414 118.84 91.5145 118.84C93.9876 118.84 95.9917 118.861 95.9917 118.888Z" fill="#263238"/>
<path d="M23.3726 100.604C23.3513 100.628 23.1834 100.527 22.9968 100.378C22.8103 100.229 22.6744 100.087 22.6957 100.061C22.717 100.034 22.8822 100.138 23.0688 100.287C23.2553 100.437 23.3913 100.578 23.3726 100.604Z" fill="#263238"/>
<path d="M28.4894 92.9724C28.562 92.2615 28.5033 91.5434 28.3162 90.8537C28.0924 90.1741 27.57 89.5532 26.8718 89.4066C26.0723 89.2414 25.2568 89.7451 24.8091 90.4273C24.3613 91.1095 24.2094 91.9357 24.0762 92.7379C23.1669 98.2807 22.832 103.903 23.0768 109.514L26.3388 109.973C27.7592 104.118 28.2229 98.998 28.4894 92.9724Z" fill="#455A64"/>
<path d="M26.4054 89.3721L26.3894 89.4254L26.3361 89.5719L26.1176 90.1369C26.0723 90.2595 26.011 90.4034 25.963 90.5447L25.8058 91.0377L25.6219 91.6054L25.454 92.253C25.1802 93.3226 24.9693 94.4073 24.8224 95.5016C24.6465 96.7275 24.5319 98.0867 24.4386 99.5151C24.2734 102.375 24.2468 104.97 24.1721 106.847C24.1375 107.787 24.1055 108.547 24.0709 109.069C24.0522 109.336 24.0389 109.525 24.0282 109.674C24.0282 109.735 24.0282 109.789 24.0282 109.829C24.0282 109.869 24.0282 109.882 24.0282 109.882C24.0282 109.882 24.0282 109.866 24.0282 109.829C24.0282 109.791 24.0282 109.735 24.0282 109.672C24.0282 109.525 24.0282 109.322 24.0469 109.067C24.0682 108.534 24.0869 107.785 24.1108 106.844C24.1641 104.978 24.1775 102.372 24.3454 99.5098C24.436 98.0787 24.5559 96.7169 24.7371 95.4856C24.89 94.3947 25.1098 93.3142 25.3954 92.2503L25.5713 91.6027C25.6406 91.4037 25.7045 91.2145 25.7632 91.035L25.9337 90.542C25.9844 90.3928 26.0483 90.2595 26.0963 90.1369L26.3361 89.5826C26.361 89.524 26.3823 89.476 26.4001 89.4387C26.3982 89.4163 26.4 89.3938 26.4054 89.3721Z" fill="#263238"/>
<path d="M26.7066 89.3857C26.8766 89.5866 27.0117 89.8145 27.1063 90.06C27.3557 90.7341 27.4566 91.454 27.4021 92.1707C27.3168 93.9749 27.1543 96.4587 26.9411 99.2037C26.7279 101.949 26.4854 104.427 26.2935 106.221C26.1949 107.116 26.1123 107.841 26.051 108.353C26.019 108.595 25.995 108.787 25.9763 108.928L25.955 109.078C25.9563 109.094 25.9563 109.111 25.955 109.128C25.955 109.128 25.955 109.112 25.955 109.078C25.955 109.043 25.955 108.987 25.955 108.926C25.955 108.784 25.9843 108.593 26.0056 108.347C26.0563 107.836 26.1256 107.113 26.2109 106.215C26.3814 104.419 26.6079 101.951 26.8238 99.1957C27.0397 96.44 27.2129 93.9696 27.3195 92.1707C27.3775 91.4624 27.2868 90.7498 27.053 90.0786C26.9582 89.8379 26.8423 89.606 26.7066 89.3857Z" fill="#263238"/>
<path d="M28.9691 97.8317C28.7551 97.8161 28.5456 97.762 28.3509 97.6718C28.1438 97.6179 27.948 97.5276 27.7726 97.4053C27.9869 97.4192 28.1966 97.4735 28.3908 97.5652C28.5981 97.6185 28.794 97.7088 28.9691 97.8317Z" fill="#263238"/>
<path d="M29.3636 94.5049C29.1868 94.6461 28.9878 94.7569 28.7746 94.8327C28.5765 94.9424 28.3611 95.0172 28.1377 95.0539C28.5114 94.8011 28.9262 94.6154 29.3636 94.5049Z" fill="#263238"/>
<path d="M29.1584 91.7895C28.8362 91.8477 28.5047 91.8249 28.1936 91.7229C28.3513 91.6777 28.5173 91.6695 28.6787 91.6989C28.8434 91.6916 29.0076 91.7226 29.1584 91.7895Z" fill="#263238"/>
<path d="M25.7898 90.0515C25.7631 90.0675 25.6192 89.889 25.4726 89.6544C25.3659 89.5189 25.2904 89.3614 25.2514 89.1934C25.2781 89.1774 25.422 89.3533 25.5712 89.5905C25.7205 89.8277 25.8244 90.0329 25.7898 90.0515Z" fill="#263238"/>
<path d="M24.6785 91.6939C24.5301 91.7472 24.3709 91.7637 24.2148 91.7419C24.0577 91.7569 23.8994 91.7331 23.7537 91.6726C23.9021 91.6192 24.0613 91.6028 24.2174 91.6246C24.3745 91.6096 24.5328 91.6333 24.6785 91.6939Z" fill="#263238"/>
<path d="M23.879 94.9685C23.7084 94.9617 23.5416 94.9161 23.3913 94.8353C23.2268 94.7885 23.0747 94.7057 22.9462 94.5928C23.1168 94.5996 23.2836 94.6452 23.4339 94.726C23.5985 94.7728 23.7505 94.8556 23.879 94.9685Z" fill="#263238"/>
<path d="M23.7937 97.7374C23.7937 97.7694 23.6151 97.836 23.378 97.884C23.1408 97.9319 22.9462 97.9506 22.9382 97.9186C22.9302 97.8866 23.1195 97.82 23.354 97.772C23.4954 97.7242 23.6465 97.7123 23.7937 97.7374Z" fill="#263238"/>
<path d="M23.4259 102.258C23.4259 102.29 23.234 102.352 22.9835 102.397C22.8338 102.441 22.6756 102.449 22.5225 102.418C22.6569 102.338 22.8086 102.291 22.9649 102.282C23.1142 102.236 23.2726 102.228 23.4259 102.258Z" fill="#263238"/>
<path d="M23.1594 104.753C23.1754 104.78 23.0102 104.897 22.7916 105.02C22.5731 105.142 22.3839 105.206 22.3705 105.177C22.3572 105.148 22.5198 105.033 22.7383 104.91C22.9568 104.788 23.1594 104.724 23.1594 104.753Z" fill="#263238"/>
<path d="M25.2035 107.583C25.1768 107.599 25.0329 107.402 24.8837 107.141C24.7757 106.991 24.7012 106.82 24.6651 106.64C24.6918 106.624 24.8357 106.821 24.9849 107.082C25.0929 107.231 25.1674 107.402 25.2035 107.583Z" fill="#263238"/>
<path d="M25.7924 102.879C25.8138 102.901 25.6539 103.095 25.4353 103.311C25.2168 103.527 25.0196 103.682 24.9956 103.658C24.9716 103.634 25.1342 103.442 25.3527 103.226C25.5712 103.01 25.7685 102.855 25.7924 102.879Z" fill="#263238"/>
<path d="M25.6619 100.408C25.6379 100.432 25.4913 100.309 25.3314 100.141C25.1715 99.9735 25.0649 99.8109 25.0862 99.7896C25.1075 99.7682 25.2568 99.8882 25.4167 100.056C25.5766 100.224 25.6858 100.387 25.6619 100.408Z" fill="#263238"/>
<path d="M26.067 97.2559C26.0909 97.2772 25.9577 97.4664 25.7685 97.6743C25.5793 97.8822 25.4087 98.0394 25.3847 98.0181C25.3607 97.9968 25.494 97.8076 25.6805 97.597C25.8671 97.3865 26.043 97.2346 26.067 97.2559Z" fill="#263238"/>
<path d="M26.2935 94.9686C26.2695 94.9926 26.0856 94.846 25.8777 94.6435C25.6699 94.4409 25.5233 94.257 25.5446 94.233C25.5659 94.2091 25.7525 94.3556 25.9603 94.5608C26.1682 94.766 26.3148 94.9446 26.2935 94.9686Z" fill="#263238"/>
<path d="M26.7412 91.8721C26.706 92.0402 26.6341 92.1985 26.5307 92.3358C26.3894 92.5756 26.2509 92.7569 26.2242 92.7409C26.1976 92.7249 26.2882 92.517 26.4321 92.2772C26.576 92.0373 26.7119 91.8561 26.7412 91.8721Z" fill="#263238"/>
<path d="M27.5807 89.0046C27.61 89.0206 27.5274 89.2285 27.3968 89.4683C27.2662 89.7082 27.1303 89.892 27.109 89.8787C27.1343 89.7122 27.1972 89.5537 27.2929 89.415C27.4234 89.1725 27.5514 88.9913 27.5807 89.0046Z" fill="#263238"/>
<path d="M28.5348 90.3081C28.5481 90.3374 28.4175 90.428 28.2416 90.5133C28.0657 90.5985 27.9138 90.6412 27.9005 90.6119C27.8872 90.5825 28.0178 90.4919 28.1937 90.4067C28.3695 90.3214 28.5215 90.2787 28.5348 90.3081Z" fill="#263238"/>
<path d="M28.5561 100.606C28.1134 100.573 27.6942 100.394 27.3648 100.097C27.5723 100.159 27.7731 100.243 27.9644 100.345C28.1701 100.411 28.3683 100.499 28.5561 100.606Z" fill="#263238"/>
<path d="M28.167 102.785C28.167 102.817 27.9778 102.881 27.7273 102.929C27.5784 102.977 27.4199 102.987 27.2662 102.958C27.3995 102.877 27.5501 102.827 27.7059 102.814C27.9564 102.766 28.1616 102.753 28.167 102.785Z" fill="#263238"/>
<path d="M27.6899 106.524C27.6713 106.551 27.4234 106.377 27.1943 106.089C27.0416 105.925 26.9342 105.724 26.8824 105.506C27.0314 105.664 27.166 105.835 27.2849 106.018C27.4352 106.174 27.5708 106.343 27.6899 106.524Z" fill="#263238"/>
<path d="M22.4425 108.235C22.4212 108.211 22.5545 108.062 22.7384 107.905C22.9223 107.748 23.0901 107.638 23.1115 107.665C23.1328 107.692 22.9995 107.836 22.8157 107.996C22.6318 108.155 22.4639 108.259 22.4425 108.235Z" fill="#263238"/>
<path d="M20.9342 100.076C20.721 99.4124 20.3239 98.6396 19.6283 98.6289C19.421 98.6401 19.2206 98.7069 19.0481 98.8223C18.8755 98.9376 18.7372 99.0973 18.6476 99.2845C18.4561 99.6543 18.3643 100.068 18.3811 100.484C18.467 103.438 18.9703 106.364 19.8761 109.177H22.4266C22.3957 106.085 21.8924 103.016 20.9342 100.076Z" fill="#455A64"/>
<path d="M16.3263 95.8991C16.2001 95.2775 15.8689 94.7163 15.3856 94.3055C14.9023 93.8947 14.2951 93.6581 13.6613 93.6338C12.534 93.831 12.0969 94.9396 11.9637 96.0749C11.8304 97.2102 12.1822 98.3402 12.5313 99.4302C13.6471 102.927 14.7646 106.424 15.8839 109.922L19.0553 109.576C18.0639 104.891 17.4882 100.547 16.3263 95.8991Z" fill="#455A64"/>
<path d="M19.6283 98.6289C19.5459 98.7422 19.4736 98.8626 19.4124 98.9887C19.281 99.349 19.2398 99.7361 19.2925 100.116C19.3405 100.601 19.3964 101.182 19.479 101.822C19.5617 102.461 19.6762 103.154 19.8202 103.895C20.108 105.361 20.4331 106.672 20.6383 107.626C20.7423 108.103 20.8222 108.492 20.8702 108.761C20.8915 108.887 20.9102 108.988 20.9235 109.073C20.9368 109.158 20.9395 109.182 20.9235 109.182C20.9096 109.149 20.8989 109.114 20.8915 109.078L20.8169 108.772C20.7476 108.487 20.657 108.106 20.5504 107.645C20.3238 106.691 19.9854 105.382 19.6976 103.914C19.5537 103.178 19.4311 102.475 19.3644 101.83C19.3218 101.51 19.2951 101.201 19.2685 100.915C19.2418 100.63 19.2152 100.361 19.2019 100.116C19.1563 99.7249 19.2114 99.3286 19.3618 98.9647C19.4252 98.8348 19.5161 98.7202 19.6283 98.6289Z" fill="#263238"/>
<path d="M13.7199 93.543C13.5786 93.704 13.4503 93.876 13.3362 94.0573C13.0443 94.5639 12.8788 95.1335 12.8538 95.7176C12.8405 96.5837 12.973 97.4459 13.2455 98.268C13.512 99.2115 13.8292 100.248 14.1517 101.333C14.7833 103.507 15.3536 105.474 15.772 106.911L16.2517 108.606C16.305 108.798 16.345 108.949 16.3769 109.067C16.3944 109.119 16.406 109.174 16.4116 109.229C16.3871 109.18 16.3675 109.128 16.353 109.075C16.3183 108.957 16.2677 108.808 16.209 108.616C16.0838 108.209 15.9079 107.636 15.6947 106.935L14.0397 101.365C13.7199 100.275 13.4188 99.2328 13.1416 98.2947C12.8701 97.4608 12.7448 96.5862 12.7712 95.7096C12.8055 95.1142 12.9888 94.5369 13.3042 94.0307C13.4149 93.8463 13.5554 93.6815 13.7199 93.543Z" fill="#263238"/>
<path d="M18.3757 109.238C18.3489 109.189 18.3249 109.138 18.3038 109.086C18.2638 108.982 18.1972 108.835 18.1252 108.638C17.9733 108.249 17.7787 107.676 17.5922 106.956C17.4056 106.237 17.1924 105.357 17.0006 104.398C16.8087 103.439 16.6168 102.365 16.4036 101.245C16.1904 100.126 15.9399 99.0734 15.6547 98.1326C15.4073 97.2963 15.0982 96.4794 14.73 95.6888C14.4796 95.1568 14.1938 94.6422 13.8745 94.1484C13.7652 93.9725 13.6666 93.8419 13.608 93.7513C13.5746 93.706 13.5452 93.6578 13.5201 93.6074C13.5591 93.647 13.5948 93.6898 13.6267 93.7353C13.6933 93.8259 13.7972 93.9485 13.9118 94.1244C14.2489 94.6103 14.5474 95.1217 14.8046 95.6542C15.1869 96.4428 15.505 97.2609 15.756 98.1006C16.057 99.1282 16.3043 100.171 16.4969 101.224C16.7074 102.341 16.9046 103.407 17.0858 104.379C17.2671 105.352 17.4589 106.213 17.6508 106.935C17.8427 107.657 18.0213 108.23 18.1598 108.622C18.2238 108.822 18.2851 108.971 18.3197 109.075C18.3445 109.127 18.3632 109.182 18.3757 109.238Z" fill="#263238"/>
<path d="M12.6006 98.9083C12.6006 98.9376 12.4354 99.0069 12.2142 99.0602C11.993 99.1135 11.8091 99.1321 11.8038 99.1002C11.7984 99.0682 11.9663 99.0015 12.1875 98.9482C12.4087 98.8949 12.5926 98.8763 12.6006 98.9083Z" fill="#263238"/>
<path d="M12.2648 96.7436C12.0916 96.7923 11.9115 96.8121 11.7318 96.8022C11.5545 96.8272 11.3743 96.8218 11.1988 96.7862C11.3648 96.7071 11.5484 96.6722 11.7318 96.685C11.9116 96.6588 12.0951 96.679 12.2648 96.7436Z" fill="#263238"/>
<path d="M12.6219 94.7664C12.6006 94.793 12.4274 94.6811 12.2382 94.5185C12.0489 94.3559 11.9077 94.204 11.929 94.1801C11.9503 94.1561 12.1209 94.2653 12.3128 94.4279C12.5047 94.5905 12.6432 94.7424 12.6219 94.7664Z" fill="#263238"/>
<path d="M13.5894 92.9378C13.6213 92.9378 13.6107 93.1004 13.608 93.2843C13.6053 93.4681 13.608 93.6254 13.568 93.6307C13.5281 93.636 13.4854 93.4815 13.4907 93.2816C13.4961 93.0817 13.5654 92.9298 13.5894 92.9378Z" fill="#263238"/>
<path d="M15.5641 93.7987C15.5908 93.8174 15.5135 93.9746 15.3909 94.1478C15.2683 94.3211 15.1484 94.449 15.1244 94.4303C15.1004 94.4117 15.175 94.2571 15.295 94.0812C15.4149 93.9053 15.5375 93.7801 15.5641 93.7987Z" fill="#263238"/>
<path d="M16.846 96.0349C16.846 96.0669 16.6941 96.1601 16.4809 96.2481C16.2677 96.336 16.0812 96.3813 16.0705 96.352C16.0598 96.3227 16.2224 96.2268 16.4356 96.1415C16.6488 96.0562 16.8354 95.9976 16.846 96.0349Z" fill="#263238"/>
<path d="M17.6242 98.3193C17.4832 98.4417 17.3086 98.5188 17.1232 98.5405C16.9455 98.598 16.7553 98.6045 16.5742 98.5592C16.7451 98.4914 16.9244 98.4466 17.1072 98.4259C17.2745 98.3695 17.4481 98.3337 17.6242 98.3193Z" fill="#263238"/>
<path d="M14.053 97.6682C14.0237 97.6682 14.053 97.5003 14.1037 97.3138C14.1543 97.1272 14.2343 96.986 14.2636 96.9967C14.2929 97.0073 14.2636 97.1646 14.2129 97.3511C14.1623 97.5377 14.0983 97.6789 14.053 97.6682Z" fill="#263238"/>
<path d="M14.5514 100.546C14.5622 100.378 14.6114 100.215 14.6953 100.069C14.8046 99.8189 14.9165 99.627 14.9458 99.6403C14.9351 99.8082 14.8858 99.9715 14.8019 100.117C14.6927 100.368 14.5807 100.565 14.5514 100.546Z" fill="#263238"/>
<path d="M13.3202 101.336C13.1631 101.332 13.0083 101.298 12.8644 101.235C12.6219 101.157 12.4247 101.088 12.4327 101.056C12.5913 101.036 12.7525 101.059 12.8991 101.123C13.1469 101.2 13.3335 101.307 13.3202 101.336Z" fill="#263238"/>
<path d="M14.029 103.681C14.0477 103.707 13.9118 103.835 13.7279 103.968C13.544 104.102 13.3735 104.187 13.3548 104.163C13.3361 104.139 13.4721 104.006 13.6586 103.873C13.8452 103.739 14.0104 103.654 14.029 103.681Z" fill="#263238"/>
<path d="M14.5994 106.02C14.5994 106.05 14.4395 106.119 14.2236 106.17C14.0077 106.22 13.8292 106.239 13.8212 106.21C13.8132 106.18 13.9811 106.111 14.197 106.058C14.4128 106.004 14.5914 105.988 14.5994 106.02Z" fill="#263238"/>
<path d="M17.6881 100.275C17.7041 100.302 17.5602 100.416 17.3523 100.494C17.1445 100.571 16.9579 100.582 16.9526 100.552C16.9472 100.523 17.1125 100.462 17.3097 100.384C17.5069 100.307 17.6721 100.246 17.6881 100.275Z" fill="#263238"/>
<path d="M18.1279 103.913C18.1145 103.943 17.944 103.892 17.7468 103.799C17.5496 103.705 17.4003 103.607 17.4136 103.577C17.427 103.548 17.6002 103.601 17.7974 103.692C17.9946 103.783 18.1439 103.884 18.1279 103.913Z" fill="#263238"/>
<path d="M18.9087 106.519C18.7322 106.51 18.5596 106.464 18.4024 106.383C18.1359 106.279 17.9307 106.17 17.9413 106.138C18.117 106.147 18.2887 106.193 18.445 106.274C18.7115 106.378 18.9194 106.487 18.9087 106.519Z" fill="#263238"/>
<path d="M14.7246 108.56C14.7086 108.531 14.9165 108.393 15.1564 108.203C15.3962 108.014 15.5828 107.844 15.6067 107.867C15.6307 107.891 15.4788 108.097 15.2283 108.294C15.0889 108.429 14.9143 108.521 14.7246 108.56Z" fill="#263238"/>
<path d="M16.782 107.228C16.75 107.228 16.7047 107.058 16.6248 106.855C16.5448 106.653 16.4649 106.49 16.4915 106.471C16.5182 106.453 16.6514 106.591 16.734 106.813C16.8167 107.034 16.814 107.228 16.782 107.228Z" fill="#263238"/>
<path d="M16.2304 104.101C16.2117 104.128 16.0785 104.064 15.9319 103.96C15.7853 103.856 15.684 103.749 15.7027 103.723C15.7213 103.696 15.8546 103.76 16.0012 103.864C16.1477 103.968 16.257 104.075 16.2304 104.101Z" fill="#263238"/>
<path d="M21.0274 99.1933C21.0461 99.22 20.9155 99.3479 20.7369 99.4785C20.5584 99.6091 20.3985 99.697 20.3798 99.6704C20.3611 99.6437 20.4891 99.5185 20.6676 99.3852C20.8462 99.252 21.0274 99.1667 21.0274 99.1933Z" fill="#263238"/>
<path d="M21.7603 101.17C21.7603 101.202 21.5604 101.245 21.3099 101.218C21.0594 101.191 20.8702 101.106 20.8782 101.077C20.8862 101.047 21.0834 101.077 21.3232 101.101C21.5631 101.125 21.7576 101.138 21.7603 101.17Z" fill="#263238"/>
<path d="M18.6502 101.615C18.6502 101.645 18.4716 101.711 18.2264 101.727C17.9813 101.743 17.7894 101.703 17.7921 101.671C17.7947 101.639 17.9866 101.629 18.2211 101.613C18.4556 101.597 18.6449 101.583 18.6502 101.615Z" fill="#263238"/>
<path d="M18.9194 99.7443C18.9194 99.7762 18.7275 99.7816 18.5196 99.683C18.3118 99.5843 18.1918 99.4431 18.2132 99.4165C18.2345 99.3898 18.3784 99.4911 18.5676 99.5764C18.7568 99.6616 18.9221 99.7123 18.9194 99.7443Z" fill="#263238"/>
<path d="M22.0268 103.295C22.0108 103.322 21.8163 103.231 21.5924 103.09C21.3685 102.949 21.2033 102.823 21.222 102.786C21.2406 102.749 21.4325 102.853 21.6564 102.991C21.8802 103.13 22.0454 103.268 22.0268 103.295Z" fill="#263238"/>
<path d="M29.6141 108.843H13.0244V111.782H29.6141V108.843Z" fill="#31D3C6"/>
<path d="M14.2636 111.201L16.281 119.988H26.1682L28.3749 111.201H14.2636Z" fill="#31D3C6"/>
<path d="M29.6061 111.787C29.6061 111.819 25.8751 111.846 21.2486 111.846C16.6221 111.846 12.8911 111.819 12.8911 111.787C12.8911 111.755 16.6221 111.729 21.2486 111.729C25.8751 111.729 29.6061 111.758 29.6061 111.787Z" fill="#263238"/>
<path d="M20.3798 101.68C20.3531 101.696 20.2385 101.565 20.1266 101.384C20.0147 101.203 19.9454 101.043 19.972 101.027C19.9987 101.011 20.1133 101.141 20.2252 101.323C20.3371 101.504 20.4064 101.661 20.3798 101.68Z" fill="#263238"/>
<path d="M20.3851 104.043C20.3771 103.89 20.4073 103.737 20.473 103.598C20.5503 103.361 20.6409 103.177 20.6703 103.188C20.6785 103.342 20.6482 103.496 20.5823 103.636C20.4944 103.87 20.4171 104.054 20.3851 104.043Z" fill="#263238"/>
<path d="M21.1953 106.527C21.166 106.543 21.0434 106.343 20.9288 106.085C20.8368 105.935 20.7786 105.766 20.7582 105.592C20.7876 105.576 20.9101 105.776 21.0247 106.034C21.1167 106.184 21.1749 106.352 21.1953 106.527Z" fill="#263238"/>
<path d="M19.4444 108.526C19.4204 108.505 19.519 108.353 19.6656 108.182C19.8122 108.012 19.9481 107.894 19.9747 107.916C20.0014 107.937 19.9001 108.091 19.7535 108.259C19.607 108.427 19.4684 108.561 19.4444 108.526Z" fill="#263238"/>
<path d="M19.0766 104.899C19.0766 104.931 18.9114 104.928 18.7195 104.899C18.5276 104.87 18.3784 104.814 18.3837 104.782C18.389 104.75 18.5489 104.752 18.7382 104.782C18.9274 104.811 19.0819 104.867 19.0766 104.899Z" fill="#263238"/>
<path d="M76.7929 88.6367H37.4519V120.009H76.7929V88.6367Z" fill="#E0E0E0"/>
<g opacity="0.3">
<path d="M40.3168 88.7001C44.9486 90.3524 50.0574 90.7068 55.0277 90.8001C56.0591 90.8188 57.1011 90.8161 58.0978 91.0666C59.0945 91.3171 60.0566 91.8848 60.5683 92.7776C61.1253 93.7503 61.0666 94.9682 60.7495 96.0422C60.4324 97.1162 59.886 98.1103 59.4916 99.1576C58.7933 101.011 58.5795 103.011 58.8707 104.97C58.9603 105.804 59.2412 106.607 59.6915 107.315C59.9196 107.667 60.2269 107.961 60.5888 108.173C60.9506 108.385 61.357 108.509 61.7755 108.536C63.2706 108.557 64.294 107.089 65.0349 105.788C68.0756 100.458 71.3643 94.4086 73.3097 88.5908L40.3168 88.7001Z" fill="black"/>
</g>
<path d="M50.8569 119.842C50.817 119.842 50.7877 112.889 50.7877 104.313C50.7877 95.7369 50.817 88.7812 50.8569 88.7812C50.8969 88.7812 50.9262 95.7343 50.9262 104.313C50.9262 112.892 50.8943 119.842 50.8569 119.842Z" fill="#455A64"/>
<path d="M66.9777 65.4508C66.8604 64.6673 64.5205 62.0822 64.5205 62.0822C64.5205 62.0822 63.3532 57.3891 63.0015 56.006C62.8844 55.6061 62.7131 55.2241 62.4924 54.8707C61.6651 53.4923 60.4883 52.3569 59.0812 51.5794L55.8432 49.7592L55.0704 48.0376L47.2938 44.04L45.1858 47.7711C45.1858 47.7711 40.0663 49.3967 39.3894 50.5507C38.7125 51.7046 39.7252 67.287 39.7252 67.287C39.7252 67.287 37.5932 76.2734 37.1321 78.1336C36.6711 79.9938 37.276 82.2111 37.276 82.2111L41.0897 77.4274C42.2756 75.9403 44.8767 75.2554 46.7449 75.2821L62.711 75.354L62.0687 70.8821L74.9861 73.3819C74.9861 73.3819 77.206 69.0486 77.3846 68.9633C77.5631 68.878 66.9777 65.4508 66.9777 65.4508Z" fill="#31D3C6"/>
<path d="M46.9634 49.2235C46.8515 49.1089 47.8642 52.5335 49.138 56.022C49.8234 57.9071 50.1724 59.8978 50.1694 61.9037V74.5358L57.8233 74.0162L56.68 65.696C56.68 65.696 55.7473 60.3286 55.4861 58.2872C55.2463 56.4217 54.4201 51.3582 54.4201 51.3582C54.4201 51.3582 50.1694 52.4881 46.9634 49.2235Z" fill="white"/>
<path d="M63.9502 68.5855C63.9382 68.5212 63.9382 68.4552 63.9502 68.3909C63.9677 68.2167 64.0017 68.0445 64.0514 67.8766C64.2132 67.3161 64.5139 66.8055 64.9256 66.3921C65.3395 65.98 65.8497 65.6778 66.41 65.5127C66.5779 65.4629 66.7501 65.429 66.9243 65.4114C66.9877 65.3993 67.0528 65.3993 67.1162 65.4114C67.1162 65.4354 66.8497 65.4647 66.4393 65.606C65.9066 65.7887 65.4229 66.091 65.0252 66.4897C64.6274 66.8883 64.3262 67.3728 64.1447 67.9059C64.0035 68.319 63.9742 68.5855 63.9502 68.5855Z" fill="#263238"/>
<path d="M64.3446 65.5584C64.7002 65.3496 65.1024 65.2332 65.5145 65.2199C65.9226 65.1634 66.3384 65.213 66.7218 65.3638C66.7218 65.4065 66.1888 65.3026 65.5252 65.3638C64.8616 65.4251 64.3606 65.5984 64.3446 65.5584Z" fill="#263238"/>
<g opacity="0.3">
<path d="M38.955 72.4521L38.2887 73.2037C38.9834 74.0613 39.9249 74.6846 40.9857 74.9892C42.0549 75.2161 43.1472 75.3145 44.2397 75.2824C44.6823 75.3038 45.1256 75.2616 45.5562 75.1571C45.9906 75.0319 46.393 74.7867 46.8434 74.7601C47.1455 74.7615 47.4459 74.8045 47.7362 74.888C48.0284 74.9708 48.3372 74.9754 48.6317 74.9013C48.7775 74.8619 48.9067 74.7766 49.0003 74.6581C49.0939 74.5395 49.1468 74.394 49.1513 74.243C45.829 73.272 42.4094 72.6714 38.955 72.4521Z" fill="black"/>
</g>
<path d="M60.8081 73.4164L58.9426 71.4229L55.065 70.4502C55.065 70.4502 51.5259 71.5162 51.4406 71.5162C51.3553 71.5162 48.3598 70.6954 48.3598 70.6954L47.3125 74.5383L52.7091 74.9088L58.8707 74.6609C58.8707 74.6609 59.1931 74.3624 59.0012 74.1572C58.8094 73.952 60.0326 74.5037 60.1765 74.509C60.3204 74.5144 60.5976 74.6263 60.7895 74.3971C60.9201 74.2265 61.0959 73.7228 60.8081 73.4164Z" fill="#FFBE9D"/>
<path d="M59.0013 74.1451C58.7919 74.1056 58.5867 74.0467 58.3883 73.9692C58.0152 73.852 57.4955 73.7027 56.9172 73.5428C56.3389 73.3829 55.8059 73.2763 55.4195 73.2097C55.208 73.1821 55 73.1329 54.7985 73.0631C55.012 73.0538 55.2258 73.0699 55.4355 73.1111C55.9452 73.1823 56.4506 73.2819 56.9492 73.4096C57.4485 73.5363 57.9398 73.6929 58.4203 73.8786C58.6245 73.9424 58.8197 74.0319 59.0013 74.1451Z" fill="#EB996E"/>
<path d="M60.8081 73.4177C60.5176 73.3442 60.2311 73.2552 59.95 73.1512C59.417 72.9753 58.6895 72.7567 57.8713 72.5302C57.0531 72.3037 56.3282 72.0452 55.7766 72.0132C55.4794 71.9979 55.1815 72.0095 54.8865 72.0478C54.9587 72.0082 55.0371 71.9812 55.1183 71.9679C55.3362 71.9208 55.5593 71.9029 55.7819 71.9146C56.3522 71.9146 57.1144 72.1571 57.9139 72.397C58.7134 72.6368 59.465 72.858 59.9873 73.0606C60.2538 73.1592 60.4537 73.2498 60.5976 73.3137C60.6725 73.3378 60.7435 73.3728 60.8081 73.4177Z" fill="#EB996E"/>
<path d="M39.3894 50.5508C39.3894 50.5508 36.6044 52.4882 35.9249 55.2759C35.2453 58.0635 32.3111 69.4564 32.9134 71.1594C33.5157 72.8623 45.2258 74.5359 45.2258 74.5359L46.6143 68.6729L40.6659 67.0446C40.6659 67.0446 40.7432 61.6213 40.8178 59.3747C40.8925 57.128 39.3894 50.5508 39.3894 50.5508Z" fill="#31D3C6"/>
<path d="M46.5397 69.5557L48.4558 70.0274L47.3019 74.446L45.4203 74.1448L46.5397 69.5557Z" fill="white"/>
<path d="M32.8708 70.5568C32.8708 70.5568 32.8708 70.6554 32.9001 70.8233C32.9648 71.081 33.1072 71.3127 33.3078 71.4869C33.8168 71.9613 34.7896 72.3557 36.0208 72.5769C36.5831 72.7634 37.2254 72.91 37.9103 73.0646C38.5952 73.2192 39.3361 73.3764 40.1143 73.5336C41.6733 73.8534 43.3976 74.1892 45.2258 74.5303L45.1458 74.581C45.2764 74.048 45.4123 73.4643 45.5589 72.8807C45.8867 71.5482 46.2065 70.237 46.5077 69.0031L46.5556 69.083L41.2816 67.588C40.5534 67.2814 39.7654 67.1429 38.9763 67.1829C38.3766 67.2163 37.7875 67.3553 37.2361 67.5933C36.8856 67.7449 36.5509 67.9306 36.2367 68.1476L35.9942 68.3235C35.9676 68.3449 35.9391 68.3637 35.9089 68.3795C35.9089 68.3795 35.9329 68.3528 35.9835 68.3102C36.0341 68.2675 36.1114 68.2009 36.218 68.121C36.5275 67.8914 36.8608 67.6958 37.2121 67.5373C37.767 67.2858 38.3629 67.1368 38.971 67.0976C39.7739 67.0464 40.5779 67.1795 41.3215 67.4867L46.6116 68.9684L46.6756 68.9844L46.6596 69.0484C46.3584 70.2823 46.0413 71.5828 45.7161 72.9287C45.5722 73.5096 45.4337 74.0853 45.3004 74.6263L45.2844 74.6902H45.2204C43.3922 74.3465 41.6706 74.0053 40.1116 73.6802C39.3334 73.5176 38.5952 73.3551 37.9076 73.1952C37.2201 73.0353 36.5751 72.8834 36.0101 72.6888C34.7629 72.4516 33.7902 72.0412 33.2758 71.5429C33.0719 71.3595 32.9318 71.1158 32.8761 70.8473C32.8569 70.7516 32.8551 70.6532 32.8708 70.5568Z" fill="#263238"/>
<path d="M40.9911 67.4417C40.9751 67.4603 40.7752 67.2764 40.4181 67.0392C39.4828 66.413 38.3774 66.0901 37.252 66.1145C36.8203 66.1145 36.5565 66.1731 36.5511 66.1491C36.7744 66.0683 37.0093 66.0242 37.2467 66.0185C38.403 65.9347 39.551 66.2685 40.482 66.9593C40.6772 67.0909 40.8492 67.2539 40.9911 67.4417Z" fill="#263238"/>
<path d="M41.7719 57.9014C41.7817 58.0202 41.7817 58.1396 41.7719 58.2585C41.7719 58.4903 41.748 58.8208 41.716 59.2312C41.6493 60.0494 41.5294 61.1767 41.3136 62.4132C41.1448 63.4712 40.8981 64.5151 40.5753 65.5366C40.5114 65.7312 40.4421 65.9071 40.3861 66.0696L40.2156 66.4534C40.1656 66.5628 40.104 66.6664 40.0317 66.7626C40.0651 66.6483 40.1097 66.5376 40.1649 66.4321C40.2102 66.3175 40.2582 66.1869 40.3142 66.043C40.3701 65.8991 40.4234 65.7125 40.4821 65.51C40.7733 64.4848 41.0056 63.4437 41.1776 62.3919C41.3908 61.1607 41.5268 60.0387 41.6174 59.2232C41.6573 58.8368 41.692 58.5143 41.7186 58.2585C41.7221 58.1377 41.74 58.0179 41.7719 57.9014Z" fill="#263238"/>
<path d="M48.5624 54.8817C48.5624 54.8817 48.5357 54.8097 48.4718 54.6845C48.377 54.5069 48.2385 54.3565 48.0694 54.2474C47.9443 54.1616 47.8012 54.1054 47.6511 54.0832C47.501 54.0611 47.3478 54.0735 47.2032 54.1195C47.02 54.1822 46.8562 54.2917 46.7282 54.437C46.6001 54.5824 46.5122 54.7586 46.473 54.9483L46.4357 55.1375L46.3531 54.9616C46.0414 54.2926 45.7699 53.6056 45.5403 52.9042C45.1331 51.7359 44.9294 50.5064 44.938 49.2691C44.938 49.032 44.97 48.8188 44.9833 48.6295C44.9966 48.4403 45.0392 48.2831 45.0686 48.1552C45.0967 48.0207 45.1359 47.8888 45.1858 47.7607C45.0949 48.2587 45.0441 48.7631 45.0339 49.2691C45.0559 50.4927 45.2708 51.7051 45.6709 52.8616C45.9007 53.5576 46.1676 54.2408 46.4704 54.9083L46.3504 54.9243C46.3964 54.7147 46.4967 54.5209 46.6412 54.3623C46.7858 54.2038 46.9695 54.086 47.1739 54.0209C47.3326 53.973 47.5002 53.9627 47.6635 53.991C47.8268 54.0192 47.9813 54.0851 48.1147 54.1834C48.2878 54.3051 48.4242 54.472 48.5091 54.6658C48.5324 54.7169 48.5494 54.7706 48.5597 54.8257C48.5651 54.8604 48.5677 54.8817 48.5624 54.8817Z" fill="#263238"/>
<path d="M55.0597 55.4815C55.0311 55.3775 55.0106 55.2715 54.9984 55.1643C54.9401 54.8706 54.9213 54.5703 54.9424 54.2716C55.0024 53.8119 55.2314 53.391 55.5847 53.091C55.8033 52.9111 56.0772 52.8123 56.3602 52.8111C56.5145 52.8094 56.6673 52.8411 56.8081 52.9041C56.9489 52.9672 57.0743 53.06 57.1757 53.1762L57.0584 53.2455L56.8053 52.6086C56.3069 51.3534 55.8645 50.2101 55.55 49.3866L55.1849 48.4032C55.1342 48.2858 55.0958 48.1634 55.0703 48.0381C55.1359 48.1483 55.1912 48.2642 55.2356 48.3845C55.3422 48.651 55.4781 48.9628 55.6433 49.3519C55.9818 50.1701 56.4428 51.3027 56.9359 52.55L57.1864 53.1896L57.3489 53.6L57.0824 53.2562C56.9944 53.1541 56.8851 53.0726 56.7621 53.0173C56.6392 52.9621 56.5056 52.9345 56.3709 52.9364C56.1172 52.9348 55.8707 53.0204 55.6726 53.1789C55.3396 53.4574 55.1174 53.846 55.0464 54.2742C55.0177 54.5661 55.023 54.8604 55.0624 55.151C55.075 55.2609 55.0741 55.3719 55.0597 55.4815Z" fill="#263238"/>
<path d="M60.0033 56.1416C60.0406 56.1416 60.6429 60.1871 61.3492 65.1893C62.0554 70.1916 62.5937 74.2504 62.5564 74.2504C62.5191 74.2504 61.9168 70.2049 61.2106 65.1893C60.5043 60.1738 59.966 56.1469 60.0033 56.1416Z" fill="#263238"/>
<g opacity="0.3">
<path d="M45.6202 52.9473C45.6526 53.9836 45.8776 55.0048 46.2838 55.9587C46.5743 55.599 46.8967 55.2205 47.3498 55.1139C47.8988 54.9833 48.4558 55.3218 48.8528 55.7375C48.7841 55.3219 48.6199 54.9278 48.3731 54.5863C48.25 54.4184 48.0897 54.2812 47.9048 54.1856C47.7198 54.0899 47.5153 54.0382 47.3071 54.0346C47.0996 54.0395 46.8997 54.1134 46.739 54.2447C46.5782 54.376 46.4659 54.5571 46.4197 54.7595L45.6548 52.9659" fill="black"/>
</g>
<path d="M41.119 55.8763C41.095 55.8763 41.103 55.5965 41.023 55.1621C40.9135 54.5961 40.6935 54.0573 40.3754 53.5764C40.1964 53.3161 39.9919 53.0742 39.7651 52.8542C39.5772 52.6763 39.3729 52.5166 39.1549 52.3772C38.7791 52.14 38.5153 52.0494 38.5259 52.0254C38.5913 52.0301 38.6554 52.0464 38.7151 52.0734C38.7897 52.0934 38.8621 52.1211 38.931 52.156C39.0231 52.1956 39.1122 52.2419 39.1975 52.2946C39.4293 52.4256 39.6464 52.581 39.8451 52.7583C40.0841 52.981 40.2977 53.2294 40.482 53.4991C40.8124 53.9941 41.0273 54.557 41.111 55.1461C41.1375 55.3225 41.1464 55.501 41.1376 55.6791C41.1376 55.8071 41.1296 55.8763 41.119 55.8763Z" fill="#263238"/>
<path d="M56.5894 36.871C56.4372 35.444 55.7533 34.1266 54.6738 33.1809C53.5943 32.2352 52.1983 31.7306 50.7637 31.7675H50.4679C47.2832 32.034 45.7321 34.8882 46.0892 38.0623L46.9634 49.2287L47.3338 49.6818C48.1654 50.7034 49.3117 51.4213 50.5939 51.7236C51.8762 52.0258 53.2224 51.8954 54.4227 51.3527L54.1776 47.7603C54.1776 47.7603 57.2317 47.206 57.189 44.1412C57.1704 42.6541 56.8826 39.6107 56.5894 36.871Z" fill="#FFBE9D"/>
<path d="M54.2016 47.7535C52.7796 47.7931 51.3763 47.423 50.1587 46.6875C50.1587 46.6875 51.1581 48.8702 54.2095 48.5157L54.2016 47.7535Z" fill="#EB996E"/>
<path d="M55.6193 39.3929C55.6224 39.5067 55.5814 39.6173 55.505 39.7017C55.4285 39.7861 55.3225 39.8378 55.2089 39.846C55.1534 39.8515 55.0973 39.8459 55.0439 39.8295C54.9906 39.8131 54.941 39.7863 54.8981 39.7506C54.8552 39.7149 54.8198 39.671 54.794 39.6215C54.7682 39.572 54.7526 39.5178 54.7479 39.4622C54.7442 39.3482 54.7849 39.2372 54.8615 39.1527C54.9381 39.0682 55.0445 39.0167 55.1583 39.0091C55.2139 39.0033 55.2701 39.0086 55.3236 39.0249C55.3772 39.0411 55.4269 39.0679 55.4699 39.1037C55.5128 39.1394 55.5482 39.1835 55.5739 39.2331C55.5996 39.2828 55.615 39.3372 55.6193 39.3929Z" fill="#263238"/>
<path d="M55.8139 37.7271C55.7792 37.7804 55.4328 37.8177 55.0144 38.0416C54.596 38.2655 54.3508 38.5453 54.2948 38.54C54.2389 38.5346 54.2948 38.4627 54.3988 38.3374C54.5581 38.1607 54.7476 38.0136 54.9584 37.903C55.1596 37.7906 55.3802 37.7174 55.6087 37.6872C55.7659 37.6712 55.8325 37.7005 55.8139 37.7271Z" fill="#263238"/>
<path d="M51.1954 39.6253C51.2005 39.7397 51.1602 39.8514 51.0834 39.9363C51.0065 40.0211 50.8993 40.0722 50.785 40.0784C50.7294 40.0842 50.6732 40.0789 50.6197 40.0627C50.5661 40.0464 50.5164 40.0196 50.4734 39.9839C50.4305 39.9481 50.3951 39.9041 50.3694 39.8544C50.3437 39.8047 50.3283 39.7504 50.324 39.6946C50.3203 39.5806 50.361 39.4696 50.4376 39.3851C50.5141 39.3006 50.6206 39.2491 50.7344 39.2416C50.79 39.2357 50.8462 39.241 50.8997 39.2573C50.9532 39.2735 51.003 39.3003 51.0459 39.3361C51.0889 39.3719 51.1243 39.4159 51.15 39.4656C51.1756 39.5152 51.1911 39.5696 51.1954 39.6253Z" fill="#263238"/>
<path d="M51.1421 38.3697C51.0808 38.3697 50.7957 38.1912 50.3426 38.0792C49.8896 37.9673 49.5138 37.9913 49.4738 37.954C49.4338 37.9167 49.5218 37.9007 49.6844 37.8874C49.9218 37.8723 50.1601 37.8948 50.3906 37.954C50.6137 38.007 50.8263 38.097 51.0195 38.2205C51.1261 38.3058 51.1581 38.3644 51.1421 38.3697Z" fill="#263238"/>
<path d="M52.9757 42.0275C53.2226 41.945 53.4785 41.8922 53.7379 41.8702C53.8578 41.8702 53.9697 41.8276 53.9884 41.745C53.9959 41.6215 53.9652 41.4986 53.9004 41.3932L53.5193 40.4844C52.9863 39.1946 52.6079 38.1312 52.6612 38.1126C52.7145 38.0939 53.1942 39.1199 53.7085 40.4098C53.8365 40.7296 53.9591 41.0334 54.0737 41.3239C54.1524 41.4668 54.1787 41.6327 54.1483 41.7929C54.1317 41.8359 54.1056 41.8746 54.0719 41.906C54.0382 41.9374 53.9978 41.9607 53.9537 41.9742C53.8881 41.9947 53.8199 42.0064 53.7512 42.0088C53.4945 42.0483 53.2339 42.0546 52.9757 42.0275Z" fill="#263238"/>
<path d="M51.1421 36.5509C51.0888 36.6761 50.6224 36.5935 50.0761 36.6308C49.5298 36.6681 49.0661 36.8014 49.0101 36.6815C48.9781 36.6255 49.0634 36.5082 49.2473 36.3936C49.4947 36.2528 49.771 36.1705 50.055 36.153C50.3391 36.1354 50.6235 36.1831 50.8863 36.2924C51.0622 36.3856 51.1581 36.4896 51.1421 36.5509Z" fill="#263238"/>
<path d="M55.8032 36.6562C55.6993 36.7655 55.2942 36.6562 54.8092 36.6562C54.3241 36.6562 53.9111 36.7389 53.8151 36.6269C53.7725 36.5736 53.8364 36.4644 54.015 36.3604C54.2612 36.2313 54.5366 36.168 54.8145 36.1765C55.0946 36.1746 55.3703 36.2463 55.614 36.3844C55.7899 36.4937 55.8485 36.6056 55.8032 36.6562Z" fill="#263238"/>
<path d="M57.4822 34.1479C57.4552 34.008 57.378 33.8828 57.2651 33.7959C57.1522 33.709 57.0114 33.6664 56.8692 33.6761C57.0224 33.6325 57.1654 33.5591 57.2903 33.4603C57.3524 33.4102 57.3991 33.3436 57.425 33.2682C57.4509 33.1928 57.4551 33.1115 57.4369 33.0339C57.3569 32.7967 57.0531 32.7461 56.8133 32.6794C56.4984 32.5879 56.2193 32.4019 56.0138 32.1464C55.7233 31.7787 55.6113 31.299 55.3582 30.9019C55.1947 30.6455 54.9757 30.4291 54.7175 30.2685C54.4593 30.108 54.1684 30.0074 53.8661 29.9742C53.5639 29.9409 53.258 29.9759 52.9711 30.0765C52.6842 30.1771 52.4234 30.3407 52.2081 30.5554C51.973 30.3137 51.6835 30.1316 51.3639 30.0243C51.0442 29.9169 50.7035 29.8874 50.3701 29.9383C50.0368 29.9891 49.7203 30.1188 49.4472 30.3165C49.174 30.5142 48.952 30.7743 48.7996 31.0751C48.3907 30.9046 47.9436 30.8472 47.5049 30.9088C47.0663 30.9704 46.6523 31.1488 46.3063 31.4254C45.9603 31.7019 45.695 32.0664 45.5382 32.4807C45.3813 32.8949 45.3388 33.3437 45.415 33.7801L47.3231 34.95C47.3386 34.8049 47.3847 34.6647 47.4584 34.5387C47.5321 34.4128 47.6317 34.3039 47.7506 34.2192C47.8695 34.1346 48.005 34.0761 48.1481 34.0478C48.2913 34.0194 48.4388 34.0217 48.581 34.0546C49.1567 34.2225 49.5244 34.8887 50.1214 34.934C50.5878 34.9687 50.9849 34.6089 51.4353 34.489C51.9816 34.3424 52.5599 34.5609 53.0529 34.8381C53.546 35.1153 54.0177 35.4617 54.5667 35.6003C55.2224 35.7317 55.903 35.6505 56.5095 35.3684C56.7787 35.274 57.0242 35.1221 57.229 34.9234C57.33 34.8237 57.4056 34.7012 57.4497 34.5663C57.4937 34.4314 57.5049 34.2879 57.4822 34.1479Z" fill="#263238"/>
<path d="M47.6456 34.0489L56.3869 34.0009C56.0715 33.4135 55.6132 32.9149 55.0544 32.5512C53.8936 31.703 52.4945 31.2431 51.0568 31.2373C49.631 31.2373 46.7795 33.0682 45.7748 34.0782C44.9753 34.8777 44.9966 35.568 44.9966 35.568C44.8953 36.7033 45.5642 37.9665 45.8494 39.0778C45.9933 39.6481 46.2944 41.375 46.2944 41.375C46.7741 41.3617 46.942 40.9726 46.8568 40.4982L46.7155 38.6327C47.1872 38.2392 47.5176 37.7026 47.6566 37.1043C47.7956 36.5059 47.7356 35.8786 47.4857 35.3174C47.3658 35.1522 47.078 34.382 47.6456 34.0489Z" fill="#263238"/>
<path d="M46.5903 38.5113C46.1452 36.9656 45.7348 35.3133 46.2092 33.7676H45.9427L45.8361 33.8449C45.5896 33.7621 45.3232 33.7599 45.0755 33.8387C44.8278 33.9176 44.6116 34.0733 44.4583 34.2833C44.3051 34.4932 44.2227 34.7466 44.2232 35.0066C44.2236 35.2665 44.3069 35.5196 44.4609 35.729C44.201 35.7267 43.9493 35.8195 43.753 35.9898C43.5567 36.1601 43.4293 36.3962 43.3949 36.6538C43.3958 37.0127 43.4944 37.3647 43.6801 37.6718C43.8662 37.9799 43.9801 38.3261 44.0132 38.6845C44.0244 38.863 43.9723 39.0397 43.866 39.1835C43.7597 39.3273 43.6061 39.429 43.4322 39.4707C43.5164 39.6525 43.6607 39.7998 43.8408 39.8876C44.0209 39.9755 44.2258 39.9986 44.4209 39.9531C44.2965 40.2569 44.0886 40.5193 43.8213 40.7099C44.3916 41.099 45.1725 40.9765 45.7908 40.6646C46.1743 40.5104 46.4875 40.22 46.6702 39.8491C46.8408 39.4201 46.7128 38.9484 46.5903 38.5113Z" fill="#263238"/>
<path d="M46.4464 40.3151C46.3931 40.2937 44.3143 39.7474 44.4449 41.8394C44.5755 43.9315 46.6436 43.3798 46.6436 43.3185C46.6436 43.2572 46.4464 40.3151 46.4464 40.3151Z" fill="#FFBE9D"/>
<path d="M46.1425 42.5586C46.1425 42.5586 46.1079 42.5852 46.0466 42.6172C45.9638 42.6583 45.8684 42.6659 45.7801 42.6385C45.5536 42.5692 45.3483 42.2308 45.3164 41.8524C45.3002 41.6715 45.3248 41.4894 45.3883 41.3194C45.4053 41.2521 45.4385 41.19 45.4849 41.1384C45.5314 41.0869 45.5897 41.0474 45.6548 41.0235C45.6962 41.0107 45.7407 41.0124 45.781 41.0284C45.8212 41.0444 45.8548 41.0737 45.876 41.1115C45.908 41.1674 45.8947 41.2101 45.908 41.2154C45.9213 41.2207 45.9506 41.1754 45.9293 41.0902C45.9122 41.0404 45.8806 40.9968 45.8387 40.9649C45.8092 40.9443 45.7757 40.9299 45.7405 40.9226C45.7052 40.9152 45.6688 40.9151 45.6335 40.9223C45.5487 40.9445 45.4709 40.988 45.4075 41.0486C45.3441 41.1092 45.2971 41.185 45.2711 41.2687C45.1942 41.4559 45.1622 41.6586 45.1778 41.8604C45.2178 42.2814 45.4443 42.6599 45.7641 42.7345C45.8209 42.747 45.8797 42.7467 45.9363 42.7338C45.993 42.7209 46.0461 42.6957 46.0919 42.6599C46.1425 42.6092 46.1505 42.5613 46.1425 42.5586Z" fill="#EB996E"/>
<path d="M44.2744 38.5798C44.2744 38.5798 44.2158 38.4999 44.2344 38.3347C44.2567 38.2226 44.3034 38.1167 44.3711 38.0246C44.4388 37.9325 44.5258 37.8564 44.6262 37.8017C44.9264 37.6587 45.2532 37.5797 45.5856 37.5698C45.7716 37.5698 45.9549 37.5259 46.1207 37.4416C46.2865 37.3573 46.4301 37.235 46.5396 37.0848C46.7137 36.7459 46.7718 36.3592 46.7049 35.9841C46.6542 35.6323 46.561 35.3152 46.5157 35.0407C46.4313 34.7466 46.4359 34.4341 46.529 34.1426C46.5308 34.4366 46.5639 34.7296 46.6276 35.0167C46.6862 35.2832 46.7902 35.595 46.8541 35.9655C46.9346 36.3753 46.8725 36.8003 46.6782 37.17C46.5627 37.3611 46.3876 37.5091 46.1799 37.5911C45.9939 37.6601 45.7993 37.7032 45.6016 37.719C45.2864 37.7209 44.9744 37.7824 44.6821 37.9003C44.5906 37.9473 44.5093 38.0121 44.443 38.0907C44.3767 38.1694 44.3266 38.2605 44.2957 38.3586C44.2837 38.4318 44.2766 38.5057 44.2744 38.5798Z" fill="#455A64"/>
<path d="M43.768 37.6717C43.768 37.6717 43.7227 37.613 43.704 37.4824C43.6825 37.2983 43.7188 37.112 43.808 36.9494C43.8692 36.8339 43.9535 36.7323 44.0558 36.651C44.1754 36.5612 44.3125 36.4977 44.4582 36.4644C44.5996 36.4341 44.7342 36.3781 44.8553 36.2992C44.9089 36.2513 44.9509 36.1919 44.9781 36.1254C45.0053 36.0589 45.0171 35.9871 45.0126 35.9154C45.0126 35.7582 44.9939 35.5903 44.9992 35.4224C45.0015 35.262 45.0193 35.1022 45.0525 34.9453C45.1063 34.6803 45.2084 34.4273 45.3537 34.1991C45.3999 34.1154 45.4663 34.0445 45.5468 33.9929C45.6273 33.9412 45.7194 33.9104 45.8147 33.9033C45.9533 33.9033 46.012 33.9673 46.0066 33.9726C46.0013 33.9779 45.9373 33.9486 45.8201 33.9726C45.7399 33.9897 45.6648 34.0251 45.6006 34.0759C45.5364 34.1267 45.4847 34.1917 45.4496 34.2658C45.3293 34.4893 45.2448 34.7303 45.1991 34.98C45.1733 35.1278 45.16 35.2776 45.1591 35.4277C45.1591 35.5823 45.1831 35.7475 45.1751 35.9287C45.179 36.0236 45.1611 36.1181 45.1228 36.2049C45.0844 36.2918 45.0267 36.3687 44.9539 36.4298C44.8164 36.5219 44.6612 36.5845 44.4982 36.6136C44.3769 36.6344 44.2613 36.6808 44.1593 36.7497C44.0573 36.8186 43.9711 36.9085 43.9066 37.0134C43.7971 37.2146 43.7489 37.4434 43.768 37.6717Z" fill="#455A64"/>
<path d="M56.0164 32.1466C56.0298 32.1466 55.8592 32.2612 55.5847 32.1333C55.4302 32.0494 55.2949 31.9341 55.1876 31.7948C55.0555 31.6215 54.8907 31.4757 54.7026 31.3657C54.4579 31.2282 54.1784 31.1647 53.8983 31.1832C53.6182 31.2016 53.3495 31.3012 53.1249 31.4697C52.8584 31.6562 52.6372 31.9201 52.3254 32.1386C52.1669 32.2562 51.9852 32.3388 51.7924 32.3811C51.5929 32.4161 51.3876 32.3967 51.1981 32.3251C50.8197 32.1892 50.5212 31.9574 50.196 31.8401C49.8823 31.7197 49.5487 31.6591 49.2127 31.6615C48.6337 31.6608 48.0711 31.8531 47.6136 32.2079C47.3081 32.4466 47.0542 32.7449 46.8674 33.0847C46.7369 33.3272 46.6889 33.4764 46.6756 33.4711C46.6622 33.4658 46.6756 33.4311 46.6969 33.3592C46.7271 33.2554 46.7645 33.1539 46.8088 33.0554C46.9809 32.6924 47.2312 32.3721 47.5417 32.1173C48.0094 31.7349 48.5926 31.5217 49.1967 31.5123C49.5523 31.5031 49.9064 31.5637 50.2387 31.6909C50.5905 31.8188 50.8943 32.0506 51.2381 32.1706C51.4009 32.2333 51.5777 32.2508 51.7498 32.2212C51.9166 32.183 52.0736 32.1103 52.2108 32.008C52.4906 31.8081 52.7252 31.5443 53.0103 31.3471C53.274 31.1496 53.595 31.0438 53.9244 31.0459C54.2054 31.048 54.481 31.1233 54.7239 31.2645C54.9185 31.3886 55.0877 31.5487 55.2223 31.7362C55.3156 31.8731 55.4363 31.9892 55.5767 32.0773C55.709 32.156 55.8664 32.1808 56.0164 32.1466Z" fill="#455A64"/>
<path d="M51.8137 42.5771C51.8803 42.5771 51.955 43.0089 52.392 43.2621C52.8291 43.5152 53.2955 43.3873 53.3114 43.4486C53.3274 43.5099 53.2182 43.5552 53.0183 43.5925C52.7571 43.641 52.4872 43.5957 52.2561 43.4646C52.0348 43.3365 51.8708 43.1287 51.7977 42.8836C51.7497 42.6997 51.7817 42.5798 51.8137 42.5771Z" fill="#263238"/>
<path d="M79.3913 84.218C78.5799 83.521 77.527 83.1707 76.4598 83.2427L74.6582 88.9644C75.9774 89.0231 77.2939 89.7027 78.5678 89.3535C79.0765 89.1967 79.5298 88.8975 79.874 88.4914C80.2183 88.0853 80.4391 87.5892 80.5106 87.0616C80.566 86.5326 80.4933 85.998 80.2984 85.5031C80.1036 85.0081 79.7924 84.5673 79.3913 84.218Z" fill="#31D3C6"/>
<path d="M76.4811 83.1123C76.4811 83.067 76.6757 83.0297 77.0141 83.0324C77.5177 83.0416 78.016 83.1362 78.4879 83.3122C79.2089 83.5931 79.8329 84.0773 80.2841 84.706C80.5598 85.0789 80.7632 85.5001 80.8837 85.9479C81.0142 86.4379 81.0288 86.9516 80.9264 87.4483C80.8271 87.9517 80.6026 88.4219 80.2734 88.8155C79.9582 89.1739 79.559 89.4487 79.1115 89.615C78.3844 89.872 77.6004 89.9228 76.8462 89.7615C76.3609 89.6664 75.8873 89.519 75.4338 89.3218C75.1166 89.1859 74.9487 89.0846 74.9647 89.0393C74.9807 88.994 75.1726 89.0073 75.4977 89.0633C75.8229 89.1193 76.3159 89.2232 76.9022 89.2765C77.5671 89.3502 78.2399 89.2587 78.861 89.01C79.2015 88.866 79.503 88.6431 79.7404 88.3597C79.9895 88.0497 80.1596 87.6839 80.2361 87.2937C80.3093 86.907 80.3038 86.5094 80.22 86.1248C80.1362 85.7402 79.9759 85.3764 79.7484 85.0551C79.3812 84.4989 78.8762 84.0472 78.2827 83.7439C77.862 83.5454 77.4217 83.3918 76.9688 83.2855C76.6623 83.2163 76.4758 83.1603 76.4811 83.1123Z" fill="#F5F5F5"/>
<path d="M59.7901 104.579L55.8725 115.556L69.5041 120.5C69.8985 119.167 63.7929 113.997 63.7929 113.997L66.5912 107.068L59.7901 104.579Z" fill="#31D3C6"/>
<g opacity="0.6">
<path d="M59.7928 111.878C59.6471 111.871 59.5037 111.917 59.39 112.008C59.2764 112.1 59.2006 112.23 59.1771 112.374C59.1641 112.519 59.2071 112.663 59.2973 112.777C59.3876 112.891 59.5182 112.967 59.6622 112.987C59.8175 112.995 59.9703 112.945 60.0906 112.847C60.2109 112.748 60.2901 112.608 60.3124 112.454C60.3124 112.164 60.0246 111.83 59.7368 111.87" fill="white"/>
</g>
<path d="M55.8725 115.556L56.2696 114.45L69.2162 119.615C69.2162 119.615 69.7279 120.097 69.5041 120.5L55.8725 115.556Z" fill="white"/>
<path d="M64.0408 114.008C64.0141 114.074 63.6704 113.984 63.2653 114.08C62.8602 114.176 62.583 114.392 62.5324 114.346C62.4818 114.301 62.719 113.949 63.212 113.843C63.705 113.736 64.0754 113.952 64.0408 114.008Z" fill="#263238"/>
<path d="M65.2667 115.119C65.2667 115.188 64.9282 115.196 64.6005 115.386C64.2727 115.575 64.0994 115.86 64.0328 115.833C63.9662 115.807 64.0621 115.415 64.4752 115.172C64.8883 114.93 65.2667 115.055 65.2667 115.119Z" fill="#263238"/>
<path d="M65.4453 117.123C65.3813 117.123 65.408 116.75 65.7118 116.446C66.0156 116.143 66.378 116.113 66.386 116.18C66.394 116.247 66.1329 116.369 65.8877 116.622C65.6425 116.875 65.5146 117.142 65.4453 117.123Z" fill="#263238"/>
<path d="M64.5019 112.358C64.4512 112.408 64.1794 112.206 63.7956 112.091C63.4119 111.977 63.0734 111.993 63.0601 111.923C63.0468 111.854 63.4119 111.718 63.8596 111.857C64.3073 111.995 64.5552 112.318 64.5019 112.358Z" fill="#263238"/>
<path d="M64.763 110.622C64.5182 110.601 64.2836 110.514 64.0834 110.372C63.8525 110.24 63.6393 110.078 63.4492 109.892C63.3354 109.783 63.2295 109.667 63.132 109.543C63.0706 109.473 63.0203 109.394 62.9828 109.309C62.956 109.245 62.9512 109.175 62.9691 109.109C62.9869 109.043 63.0265 108.985 63.0814 108.943C63.1315 108.909 63.1889 108.887 63.249 108.879C63.3091 108.87 63.3703 108.876 63.4279 108.896C63.5143 108.927 63.5959 108.97 63.6704 109.023C63.8035 109.112 63.9284 109.213 64.0435 109.325C64.236 109.511 64.3979 109.727 64.5232 109.964C64.6601 110.172 64.7299 110.416 64.7231 110.665C64.6857 110.665 64.6058 110.412 64.3739 110.052C64.2363 109.845 64.0734 109.656 63.8889 109.49C63.7797 109.392 63.663 109.303 63.5398 109.223C63.4092 109.133 63.2866 109.087 63.228 109.138C63.1693 109.189 63.1987 109.167 63.2146 109.221C63.2424 109.283 63.2792 109.342 63.3239 109.394C63.4113 109.512 63.5065 109.624 63.6091 109.73C63.782 109.912 63.9721 110.077 64.1767 110.223C64.5285 110.476 64.779 110.588 64.763 110.622Z" fill="#263238"/>
<path d="M64.6431 110.692C64.5853 110.45 64.6059 110.197 64.7017 109.967C64.7825 109.71 64.9059 109.469 65.0668 109.253C65.1634 109.126 65.2714 109.008 65.3893 108.901C65.4595 108.825 65.5479 108.768 65.6463 108.735C65.7447 108.703 65.8498 108.695 65.9516 108.715C66.0118 108.739 66.064 108.779 66.1022 108.831C66.1404 108.884 66.1631 108.946 66.1675 109.011C66.1725 109.1 66.1653 109.19 66.1462 109.277C66.1042 109.493 66.0194 109.699 65.8968 109.882C65.7741 110.065 65.6161 110.222 65.432 110.343C65.0375 110.61 64.7311 110.578 64.7337 110.554C64.7364 110.53 65.0002 110.468 65.3307 110.202C65.5186 110.049 65.6714 109.857 65.7784 109.639C65.8405 109.513 65.8845 109.378 65.909 109.24C65.941 109.088 65.9277 108.949 65.869 108.947C65.809 108.944 65.7492 108.955 65.6939 108.979C65.6386 109.002 65.5892 109.038 65.5492 109.082C65.4387 109.176 65.337 109.279 65.2454 109.392C65.0892 109.583 64.9617 109.795 64.867 110.023C64.7017 110.426 64.6831 110.692 64.6431 110.692Z" fill="#263238"/>
<path d="M46.5849 75.2636C44.5169 75.3115 42.5554 75.602 41.1296 77.1024C39.2401 79.0932 36.9056 81.9261 36.7723 83.8902C36.5751 86.8218 38.3474 87.7012 39.6399 88.4208C40.2116 88.73 40.8559 88.88 41.5054 88.8552L65.4053 88.6739L66.1542 84.6258L50.6971 80.8148L51.3393 74.9971L46.5849 75.2636Z" fill="#263238"/>
<path d="M51.3527 74.9949L58.8707 74.6484C58.8707 74.6484 71.86 75.3707 74.6289 77.9104C77.3979 80.4502 77.0541 83.3364 76.1293 86.1054C75.2046 88.8743 67.0683 106.594 67.0683 106.594C67.0683 106.594 67.7292 107.721 67.3588 108.846C67.2089 109.339 66.9335 109.784 66.5598 110.138C66.186 110.492 65.7267 110.743 65.2267 110.866L57.9992 108.201C57.9992 108.201 57.0185 107.855 57.7114 106.93C58.4043 106.005 58.8653 105.834 58.8653 105.834V103.988C58.8653 103.988 61.4051 99.3692 61.6343 98.7349C61.8635 98.1006 64.2993 88.7037 64.2993 88.7037L65.917 85.9241C65.917 85.9241 62.0074 84.0853 58.6175 82.7528L50.7024 80.802L51.3527 74.9949Z" fill="#263238"/>
<path d="M63.5477 107.875C63.3291 107.748 63.1173 107.61 62.9135 107.46C61.8924 106.798 60.7423 106.361 59.5396 106.178C59.2873 106.153 59.0365 106.116 58.788 106.066C59.0416 106.037 59.2979 106.041 59.5502 106.079C60.783 106.211 61.9608 106.659 62.9694 107.38C63.1832 107.519 63.3776 107.686 63.5477 107.875Z" fill="#455A64"/>
<path d="M67.1589 106.607C67.0013 106.478 66.8607 106.329 66.7405 106.164C66.4953 105.879 66.1702 105.474 65.8317 105.01C65.4933 104.547 65.2001 104.118 65.0002 103.801C64.8811 103.635 64.781 103.456 64.7018 103.268C64.8449 103.412 64.9718 103.572 65.0802 103.745L65.9437 104.928C66.2661 105.365 66.5619 105.759 66.8178 106.103C66.9495 106.258 67.0639 106.427 67.1589 106.607Z" fill="#455A64"/>
<path d="M69.7973 83.3975C69.7973 83.4188 69.5308 83.4774 69.1124 83.616C68.0167 83.9775 67.0241 84.5973 66.2181 85.4229C66.0608 85.6043 65.8945 85.7778 65.7198 85.9426C65.8325 85.7273 65.9761 85.5298 66.1462 85.3563C66.5339 84.9184 66.9827 84.5387 67.4787 84.229C67.9744 83.9169 68.5131 83.679 69.0777 83.5227C69.3098 83.4448 69.5525 83.4026 69.7973 83.3975Z" fill="#455A64"/>
<path d="M62.4152 95.9446C62.4183 95.8911 62.4281 95.8383 62.4445 95.7873L62.5564 95.3476L62.9881 93.7353L64.4672 88.4292C64.7684 87.3925 65.0242 86.4065 65.3147 85.511C65.6214 84.7329 66.085 84.0262 66.6765 83.435C67.067 83.0344 67.4995 82.677 67.9664 82.369C68.1343 82.2624 68.2649 82.1824 68.3582 82.1345C68.4029 82.1061 68.4502 82.082 68.4994 82.0625C68.4994 82.0625 68.3182 82.1851 67.9984 82.4116C67.5469 82.734 67.1274 83.099 66.7458 83.5016C66.1752 84.0905 65.7292 84.7884 65.4346 85.5537C65.1681 86.4358 64.9016 87.4352 64.6005 88.4665L63.0841 93.7593C62.8869 94.4229 62.7243 94.9639 62.607 95.3583C62.5511 95.5342 62.5084 95.6781 62.4711 95.79C62.4595 95.8438 62.4407 95.8958 62.4152 95.9446Z" fill="#455A64"/>
<path d="M55.7659 82.4083C55.726 82.4083 55.5687 81.0065 55.4115 79.2689C55.2543 77.5313 55.145 76.1189 55.1983 76.1162C55.2516 76.1135 55.3928 77.518 55.5501 79.2556C55.7073 80.9932 55.8033 82.4057 55.7659 82.4083Z" fill="#455A64"/>
<path d="M43.251 86.1745C43.2297 86.1745 43.1151 85.9586 42.8779 85.6255C42.5717 85.1922 42.2046 84.8053 41.7879 84.4768C41.368 84.1526 40.904 83.8896 40.4101 83.696C40.029 83.5468 39.7811 83.4908 39.7865 83.4668C40.0108 83.4773 40.232 83.5232 40.4421 83.6027C41.4843 83.9463 42.3746 84.6416 42.9605 85.5695C43.0899 85.7538 43.188 85.9582 43.251 86.1745Z" fill="#455A64"/>
<path d="M47.8562 81.0583C47.8562 81.0797 47.5257 80.8771 46.974 80.6239C45.5266 79.9664 43.9212 79.7371 42.3476 79.963C41.7479 80.0483 41.3828 80.1549 41.3775 80.1309C41.455 80.0871 41.5385 80.0548 41.6253 80.035C41.8569 79.9633 42.0928 79.9064 42.3316 79.8644C43.9232 79.5851 45.5625 79.8203 47.0114 80.536C47.2286 80.6432 47.4386 80.7643 47.6403 80.8984C47.7193 80.9414 47.792 80.9952 47.8562 81.0583Z" fill="#455A64"/>
<path d="M65.861 84.6179C65.7969 84.6147 65.7334 84.604 65.6718 84.586L65.1388 84.4714L63.1934 84.0423C61.549 83.6745 59.2731 83.1788 56.7493 82.6805C54.2256 82.1821 51.9337 81.769 50.2733 81.4839L48.3039 81.1454L47.7709 81.0521C47.708 81.0447 47.6462 81.0295 47.587 81.0068C47.6503 81.0086 47.7135 81.0139 47.7762 81.0228L48.3092 81.0921C48.7756 81.1561 49.4499 81.2574 50.284 81.3879C51.9496 81.6544 54.2469 82.0435 56.7733 82.5446C59.2998 83.0456 61.5704 83.5546 63.212 83.9464C64.0302 84.1436 64.6938 84.3088 65.1495 84.4287L65.6825 84.5673C65.7434 84.5788 65.8032 84.5957 65.861 84.6179Z" fill="#455A64"/>
<path d="M50.7104 81.4973C50.6837 81.4973 50.6278 81.1829 50.3799 80.7351C50.2349 80.4768 50.0556 80.2392 49.8469 80.0289C49.5837 79.7697 49.3042 79.5276 49.0101 79.304C48.4682 78.9037 47.8952 78.5472 47.2965 78.238C47.0432 78.1176 46.7991 77.9786 46.5663 77.8223C46.8345 77.9071 47.0941 78.0168 47.3418 78.1501C47.9603 78.4368 48.5478 78.786 49.0954 79.1921C49.3935 79.4195 49.6749 79.668 49.9375 79.9356C50.1516 80.1573 50.3312 80.4097 50.4705 80.6845C50.5663 80.8703 50.6388 81.0672 50.6864 81.2708C50.7084 81.3442 50.7165 81.421 50.7104 81.4973Z" fill="#455A64"/>
<path d="M77.3312 85.1084C77.3605 85.1404 76.9608 85.5428 76.649 86.1584C76.3372 86.774 76.2359 87.3284 76.1959 87.3204C76.195 86.8896 76.3091 86.4664 76.5264 86.0945C76.7031 85.7006 76.9807 85.3604 77.3312 85.1084Z" fill="#263238"/>
<g opacity="0.3">
<path d="M60.2245 57.8027L61.9355 69.854L62.0207 70.0458C62.422 65.8796 61.8056 61.6782 60.2245 57.8027Z" fill="black"/>
</g>
<path d="M69.4375 64.7266L63.8756 74.4486L50.1694 74.7471L50.1347 75.368L63.4065 75.2694L63.8276 75.2534L77.8403 75.2827L80.6732 70.3977L84.2923 65.2116C84.3446 65.1347 84.375 65.0449 84.3801 64.9519C84.3852 64.859 84.3649 64.7664 84.3213 64.6842C84.2777 64.6019 84.2125 64.5331 84.1328 64.4852C84.053 64.4373 83.9616 64.412 83.8685 64.4121L69.8799 64.4654C69.7896 64.4661 69.7012 64.4906 69.6235 64.5365C69.5458 64.5823 69.4816 64.6479 69.4375 64.7266Z" fill="#E0E0E0"/>
<path d="M80.6732 70.4053C80.6732 70.4053 81.3927 71.0662 81.2808 71.6259C81.1689 72.1855 81.2035 72.6039 80.6732 72.6412C80.6831 72.846 80.6139 73.0468 80.48 73.202C80.3461 73.3572 80.1576 73.4551 79.9536 73.4754C79.9536 73.4754 80.1162 74.3548 79.0928 74.5067C79.0928 74.5067 78.7783 75.4475 78.1334 75.2183C77.7617 75.0919 77.4044 74.9267 77.0674 74.7253L76.8782 74.3842C76.8782 74.3842 75.9268 74.027 76.1613 73.4914C76.3052 73.1662 76.7956 73.081 76.7956 73.081C76.7391 72.9474 76.7152 72.8024 76.7259 72.6578C76.7366 72.5132 76.7815 72.3733 76.8569 72.2495C77.0834 71.943 77.8243 72.1962 77.8243 72.1962C77.8089 71.9337 77.8926 71.675 78.0588 71.4713C78.3253 71.1701 79.4926 71.983 79.4926 71.983L80.1348 71.2154L80.6732 70.4053Z" fill="#FFBE9D"/>
<path d="M79.0929 74.5068C78.6773 74.3299 78.2809 74.1111 77.9096 73.8539C77.5141 73.6356 77.1426 73.3766 76.8009 73.0811C77.2162 73.2597 77.6126 73.4793 77.9842 73.7366C78.3787 73.9554 78.7502 74.2135 79.0929 74.5068Z" fill="#EB996E"/>
<path d="M79.9536 73.4755C79.5671 73.3235 79.1988 73.1287 78.8556 72.8945C78.489 72.7003 78.1449 72.4661 77.8296 72.1963C78.2168 72.3469 78.5853 72.5419 78.9276 72.7773C79.2943 72.9715 79.6384 73.2057 79.9536 73.4755Z" fill="#EB996E"/>
<path d="M78.781 71.5465C78.8024 71.5065 79.2421 71.7384 79.7538 72.0635C80.0709 72.2466 80.3763 72.4496 80.6679 72.6711C80.6492 72.7164 80.1908 72.5085 79.6791 72.1808C79.3583 72.0015 79.0572 71.7889 78.781 71.5465Z" fill="#EB996E"/>
<path d="M84.2923 64.7846C84.2702 64.7882 84.2477 64.7882 84.2257 64.7846H84.0284H83.2716L80.4893 64.806L71.3083 64.8273H70.6394C70.5408 64.8179 70.4416 64.8352 70.352 64.8774C70.2624 64.9196 70.1859 64.9852 70.1304 65.0671C69.9172 65.4473 69.7093 65.8222 69.5068 66.1918L68.3235 68.3238L66.3167 71.9296C65.7464 72.9476 65.28 73.7738 64.9522 74.3574C64.795 74.6239 64.6671 74.8531 64.5765 75.013L64.4752 75.1809L64.4379 75.2369C64.4379 75.2369 64.4379 75.2129 64.4619 75.1729L64.5525 74.997L64.9069 74.3307L66.2394 71.8816L68.2222 68.2598C68.5953 67.5803 68.9897 66.866 69.3948 66.1278L70.0211 64.9952C70.0894 64.8938 70.1833 64.8123 70.2933 64.7589C70.4033 64.7056 70.5255 64.6823 70.6474 64.6914H71.3163L80.4973 64.71L83.2796 64.734L84.0364 64.7473H84.2337C84.2551 64.7564 84.2749 64.7691 84.2923 64.7846Z" fill="#263238"/>
<path d="M74.4317 69.676C74.367 69.7697 74.3307 69.88 74.3272 69.9937C74.3236 70.1075 74.3529 70.2199 74.4116 70.3174C74.4703 70.4149 74.5559 70.4934 74.6581 70.5435C74.7602 70.5936 74.8747 70.6132 74.9877 70.5998C75.1008 70.5865 75.2076 70.5409 75.2953 70.4684C75.383 70.3959 75.448 70.2997 75.4824 70.1912C75.5169 70.0827 75.5193 69.9666 75.4894 69.8568C75.4594 69.747 75.3985 69.6481 75.3138 69.5721C75.1827 69.4698 75.0166 69.4234 74.8514 69.4428C74.6863 69.4623 74.5355 69.5461 74.4317 69.676Z" fill="white"/>
<g opacity="0.3">
<path d="M35.5224 65.9209C35.4052 65.9688 35.2693 66.0488 35.2693 66.1874C35.2735 66.2389 35.295 66.2874 35.3303 66.3252C35.3657 66.3629 35.4127 66.3876 35.4638 66.3952C35.6593 66.3675 35.8507 66.3165 36.0341 66.2433C37.4759 65.9262 38.6618 66.23 40.0316 66.7763L40.0769 66.731C39.5333 65.5504 37.0735 65.2893 35.5224 65.9209Z" fill="black"/>
</g>
<path d="M109.773 120.019C109.773 120.057 85.6675 120.089 55.9392 120.089C26.2109 120.089 2.1058 120.046 2.1058 120.019C2.1058 119.993 26.2056 119.95 55.9392 119.95C85.6728 119.95 109.773 119.969 109.773 120.019Z" fill="#263238"/>
<path d="M28.0684 35.0647C28.1137 35.11 36.9642 32.0692 36.9642 32.0692L33.553 24.2607L25.6832 27.2802L30.0165 29.7693L28.0684 35.0647Z" fill="#455A64"/>
<path d="M32.2205 26.6105V15.9798C32.2205 15.9798 44.4289 13.7465 53.2262 13.8798C62.0234 14.013 71.0818 15.4548 71.0818 15.4548V25.6618C71.0818 25.6618 43.5095 23.1993 32.2205 26.6105Z" fill="#455A64"/>
<path d="M32.1565 26.6215L36.9536 32.1141V25.6621C36.9536 25.6621 32.9427 26.1418 32.1565 26.6215Z" fill="#263238"/>
<path d="M32.2205 15.9775C32.2605 15.9775 32.2765 18.3761 32.2605 21.3076C32.2445 24.2391 32.1965 26.6376 32.1592 26.6376C32.1219 26.6376 32.1033 24.2551 32.1192 21.3076C32.1352 18.3601 32.1805 15.9775 32.2205 15.9775Z" fill="#263238"/>
<path d="M75.2125 34.2481C75.1672 34.2934 66.3167 31.2526 66.3167 31.2526L69.7199 23.4414L77.5977 26.4555L73.2617 28.9447L75.2125 34.2481Z" fill="#455A64"/>
<path d="M71.1298 25.8055L66.3327 31.2981V25.3125C67.9411 25.3676 69.5438 25.5323 71.1298 25.8055Z" fill="#263238"/>
<path d="M71.0765 15.4551C71.1138 15.4551 71.1564 17.771 71.1697 20.6305C71.1831 23.4901 71.1697 25.806 71.1244 25.806C71.0791 25.806 71.0445 23.4901 71.0312 20.6305C71.0178 17.771 71.0365 15.4551 71.0765 15.4551Z" fill="#263238"/>
<path d="M39.1042 20.6399C39.0791 20.3338 39.1447 20.0271 39.2929 19.7582C39.4411 19.4892 39.6653 19.2699 39.9375 19.1277C40.2097 18.9855 40.5177 18.9267 40.8231 18.9587C41.1286 18.9906 41.4178 19.1119 41.6546 19.3074L41.2815 19.7551C41.1811 19.6634 41.0617 19.5951 40.9317 19.555C40.8018 19.5149 40.6646 19.5041 40.53 19.5232C40.2911 19.5564 40.0752 19.6832 39.9297 19.8756C39.7843 20.068 39.7213 20.3104 39.7545 20.5493C39.7877 20.7882 39.9145 21.0041 40.1069 21.1495C40.2993 21.2949 40.5416 21.358 40.7805 21.3248C40.916 21.307 41.0457 21.2589 41.1601 21.1842C41.2745 21.1094 41.3707 21.0099 41.4414 20.893L41.9105 21.2208C41.7367 21.4736 41.4922 21.6696 41.2076 21.7841C40.923 21.8986 40.6109 21.9266 40.3105 21.8645C40.0101 21.8025 39.7346 21.6532 39.5186 21.4354C39.3026 21.2176 39.1557 20.9408 39.0962 20.6399H39.1042Z" fill="white"/>
<path d="M42.0118 20.2416C41.9621 19.9339 42.0061 19.6184 42.1378 19.336C42.2695 19.0536 42.483 18.8172 42.7506 18.6574C43.0183 18.4977 43.3277 18.422 43.6388 18.4401C43.9499 18.4583 44.2485 18.5694 44.4957 18.7591C44.743 18.9488 44.9276 19.2084 45.0256 19.5042C45.1237 19.8001 45.1306 20.1185 45.0456 20.4184C44.9606 20.7182 44.7876 20.9856 44.5488 21.186C44.3101 21.3864 44.0168 21.5104 43.7067 21.5422C43.5093 21.5737 43.3075 21.5646 43.1137 21.5155C42.9198 21.4664 42.7381 21.3783 42.5794 21.2565C42.4208 21.1348 42.2887 20.9821 42.1911 20.8076C42.0935 20.6331 42.0324 20.4405 42.0118 20.2416ZM44.4396 19.9911C44.4179 19.8182 44.3458 19.6555 44.2323 19.5233C44.1188 19.3911 43.9688 19.2952 43.8012 19.2477C43.6335 19.2001 43.4556 19.203 43.2895 19.2559C43.1235 19.3088 42.9767 19.4094 42.8675 19.5452C42.7583 19.681 42.6914 19.846 42.6754 20.0195C42.6593 20.193 42.6946 20.3674 42.777 20.521C42.8594 20.6746 42.9852 20.8005 43.1387 20.883C43.2922 20.9656 43.4665 21.0011 43.6401 20.9852C43.7597 20.9773 43.8765 20.9447 43.9829 20.8893C44.0893 20.834 44.183 20.7572 44.2582 20.6637C44.3333 20.5703 44.3883 20.4623 44.4195 20.3465C44.4507 20.2307 44.4576 20.1097 44.4396 19.9911Z" fill="white"/>
<path d="M48.2932 21.128L48.1786 19.4278L47.4351 20.8829L47.1419 20.9015L46.2225 19.5903L46.3317 21.2533L45.7161 21.2933L45.5456 18.4604L46.0786 18.4257L47.2512 20.118L48.1813 18.2925L48.7143 18.2578L48.9062 21.0881L48.2932 21.128Z" fill="white"/>
<path d="M51.9629 19.1875C51.9789 19.8218 51.5152 20.2269 50.7583 20.2536L50.1854 20.2695L50.2093 21.0531L49.5511 21.0717L49.4711 18.2175L50.6997 18.1828C51.4592 18.1722 51.9416 18.5533 51.9629 19.1875ZM51.2967 19.2062C51.2967 18.8944 51.0808 18.7185 50.6784 18.7292L50.1454 18.7452L50.1747 19.7312L50.7077 19.7152C51.1075 19.7046 51.3047 19.5153 51.2967 19.2062Z" fill="white"/>
<path d="M52.4746 18.1572H53.1302V20.4598H54.5534V20.9928H52.4746V18.1572Z" fill="white"/>
<path d="M57.0985 20.543V21.076L54.8998 21.0121L54.9824 18.1738L57.1144 18.2378L57.0985 18.7708L55.606 18.7255L55.59 19.3438L56.9066 19.3811L56.8906 19.8928L55.5741 19.8528L55.5554 20.511L57.0985 20.543Z" fill="white"/>
<path d="M58.3137 18.8314L57.4076 18.7781L57.4396 18.2451L59.9074 18.3944L59.8754 18.9274L58.9693 18.8714L58.8307 21.1713L58.1751 21.1313L58.3137 18.8314Z" fill="white"/>
<path d="M62.2979 20.932L62.2499 21.465L60.0593 21.2624L60.3258 18.4375L62.4578 18.6347L62.4098 19.1677L60.9227 19.0185L60.8668 19.6341L62.178 19.754L62.1326 20.263L60.8188 20.1431L60.7602 20.796L62.2979 20.932Z" fill="white"/>
<path d="M63.1187 18.6953L64.3952 18.8659C65.3147 18.9885 65.8717 19.6254 65.7597 20.4649C65.6478 21.3044 64.9389 21.7974 64.0195 21.6641L62.7429 21.4936L63.1187 18.6953ZM64.0594 21.1391C64.1754 21.1578 64.294 21.1529 64.4081 21.125C64.5222 21.097 64.6296 21.0465 64.7238 20.9764C64.8181 20.9062 64.8973 20.8179 64.9569 20.7167C65.0164 20.6154 65.0551 20.5032 65.0706 20.3868C65.0861 20.2703 65.0781 20.1519 65.0471 20.0386C65.016 19.9253 64.9626 19.8193 64.89 19.727C64.8174 19.6347 64.727 19.5578 64.6241 19.501C64.5213 19.4442 64.4081 19.4086 64.2913 19.3962L63.697 19.3163L63.4651 21.0592L64.0594 21.1391Z" fill="white"/>
<path d="M76.5371 16.4204L77.2353 17.2385L79.2021 16.4204L78.6265 15.5596L76.5371 16.4204Z" fill="#455A64"/>
<path d="M75.6363 12.5273C75.6363 12.7297 75.5763 12.9275 75.4638 13.0958C75.3514 13.2641 75.1916 13.3953 75.0046 13.4727C74.8176 13.5502 74.6118 13.5705 74.4133 13.531C74.2148 13.4915 74.0324 13.394 73.8893 13.2509C73.7462 13.1078 73.6487 12.9254 73.6092 12.7269C73.5697 12.5284 73.59 12.3226 73.6675 12.1356C73.7449 11.9487 73.8761 11.7888 74.0444 11.6764C74.2127 11.5639 74.4105 11.5039 74.6129 11.5039C74.8841 11.5046 75.144 11.6127 75.3358 11.8044C75.5276 11.9962 75.6356 12.2561 75.6363 12.5273Z" fill="#31D3C6"/>
<path d="M52.7118 27.7927C52.7113 27.8942 52.6806 27.9931 52.6237 28.0771C52.5668 28.161 52.4862 28.2262 52.3922 28.2643C52.2982 28.3023 52.195 28.3116 52.0957 28.2909C51.9964 28.2702 51.9055 28.2205 51.8346 28.148C51.7636 28.0755 51.7158 27.9836 51.6972 27.8839C51.6786 27.7842 51.69 27.6812 51.73 27.588C51.7701 27.4949 51.8369 27.4157 51.922 27.3605C52.0071 27.3054 52.1067 27.2768 52.2081 27.2784C52.3429 27.2805 52.4714 27.3357 52.5657 27.432C52.6601 27.5283 52.7126 27.6579 52.7118 27.7927Z" fill="#31D3C6"/>
<path d="M28.8732 20.101C28.8732 20.1782 28.8503 20.2537 28.8073 20.3178C28.7643 20.3819 28.7032 20.4317 28.6318 20.461C28.5604 20.4903 28.4819 20.4977 28.4063 20.4822C28.3306 20.4668 28.2613 20.4292 28.2071 20.3742C28.1529 20.3193 28.1163 20.2495 28.1019 20.1736C28.0875 20.0978 28.096 20.0194 28.1262 19.9484C28.1565 19.8774 28.2072 19.817 28.2719 19.7749C28.3366 19.7328 28.4123 19.7109 28.4895 19.712C28.5918 19.7134 28.6894 19.755 28.7612 19.8278C28.833 19.9006 28.8733 19.9988 28.8732 20.101Z" fill="#31D3C6"/>
<path d="M27.4288 15.8181L28.5748 15.8874L29.1184 13.6328L28.0471 13.6781L27.4288 15.8181Z" fill="#455A64"/>
<path d="M63.2466 33.8151L63.6331 34.8971L65.9197 34.5133L65.4586 33.5459L63.2466 33.8151Z" fill="#31D3C6"/>
<path d="M40.1196 27.5713L39.4134 28.4774L40.9618 30.2017L41.5321 29.2929L40.1196 27.5713Z" fill="#455A64"/>
<path d="M37.3826 6.28516L40.0876 9.04345L43.8959 7.60434L44.0478 8.55042L42.3982 11.927L43.9199 14.4481L43.792 15.2023L40.1063 14.5814L37.9263 16.9719L37.4146 16.5855L36.9642 13.5447L33.5264 11.7538L33.3745 11.0582L36.8363 10.1121L37.3826 6.28516Z" fill="#31D3C6"/>
<g opacity="0.3">
<path d="M37.3826 6.28613L40.0876 9.04443L43.8959 7.60532L44.0478 8.5514L42.3982 11.928L43.9199 14.4491L43.792 15.2033L40.1063 14.5823L37.9263 16.9729L37.4146 16.5864L36.9642 13.5456L33.5263 11.7548L33.3744 11.0592L36.8363 10.1131L37.3826 6.28613Z" fill="black"/>
</g>
<path d="M37.3826 5.50977L40.0876 8.27072L43.8959 7.60447L42.1077 11.0317L43.9199 14.4482L40.1063 13.8086L37.4146 16.5856L36.847 12.7613L33.3745 11.0583L36.8363 9.33673L37.3826 5.50977Z" fill="#31D3C6"/>
<path d="M65.4319 6.28516L62.7243 9.04345L58.9159 7.60434L58.764 8.55042L60.4137 11.927L58.892 14.4481L59.0199 15.2023L62.7056 14.5814L64.8856 16.9719L65.3973 16.5855L65.8477 13.5447L69.2855 11.7538L69.4374 11.0582L65.9756 10.1121L65.4319 6.28516Z" fill="#31D3C6"/>
<g opacity="0.3">
<path d="M65.4319 6.28613L62.7243 9.04443L58.916 7.60532L58.7641 8.5514L60.4137 11.928L58.892 14.4491L59.0199 15.2033L62.7056 14.5823L64.8856 16.9729L65.3973 16.5864L65.8477 13.5456L69.2856 11.7548L69.4375 11.0592L65.9756 10.1131L65.4319 6.28613Z" fill="black"/>
</g>
<path d="M65.4319 5.50977L62.7243 8.27072L58.916 7.60447L60.7042 11.0317L58.892 14.4482L62.7056 13.8086L65.3973 16.5856L65.9649 12.7613L69.4374 11.0583L65.9756 9.33673L65.4319 5.50977Z" fill="#31D3C6"/>
<path d="M51.318 1.44336L53.57 5.84331L58.7641 5.53683L58.5882 6.74675L55.2889 10.2406L56.1817 13.8943L55.7419 14.7658L51.4806 12.6045L47.9121 14.6938L47.4351 14.0249L48.0427 10.142L44.5302 6.64814L44.6102 5.7447L49.194 5.90727L51.318 1.44336Z" fill="#31D3C6"/>
<g opacity="0.3">
<path d="M51.318 1.44336L53.57 5.84331L58.7641 5.53683L58.5882 6.74675L55.2889 10.2406L56.1817 13.8943L55.7419 14.7658L51.4806 12.6045L47.9121 14.6938L47.4351 14.0249L48.0427 10.142L44.5302 6.64814L44.6102 5.7447L49.194 5.90727L51.318 1.44336Z" fill="black"/>
</g>
<path d="M51.6112 0.5L53.8631 4.89728L58.7641 5.53688L55.2756 9.03872L56.1817 13.8944L51.7764 11.6611L47.4351 14.025L48.1999 9.14266L44.6102 5.74476L49.4898 4.96124L51.6112 0.5Z" fill="#31D3C6"/>
<path d="M60.5843 39.9724L64.3473 40.3881C65.6177 38.5895 67.5149 37.3312 69.666 36.8603C71.8171 36.3894 74.0665 36.7401 75.9722 37.8435C77.8778 38.9468 79.3019 40.723 79.9646 42.8229C80.6272 44.9228 80.4805 47.1947 79.5533 49.192C78.626 51.1893 76.9853 52.7675 74.9536 53.6166C72.9219 54.4656 70.646 54.5241 68.5734 53.7805C66.5007 53.0369 64.7811 51.5449 63.7525 49.5979C62.724 47.6509 62.4608 45.3895 63.0148 43.2583L60.5843 39.9724Z" fill="#FAFAFA"/>
<path d="M60.5843 39.9721C60.7308 40.1693 61.493 41.1767 63.0494 43.2421H62.9934C62.9953 43.2377 62.9982 43.2338 63.0018 43.2306C63.0054 43.2275 63.0096 43.2252 63.0142 43.2239C63.0188 43.2226 63.0237 43.2224 63.0284 43.2233C63.0331 43.2241 63.0375 43.226 63.0414 43.2287C63.0477 43.2325 63.0526 43.2381 63.0554 43.2448C63.0583 43.2515 63.059 43.2589 63.0574 43.266C62.6759 44.7611 62.6962 46.3305 63.116 47.8152C63.2393 48.2608 63.4025 48.6942 63.6037 49.1104C63.7103 49.3236 63.8116 49.5422 63.9262 49.758L64.3233 50.3896C65.5913 52.2278 67.5095 53.5164 69.6906 53.9954C70.898 54.2608 72.148 54.2662 73.3577 54.0114C74.6328 53.7339 75.8312 53.1789 76.8675 52.3857C77.9529 51.5615 78.8255 50.4897 79.4126 49.2597C80.0205 48.009 80.3202 46.631 80.2867 45.2408C80.2479 43.9109 79.9109 42.6068 79.3007 41.4245C78.7268 40.3038 77.9134 39.323 76.9182 38.5516C75.1255 37.166 72.8695 36.5212 70.6154 36.7501C69.6629 36.8644 68.7331 37.1213 67.8571 37.5123C66.4633 38.1564 65.2624 39.1542 64.3739 40.4065C64.3712 40.4116 64.3668 40.4157 64.3615 40.4181C64.3562 40.4205 64.3503 40.4211 64.3446 40.4198L60.5843 39.9721L64.3526 40.3532L64.3206 40.3692C65.2063 39.0999 66.4128 38.0884 67.8171 37.4376C68.6975 37.032 69.635 36.7641 70.5967 36.6435C72.8817 36.4015 75.1721 37.0486 76.9928 38.4504C78.0052 39.2308 78.8324 40.2255 79.4153 41.3632C80.0384 42.5625 80.3819 43.8872 80.42 45.2382C80.4551 46.6502 80.1517 48.0501 79.5352 49.321C78.9377 50.57 78.0505 51.6582 76.9475 52.495C75.8942 53.2991 74.6768 53.8614 73.3817 54.142C72.1506 54.4009 70.8783 54.3928 69.6507 54.118C67.4463 53.6321 65.5093 52.3258 64.2327 50.4643L63.8329 49.8247C63.7183 49.6061 63.6171 49.3823 63.5078 49.1664C63.3073 48.7447 63.145 48.3059 63.0227 47.8552C62.6047 46.3546 62.5937 44.7697 62.9908 43.2634L63.0547 43.2874C63.0498 43.2951 63.0421 43.3007 63.0333 43.3032C63.0244 43.3057 63.015 43.3048 63.0068 43.3007L60.5843 39.9721Z" fill="#263238"/>
<path d="M68.3048 42.3194C68.3079 42.3602 68.3079 42.4012 68.3048 42.442C68.3048 42.53 68.3048 42.6419 68.3048 42.7831C68.3048 43.0923 68.3048 43.5214 68.3208 44.065C68.3208 45.171 68.3395 46.73 68.3528 48.5956L68.2915 48.5343H74.5623C74.5783 48.5183 74.4317 48.6648 74.493 48.6009V47.7481C74.493 47.4683 74.493 47.1884 74.493 46.9113V45.2883C74.493 44.2383 74.493 43.2442 74.493 42.3301L74.5516 42.3914L70.0211 42.3594L68.7392 42.3461H68.3981H68.2755H68.3848H68.7152L69.9811 42.3301L74.5463 42.3008H74.6076V42.3594C74.6076 43.2735 74.6076 44.2676 74.6076 45.3176V48.5982C74.6715 48.5369 74.525 48.6862 74.5383 48.6702H68.2675H68.2062V48.5982C68.2062 46.7167 68.2275 45.147 68.2355 44.033C68.2355 43.5 68.2355 43.0683 68.2515 42.7645C68.2515 42.6286 68.2515 42.5193 68.2515 42.434C68.2641 42.3936 68.282 42.3551 68.3048 42.3194Z" fill="#263238"/>
<path d="M73.8987 43.3566C73.9893 43.4286 73.1472 44.6438 72.0145 46.0723C71.7907 46.3574 71.5695 46.6293 71.3643 46.8718L71.231 47.0343L71.0818 46.8984C70.1011 46.0163 69.4375 45.3394 69.4961 45.2701C69.5547 45.2008 70.3249 45.7605 71.3403 46.6026L71.0551 46.6293C71.2497 46.3628 71.4629 46.0963 71.6894 45.8138C72.8194 44.3853 73.8108 43.2873 73.8987 43.3566Z" fill="#31D3C6"/>
</svg>
