<svg width="20" height="20" viewBox="0 0 20 20" fill="none" xmlns="http://www.w3.org/2000/svg">
<mask id="path-1-inside-1_2179_5994" fill="white">
<path d="M8.4625 12.311L8.455 12.2935C8.34234 12.2627 8.23062 12.2285 8.12 12.191L8.11167 12.1877C6.96047 11.7938 5.96124 11.0498 5.25385 10.0599C4.54647 9.0699 4.16634 7.88354 4.16667 6.66682C4.1663 5.17358 4.73859 3.73705 5.76566 2.65312C6.79273 1.5692 8.19638 0.920418 9.68747 0.840416C11.1786 0.760414 12.6436 1.25528 13.7807 2.22309C14.9179 3.1909 15.6406 4.55794 15.8 6.04265C15.8367 6.38599 15.5533 6.66682 15.2083 6.66682C14.8633 6.66682 14.5875 6.38515 14.5417 6.04349C14.4308 5.23705 14.1072 4.47466 13.6042 3.83469C13.1011 3.19472 12.4367 2.70025 11.6793 2.40209C10.9218 2.10394 10.0986 2.01285 9.29431 2.1382C8.49 2.26354 7.73356 2.6008 7.10276 3.11531C6.47195 3.62982 5.98952 4.30301 5.70506 5.06572C5.42059 5.82842 5.34434 6.65311 5.48415 7.45504C5.62396 8.25696 5.97479 9.0072 6.50057 9.62864C7.02636 10.2501 7.70814 10.7203 8.47584 10.991C8.63049 10.6414 8.90059 10.3556 9.24089 10.1815C9.58118 10.0074 9.97098 9.95561 10.3449 10.0347C10.7189 10.1138 11.0543 10.3191 11.295 10.6161C11.5356 10.9131 11.6668 11.2837 11.6667 11.666C11.6667 12.1643 11.4483 12.611 11.1025 12.916C10.7981 13.1848 10.4061 13.3333 10 13.3335C9.67124 13.3347 9.34954 13.2381 9.07578 13.056C8.80202 12.874 8.58856 12.6146 8.4625 12.311ZM6.66417 12.9168C6.04997 12.5886 5.48754 12.1716 4.995 11.6793C4.53845 11.7324 4.11731 11.9514 3.81159 12.2946C3.50587 12.6378 3.33686 13.0814 3.33667 13.541V14.0227C3.33667 14.766 3.60167 15.486 4.085 16.0518C5.39 17.5802 7.37834 18.3352 10 18.3352C12.6217 18.3352 14.6108 17.5802 15.9183 16.0518C16.4028 15.4858 16.6691 14.7652 16.6692 14.0202V13.541C16.6692 13.044 16.4719 12.5673 16.1206 12.2158C15.7693 11.8642 15.2928 11.6664 14.7958 11.666H12.9167C12.9167 12.1143 12.8167 12.5377 12.6358 12.916H14.7958C14.9613 12.9164 15.1199 12.9825 15.2367 13.0996C15.3536 13.2168 15.4192 13.3755 15.4192 13.541V14.0202C15.4193 14.4672 15.2597 14.8996 14.9692 15.2393C13.9217 16.4627 12.2825 17.0843 10 17.0843C7.7175 17.0843 6.08 16.4627 5.03584 15.2402C4.74548 14.9006 4.5859 14.4686 4.58584 14.0218V13.541C4.58584 13.3752 4.65168 13.2163 4.76889 13.099C4.88611 12.9818 5.04508 12.916 5.21084 12.916L6.66417 12.9168ZM6.66667 6.66682C6.66682 6.09186 6.81569 5.52672 7.09881 5.0263C7.38193 4.52588 7.78968 4.1072 8.28243 3.81095C8.77519 3.51469 9.3362 3.35092 9.91095 3.33556C10.4857 3.3202 11.0547 3.45377 11.5625 3.72328C12.0704 3.9928 12.4999 4.3891 12.8094 4.87368C13.1188 5.35827 13.2977 5.91465 13.3285 6.48878C13.3594 7.06291 13.2412 7.63526 12.9855 8.15022C12.7298 8.66518 12.3452 9.10525 11.8692 9.42765C11.3447 8.98988 10.6832 8.75011 10 8.75015C10.5525 8.75015 11.0824 8.53066 11.4731 8.13996C11.8638 7.74926 12.0833 7.21936 12.0833 6.66682C12.0833 6.11429 11.8638 5.58438 11.4731 5.19368C11.0824 4.80298 10.5525 4.58349 10 4.58349C9.44747 4.58349 8.91756 4.80298 8.52686 5.19368C8.13616 5.58438 7.91667 6.11429 7.91667 6.66682C7.91667 7.21936 8.13616 7.74926 8.52686 8.13996C8.91756 8.53066 9.44747 8.75015 10 8.75015C9.28834 8.75015 8.63667 9.00515 8.13167 9.42765C7.67991 9.12278 7.31002 8.71153 7.05456 8.2301C6.7991 7.74867 6.66589 7.21183 6.66667 6.66682Z"/>
</mask>
<path d="M8.4625 12.311L9.84787 11.7359L9.84459 11.728L9.84122 11.7201L8.4625 12.311ZM8.455 12.2935L9.83372 11.7026L9.54866 11.0375L8.85061 10.8466L8.455 12.2935ZM8.12 12.191L7.56296 13.5837L7.60024 13.5986L7.63826 13.6115L8.12 12.191ZM8.11167 12.1877L8.66871 10.7949L8.63331 10.7808L8.59724 10.7684L8.11167 12.1877ZM4.16667 6.66682L5.66667 6.66723L5.66667 6.66645L4.16667 6.66682ZM15.8 6.04265L17.2915 5.88337L17.2914 5.88253L15.8 6.04265ZM14.5417 6.04349L16.0284 5.84405L16.0277 5.83924L14.5417 6.04349ZM8.47584 10.991L7.97704 12.4056L9.28603 12.8672L9.84759 11.5979L8.47584 10.991ZM11.6667 11.666L10.1667 11.6654V11.666H11.6667ZM11.1025 12.916L10.1103 11.791L10.1095 11.7917L11.1025 12.916ZM10 13.3335L9.99925 11.8335L9.99467 11.8335L10 13.3335ZM6.66417 12.9168L6.66331 14.4168L7.37112 11.5939L6.66417 12.9168ZM4.995 11.6793L6.05542 10.6184L5.5423 10.1055L4.82167 10.1894L4.995 11.6793ZM3.33667 13.541L1.83667 13.5404V13.541H3.33667ZM4.085 16.0518L5.22573 15.0778L5.22555 15.0776L4.085 16.0518ZM15.9183 16.0518L14.7787 15.0765L14.7785 15.0767L15.9183 16.0518ZM16.6692 14.0202L18.1692 14.0203V14.0202H16.6692ZM16.6692 13.541H15.1692H16.6692ZM14.7958 11.666L14.7972 10.166H14.7958V11.666ZM12.9167 11.666V10.166H11.4167V11.666H12.9167ZM12.6358 12.916L11.2825 12.2691L10.2563 14.416H12.6358V12.916ZM14.7958 12.916L14.7998 11.416H14.7958V12.916ZM15.4192 13.541L13.9192 13.541V13.541H15.4192ZM15.4192 14.0202H13.9192V14.0206L15.4192 14.0202ZM14.9692 15.2393L16.1085 16.2149L16.1092 16.2142L14.9692 15.2393ZM5.03584 15.2402L6.17642 14.266L6.17584 14.2653L5.03584 15.2402ZM4.58584 14.0218H3.08584L3.08584 14.022L4.58584 14.0218ZM5.21084 12.916L5.2117 11.416H5.21084V12.916ZM6.66667 6.66682L8.16667 6.66896L8.16667 6.66722L6.66667 6.66682ZM11.8692 9.42765L10.908 10.5792L11.7751 11.303L12.7103 10.6696L11.8692 9.42765ZM10 8.75015V10.2502V8.75015ZM10 4.58349V3.08349V4.58349ZM8.13167 9.42765L7.29257 10.671L8.22833 11.3025L9.09419 10.5781L8.13167 9.42765ZM9.84122 11.7201L9.83372 11.7026L7.07628 12.8844L7.08378 12.9019L9.84122 11.7201ZM8.85061 10.8466C8.76691 10.8237 8.68392 10.7983 8.60175 10.7705L7.63826 13.6115C7.77732 13.6587 7.91776 13.7017 8.0594 13.7404L8.85061 10.8466ZM8.67704 10.7983L8.66871 10.7949L7.55463 13.5804L7.56296 13.5837L8.67704 10.7983ZM8.59724 10.7684C7.74206 10.4758 6.99978 9.92316 6.47429 9.18777L4.03342 10.9319C4.9227 12.1764 6.17887 13.1117 7.6261 13.6069L8.59724 10.7684ZM6.47429 9.18777C5.94881 8.45238 5.66642 7.57108 5.66667 6.66723L2.66667 6.66641C2.66625 8.196 3.14413 9.68743 4.03342 10.9319L6.47429 9.18777ZM5.66667 6.66645C5.66639 5.55718 6.09152 4.49005 6.85449 3.68485L4.67683 1.6214C3.38565 2.98405 2.6662 4.78997 2.66667 6.66719L5.66667 6.66645ZM6.85449 3.68485C7.61746 2.87964 8.66017 2.39769 9.76784 2.33826L9.60711 -0.65743C7.73259 -0.556855 5.96801 0.258754 4.67683 1.6214L6.85449 3.68485ZM9.76784 2.33826C10.8755 2.27883 11.9638 2.64645 12.8085 3.36539L14.7529 1.08079C13.3234 -0.135885 11.4816 -0.758004 9.60711 -0.65743L9.76784 2.33826ZM12.8085 3.36539C13.6533 4.08433 14.1902 5.09985 14.3086 6.20278L17.2914 5.88253C17.091 4.01604 16.1825 2.29746 14.7529 1.08079L12.8085 3.36539ZM14.3085 6.20194C14.2391 5.55253 14.7724 5.16682 15.2083 5.16682V8.16682C16.3343 8.16682 17.4342 7.21944 17.2915 5.88337L14.3085 6.20194ZM15.2083 5.16682C15.7346 5.16682 15.9911 5.56639 16.0284 5.84406L13.055 6.24292C13.1839 7.20392 13.9921 8.16682 15.2083 8.16682V5.16682ZM16.0277 5.83924C15.8806 4.76892 15.4511 3.75708 14.7835 2.9077L12.4249 4.76169C12.7634 5.19225 12.9811 5.70517 13.0556 6.24774L16.0277 5.83924ZM14.7835 2.9077C14.1158 2.05832 13.234 1.40205 12.2287 1.00633L11.1299 3.79785C11.6395 3.99845 12.0865 4.33113 12.4249 4.76169L14.7835 2.9077ZM12.2287 1.00633C11.2234 0.610616 10.1308 0.489726 9.06333 0.656088L9.52529 3.62031C10.0664 3.53598 10.6202 3.59726 11.1299 3.79785L12.2287 1.00633ZM9.06333 0.656088C7.99584 0.82245 6.99189 1.27006 6.15467 1.95292L8.05084 4.2777C8.47524 3.93154 8.98415 3.70464 9.52529 3.62031L9.06333 0.656088ZM6.15467 1.95292C5.31746 2.63578 4.67718 3.52926 4.29963 4.54153L7.11048 5.5899C7.30187 5.07677 7.62644 4.62385 8.05084 4.2777L6.15467 1.95292ZM4.29963 4.54153C3.92208 5.5538 3.82088 6.64834 4.00644 7.71267L6.96186 7.19741C6.8678 6.65788 6.9191 6.10304 7.11048 5.5899L4.29963 4.54153ZM4.00644 7.71267C4.192 8.777 4.65762 9.77272 5.35545 10.5975L7.6457 8.65978C7.29196 8.24168 7.05593 7.73693 6.96186 7.19741L4.00644 7.71267ZM5.35545 10.5975C6.05328 11.4223 6.95814 12.0464 7.97704 12.4056L8.97463 9.57635C8.45813 9.39423 7.99944 9.07787 7.6457 8.65978L5.35545 10.5975ZM9.84759 11.5979C9.86305 11.5629 9.89006 11.5343 9.92409 11.5169L8.55768 8.84617C7.91113 9.17696 7.39792 9.71994 7.10409 10.3841L9.84759 11.5979ZM9.92409 11.5169C9.95812 11.4995 9.9971 11.4943 10.0345 11.5022L10.6554 8.56719C9.94485 8.41688 9.20424 8.51538 8.55768 8.84617L9.92409 11.5169ZM10.0345 11.5022C10.0719 11.5101 10.1054 11.5307 10.1295 11.5604L12.4604 9.67177C12.0032 9.10748 11.3659 8.7175 10.6554 8.56719L10.0345 11.5022ZM10.1295 11.5604C10.1536 11.5901 10.1667 11.6271 10.1667 11.6654L13.1667 11.6666C13.167 10.9403 12.9176 10.236 12.4604 9.67177L10.1295 11.5604ZM10.1667 11.666C10.1667 11.7162 10.1468 11.7589 10.1103 11.791L12.0947 14.041C12.7499 13.4631 13.1667 12.6124 13.1667 11.666H10.1667ZM10.1095 11.7917C10.0791 11.8186 10.0399 11.8335 9.99925 11.8335L10.0008 14.8335C10.7723 14.8331 11.5172 14.551 12.0955 14.0402L10.1095 11.7917ZM9.99467 11.8335C9.96328 11.8336 9.93256 11.8244 9.90642 11.807L8.24514 14.305C8.76652 14.6518 9.37919 14.8357 10.0053 14.8335L9.99467 11.8335ZM9.90642 11.807C9.88029 11.7896 9.8599 11.7649 9.84787 11.7359L7.07714 12.8861C7.31721 13.4644 7.72376 13.9583 8.24514 14.305L9.90642 11.807ZM7.37112 11.5939C6.88699 11.3352 6.44365 11.0065 6.05542 10.6184L3.93458 12.7402C4.53142 13.3368 5.21296 13.8421 5.95722 14.2398L7.37112 11.5939ZM4.82167 10.1894C3.99988 10.285 3.24183 10.6791 2.69153 11.2969L4.93165 13.2923C4.9928 13.2237 5.07703 13.1799 5.16834 13.1693L4.82167 10.1894ZM2.69153 11.2969C2.14123 11.9146 1.83701 12.713 1.83667 13.5404L4.83667 13.5416C4.83671 13.4497 4.87051 13.361 4.93165 13.2923L2.69153 11.2969ZM1.83667 13.541V14.0227H4.83667V13.541H1.83667ZM1.83667 14.0227C1.83667 15.1225 2.22869 16.1881 2.94446 17.0261L5.22555 15.0776C4.97465 14.7838 4.83667 14.4095 4.83667 14.0227H1.83667ZM2.94428 17.0259C4.62062 18.9891 7.09263 19.8352 10 19.8352V16.8352C7.66405 16.8352 6.15939 16.1712 5.22573 15.0778L2.94428 17.0259ZM10 19.8352C12.9076 19.8352 15.3796 18.989 17.0581 17.0269L14.7785 15.0767C13.8421 16.1713 12.3357 16.8352 10 16.8352V19.8352ZM17.0579 17.0272C17.775 16.1894 18.1691 15.123 18.1692 14.0203L15.1692 14.02C15.1691 14.4074 15.0307 14.7821 14.7787 15.0765L17.0579 17.0272ZM18.1692 14.0202V13.541H15.1692V14.0202H18.1692ZM18.1692 13.541C18.1692 12.6464 17.814 11.7884 17.1817 11.1556L15.0595 13.2759C15.1297 13.3463 15.1692 13.4416 15.1692 13.541L18.1692 13.541ZM17.1817 11.1556C16.5494 10.5227 15.6918 10.1668 14.7972 10.166L14.7945 13.166C14.8939 13.1661 14.9892 13.2056 15.0595 13.2759L17.1817 11.1556ZM14.7958 10.166H12.9167V13.166H14.7958V10.166ZM11.4167 11.666C11.4167 11.8887 11.3675 12.0912 11.2825 12.2691L13.9892 13.5629C14.2658 12.9841 14.4167 12.3399 14.4167 11.666H11.4167ZM12.6358 14.416H14.7958V11.416H12.6358V14.416ZM14.7918 14.416C14.5602 14.4154 14.3382 14.3229 14.1746 14.1589L16.2988 12.0404C15.9015 11.642 15.3624 11.4175 14.7998 11.416L14.7918 14.416ZM14.1746 14.1589C14.011 13.9948 13.9192 13.7726 13.9192 13.541L16.9192 13.541C16.9192 12.9784 16.6961 12.4387 16.2988 12.0404L14.1746 14.1589ZM13.9192 13.541V14.0202H16.9192V13.541H13.9192ZM13.9192 14.0206C13.9192 14.11 13.8873 14.1965 13.8292 14.2644L16.1092 16.2142C16.6321 15.6027 16.9194 14.8244 16.9192 14.0197L13.9192 14.0206ZM13.8298 14.2637C13.1647 15.0404 12.0204 15.5843 10 15.5843V18.5843C12.5446 18.5843 14.6786 17.8849 16.1085 16.2149L13.8298 14.2637ZM10 15.5843C7.97917 15.5843 6.83776 15.0402 6.17642 14.266L3.89525 16.2144C5.32224 17.8851 7.45584 18.5843 10 18.5843V15.5843ZM6.17584 14.2653C6.11777 14.1974 6.08585 14.111 6.08584 14.0216L3.08584 14.022C3.08595 14.8262 3.3732 15.6039 3.89584 16.215L6.17584 14.2653ZM6.08584 14.0218V13.541H3.08584V14.0218H6.08584ZM6.08584 13.541C6.08584 13.7731 5.99365 13.9956 5.82956 14.1597L3.70823 12.0384C3.30972 12.4369 3.08584 12.9774 3.08584 13.541H6.08584ZM5.82956 14.1597C5.66546 14.3238 5.4429 14.416 5.21084 14.416V11.416C4.64725 11.416 4.10675 11.6399 3.70823 12.0384L5.82956 14.1597ZM5.20998 14.416L6.66331 14.4168L6.66503 11.4168L5.2117 11.416L5.20998 14.416ZM8.16667 6.66722C8.16675 6.35099 8.24863 6.04016 8.40435 5.76493L5.79328 4.28767C5.38275 5.01328 5.16689 5.83274 5.16667 6.66642L8.16667 6.66722ZM8.40435 5.76493C8.56006 5.4897 8.78433 5.25943 9.05534 5.09649L7.50953 2.5254C6.79503 2.95498 6.2038 3.56206 5.79328 4.28767L8.40435 5.76493ZM9.05534 5.09649C9.32636 4.93354 9.63491 4.84347 9.95102 4.83503L9.87088 1.8361C9.03748 1.85837 8.22402 2.09583 7.50953 2.5254L9.05534 5.09649ZM9.95102 4.83503C10.2671 4.82658 10.5801 4.90004 10.8594 5.04827L12.2657 2.39829C11.5293 2.0075 10.7043 1.81382 9.87088 1.8361L9.95102 4.83503ZM10.8594 5.04827C11.1387 5.19651 11.375 5.41447 11.5452 5.68099L14.0736 4.06637C13.6249 3.36373 13.0021 2.78909 12.2657 2.39829L10.8594 5.04827ZM11.5452 5.68099C11.7154 5.94751 11.8137 6.25352 11.8307 6.5693L14.8264 6.40826C14.7816 5.57578 14.5223 4.76902 14.0736 4.06637L11.5452 5.68099ZM11.8307 6.5693C11.8477 6.88507 11.7827 7.19986 11.642 7.48309L14.329 8.81735C14.6998 8.07066 14.8711 7.24075 14.8264 6.40826L11.8307 6.5693ZM11.642 7.48309C11.5014 7.76632 11.2899 8.00835 11.028 8.18568L12.7103 10.6696C13.4006 10.2021 13.9582 9.56405 14.329 8.81735L11.642 7.48309ZM12.8304 8.27608C12.0361 7.61317 11.0344 7.25009 9.99991 7.25015L10.0001 10.2502C10.3319 10.2501 10.6532 10.3666 10.908 10.5792L12.8304 8.27608ZM10 10.2502C10.9504 10.2502 11.8618 9.87263 12.5338 9.20062L10.4125 7.0793C10.3031 7.1887 10.1547 7.25015 10 7.25015V10.2502ZM12.5338 9.20062C13.2058 8.52862 13.5833 7.61718 13.5833 6.66682H10.5833C10.5833 6.82153 10.5219 6.9699 10.4125 7.0793L12.5338 9.20062ZM13.5833 6.66682C13.5833 5.71646 13.2058 4.80503 12.5338 4.13302L10.4125 6.25434C10.5219 6.36374 10.5833 6.51211 10.5833 6.66682H13.5833ZM12.5338 4.13302C11.8618 3.46102 10.9504 3.08349 10 3.08349V6.08349C10.1547 6.08349 10.3031 6.14495 10.4125 6.25434L12.5338 4.13302ZM10 3.08349C9.04964 3.08349 8.13821 3.46102 7.4662 4.13302L9.58752 6.25434C9.69692 6.14495 9.84529 6.08349 10 6.08349V3.08349ZM7.4662 4.13302C6.7942 4.80503 6.41667 5.71646 6.41667 6.66682H9.41667C9.41667 6.51211 9.47813 6.36374 9.58752 6.25434L7.4662 4.13302ZM6.41667 6.66682C6.41667 7.61718 6.7942 8.52862 7.4662 9.20062L9.58752 7.0793C9.47813 6.9699 9.41667 6.82153 9.41667 6.66682H6.41667ZM7.4662 9.20062C8.13821 9.87263 9.04964 10.2502 10 10.2502V7.25015C9.84529 7.25015 9.69692 7.1887 9.58752 7.0793L7.4662 9.20062ZM10 7.25015C8.92361 7.25015 7.93406 7.63724 7.16915 8.27719L9.09419 10.5781C9.33928 10.3731 9.65306 10.2502 10 10.2502V7.25015ZM8.97077 8.1843C8.72281 8.01697 8.51979 7.79124 8.37957 7.527L5.72955 8.9332C6.10026 9.63181 6.63702 10.2286 7.29257 10.671L8.97077 8.1843ZM8.37957 7.527C8.23935 7.26276 8.16624 6.9681 8.16667 6.66896L5.16667 6.66468C5.16554 7.45556 5.35884 8.23459 5.72955 8.9332L8.37957 7.527Z" fill="black" mask="url(#path-1-inside-1_2179_5994)"/>
</svg>
