<svg width="20" height="20" viewBox="0 0 20 20" fill="none" xmlns="http://www.w3.org/2000/svg">
<g clip-path="url(#clip0_1796_13390)">
<path d="M0.400024 2.40039C0.267416 2.40039 0.140239 2.45307 0.046471 2.54684C-0.0472972 2.64061 -0.0999756 2.76778 -0.0999756 2.90039V17.1004C-0.0999756 17.233 -0.0472972 17.3602 0.046471 17.4539C0.140239 17.5477 0.267416 17.6004 0.400024 17.6004H13.776C13.6015 17.3703 13.4266 17.1403 13.2512 16.9104C13.0328 16.5882 12.7156 16.3124 12.6226 15.9208C11.3366 16.4516 9.85902 16.5008 8.53942 16.0602C8.51042 16.0508 8.48202 16.0392 8.45322 16.0294C8.30182 16.1774 8.13862 16.4354 8.11282 16.6004H6.21142C6.35422 16.1166 6.05102 15.3612 6.33782 14.8688C6.36062 14.8628 6.38822 14.8242 6.40083 14.7844C6.36842 14.754 6.33562 14.7244 6.30402 14.6934C6.02282 14.779 5.91042 14.9908 5.75402 15.1766C5.83942 15.5814 5.22302 15.4856 5.28522 15.8986C5.71462 16.2316 4.88882 15.9778 4.64322 16.0044C4.38262 16.0072 3.62022 15.7344 3.88482 16.2924C3.84342 16.4456 3.88162 16.5396 3.95782 16.6004H3.84102C3.82282 16.4252 3.49282 16.3992 3.36562 16.3132C3.15142 16.2612 2.89562 16.2352 2.67382 16.1364C2.61682 16.2948 2.10242 16.476 1.98982 16.6004H0.900024V9.29419C1.05342 9.39699 1.39742 9.35619 0.928625 9.13419H0.900024V6.83139C0.991024 6.78539 1.05602 6.77079 1.05202 6.84779C1.27742 6.77179 1.37562 6.22319 1.76562 6.44779C2.00882 6.48359 2.41122 6.86059 2.20902 6.90779C2.36662 7.29259 2.47842 7.04479 2.67182 7.50339C2.53942 8.13059 3.04642 8.59539 3.32462 8.99519C3.65782 9.13359 3.78962 9.56439 4.33122 9.58119C4.40482 9.64559 4.49922 9.70399 4.59762 9.75999C4.62482 9.55306 4.66262 9.34812 4.71102 9.14519C4.69802 9.14219 4.68542 9.14039 4.67142 9.13579C4.15042 9.61639 4.04362 8.78439 4.55242 8.75179C4.58642 8.74966 4.62309 8.75132 4.66242 8.75679C4.72142 8.74979 4.77042 8.75679 4.81182 8.77139C4.97892 8.22364 5.22649 7.70376 5.54642 7.22879C5.71839 6.97251 5.91125 6.73089 6.12302 6.50639C6.01782 6.33039 5.91022 6.23219 5.78322 6.46199C5.77362 6.12099 4.85162 5.76359 5.53002 6.09079C5.88582 6.39739 6.00242 6.03759 6.05862 5.79199C6.36362 5.47399 5.74602 5.36539 5.85862 5.15759C5.67142 4.87699 5.39422 4.58959 5.10942 4.41579C4.55702 4.47979 4.36342 4.36319 5.10202 4.36279C5.16862 4.01779 5.27922 3.77339 5.35542 3.48299C5.27542 3.45999 5.19182 3.46359 5.10942 3.46339C4.75602 3.41599 4.54622 3.55259 4.55342 3.82239C4.28802 3.80119 4.52642 3.34879 4.11722 3.48699C3.49682 3.47719 4.24682 3.68679 4.18922 3.71699C4.11822 3.87619 3.67122 3.77699 3.72382 3.93839C3.51902 3.55959 3.42582 4.11899 3.26642 3.73579C3.17042 3.64379 3.66842 3.82659 3.55502 3.49119C3.30422 3.39519 3.21442 3.56319 3.01902 3.63179C2.43582 3.95459 3.12082 4.25819 3.41702 4.36579C3.86342 4.24679 3.86302 4.09639 4.17342 4.26179C4.52142 4.45479 3.82202 4.31919 3.84342 4.61619C3.80342 4.43159 3.75342 4.32019 3.53742 4.55679C3.24942 4.60879 3.12082 4.21299 2.90582 4.24079C2.41582 4.17419 2.59882 5.27619 3.00242 4.90099C3.24662 5.32359 2.69042 5.01179 2.52542 4.96459C2.15282 5.38079 1.75142 4.95379 1.30662 4.93659C1.16422 4.84179 1.02462 4.84059 0.900024 4.88879V3.40039H6.14462C5.77062 3.41059 5.43662 3.45999 5.57262 3.72899C5.55062 4.24779 6.22182 3.83579 6.31842 4.30499C6.59722 4.63279 6.15262 5.32979 6.63482 5.20739C6.45742 5.42319 6.47962 5.76699 6.61802 6.03799C7.13003 5.60832 7.71066 5.26784 8.33562 5.03079C8.34662 4.96919 8.33803 4.89839 8.30122 4.81479C8.23862 4.50099 8.52982 4.40079 8.42782 4.05279C8.56502 3.79079 8.45862 3.51359 8.22342 3.40039H19.1V4.81599C19.069 4.80279 19.0371 4.79157 19.0046 4.78239C18.7228 5.03779 18.9506 5.06199 19.1 5.00459V5.22779C18.7668 5.04039 18.4008 5.01979 18.0454 5.09779C17.884 4.81719 17.3126 4.82379 17.1246 4.57119C16.7934 4.17439 17.2256 4.29279 17.5146 4.26219C17.4326 4.01419 16.9406 3.89659 16.7328 3.93759C16.3574 4.14319 16.93 4.32759 16.8722 4.60359C16.8722 4.80419 16.6276 4.80559 16.4142 4.79459C16.5004 4.58219 16.0056 4.32099 15.8094 4.49379C15.438 4.38139 15.2964 4.44739 15.5414 4.06059C15.4558 3.76319 15.102 3.75759 14.9434 3.55119C14.7408 3.98079 14.403 3.85059 14.041 4.11219C13.896 4.32419 13.594 4.51459 13.579 4.65459C13.3546 4.75999 13.13 4.22219 12.9726 4.69859C12.8298 5.10179 12.9806 5.29719 12.4988 4.96719C12.0002 4.43579 13.5004 3.98059 12.9428 3.75439C12.48 3.88939 12.2018 4.21559 12.1098 4.67899C12.06 4.78439 12.0826 4.85779 12.1352 4.91719C13.892 5.44119 15.3458 6.85399 15.9368 8.58719C15.946 8.48279 15.9634 8.38239 15.9984 8.30899C16.1462 8.19619 16.029 8.74199 16.3344 8.43159C16.1094 8.91459 16.9 8.49559 17.007 8.29619C16.8502 7.90259 17.571 7.71719 17.5542 7.64299C17.2888 7.36459 17.4396 7.64159 17.1468 7.70539C17.0498 7.57619 17.3328 6.86779 16.9562 6.93279C16.3938 6.78799 17.4346 6.37379 17.7156 6.52619C17.8436 6.05259 18.0276 6.42979 17.7114 6.64759C17.591 7.06779 17.6486 7.64099 18.0028 7.07939C18.162 6.92439 18.1224 6.52039 18.3296 6.44999C18.608 6.31879 19.1048 6.21619 19.0918 5.81059C19.0946 5.80979 19.0972 5.80999 19.1 5.80939V16.6004H18.3082C18.4798 16.3628 18.7068 15.9564 18.4664 15.809C18.1042 15.7464 17.8336 15.3096 17.3958 15.3278C17.1982 15.1002 16.7432 14.985 16.6208 14.9406C16.4984 14.8962 16.286 15.1528 16.0684 15.0394C16.0029 15.0289 15.9361 15.0301 15.871 15.043C16.5258 15.893 17.1744 16.7476 17.8254 17.6004H19.6C19.7326 17.6004 19.8598 17.5477 19.9536 17.4539C20.0473 17.3602 20.1 17.233 20.1 17.1004V2.90039C20.1 2.76778 20.0473 2.64061 19.9536 2.54684C19.8598 2.45307 19.7326 2.40039 19.6 2.40039H0.400024ZM10.138 3.46439C9.81602 3.62299 10.387 4.25439 10.4028 3.65159C10.4618 3.73959 10.8576 3.82839 10.7282 3.54459C10.4406 3.37519 10.4842 3.56999 10.1378 3.46459M14.754 3.46499C14.4066 3.63419 15.058 3.63739 14.754 3.46499V3.46499ZM3.71802 3.52239C3.45802 3.71559 4.09962 3.90679 3.75202 3.53259L3.71802 3.52239ZM5.84702 3.63699C5.78282 3.67719 5.91202 3.69939 5.84702 3.63699V3.63699ZM3.33602 3.88399C3.32002 3.88659 3.36662 3.91939 3.33602 3.88399V3.88399ZM4.22662 3.96639C4.20262 4.09439 4.54002 4.02079 4.22662 3.96639V3.96639ZM4.66562 4.00239C4.77502 4.07639 4.96362 3.98339 4.66562 4.00239V4.00239ZM3.79062 4.01559C3.76582 4.10539 3.98442 4.03559 3.79062 4.01559V4.01559ZM4.41102 4.29719C4.31462 4.35819 4.60702 4.34239 4.41102 4.29719V4.29719ZM4.54922 4.60899C4.43122 4.98539 4.96862 5.49499 4.55162 5.06599C4.43702 4.89439 4.37742 4.72999 4.54922 4.60899ZM3.84962 4.64699C4.02142 4.93399 4.28302 5.01059 4.06402 5.10939C3.91862 5.03899 3.88502 4.81979 3.84962 4.64699ZM6.54542 4.93619C6.48022 4.94019 6.56962 4.95239 6.54542 4.93619V4.93619ZM2.49022 5.02679C2.45922 5.02819 2.46782 5.11759 2.49022 5.02679V5.02679ZM4.03902 5.17359C3.94762 5.17019 4.02502 5.36279 4.03902 5.17359V5.17359ZM5.18862 5.17479C5.11382 5.54479 5.41062 5.52119 5.39062 5.55839C5.14542 5.66639 5.20402 6.11119 5.01642 5.77179C4.89802 5.71659 5.07722 5.22819 5.15782 5.18539L5.18862 5.17479ZM3.98322 5.17519C3.98142 5.26179 4.00942 5.18119 3.98322 5.17519V5.17519ZM18.4504 5.20839C18.4156 5.24239 18.4584 5.22199 18.4504 5.20839V5.20839ZM3.99762 5.25679C3.81482 5.38679 4.13402 5.39959 3.99762 5.25679V5.25679ZM10.3532 5.45339C9.26262 5.46102 8.20401 5.82278 7.33682 6.48419C5.11882 8.17319 4.68722 11.3572 6.37622 13.5752C7.95722 15.6514 10.8442 16.1522 13.0262 14.8228L13.443 15.3702C13.361 15.561 13.3686 15.7434 13.464 15.869L16.488 19.84C16.668 20.0762 17.1026 20.048 17.4586 19.7768C17.8146 19.5058 17.9572 19.0944 17.7774 18.858L14.7534 14.887C14.6578 14.7614 14.484 14.7054 14.2782 14.7338L13.8614 14.1866C15.7232 12.4366 16.0086 9.52059 14.4278 7.44439C13.5832 6.33539 12.3648 5.67339 11.0804 5.49939C10.8394 5.46674 10.5964 5.45137 10.3532 5.45339ZM4.67542 5.95499C4.80042 6.25179 5.28322 6.07759 5.09422 6.48219C5.30462 6.68019 5.06082 7.37819 4.97902 6.78339C4.45542 6.78079 4.20542 6.25839 4.64502 5.98419L4.67542 5.95499ZM5.13162 6.00419C4.87962 6.07999 5.29162 6.14019 5.13162 6.00419V6.00419ZM17.6972 6.36979C17.7112 6.35979 17.746 6.43159 17.6972 6.36979V6.36979ZM10.5546 6.57399C10.6806 6.57892 10.806 6.58972 10.9306 6.60639C11.4432 6.67566 11.937 6.84558 12.3836 7.10637C12.8303 7.36716 13.221 7.71368 13.5332 8.12599C13.8474 8.53673 14.0773 9.00548 14.2099 9.50533C14.3424 10.0052 14.3749 10.5263 14.3055 11.0387C14.2361 11.5512 14.0662 12.0449 13.8055 12.4915C13.5448 12.9381 13.1985 13.3288 12.7864 13.6412C12.3757 13.9554 11.9069 14.1854 11.407 14.3179C10.9072 14.4505 10.386 14.483 9.87358 14.4136C9.36111 14.3442 8.8674 14.1743 8.42078 13.9136C7.97416 13.6529 7.58343 13.3065 7.27102 12.8944C6.95686 12.4836 6.72693 12.0149 6.59441 11.515C6.46189 11.0152 6.4294 10.4941 6.49881 9.98161C6.56822 9.46917 6.73815 8.97548 6.99886 8.52888C7.25957 8.08228 7.60592 7.69158 8.01802 7.37919C8.74379 6.8232 9.64106 6.53838 10.5546 6.57399ZM18.2722 6.77999C17.9582 7.03979 18.6492 6.99219 18.2722 6.77999V6.77999ZM18.6462 6.99639C18.2986 7.16619 18.95 7.16639 18.6462 6.99639V6.99639ZM18.8726 7.07559C18.5626 7.33359 19.1886 7.19799 18.8726 7.07559V7.07559ZM18.8602 7.13159C18.8496 7.14979 18.8774 7.13139 18.8602 7.13159V7.13159ZM18.8898 7.16379C18.8648 7.16699 18.8992 7.17899 18.8898 7.16379V7.16379ZM10.422 7.37239C9.98483 7.36459 9.55322 7.46239 9.15522 7.63799C9.17602 7.66339 9.20582 7.68779 9.24942 7.70979C8.84943 7.57979 8.73302 8.08519 8.90142 8.31259L9.17202 8.33479L9.39822 8.23519C9.54443 8.08319 9.58082 8.10939 9.62802 7.87919L9.71622 7.89059L9.78622 7.86139L9.94562 7.94019C10.1368 8.01499 10.1458 8.17619 10.0818 8.22339C9.99122 8.27919 10.098 8.28739 10.1068 8.32199C10.152 8.30899 10.1784 8.26999 10.2068 8.24919L10.258 8.23079C10.4448 8.10819 10.3144 8.06779 10.1846 7.90239L10.2534 7.91999C10.354 8.03399 10.4132 8.16299 10.4728 8.29999C10.4796 8.30539 10.4858 8.31239 10.4936 8.31479C10.5388 8.32979 10.6026 8.32479 10.6572 8.30979C10.7112 8.29499 10.7148 8.19199 10.7056 8.09339C10.7826 8.44459 11.5378 8.34019 11.0884 8.55439C10.8294 8.56019 10.4178 8.41819 10.342 8.59759C10.1744 8.52159 10.0888 8.47179 10.0548 8.43279C9.95162 8.39399 9.65462 8.28159 9.64402 8.28159C9.63142 8.28159 9.25342 8.35039 9.25342 8.35039L8.94142 8.46879C8.84002 8.79559 8.68002 8.62079 8.62562 8.87419C8.58302 9.03619 8.21642 9.38619 8.40842 9.66179C8.57982 10.459 9.57362 9.92819 9.80522 10.311C9.69642 10.5468 10.2346 10.9954 9.93342 11.3816C10.0754 11.9426 10.457 12.8804 11.071 12.082C11.233 11.604 11.5818 11.3456 11.5694 10.8714C11.384 10.4044 12.4754 10.0582 12.0388 9.67999C11.9342 9.69239 11.9222 9.71499 11.8392 9.74259C11.6648 9.73599 11.6198 9.59539 11.5604 9.50699C11.5151 9.4425 11.4749 9.37448 11.4404 9.30359C11.5514 9.47559 11.666 9.62159 11.8268 9.71139C12.105 9.64899 12.424 9.44319 12.5538 9.29219C12.5506 8.70359 13.3418 9.31419 13.3258 9.75659C13.3748 9.87579 13.437 9.95859 13.4994 10.007C13.4553 9.72402 13.3708 9.44882 13.2486 9.18979C13.0268 8.70299 12.6716 8.28499 12.24 7.97219C12.232 7.98459 12.212 7.98539 12.216 7.95539C12.1576 7.91406 12.098 7.87466 12.037 7.83719C12.0437 7.86506 12.0516 7.89326 12.0608 7.92179C12.0346 7.88279 12.007 7.84319 11.9842 7.80499C11.513 7.52739 10.9726 7.36819 10.4222 7.37219L10.422 7.37239ZM16.9294 7.39879C17.0744 7.81199 16.425 8.76959 16.3306 8.14099C16.3972 7.83019 16.9302 7.87699 16.9294 7.39879ZM4.75442 7.50799C4.74982 7.52299 4.78362 7.50459 4.75442 7.50799V7.50799ZM5.06262 7.65339C4.99222 7.68979 5.12082 7.70179 5.06262 7.65339V7.65339ZM11.0682 7.66659C11.2296 7.80259 11.7248 7.98259 11.2006 7.83899C10.9278 7.96359 10.8434 7.88379 11.0682 7.66659ZM9.82062 7.90859C9.78542 7.91939 9.81522 7.99239 9.79322 8.01539C9.94322 8.08879 9.85923 7.94599 9.88142 7.92259C9.85102 7.90819 9.83222 7.90479 9.82062 7.90859ZM12.1072 8.05759C12.1536 8.17819 12.1844 8.25519 12.0652 8.10559C12.0751 8.1009 12.084 8.09421 12.0912 8.08596C12.0984 8.0777 12.1039 8.06804 12.1072 8.05759ZM9.83462 8.07259C9.77582 8.06619 9.74462 8.10559 9.74442 8.16059C9.89942 8.24479 9.88342 8.10579 9.90242 8.09519C9.8813 8.08362 9.85847 8.07597 9.83462 8.07259ZM12.2292 8.92919C12.3176 8.93279 12.1446 9.05719 12.1742 8.93619C12.1988 8.93079 12.2166 8.92859 12.2292 8.92919ZM18.3214 9.71159C18.0334 10.0176 18.6646 10.0714 18.3214 9.71159V9.71159ZM18.3014 9.75919C18.296 9.77959 18.331 9.75599 18.3014 9.75919V9.75919ZM18.3262 9.80299C18.2962 9.79799 18.329 9.82359 18.3262 9.80299V9.80299ZM18.5356 9.84299C18.2566 10.0858 18.8724 9.99739 18.5356 9.84299V9.84299ZM18.5656 9.91199C18.5616 9.94139 18.5868 9.90839 18.5656 9.91199V9.91199ZM18.5262 9.92259C18.51 9.93659 18.5446 9.94739 18.5262 9.92259V9.92259ZM16.2468 10.237C16.2518 10.3618 16.2528 10.4865 16.25 10.611C16.4794 10.6476 16.7668 10.6372 16.7722 10.891C17.1834 10.9088 16.7298 11.5094 16.7148 10.9534C16.5473 10.9293 16.3764 10.9582 16.2262 11.0362C16.1846 11.4726 16.0953 11.9032 15.9598 12.3202C16.2958 12.2136 16.6386 12.224 16.841 12.5506C17.374 12.5486 16.9206 12.912 17.2984 12.9862C17.4594 12.6574 17.2136 12.6988 17.5156 12.4308C17.8086 12.0562 17.6168 11.5724 17.3246 11.3678C17.2638 11.1362 17.0216 11.011 17.1356 10.853C17.3576 11.154 17.6722 10.9286 17.4096 10.7658C17.6034 10.5848 18.2958 11.2322 17.907 10.7342C17.715 10.6986 17.4512 10.3016 17.3914 10.5572C17.3742 10.7692 16.8452 10.2354 16.65 10.4538C16.5936 10.257 16.3176 10.3758 16.302 10.4636C16.3868 10.3316 16.3334 10.2634 16.2468 10.237ZM17.2644 10.408C16.9778 10.5708 17.5232 10.5652 17.2644 10.408V10.408ZM9.77742 10.422C9.77082 10.4306 9.80042 10.474 9.77742 10.422V10.422ZM7.26682 10.4464C7.26082 10.7241 7.29168 11.0014 7.35862 11.271C7.58862 10.9226 7.57962 10.5954 7.26682 10.4464ZM17.2496 10.456C17.2284 10.4608 17.2668 10.4684 17.2496 10.456V10.456ZM17.4434 10.48C17.3498 10.546 17.5368 10.546 17.4434 10.48V10.48ZM17.4434 10.482C17.3582 10.5432 17.5284 10.5432 17.4434 10.482V10.482ZM17.2688 10.4994C17.2392 10.4958 17.272 10.5196 17.2688 10.4994V10.4994ZM16.2484 10.7166C16.2464 10.7646 16.2422 10.8126 16.239 10.8606C16.3036 10.7878 16.3316 10.7126 16.2484 10.7166ZM11.69 10.9238C11.4588 11.0508 11.9374 11.1088 11.7374 10.9598L11.7288 10.9384L11.69 10.9238ZM11.9604 10.9594C11.732 11.1022 11.3776 11.783 11.869 11.8044C11.9874 11.6636 12.2876 11.0358 11.9604 10.9594ZM18.1556 11.393C17.9726 11.754 18.687 11.6096 18.1556 11.393V11.393ZM12.3264 11.441C12.0292 11.6404 12.6146 11.6152 12.3264 11.441V11.441ZM18.6326 12.2642C18.8018 12.6472 18.2406 12.8766 18.283 13.2322C18.571 13.371 18.7196 12.8486 18.9224 12.6888C19.1622 12.4792 18.7336 12.4172 18.6326 12.2642ZM5.33102 13.4422C5.36382 13.653 5.46262 13.857 5.63902 13.9192C5.52863 13.7653 5.42584 13.6061 5.33102 13.4422Z" fill="black"/>
</g>
<defs>
<clipPath id="clip0_1796_13390">
<rect width="20" height="20" fill="white"/>
</clipPath>
</defs>
</svg>
