<svg width="17" height="16" viewBox="0 0 17 16" fill="none" xmlns="http://www.w3.org/2000/svg">
<path fill-rule="evenodd" clip-rule="evenodd" d="M13.5 11.567C13.5 12.36 12.86 13 12.067 13H4.933C4.14 13 3.5 12.36 3.5 11.567V4.433C3.5 3.64 4.14 3 4.933 3H6.5V2.505C6.50081 2.38735 6.54227 2.27359 6.61735 2.18302C6.69244 2.09244 6.79654 2.03061 6.912 2.008L7 2C7.276 2 7.5 2.214 7.5 2.505V3H9.5V2.505C9.50081 2.38735 9.54227 2.27359 9.61735 2.18302C9.69244 2.09244 9.79654 2.03061 9.912 2.008L10 2C10.276 2 10.5 2.214 10.5 2.505V3H12.067C12.86 3 13.5 3.64 13.5 4.433V11.567ZM4.5 6V11.33C4.5 11.7 4.8 12 5.17 12H11.83C12.2 12 12.5 11.7 12.5 11.33V6H4.5ZM6 10C6.245 10 6.45 10.183 6.492 10.412L6.5 10.5C6.5 10.745 6.317 10.95 6.088 10.992L6 11C5.8678 10.9987 5.74137 10.9456 5.64789 10.8521C5.5544 10.7586 5.5013 10.6322 5.5 10.5C5.5 10.255 5.683 10.05 5.912 10.008L6 10ZM8.5 10C8.745 10 8.95 10.183 8.992 10.412L9 10.5C9 10.745 8.817 10.95 8.588 10.992L8.5 11C8.3678 10.9987 8.24137 10.9456 8.14789 10.8521C8.0544 10.7586 8.0013 10.6322 8 10.5C8 10.255 8.183 10.05 8.412 10.008L8.5 10ZM11 10C11.245 10 11.45 10.183 11.492 10.412L11.5 10.5C11.5 10.745 11.317 10.95 11.088 10.992L11 11C10.8678 10.9987 10.7414 10.9456 10.6479 10.8521C10.5544 10.7586 10.5013 10.6322 10.5 10.5C10.5 10.255 10.683 10.05 10.912 10.008L11 10ZM6 8.5C6.245 8.5 6.45 8.683 6.492 8.912L6.5 9C6.5 9.245 6.317 9.45 6.088 9.492L6 9.5C5.8678 9.4987 5.74137 9.4456 5.64789 9.35211C5.5544 9.25863 5.5013 9.1322 5.5 9C5.5 8.755 5.683 8.55 5.912 8.508L6 8.5ZM8.5 8.5C8.745 8.5 8.95 8.683 8.992 8.912L9 9C9 9.245 8.817 9.45 8.588 9.492L8.5 9.5C8.3678 9.4987 8.24137 9.4456 8.14789 9.35211C8.0544 9.25863 8.0013 9.1322 8 9C8 8.755 8.183 8.55 8.412 8.508L8.5 8.5ZM11 8.5C11.245 8.5 11.45 8.683 11.492 8.912L11.5 9C11.5 9.245 11.317 9.45 11.088 9.492L11 9.5C10.8678 9.4987 10.7414 9.4456 10.6479 9.35211C10.5544 9.25863 10.5013 9.1322 10.5 9C10.5 8.755 10.683 8.55 10.912 8.508L11 8.5ZM6 7C6.245 7 6.45 7.183 6.492 7.412L6.5 7.5C6.5 7.745 6.317 7.95 6.088 7.992L6 8C5.8678 7.9987 5.74137 7.9456 5.64789 7.85211C5.5544 7.75863 5.5013 7.6322 5.5 7.5C5.5 7.255 5.683 7.05 5.912 7.008L6 7ZM8.5 7C8.745 7 8.95 7.183 8.992 7.412L9 7.5C9 7.745 8.817 7.95 8.588 7.992L8.5 8C8.3678 7.9987 8.24137 7.9456 8.14789 7.85211C8.0544 7.75863 8.0013 7.6322 8 7.5C8 7.255 8.183 7.05 8.412 7.008L8.5 7ZM11 7C11.245 7 11.45 7.183 11.492 7.412L11.5 7.5C11.5 7.745 11.317 7.95 11.088 7.992L11 8C10.8678 7.9987 10.7414 7.9456 10.6479 7.85211C10.5544 7.75863 10.5013 7.6322 10.5 7.5C10.5 7.255 10.683 7.05 10.912 7.008L11 7ZM4.5 5H12.5V4.67C12.5 4.3 12.2 4 11.83 4H5.17C4.8 4 4.5 4.3 4.5 4.67V5Z" fill="black"/>
</svg>
