<svg width="22" height="23" viewBox="0 0 22 23" fill="none" xmlns="http://www.w3.org/2000/svg">
<g filter="url(#filter0_d_1804_4745)">
<path d="M8.75 4.75V5H11.25V4.75C11.25 4.41848 11.1183 4.10054 10.8839 3.86612C10.6495 3.6317 10.3315 3.5 10 3.5C9.66848 3.5 9.35054 3.6317 9.11612 3.86612C8.8817 4.10054 8.75 4.41848 8.75 4.75ZM7.75 5V4.75C7.75 4.15326 7.98705 3.58097 8.40901 3.15901C8.83097 2.73705 9.40326 2.5 10 2.5C10.5967 2.5 11.169 2.73705 11.591 3.15901C12.0129 3.58097 12.25 4.15326 12.25 4.75V5H16C16.1326 5 16.2598 5.05268 16.3536 5.14645C16.4473 5.24021 16.5 5.36739 16.5 5.5C16.5 5.63261 16.4473 5.75979 16.3536 5.85355C16.2598 5.94732 16.1326 6 16 6H15.246L14.3 14.284C14.2302 14.8941 13.9384 15.4572 13.4801 15.8659C13.0218 16.2746 12.4291 16.5003 11.815 16.5H8.185C7.57093 16.5003 6.97823 16.2746 6.51993 15.8659C6.06162 15.4572 5.76976 14.8941 5.7 14.284L4.754 6H4C3.86739 6 3.74021 5.94732 3.64645 5.85355C3.55268 5.75979 3.5 5.63261 3.5 5.5C3.5 5.36739 3.55268 5.24021 3.64645 5.14645C3.74021 5.05268 3.86739 5 4 5H7.75ZM9 8.25C9 8.11739 8.94732 7.99021 8.85355 7.89645C8.75979 7.80268 8.63261 7.75 8.5 7.75C8.36739 7.75 8.24021 7.80268 8.14645 7.89645C8.05268 7.99021 8 8.11739 8 8.25V13.25C8 13.3826 8.05268 13.5098 8.14645 13.6036C8.24021 13.6973 8.36739 13.75 8.5 13.75C8.63261 13.75 8.75979 13.6973 8.85355 13.6036C8.94732 13.5098 9 13.3826 9 13.25V8.25ZM11.5 7.75C11.3674 7.75 11.2402 7.80268 11.1464 7.89645C11.0527 7.99021 11 8.11739 11 8.25V13.25C11 13.3826 11.0527 13.5098 11.1464 13.6036C11.2402 13.6973 11.3674 13.75 11.5 13.75C11.6326 13.75 11.7598 13.6973 11.8536 13.6036C11.9473 13.5098 12 13.3826 12 13.25V8.25C12 8.11739 11.9473 7.99021 11.8536 7.89645C11.7598 7.80268 11.6326 7.75 11.5 7.75Z" fill="white"/>
</g>
<defs>
<filter id="filter0_d_1804_4745" x="0.5" y="0.5" width="21" height="22" filterUnits="userSpaceOnUse" color-interpolation-filters="sRGB">
<feFlood flood-opacity="0" result="BackgroundImageFix"/>
<feColorMatrix in="SourceAlpha" type="matrix" values="0 0 0 0 0 0 0 0 0 0 0 0 0 0 0 0 0 0 127 0" result="hardAlpha"/>
<feOffset dx="1" dy="2"/>
<feGaussianBlur stdDeviation="2"/>
<feComposite in2="hardAlpha" operator="out"/>
<feColorMatrix type="matrix" values="0 0 0 0 0 0 0 0 0 0 0 0 0 0 0 0 0 0 0.25 0"/>
<feBlend mode="normal" in2="BackgroundImageFix" result="effect1_dropShadow_1804_4745"/>
<feBlend mode="normal" in="SourceGraphic" in2="effect1_dropShadow_1804_4745" result="shape"/>
</filter>
</defs>
</svg>
