<svg width="25" height="24" viewBox="0 0 25 24" fill="none" xmlns="http://www.w3.org/2000/svg">
<path d="M17.12 6.21011C17.0165 6.12815 16.8977 6.0675 16.7707 6.03167C16.6436 5.99584 16.5107 5.98553 16.3796 6.00133C16.2485 6.01714 16.1218 6.05874 16.0069 6.12376C15.892 6.18877 15.7911 6.27589 15.71 6.38011L8.70999 15.3801L5.27999 11.2001C5.19954 11.093 5.09839 11.0032 4.98255 10.9359C4.8667 10.8687 4.73853 10.8254 4.60563 10.8086C4.47273 10.7918 4.33782 10.8019 4.20891 10.8383C4.07999 10.8747 3.9597 10.9366 3.85516 11.0204C3.75063 11.1041 3.66399 11.208 3.60039 11.3259C3.53679 11.4438 3.49752 11.5733 3.48491 11.7066C3.4723 11.84 3.48661 11.9745 3.527 12.1022C3.56738 12.2299 3.63301 12.3482 3.71999 12.4501L7.88999 17.6301C7.98411 17.7461 8.10303 17.8396 8.23801 17.9036C8.37299 17.9676 8.5206 18.0006 8.66999 18.0001C8.82857 18.0072 8.98656 17.9764 9.13088 17.9103C9.27521 17.8443 9.40174 17.7448 9.49999 17.6201L17.33 7.62011C17.4098 7.51413 17.4678 7.39333 17.5004 7.26474C17.5331 7.13616 17.5399 7.00235 17.5203 6.87112C17.5008 6.73989 17.4553 6.61386 17.3866 6.50038C17.3179 6.38689 17.2272 6.28822 17.12 6.21011ZM22.12 6.21011C22.0165 6.12815 21.8977 6.0675 21.7707 6.03167C21.6436 5.99584 21.5107 5.98553 21.3796 6.00133C21.2485 6.01714 21.1218 6.05874 21.0069 6.12376C20.892 6.18877 20.7911 6.27589 20.71 6.38011L13.71 15.3801L13.1 14.6301L11.84 16.2501L12.94 17.6201C13.0341 17.7361 13.153 17.8296 13.288 17.8936C13.423 17.9576 13.5706 17.9906 13.72 17.9901C13.8702 17.9894 14.0183 17.9549 14.1534 17.8891C14.2884 17.8233 14.4069 17.728 14.5 17.6101L22.33 7.61011C22.4083 7.50444 22.4649 7.38438 22.4967 7.25679C22.5285 7.1292 22.5349 6.99659 22.5154 6.86655C22.4959 6.73651 22.4509 6.6116 22.3831 6.49896C22.3152 6.38631 22.2258 6.28816 22.12 6.21011Z" fill="white"/>
<path d="M9.21 13.0599L10.5 11.4399L10.3 11.1999C10.2211 11.0905 10.1208 10.9982 10.0052 10.9286C9.8897 10.859 9.76127 10.8135 9.62767 10.7948C9.49408 10.7761 9.35808 10.7846 9.22787 10.8199C9.09766 10.8551 8.97593 10.9164 8.87 10.9999C8.76728 11.0824 8.68187 11.1844 8.6187 11.3001C8.55552 11.4157 8.51583 11.5427 8.50189 11.6737C8.48795 11.8047 8.50004 11.9372 8.53747 12.0636C8.57491 12.1899 8.63694 12.3076 8.72 12.4099L9.21 13.0599Z" fill="white"/>
</svg>
