<svg width="25" height="25" viewBox="0 0 25 25" fill="none" xmlns="http://www.w3.org/2000/svg">
<path d="M21.5 12.5C21.2348 12.5 20.9804 12.6054 20.7929 12.7929C20.6054 12.9804 20.5 13.2348 20.5 13.5V19.5C20.5 19.7652 20.3946 20.0196 20.2071 20.2071C20.0196 20.3946 19.7652 20.5 19.5 20.5H5.5C5.23478 20.5 4.98043 20.3946 4.79289 20.2071C4.60536 20.0196 4.5 19.7652 4.5 19.5V5.5C4.5 5.23478 4.60536 4.98043 4.79289 4.79289C4.98043 4.60536 5.23478 4.5 5.5 4.5H11.5C11.7652 4.5 12.0196 4.39464 12.2071 4.20711C12.3946 4.01957 12.5 3.76522 12.5 3.5C12.5 3.23478 12.3946 2.98043 12.2071 2.79289C12.0196 2.60536 11.7652 2.5 11.5 2.5H5.5C4.70435 2.5 3.94129 2.81607 3.37868 3.37868C2.81607 3.94129 2.5 4.70435 2.5 5.5V19.5C2.5 20.2956 2.81607 21.0587 3.37868 21.6213C3.94129 22.1839 4.70435 22.5 5.5 22.5H19.5C20.2956 22.5 21.0587 22.1839 21.6213 21.6213C22.1839 21.0587 22.5 20.2956 22.5 19.5V13.5C22.5 13.2348 22.3946 12.9804 22.2071 12.7929C22.0196 12.6054 21.7652 12.5 21.5 12.5ZM6.5 13.26V17.5C6.5 17.7652 6.60536 18.0196 6.79289 18.2071C6.98043 18.3946 7.23478 18.5 7.5 18.5H11.74C11.8716 18.5008 12.0021 18.4755 12.1239 18.4258C12.2457 18.376 12.3566 18.3027 12.45 18.21L19.37 11.28L22.21 8.5C22.3037 8.40704 22.3781 8.29644 22.4289 8.17458C22.4797 8.05272 22.5058 7.92201 22.5058 7.79C22.5058 7.65799 22.4797 7.52728 22.4289 7.40542C22.3781 7.28356 22.3037 7.17296 22.21 7.08L17.97 2.79C17.877 2.69627 17.7664 2.62188 17.6446 2.57111C17.5227 2.52034 17.392 2.4942 17.26 2.4942C17.128 2.4942 16.9973 2.52034 16.8754 2.57111C16.7536 2.62188 16.643 2.69627 16.55 2.79L13.73 5.62L6.79 12.55C6.69732 12.6434 6.62399 12.7543 6.57423 12.8761C6.52446 12.9979 6.49924 13.1284 6.5 13.26ZM17.26 4.91L20.09 7.74L18.67 9.16L15.84 6.33L17.26 4.91ZM8.5 13.67L14.43 7.74L17.26 10.57L11.33 16.5H8.5V13.67Z" fill="#03A186"/>
</svg>
