<svg width="24" height="24" viewBox="0 0 24 24" fill="none" xmlns="http://www.w3.org/2000/svg">
<rect width="24" height="24" rx="12" fill="#D6D8D8"/>
<path d="M12 4.5C7.8525 4.5 4.5 7.8525 4.5 12C4.5 16.1475 7.8525 19.5 12 19.5C16.1475 19.5 19.5 16.1475 19.5 12C19.5 7.8525 16.1475 4.5 12 4.5ZM12 18C8.6925 18 6 15.3075 6 12C6 8.6925 8.6925 6 12 6C15.3075 6 18 8.6925 18 12C18 15.3075 15.3075 18 12 18ZM14.6925 8.25L12 10.9425L9.3075 8.25L8.25 9.3075L10.9425 12L8.25 14.6925L9.3075 15.75L12 13.0575L14.6925 15.75L15.75 14.6925L13.0575 12L15.75 9.3075L14.6925 8.25Z" fill="black"/>
</svg>
