<svg width="21" height="20" viewBox="0 0 21 20" fill="none" xmlns="http://www.w3.org/2000/svg">
<path fill-rule="evenodd" clip-rule="evenodd" d="M6.21416 2.03756C7.16666 2.73172 7.90833 3.67922 8.54166 4.58589L8.91 5.12256L9.2575 5.63506C9.43132 5.889 9.50564 6.19801 9.46629 6.50322C9.42695 6.80843 9.2767 7.0885 9.04416 7.29006L7.41833 8.49756C7.33978 8.55428 7.28449 8.63758 7.26273 8.73199C7.24096 8.8264 7.25421 8.92551 7.3 9.01089C7.66833 9.68006 8.32333 10.6767 9.07333 11.4267C9.82333 12.1767 10.8675 12.8751 11.5833 13.2851C11.6731 13.3354 11.7787 13.3495 11.8785 13.3244C11.9784 13.2993 12.0648 13.2369 12.12 13.1501L13.1783 11.5392C13.3729 11.2808 13.6599 11.1076 13.9793 11.056C14.2987 11.0045 14.6256 11.0785 14.8917 11.2626L15.4442 11.6451C16.4767 12.3617 17.5858 13.1759 18.4342 14.2617C18.5687 14.4349 18.6543 14.641 18.682 14.8585C18.7097 15.0761 18.6785 15.297 18.5917 15.4984C17.8942 17.1259 16.1292 18.5117 14.2933 18.4442L14.0433 18.4301L13.8492 18.4134L13.6342 18.3884L13.4 18.3567L13.1458 18.3151L13.0125 18.2901L12.7325 18.2301L12.5858 18.1967L12.2808 18.1184L11.96 18.0267L11.625 17.9184C10.0867 17.3967 8.13416 16.3717 6.13083 14.3684C4.1275 12.3651 3.10333 10.4134 2.58166 8.87506L2.47333 8.54006L2.38166 8.21922L2.30333 7.91422L2.23833 7.62589C2.21958 7.53558 2.20208 7.44502 2.18583 7.35422L2.14416 7.10006L2.11083 6.86589L2.08666 6.65089L2.07 6.45672L2.05666 6.20672C1.98916 4.37672 3.39 2.59922 5.01 1.90506C5.20498 1.82086 5.4185 1.78881 5.62961 1.81204C5.84071 1.83527 6.04216 1.91298 6.21416 2.03756ZM14.6667 2.50006C14.8708 2.50008 15.0678 2.57502 15.2203 2.71065C15.3728 2.84629 15.4703 3.03318 15.4942 3.23589L15.5 3.33339V5.00006H17.1667C17.3791 5.00029 17.5834 5.08162 17.7378 5.22743C17.8923 5.37324 17.9852 5.57252 17.9976 5.78455C18.0101 5.99659 17.9411 6.20537 17.8048 6.36825C17.6685 6.53113 17.4751 6.6358 17.2642 6.66089L17.1667 6.66672H15.5V8.33339C15.4998 8.54579 15.4184 8.75008 15.2726 8.90453C15.1268 9.05898 14.9275 9.15192 14.7155 9.16437C14.5035 9.17682 14.2947 9.10783 14.1318 8.9715C13.9689 8.83518 13.8643 8.6418 13.8392 8.43089L13.8333 8.33339V6.66672H12.1667C11.9543 6.66649 11.75 6.58516 11.5955 6.43935C11.4411 6.29354 11.3481 6.09426 11.3357 5.88223C11.3232 5.67019 11.3922 5.46141 11.5286 5.29853C11.6649 5.13565 11.8583 5.03098 12.0692 5.00589L12.1667 5.00006H13.8333V3.33339C13.8333 3.11238 13.9211 2.90042 14.0774 2.74414C14.2337 2.58785 14.4457 2.50006 14.6667 2.50006Z" fill="black"/>
</svg>
