<svg width="21" height="20" viewBox="0 0 21 20" fill="none" xmlns="http://www.w3.org/2000/svg">
<path d="M4.66667 7.91666C4.66667 7.91666 2.52375 8.75 2.16667 11.6667M16.3333 7.91666C16.3333 7.91666 18.4762 8.75 18.8333 11.6667M8 7.91666C8 7.91666 10 8.40291 10.5 10.8333C11 8.40291 13 7.91666 13 7.91666M8.83333 14.1667C8.83333 14.1667 7.08333 14.4792 6.33333 16.6667M12.1667 14.1667C12.1667 14.1667 13.9167 14.4792 14.6667 16.6667" stroke="black" stroke-width="1.5" stroke-linecap="round"/>
<path d="M10.5 15C11.6506 15 12.5833 14.0673 12.5833 12.9167C12.5833 11.7661 11.6506 10.8333 10.5 10.8333C9.34941 10.8333 8.41667 11.7661 8.41667 12.9167C8.41667 14.0673 9.34941 15 10.5 15Z" stroke="black" stroke-width="1.5" stroke-linecap="round" stroke-linejoin="round"/>
<path d="M14.6667 8.33333C16.0474 8.33333 17.1667 7.21404 17.1667 5.83333C17.1667 4.45262 16.0474 3.33333 14.6667 3.33333C13.286 3.33333 12.1667 4.45262 12.1667 5.83333C12.1667 7.21404 13.286 8.33333 14.6667 8.33333Z" stroke="black" stroke-width="1.5" stroke-linecap="round" stroke-linejoin="round"/>
<path d="M6.33333 8.33333C7.71405 8.33333 8.83333 7.21404 8.83333 5.83333C8.83333 4.45262 7.71405 3.33333 6.33333 3.33333C4.95262 3.33333 3.83333 4.45262 3.83333 5.83333C3.83333 7.21404 4.95262 8.33333 6.33333 8.33333Z" stroke="black" stroke-width="1.5" stroke-linecap="round" stroke-linejoin="round"/>
</svg>
