<svg width="20" height="20" viewBox="0 0 20 20" fill="none" xmlns="http://www.w3.org/2000/svg">
<g filter="url(#filter0_b_1748_6498)">
<mask id="path-1-inside-1_1748_6498" fill="white">
<path d="M9.70629 4.45117C7.84441 1.84742 3.97253 1.84992 2.11503 4.4568C1.49171 5.33097 1.18917 6.39347 1.25852 7.46487C1.32787 8.53626 1.76485 9.5509 2.49566 10.3374L9.54253 17.9249C9.60098 17.9878 9.67176 18.038 9.75044 18.0723C9.82913 18.1066 9.91405 18.1244 9.9999 18.1244C10.0857 18.1245 10.1707 18.1069 10.2494 18.0726C10.3282 18.0384 10.399 17.9883 10.4575 17.9255L17.5 10.3643C18.2383 9.5715 18.6783 8.54691 18.7449 7.46565C18.8115 6.38438 18.5005 5.31355 17.865 4.43617C15.9838 1.8393 12.105 1.86492 10.2582 4.4868L9.99754 4.85742L9.70629 4.45117Z"/>
</mask>
<path d="M9.70629 4.45117L8.48614 5.32367L8.48721 5.32516L9.70629 4.45117ZM2.11503 4.4568L3.33635 5.32766L3.33664 5.32724L2.11503 4.4568ZM2.49566 10.3374L3.59475 9.31664L3.59452 9.31639L2.49566 10.3374ZM9.54253 17.9249L8.44344 18.9457L8.44384 18.9461L9.54253 17.9249ZM10.4575 17.9255L11.5548 18.9483L11.5552 18.9479L10.4575 17.9255ZM17.5 10.3643L18.5977 11.3866L18.5978 11.3865L17.5 10.3643ZM17.865 4.43617L19.0799 3.55633L19.0798 3.55618L17.865 4.43617ZM10.2582 4.4868L9.03186 3.62298L9.03116 3.62397L10.2582 4.4868ZM9.99754 4.85742L8.77846 5.73141L10.0094 7.44832L11.2245 5.72025L9.99754 4.85742ZM10.9264 3.57868C8.46592 0.137758 3.34868 0.140569 0.893426 3.58635L3.33664 5.32724C4.59639 3.55928 7.2229 3.55709 8.48614 5.32367L10.9264 3.57868ZM0.893722 3.58594C0.0698625 4.74134 -0.330005 6.14567 -0.238348 7.56175L2.75539 7.36798C2.70835 6.64127 2.91356 5.92059 3.33635 5.32766L0.893722 3.58594ZM-0.238348 7.56175C-0.146692 8.97784 0.430871 10.3189 1.3968 11.3585L3.59452 9.31639C3.09882 8.78291 2.80242 8.09469 2.75539 7.36798L-0.238348 7.56175ZM1.39657 11.3582L8.44344 18.9457L10.6416 16.9041L3.59475 9.31664L1.39657 11.3582ZM8.44384 18.9461C8.64255 19.1599 8.88319 19.3305 9.15073 19.4472L10.3502 16.6974C10.4603 16.7454 10.5594 16.8157 10.6412 16.9037L8.44384 18.9461ZM9.15073 19.4472C9.41828 19.5639 9.707 19.6242 9.99887 19.6244L10.0009 16.6244C10.1211 16.6245 10.24 16.6493 10.3502 16.6974L9.15073 19.4472ZM9.99887 19.6244C10.2908 19.6246 10.5796 19.5647 10.8473 19.4484L9.65159 16.6969C9.76183 16.649 9.88074 16.6243 10.0009 16.6244L9.99887 19.6244ZM10.8473 19.4484C11.115 19.332 11.3558 19.1618 11.5548 18.9483L9.36023 16.9028C9.44217 16.8149 9.54135 16.7448 9.65159 16.6969L10.8473 19.4484ZM11.5552 18.9479L18.5977 11.3866L16.4024 9.34196L9.35989 16.9032L11.5552 18.9479ZM18.5978 11.3865C19.5729 10.3394 20.1541 8.98602 20.2421 7.55783L17.2477 7.37346C17.2025 8.1078 16.9037 8.80364 16.4023 9.34207L18.5978 11.3865ZM20.2421 7.55783C20.33 6.12963 19.9192 4.71522 19.0799 3.55633L16.6502 5.31601C17.0817 5.91188 17.2929 6.63913 17.2477 7.37346L20.2421 7.55783ZM19.0798 3.55618C16.5947 0.125821 11.4714 0.15976 9.03186 3.62298L11.4845 5.35062C12.7387 3.57009 15.3728 3.55277 16.6503 5.31617L19.0798 3.55618ZM9.03116 3.62397L8.77054 3.99459L11.2245 5.72025L11.4852 5.34963L9.03116 3.62397ZM11.2166 3.98344L10.9254 3.57719L8.48721 5.32516L8.77846 5.73141L11.2166 3.98344Z" fill="black" mask="url(#path-1-inside-1_1748_6498)"/>
</g>
<defs>
<filter id="filter0_b_1748_6498" x="-8.75122" y="-7.5" width="37.505" height="35.624" filterUnits="userSpaceOnUse" color-interpolation-filters="sRGB">
<feFlood flood-opacity="0" result="BackgroundImageFix"/>
<feGaussianBlur in="BackgroundImageFix" stdDeviation="5"/>
<feComposite in2="SourceAlpha" operator="in" result="effect1_backgroundBlur_1748_6498"/>
<feBlend mode="normal" in="SourceGraphic" in2="effect1_backgroundBlur_1748_6498" result="shape"/>
</filter>
</defs>
</svg>
