<svg width="18" height="24" viewBox="0 0 18 24" fill="none" xmlns="http://www.w3.org/2000/svg">
<path d="M7.6875 16.125C10.8977 16.125 13.5 13.5227 13.5 10.3125C13.5 7.10234 10.8977 4.5 7.6875 4.5C4.47734 4.5 1.875 7.10234 1.875 10.3125C1.875 13.5227 4.47734 16.125 7.6875 16.125Z" stroke="black" stroke-width="1.5" stroke-linecap="round" stroke-linejoin="round"/>
<path d="M16.125 1.875L12 6" stroke="black" stroke-width="1.5" stroke-linecap="round" stroke-linejoin="round"/>
<path d="M11.25 1.875H16.125V6.75" stroke="black" stroke-width="1.5" stroke-linecap="round" stroke-linejoin="round"/>
<path d="M9 18C11.8995 18 14.25 15.6495 14.25 12.75C14.25 9.85051 11.8995 7.5 9 7.5C6.10051 7.5 3.75 9.85051 3.75 12.75C3.75 15.6495 6.10051 18 9 18Z" stroke="black" stroke-width="1.5" stroke-linecap="round" stroke-linejoin="round"/>
<path d="M9 18V22.5" stroke="black" stroke-width="1.5" stroke-linecap="round" stroke-linejoin="round"/>
<path d="M11.25 20.25H6.75" stroke="black" stroke-width="1.5" stroke-linecap="round" stroke-linejoin="round"/>
</svg>
