<svg width="14" height="16" viewBox="0 0 14 16" fill="none" xmlns="http://www.w3.org/2000/svg">
<path d="M1.16663 7.63333C1.16663 6.50167 1.16663 5.93583 1.39496 5.43833C1.62413 4.94083 2.05329 4.57333 2.91246 3.83667L3.74579 3.1225C5.29996 1.79167 6.07496 1.125 6.99996 1.125C7.92496 1.125 8.70079 1.79083 10.2541 3.12167L11.0875 3.83583C11.9458 4.5725 12.3758 4.94 12.6041 5.4375C12.8333 5.935 12.8333 6.50083 12.8333 7.6325V11.1667C12.8333 12.7383 12.8333 13.5233 12.345 14.0117C11.8566 14.5 11.0716 14.5 9.49996 14.5H4.49996C2.92829 14.5 2.14329 14.5 1.65496 14.0117C1.16663 13.5233 1.16663 12.7383 1.16663 11.1667V7.63333Z" stroke="#03A186" stroke-width="2"/>
<path d="M9.08329 14.5V10.3333C9.08329 10.1123 8.9955 9.90036 8.83921 9.74408C8.68293 9.5878 8.47097 9.5 8.24996 9.5H5.74996C5.52895 9.5 5.31698 9.5878 5.1607 9.74408C5.00442 9.90036 4.91663 10.1123 4.91663 10.3333V14.5" stroke="#03A186" stroke-width="2" stroke-linecap="round" stroke-linejoin="round"/>
</svg>
