<svg width="16" height="16" viewBox="0 0 16 16" fill="none" xmlns="http://www.w3.org/2000/svg">
<path fill-rule="evenodd" clip-rule="evenodd" d="M1.34604 4.99676C1.33337 5.48276 1.33337 6.03476 1.33337 6.66676V8.0001H6.73137C6.50408 7.89294 6.26011 7.82553 6.01004 7.80076L4.66671 7.66676C3.79137 7.57943 3.35337 7.53543 2.99804 7.39143C2.62578 7.24049 2.29242 7.00741 2.02287 6.70957C1.75332 6.41174 1.55454 6.05686 1.44137 5.67143C1.38604 5.4821 1.35871 5.2741 1.34604 4.99676ZM14.5827 3.8501L14.3334 11.3334C14.0164 11.3335 13.7026 11.2711 13.4098 11.1498C13.1169 11.0286 12.8508 10.8509 12.6267 10.6268L11.8747 9.87476C11.628 9.6281 11.5047 9.50476 11.38 9.4261C11.1667 9.29097 10.9193 9.21923 10.6667 9.21923C10.4141 9.21923 10.1668 9.29097 9.95337 9.4261C9.82871 9.50476 9.70537 9.6281 9.45871 9.87476L8.94271 10.3908C8.86538 10.4678 8.76699 10.5202 8.65993 10.5413C8.55287 10.5625 8.44194 10.5515 8.34112 10.5097C8.2403 10.468 8.15411 10.3973 8.09341 10.3066C8.03271 10.2159 8.00022 10.1092 8.00004 10.0001V14.6668H9.33337C11.8474 14.6668 13.1047 14.6668 13.8854 13.8854C14.666 13.1041 14.6667 11.8474 14.6667 9.33343V6.66676C14.6667 5.47143 14.6667 4.5601 14.5827 3.8501Z" fill="black"/>
<path d="M13.414 2.58533C13.168 2.34 12.8227 2.17933 12.1707 2.092C11.4993 2.00133 10.6093 2 9.33333 2H6.66667C5.39067 2 4.50067 2.00133 3.82933 2.092C3.17733 2.17933 2.832 2.33933 2.58533 2.586C2.34 2.832 2.17933 3.17733 2.092 3.82933C2.00133 4.50067 2 5.39067 2 6.66667V7.33333H6.70333C6.98667 7.33333 7.26 7.33333 7.48667 7.364C7.74267 7.398 8.034 7.482 8.276 7.724C8.518 7.966 8.602 8.25733 8.636 8.51333C8.66667 8.73933 8.66667 9.014 8.66667 9.29733V14H9.33333C10.6093 14 11.4993 13.9987 12.1707 13.9087C12.8227 13.8207 13.168 13.6607 13.414 13.414C13.66 13.168 13.8207 12.8227 13.9087 12.1707C13.9987 11.4993 14 10.6093 14 9.33333V6.66667C14 5.39067 13.9987 4.50067 13.9087 3.82933C13.8207 3.17733 13.6607 2.832 13.414 2.58533ZM13.414 2.58533L13.874 2.12533" stroke="black" stroke-width="1.5"/>
<path d="M10.6667 6.66667C11.4031 6.66667 12 6.06971 12 5.33333C12 4.59695 11.4031 4 10.6667 4C9.93033 4 9.33337 4.59695 9.33337 5.33333C9.33337 6.06971 9.93033 6.66667 10.6667 6.66667Z" fill="black"/>
<path d="M5.33338 10.6667V10H6.00005V10.6667H5.33338ZM2.41672 13.8533C2.34881 13.9113 2.26994 13.9551 2.18479 13.982C2.09965 14.0089 2.00996 14.0185 1.92106 14.0101C1.83215 14.0017 1.74585 13.9755 1.66725 13.9331C1.58866 13.8907 1.51939 13.8329 1.46355 13.7632C1.40771 13.6935 1.36644 13.6133 1.34219 13.5274C1.31794 13.4414 1.3112 13.3515 1.32238 13.2629C1.33356 13.1743 1.36242 13.0889 1.40726 13.0116C1.45209 12.9344 1.51199 12.867 1.58338 12.8133L2.41672 13.8533ZM4.66672 14V10.6667H6.00005V14H4.66672ZM5.33338 11.3333H2.00005V10H5.33338V11.3333ZM5.75005 11.1867L2.41672 13.8533L1.58338 12.8133L4.91672 10.1467L5.75005 11.1867Z" fill="black"/>
</svg>
