<svg width="22" height="22" viewBox="0 0 22 22" fill="none" xmlns="http://www.w3.org/2000/svg">
<path d="M10.4071 0V3.49109H11.5929V0H10.407H10.4071ZM5.56511 1.04912L4.59359 1.72935L6.59565 4.58836L7.56663 3.90812L5.56511 1.04912ZM16.4347 1.04912L14.4332 3.90813L15.4044 4.58837L17.4064 1.72935L16.4349 1.04912H16.4347ZM10.9998 4.44627C8.09894 4.44627 5.7474 6.20779 5.7474 8.38106L8.73155 17.4184H13.2685L16.2524 8.38106C16.2524 6.20783 13.901 4.44627 11 4.44627H10.9998ZM1.56683 5.494L1.16168 6.60893L4.44058 7.80268L4.84723 6.68829L1.56676 5.494H1.56683ZM20.433 5.494L17.1525 6.68839L17.5577 7.8029L20.8382 6.60895L20.433 5.494ZM4.68883 10.5908L1.31733 11.4951L1.62324 12.6397L4.99474 11.7367L4.68889 10.5908H4.68883ZM17.311 10.5908L17.0053 11.7367L20.3768 12.6395L20.6825 11.4949L17.311 10.5908V10.5908ZM8.66541 18.0773V19.6482H13.3347V18.0775H8.66542L8.66541 18.0773ZM8.66541 20.4291V22H13.3347V20.4293H8.66542L8.66541 20.4291Z" fill="url(#paint0_linear_1074_4028)"/>
<defs>
<linearGradient id="paint0_linear_1074_4028" x1="16.5" y1="-1.95929e-07" x2="1.22226" y2="25.6667" gradientUnits="userSpaceOnUse">
<stop stop-color="#F9EC2A"/>
<stop offset="1" stop-color="#706A0E"/>
</linearGradient>
</defs>
</svg>
