<svg width="24" height="24" viewBox="0 0 24 24" fill="none" xmlns="http://www.w3.org/2000/svg">
<path d="M12 21C17.5228 21 22 16.5228 22 11C22 5.47715 17.5228 1 12 1C6.47715 1 2 5.47715 2 11C2 16.5228 6.47715 21 12 21Z" fill="#FFF59D"/>
<path d="M18.5 11C18.5 7.15 15.2 4.1 11.25 4.55C8.24999 4.9 5.84999 7.3 5.54999 10.3C5.29999 12.6 6.24999 14.65 7.84999 15.95C8.54999 16.55 8.99999 17.4 8.99999 18.35V18.5H15V18.45C15 17.55 15.4 16.65 16.1 16.05C17.55 14.85 18.5 13.05 18.5 11Z" fill="#FBC02D"/>
<path d="M15.3 10.0994L13.8 9.09941C13.65 8.99941 13.4 8.99941 13.25 9.09941L12 9.89941L10.8 9.09941C10.65 8.99941 10.4 8.99941 10.25 9.09941L8.74999 10.0994C8.64999 10.1994 8.54999 10.2994 8.54999 10.4494C8.54999 10.5994 8.54999 10.7494 8.64999 10.8494L10.55 13.1994V18.4994H11.55V12.9994C11.55 12.8994 11.5 12.7994 11.45 12.6994L9.79999 10.6494L10.55 10.1494L11.75 10.9494C11.9 11.0494 12.15 11.0494 12.3 10.9494L13.5 10.1494L14.25 10.6494L12.6 12.6994C12.55 12.7994 12.5 12.8994 12.5 12.9994V18.4994H13.5V13.1994L15.4 10.8494C15.5 10.7494 15.55 10.5994 15.5 10.4494C15.45 10.2994 15.4 10.1494 15.3 10.0994Z" fill="#FFF59D"/>
<path d="M12 23.5C12.8284 23.5 13.5 22.8284 13.5 22C13.5 21.1716 12.8284 20.5 12 20.5C11.1716 20.5 10.5 21.1716 10.5 22C10.5 22.8284 11.1716 23.5 12 23.5Z" fill="#5C6BC0"/>
<path d="M13 22.5H11C9.9 22.5 9 21.6 9 20.5V18H15V20.5C15 21.6 14.1 22.5 13 22.5Z" fill="#9FA8DA"/>
<path d="M15 20.5L9.2 21.3C9.35 21.65 9.65 22 10 22.2L14.7 21.55C14.9 21.25 15 20.9 15 20.5ZM9 19.35V20.35L15 19.5V18.5L9 19.35Z" fill="#5C6BC0"/>
</svg>
