<svg width="20" height="20" viewBox="0 0 20 20" fill="none" xmlns="http://www.w3.org/2000/svg">
<g clip-path="url(#clip0_1796_13373)">
<path d="M19.367 18.102L18 14H16.5L17.333 18H2.66697L3.49997 14H1.99997L0.631974 18.102C0.284974 19.146 0.899974 20 1.99997 20H18C19.1 20 19.715 19.146 19.367 18.102ZM15 5C15 3.67392 14.4732 2.40215 13.5355 1.46447C12.5978 0.526784 11.3261 0 9.99997 0C8.67389 0 7.40212 0.526784 6.46444 1.46447C5.52676 2.40215 4.99997 3.67392 4.99997 5C4.99997 9.775 9.99997 15 9.99997 15C9.99997 15 15 9.775 15 5ZM7.29997 5.06C7.30024 4.34409 7.58482 3.65759 8.09114 3.15146C8.59746 2.64533 9.28406 2.361 9.99997 2.361C10.7159 2.361 11.4026 2.64541 11.9088 3.15167C12.4151 3.65792 12.6995 4.34455 12.6995 5.0605C12.6995 5.77645 12.4151 6.46308 11.9088 6.96933C11.4026 7.47559 10.7159 7.76 9.99997 7.76C9.28389 7.76 8.59713 7.47554 8.09079 6.96919C7.58444 6.46284 7.29997 5.77608 7.29997 5.06Z" fill="black"/>
</g>
<defs>
<clipPath id="clip0_1796_13373">
<rect width="20" height="20" fill="white"/>
</clipPath>
</defs>
</svg>
