<svg width="21" height="21" viewBox="0 0 21 21" fill="none" xmlns="http://www.w3.org/2000/svg">
<g clip-path="url(#clip0_2064_9467)">
<path d="M10.5 0.5C6.33203 0.5 3 3.83203 3 8C3 9.44141 3.42969 10.5547 4.17578 11.6836L9.71094 20.082C9.87891 20.3359 10.168 20.5 10.5 20.5C10.832 20.5 11.125 20.332 11.2891 20.082L16.8242 11.6836C17.5703 10.5547 18 9.44141 18 8C18 3.83203 14.668 0.5 10.5 0.5ZM10.5 12.1641C8.19922 12.1641 6.33203 10.2969 6.33203 7.99219C6.33203 5.6875 8.19922 3.82031 10.5 3.82031C12.8008 3.82031 14.668 5.6875 14.668 7.99219C14.668 10.2969 12.8008 12.1641 10.5 12.1641ZM10.5 5.5C9.11719 5.5 8 6.61719 8 8C8 9.38281 9.11719 10.5 10.5 10.5C11.8828 10.5 13 9.38281 13 8C13 6.61719 11.8828 5.5 10.5 5.5Z" fill="black" fill-opacity="0.75"/>
</g>
<defs>
<clipPath id="clip0_2064_9467">
<rect width="20" height="20" fill="white" transform="translate(0.5 0.5)"/>
</clipPath>
</defs>
</svg>
