<svg width="20" height="20" viewBox="0 0 20 20" fill="none" xmlns="http://www.w3.org/2000/svg">
<mask id="path-1-inside-1_1748_6527" fill="white">
<path fill-rule="evenodd" clip-rule="evenodd" d="M9.99995 1.66699C13.2216 1.66699 15.8333 4.27867 15.8333 7.50031C15.8333 8.47441 15.5952 9.39223 15.1725 10.1998L9.99995 19.167L4.94721 10.4173C4.44995 9.55867 4.16663 8.56297 4.16663 7.50031C4.16663 4.27867 6.77831 1.66699 9.99995 1.66699ZM9.99995 3.33367C7.69877 3.33367 5.83331 5.19914 5.83331 7.50031C5.83331 8.16203 5.98596 8.79695 6.27483 9.37012L6.41483 9.62582L9.99995 15.8336L13.6104 9.58207C13.9734 8.95527 14.1666 8.24477 14.1666 7.50031C14.1666 5.19914 12.3011 3.33367 9.99991 3.33367M9.99995 5.00031C11.3807 5.00031 12.4999 6.11961 12.4999 7.50031C12.4999 8.88102 11.3807 10.0003 9.99995 10.0003C8.61924 10.0003 7.49995 8.88105 7.49995 7.50031C7.49995 6.11961 8.61924 5.00031 9.99995 5.00031ZM9.99995 6.66699C9.53971 6.66699 9.16663 7.04008 9.16663 7.50031C9.16663 7.96055 9.53971 8.33367 9.99995 8.33367C10.4602 8.33367 10.8333 7.96055 10.8333 7.50031C10.8333 7.04008 10.4602 6.66699 9.99995 6.66699Z"/>
</mask>
<path d="M15.1725 10.1998L16.4719 10.9493L16.4872 10.9227L16.5015 10.8954L15.1725 10.1998ZM9.99995 19.167L8.70098 19.9171L10.0007 22.1677L11.2993 19.9165L9.99995 19.167ZM4.94721 10.4173L6.24618 9.66722L6.24526 9.66563L4.94721 10.4173ZM6.27483 9.37012L4.93533 10.0452L4.94684 10.068L4.95912 10.0905L6.27483 9.37012ZM6.41483 9.62582L5.09912 10.3462L5.10733 10.3612L5.11588 10.376L6.41483 9.62582ZM9.99995 15.8336L8.701 16.5838L9.99994 18.833L11.2989 16.5838L9.99995 15.8336ZM13.6104 9.58207L12.3123 8.83032L12.3114 8.8319L13.6104 9.58207ZM9.99995 3.16699C12.3932 3.16699 14.3333 5.10711 14.3333 7.50031H17.3333C17.3333 3.45024 14.05 0.166992 9.99995 0.166992V3.16699ZM14.3333 7.50031C14.3333 8.2271 14.1563 8.90678 13.8435 9.50428L16.5015 10.8954C17.0342 9.87767 17.3333 8.72173 17.3333 7.50031H14.3333ZM13.8732 9.45035L8.70062 18.4175L11.2993 19.9165L16.4719 10.9493L13.8732 9.45035ZM11.2989 18.4169L6.24618 9.66722L3.64825 11.1675L8.70098 19.9171L11.2989 18.4169ZM6.24526 9.66563C5.87712 9.02993 5.66663 8.29275 5.66663 7.50031H2.66663C2.66663 8.83319 3.02277 10.0874 3.64916 11.1691L6.24526 9.66563ZM5.66663 7.50031C5.66663 5.1071 7.60673 3.16699 9.99995 3.16699V0.166992C5.94988 0.166992 2.66663 3.45025 2.66663 7.50031H5.66663ZM9.99995 1.83367C6.87035 1.83367 4.33331 4.37071 4.33331 7.50031H7.33331C7.33331 6.02757 8.5272 4.83367 9.99995 4.83367V1.83367ZM4.33331 7.50031C4.33331 8.39549 4.54047 9.26174 4.93533 10.0452L7.61433 8.69503C7.43145 8.33217 7.33331 7.92858 7.33331 7.50031H4.33331ZM4.95912 10.0905L5.09912 10.3462L7.73053 8.90546L7.59053 8.64976L4.95912 10.0905ZM5.11588 10.376L8.701 16.5838L11.2989 15.0835L7.71377 8.87566L5.11588 10.376ZM11.2989 16.5838L14.9093 10.3322L12.3114 8.8319L8.70101 15.0835L11.2989 16.5838ZM14.9084 10.3338C15.404 9.47811 15.6666 8.50821 15.6666 7.50031H12.6666C12.6666 7.98132 12.5428 8.43244 12.3123 8.83032L14.9084 10.3338ZM15.6666 7.50031C15.6666 4.3707 13.1295 1.83367 9.99991 1.83367V4.83367C11.4727 4.83367 12.6666 6.02758 12.6666 7.50031H15.6666ZM9.99995 6.50031C10.5522 6.50031 10.9999 6.94802 10.9999 7.50031H13.9999C13.9999 5.2912 12.2091 3.50031 9.99995 3.50031V6.50031ZM10.9999 7.50031C10.9999 8.0526 10.5522 8.50031 9.99995 8.50031V11.5003C12.2091 11.5003 13.9999 9.70943 13.9999 7.50031H10.9999ZM9.99995 8.50031C9.44766 8.50031 8.99995 8.05261 8.99995 7.50031H5.99995C5.99995 9.7095 7.79083 11.5003 9.99995 11.5003V8.50031ZM8.99995 7.50031C8.99995 6.94804 9.44767 6.50031 9.99995 6.50031V3.50031C7.79082 3.50031 5.99995 5.29118 5.99995 7.50031H8.99995ZM9.99995 5.16699C8.71129 5.16699 7.66663 6.21165 7.66663 7.50031H10.6666C10.6666 7.86851 10.3681 8.16699 9.99995 8.16699V5.16699ZM7.66663 7.50031C7.66663 8.78888 8.7112 9.83367 9.99995 9.83367V6.83367C10.3682 6.83367 10.6666 7.13221 10.6666 7.50031H7.66663ZM9.99995 9.83367C11.2886 9.83367 12.3333 8.78898 12.3333 7.50031H9.33331C9.33331 7.13212 9.63176 6.83367 9.99995 6.83367V9.83367ZM12.3333 7.50031C12.3333 6.21156 11.2885 5.16699 9.99995 5.16699V8.16699C9.63185 8.16699 9.33331 7.8686 9.33331 7.50031H12.3333Z" fill="black" mask="url(#path-1-inside-1_1748_6527)"/>
</svg>
