<svg width="20" height="20" viewBox="0 0 20 20" fill="none" xmlns="http://www.w3.org/2000/svg">
<path d="M11.875 13.2138C11.875 11.5255 13.3033 10.208 15 10.208C16.6967 10.208 18.125 11.5247 18.125 13.2138C18.125 14.6155 17.3958 15.8255 16.7367 16.6422C16.3676 17.0978 15.9558 17.5169 15.5067 17.8938L15.4167 17.9672L15.3917 17.9872L15.3833 17.9938L15.3808 17.9955H15.38L14.6533 18.0197L14.6517 18.018L14.6492 18.0163L14.6408 18.0105L14.6133 17.9922L14.5208 17.9255C14.0618 17.5787 13.6428 17.1818 13.2717 16.7422C12.5967 15.9372 11.8758 14.7272 11.8758 13.2138M14.6533 18.0197L15.025 18.2672L15.38 17.9972L14.6533 18.0197ZM14.9817 16.693C15.1975 16.493 15.4817 16.2072 15.765 15.8572C16.3558 15.1255 16.8758 14.193 16.8758 13.2138C16.8758 12.2722 16.0658 11.458 15.0008 11.458C13.9367 11.458 13.1258 12.2722 13.1258 13.2138C13.1258 14.3197 13.655 15.253 14.23 15.9372C14.4592 16.2095 14.7106 16.4623 14.9817 16.693ZM15 13.5413C15.0553 13.5413 15.1082 13.5194 15.1473 13.4803C15.1864 13.4413 15.2083 13.3883 15.2083 13.333C15.2083 13.2778 15.1864 13.2248 15.1473 13.1857C15.1082 13.1466 15.0553 13.1247 15 13.1247C14.9447 13.1247 14.8918 13.1466 14.8527 13.1857C14.8136 13.2248 14.7917 13.2778 14.7917 13.333C14.7917 13.3883 14.8136 13.4413 14.8527 13.4803C14.8918 13.5194 14.9447 13.5413 15 13.5413ZM13.9583 13.333C13.9583 13.0567 14.0681 12.7918 14.2634 12.5964C14.4588 12.4011 14.7237 12.2913 15 12.2913C15.2763 12.2913 15.5412 12.4011 15.7366 12.5964C15.9319 12.7918 16.0417 13.0567 16.0417 13.333C16.0417 13.6093 15.9319 13.8742 15.7366 14.0696C15.5412 14.2649 15.2763 14.3747 15 14.3747C14.7237 14.3747 14.4588 14.2649 14.2634 14.0696C14.0681 13.8742 13.9583 13.6093 13.9583 13.333Z" fill="black"/>
<path fill-rule="evenodd" clip-rule="evenodd" d="M8.33336 3.125C7.24753 3.125 6.39419 3.98 6.39419 5C6.39419 6.02 7.24669 6.875 8.33336 6.875C9.42003 6.875 10.2734 6.02 10.2734 5C10.2734 3.98 9.42003 3.125 8.33336 3.125ZM5.14419 5C5.14419 3.25833 6.58753 1.875 8.33503 1.875C10.0817 1.875 11.525 3.25833 11.525 5C11.525 6.74167 10.0817 8.125 8.33503 8.125C6.58836 8.125 5.14169 6.74167 5.14169 5M6.22503 9.97167C6.07253 9.87417 5.95836 9.86833 5.90503 9.8825C5.78503 9.91583 5.66586 9.95139 5.54753 9.98917L4.72753 10.2517C4.44661 10.3382 4.18971 10.4889 3.97722 10.692C3.76472 10.8951 3.60248 11.1449 3.50336 11.4217C3.48117 11.4955 3.46692 11.5715 3.46086 11.6483L3.13503 14.7308L3.13336 14.7417C3.07086 15.1808 3.30503 15.5167 3.66086 15.6C4.55836 15.8083 6.07003 16.0417 8.33253 16.0417C8.49829 16.0417 8.65726 16.1075 8.77447 16.2247C8.89168 16.3419 8.95753 16.5009 8.95753 16.6667C8.95753 16.8324 8.89168 16.9914 8.77447 17.1086C8.65726 17.2258 8.49829 17.2917 8.33253 17.2917C5.98419 17.2917 4.37669 17.0483 3.37836 16.8167C2.30419 16.5675 1.76003 15.5583 1.89419 14.5775L2.21753 11.5167C2.23253 11.3733 2.25919 11.1958 2.32253 11.0133C2.48505 10.5532 2.75252 10.1373 3.10372 9.79856C3.45492 9.4598 3.88021 9.2075 4.34586 9.06167L5.16669 8.79833C5.30169 8.75556 5.43725 8.71528 5.57336 8.6775C6.08253 8.5375 6.56669 8.705 6.90336 8.9225C7.21169 9.1225 7.71503 9.36333 8.33253 9.36333C8.94919 9.36333 9.45253 9.12167 9.76086 8.92167C10.0967 8.705 10.5817 8.5375 11.0909 8.6775C11.227 8.71528 11.3625 8.75556 11.4975 8.79833L12.3184 9.06167C12.3981 9.08536 12.4724 9.12475 12.5367 9.17751C12.6011 9.23028 12.6542 9.29536 12.6931 9.36895C12.7319 9.44253 12.7557 9.52313 12.763 9.60603C12.7703 9.68892 12.7609 9.77243 12.7355 9.85167C12.7101 9.93091 12.6691 10.0043 12.615 10.0675C12.5609 10.1307 12.4946 10.1824 12.4202 10.2197C12.3458 10.2569 12.2647 10.2789 12.1817 10.2844C12.0987 10.2899 12.0154 10.2788 11.9367 10.2517L11.1167 9.98917C10.998 9.95118 10.8785 9.91562 10.7584 9.8825C10.7059 9.86833 10.5917 9.87417 10.44 9.97167C10.0125 10.2483 9.27336 10.6133 8.33169 10.6133C7.39003 10.6133 6.65253 10.2483 6.22503 9.97167Z" fill="black"/>
</svg>
