<svg width="22" height="22" viewBox="0 0 22 22" fill="none" xmlns="http://www.w3.org/2000/svg">
<g clip-path="url(#clip0_2285_5374)">
<path fill-rule="evenodd" clip-rule="evenodd" d="M11 0C15.1203 0 18.5523 3.432 18.5523 7.55071C18.5523 8.89586 18.0903 10.2221 17.4444 11.4227C16.7954 12.6296 15.9374 13.7547 15.0857 14.7133C14.3419 15.546 13.5434 16.3282 12.6956 17.0547C12.4185 17.2925 12.1322 17.5195 11.8376 17.7351C11.7381 17.8072 11.6359 17.8754 11.5311 17.9394C11.4444 17.9916 11.3528 18.0353 11.2577 18.0699C11.0475 18.1376 10.8192 18.1206 10.6213 18.0227C10.5684 17.9978 10.517 17.97 10.4673 17.9394C10.3619 17.8738 10.2592 17.8041 10.1593 17.7304C9.86509 17.5137 9.5794 17.2857 9.30286 17.0469C8.45527 16.3172 7.65731 15.5319 6.91429 14.696C6.06257 13.7343 5.20457 12.606 4.55714 11.4039C3.91129 10.2064 3.44771 8.88486 3.44771 7.55071C3.44771 3.432 6.87971 0 11 0ZM11 9.80571C10.4019 9.80571 9.82837 9.56813 9.40547 9.14524C8.98258 8.72235 8.745 8.14878 8.745 7.55071C8.745 6.95265 8.98258 6.37908 9.40547 5.95619C9.82837 5.53329 10.4019 5.29571 11 5.29571C11.5981 5.29571 12.1716 5.53329 12.5945 5.95619C13.0174 6.37908 13.255 6.95265 13.255 7.55071C13.255 8.14878 13.0174 8.72235 12.5945 9.14524C12.1716 9.56813 11.5981 9.80571 11 9.80571ZM15.8714 15.9594C16.1606 15.6347 16.4487 15.2942 16.7357 14.938H18.8461C19.1604 14.938 19.4433 15.1266 19.569 15.4141L21.9214 20.9063C21.9727 21.0258 21.9934 21.1563 21.9819 21.2858C21.9703 21.4154 21.9267 21.5401 21.855 21.6486C21.7834 21.7572 21.6859 21.8463 21.5713 21.9079C21.4567 21.9695 21.3287 22.0017 21.1986 22.0016H0.801428C0.671341 22.0017 0.543261 21.9695 0.428682 21.9079C0.314103 21.8463 0.216611 21.7572 0.144956 21.6486C0.0733007 21.5401 0.0297243 21.4154 0.0181377 21.2858C0.00655102 21.1563 0.0273167 21.0258 0.0785711 20.9063L2.43257 15.4141C2.4932 15.2727 2.59402 15.1522 2.72252 15.0676C2.85102 14.9829 3.00155 14.9379 3.15543 14.938H5.28471C5.56338 15.2837 5.84467 15.6169 6.12857 15.9374C7.16886 17.1097 8.21857 18.0997 9.03571 18.799C9.44429 19.1494 9.801 19.4307 10.0744 19.6287C10.2106 19.7282 10.3321 19.8105 10.439 19.8754C10.5304 19.9372 10.6305 19.9849 10.736 20.0169C10.9507 20.0867 11.1842 20.0698 11.3866 19.9697C11.4494 19.9393 11.507 19.9084 11.5594 19.877C11.6841 19.8015 11.8053 19.7202 11.9224 19.6334C12.1959 19.4354 12.551 19.1557 12.9611 18.8084C13.7783 18.1139 14.8311 17.1286 15.8699 15.9594H15.8714Z" fill="black" fill-opacity="0.9"/>
</g>
<defs>
<clipPath id="clip0_2285_5374">
<rect width="22" height="22" fill="white"/>
</clipPath>
</defs>
</svg>
