<svg width="20" height="20" viewBox="0 0 20 20" fill="none" xmlns="http://www.w3.org/2000/svg">
<path d="M10 2.5L1.66669 10H4.16669V16.6667H15.8334V10H18.3334L10 2.5ZM10 6.41667C11.75 6.41667 13.1667 7.83333 13.1667 9.58333C13.1667 12.0833 10 15 10 15C10 15 6.83335 12.0833 6.83335 9.58333C6.83335 7.83333 8.25002 6.41667 10 6.41667ZM10 8.33333C9.6685 8.33333 9.35056 8.46503 9.11614 8.69945C8.88172 8.93387 8.75002 9.25181 8.75002 9.58333C8.75002 9.91485 8.88172 10.2328 9.11614 10.4672C9.35056 10.7016 9.6685 10.8333 10 10.8333C10.3315 10.8333 10.6495 10.7016 10.8839 10.4672C11.1183 10.2328 11.25 9.91485 11.25 9.58333C11.25 9.25181 11.1183 8.93387 10.8839 8.69945C10.6495 8.46503 10.3315 8.33333 10 8.33333Z" fill="black"/>
</svg>
