<svg width="17" height="17" viewBox="0 0 17 17" fill="none" xmlns="http://www.w3.org/2000/svg">
<path d="M6.5 5.83317V4.49984C6.5 4.14622 6.64048 3.80708 6.89052 3.55703C7.14057 3.30698 7.47971 3.1665 7.83333 3.1665H12.5C12.8536 3.1665 13.1928 3.30698 13.4428 3.55703C13.6929 3.80708 13.8333 4.14622 13.8333 4.49984V12.4998C13.8333 12.8535 13.6929 13.1926 13.4428 13.4426C13.1928 13.6927 12.8536 13.8332 12.5 13.8332H7.83333C7.47971 13.8332 7.14057 13.6927 6.89052 13.4426C6.64048 13.1926 6.5 12.8535 6.5 12.4998V11.1665" stroke="white" stroke-width="1.5" stroke-linecap="round" stroke-linejoin="round"/>
<path d="M2.5 8.5H11.1667M11.1667 8.5L9.16667 6.5M11.1667 8.5L9.16667 10.5" stroke="white" stroke-width="1.5" stroke-linecap="round" stroke-linejoin="round"/>
</svg>
