<svg width="25" height="24" viewBox="0 0 25 24" fill="none" xmlns="http://www.w3.org/2000/svg">
<path d="M11.75 19C11.75 18.8011 11.829 18.6103 11.9697 18.4697C12.1103 18.329 12.3011 18.25 12.5 18.25H18.5C18.5663 18.25 18.6299 18.2237 18.6768 18.1768C18.7237 18.1299 18.75 18.0663 18.75 18V6C18.75 5.9337 18.7237 5.87011 18.6768 5.82322C18.6299 5.77634 18.5663 5.75 18.5 5.75H12.5C12.3011 5.75 12.1103 5.67098 11.9697 5.53033C11.829 5.38968 11.75 5.19891 11.75 5C11.75 4.80109 11.829 4.61032 11.9697 4.46967C12.1103 4.32902 12.3011 4.25 12.5 4.25H18.5C19.466 4.25 20.25 5.034 20.25 6V18C20.25 18.4641 20.0656 18.9092 19.7374 19.2374C19.4092 19.5656 18.9641 19.75 18.5 19.75H12.5C12.3011 19.75 12.1103 19.671 11.9697 19.5303C11.829 19.3897 11.75 19.1989 11.75 19Z" fill="white"/>
<path d="M16.112 13.115C16.112 13.3802 16.0066 13.6346 15.8191 13.8221C15.6316 14.0097 15.3772 14.115 15.112 14.115H10.256C10.2327 14.4703 10.204 14.8257 10.17 15.181L10.14 15.486C10.1288 15.601 10.0901 15.7115 10.0271 15.8083C9.96406 15.9051 9.87863 15.9852 9.77803 16.042C9.67743 16.0987 9.56463 16.1303 9.4492 16.1342C9.33378 16.138 9.21913 16.1139 9.11499 16.064C7.28647 15.1887 5.63146 13.9897 4.22999 12.525L4.19999 12.494C4.07104 12.3599 3.99902 12.1811 3.99902 11.995C3.99902 11.809 4.07104 11.6301 4.19999 11.496L4.22999 11.465C5.63146 10.0003 7.28647 8.80129 9.11499 7.92602C9.21913 7.87609 9.33378 7.85203 9.4492 7.85587C9.56463 7.8597 9.67743 7.89133 9.77803 7.94805C9.87863 8.00478 9.96406 8.08494 10.0271 8.18172C10.0901 8.27851 10.1288 8.38907 10.14 8.50402L10.17 8.80902C10.204 9.16368 10.2327 9.51902 10.256 9.87502H15.112C15.3772 9.87502 15.6316 9.98037 15.8191 10.1679C16.0066 10.3554 16.112 10.6098 16.112 10.875V13.115Z" fill="white"/>
</svg>
