<svg width="294" height="51" viewBox="0 0 294 51" fill="none" xmlns="http://www.w3.org/2000/svg">
<g filter="url(#filter0_d_701_1569)">
<path d="M25.956 2.33235L44.8212 45H27.7541L21.9331 31.773H12.8205L18.672 45H2.45833L19.6473 2.33235H25.956ZM14.8624 15.7422L8.70609 31.1635H21.6588L14.8624 15.7422ZM65.8807 45H65.1188L47.2594 4.74003V27.4148H50.8556L58.4139 44.3905V45H46.6498V2.33235H63.2292L74.0181 26.6529L65.8807 45ZM94.7424 45H78.8944V15.7117L84.8374 2.33235H94.7424V45ZM120.069 2.33235L138.934 45H121.867L116.046 31.773H106.933L112.785 45H96.571L113.76 2.33235H120.069ZM108.975 15.7422L102.819 31.1635H115.771L108.975 15.7422ZM176.847 2.33235V15.0107L142.073 30.3711H172.916L179.407 45H140.58V30.3711L170.935 16.9613H144.511L138.02 2.33235H176.847ZM197.084 45H181.236V2.33235H197.084V45ZM234.692 45L218.661 8.85441V45H202.813V2.33235H216.406L228.902 30.493V2.33235H244.75V45H234.692ZM289.185 20.6185H285.497L278.183 4.10001C275.897 2.69808 272.971 1.72282 269.131 1.72282C265.108 1.72282 261.359 2.78951 258.22 4.83146L276.049 45.0305C279.036 44.3905 281.566 43.2323 283.669 41.7694L274.983 22.2338H268.583V21.6242H291.044V45H285.101L283.912 42.3485C280.56 44.6648 276.049 46.2191 270.594 46.2191C257.611 46.2191 248.407 37.4417 248.407 23.4833C248.407 9.34204 257.824 1.11328 269.131 1.11328C273.063 1.11328 276.049 2.11902 278.427 3.52095L285.436 0.381832H289.185V20.6185Z" fill="url(#paint0_linear_701_1569)"/>
</g>
<defs>
<filter id="filter0_d_701_1569" x="0.124979" y="0.381836" width="293.252" height="50.5039" filterUnits="userSpaceOnUse" color-interpolation-filters="sRGB">
<feFlood flood-opacity="0" result="BackgroundImageFix"/>
<feColorMatrix in="SourceAlpha" type="matrix" values="0 0 0 0 0 0 0 0 0 0 0 0 0 0 0 0 0 0 127 0" result="hardAlpha"/>
<feOffset dy="2.33333"/>
<feGaussianBlur stdDeviation="1.16667"/>
<feComposite in2="hardAlpha" operator="out"/>
<feColorMatrix type="matrix" values="0 0 0 0 0 0 0 0 0 0 0 0 0 0 0 0 0 0 0.25 0"/>
<feBlend mode="normal" in2="BackgroundImageFix" result="effect1_dropShadow_701_1569"/>
<feBlend mode="normal" in="SourceGraphic" in2="effect1_dropShadow_701_1569" result="shape"/>
</filter>
<linearGradient id="paint0_linear_701_1569" x1="142.725" y1="40.2083" x2="145.663" y2="-49.1061" gradientUnits="userSpaceOnUse">
<stop stop-color="#FFED00"/>
<stop offset="1" stop-color="#6C5B0C"/>
</linearGradient>
</defs>
</svg>
