<svg width="29" height="22" viewBox="0 0 29 22" fill="none" xmlns="http://www.w3.org/2000/svg">
<g clip-path="url(#clip0_1059_1794)">
<path d="M22.1828 20.0904C22.0372 20.7147 21.9624 21.0949 21.6515 21.5145C21.4444 21.7943 21.1049 21.9549 20.7591 21.9144C20.4587 21.8795 20.1677 21.7506 19.8751 21.638C16.4921 20.336 13.762 18.0433 11.0036 15.7929C10.3462 15.2566 8.95886 14.0147 8.17092 13.3623C10.0892 12.0062 10.8832 11.1675 10.8832 11.1675C13.9743 13.851 17.5781 16.9926 21.3392 18.564C21.9385 18.8145 22.4994 18.7332 22.1828 20.0905M18.3599 10.0043C17.4897 9.31656 15.9676 8.17493 15.1084 7.51211C12.925 5.82781 10.5962 4.42218 7.92486 3.62127C6.47794 3.18747 6.28784 1.7331 7.38174 0.448417C7.58065 0.214878 7.89147 0.0616681 8.19179 0.124509C13.1672 1.16618 16.9325 4.21482 21.1253 8.06256C19.7067 8.81203 18.3597 10.0042 18.3597 10.0042" fill="url(#paint0_linear_1059_1794)"/>
<path d="M15.3626 13.6151C18.4693 10.4708 24.5013 6.67141 27.5431 6.53174C27.7179 6.52369 27.8917 6.56251 28.0464 6.64417C28.2011 6.72584 28.3312 6.84738 28.4232 6.99622C28.7229 7.48225 28.8197 8.06418 28.9092 8.63641C28.9956 9.18923 28.7073 9.66116 28.1829 9.80805C24.5488 10.826 21.0193 13.301 18.1545 15.664C17.1909 15.2089 15.3626 13.6151 15.3626 13.6151ZM13.6669 7.66107C10.098 10.641 6.22568 14.1961 2.03925 15.469C1.6859 15.5766 1.29576 15.4879 1.04147 15.2198C0.699508 14.8593 0.568524 14.4881 0.42998 14.1269C-0.0544713 12.865 0.0828313 12.4959 1.33683 12.0134C4.28032 10.8803 6.72943 8.99732 9.099 6.9846C9.45777 6.67988 10.1695 6.09468 10.5621 5.7719C11.8602 6.11983 13.6669 7.66107 13.6669 7.66107ZM7.23734 18.6561C8.26074 18.1316 9.83639 17.5127 10.8634 16.9356C11.6932 17.6671 13.6143 19.1245 13.6143 19.1245C12.2213 20.0558 9.99953 21.4422 8.45287 21.8422C8.07899 21.9388 7.68197 21.7933 7.44572 21.4878C6.99354 20.9026 6.73202 20.2814 6.70957 19.5421C6.69829 19.1712 6.90723 18.8252 7.23734 18.6561ZM15.5354 2.33132C17.3645 1.22512 19.4224 0.394306 20.8326 0.0926243C21.2203 0.00970123 21.6257 0.179045 21.8385 0.51367C22.2432 1.14998 22.4114 1.78922 22.3701 2.48859C22.3498 2.8336 22.1584 3.14668 21.8552 3.31218C20.9705 3.79539 19.3949 4.1721 18.4893 4.56731C18.4893 4.56731 16.8923 3.22023 15.5354 2.33132Z" fill="url(#paint1_linear_1059_1794)"/>
<path d="M26.4161 11.471C28.8863 12.4304 29.7974 12.7557 27.9954 15.2449C27.784 15.5367 27.4484 15.5386 27.0978 15.4558C25.9738 15.1903 23.9794 14.041 22.8753 13.3989C24.9104 11.9911 26.4161 11.471 26.4161 11.471ZM3.01431 10.3557C2.40428 10.1813 1.2437 9.99731 0.712203 9.67363C0.471895 9.5273 0.310336 9.27255 0.275926 8.99332C0.188603 8.28752 0.369793 7.65189 0.714008 7.01219C0.806373 6.84102 0.947674 6.70127 1.11986 6.61079C1.29204 6.52032 1.48729 6.48323 1.68065 6.50428C2.86516 6.63583 5.00581 7.53094 6.16471 8.06086C4.48639 9.60628 3.01431 10.3557 3.01431 10.3557Z" fill="url(#paint2_linear_1059_1794)"/>
</g>
<defs>
<linearGradient id="paint0_linear_1059_1794" x1="14.4774" y1="0.110352" x2="14.4774" y2="21.9206" gradientUnits="userSpaceOnUse">
<stop stop-color="#F9EC2A"/>
<stop offset="1" stop-color="#706A0E"/>
</linearGradient>
<linearGradient id="paint1_linear_1059_1794" x1="14.5476" y1="0.0717773" x2="14.5476" y2="21.8718" gradientUnits="userSpaceOnUse">
<stop stop-color="#F9EC2A"/>
<stop offset="1" stop-color="#706A0E"/>
</linearGradient>
<linearGradient id="paint2_linear_1059_1794" x1="14.5974" y1="6.49854" x2="14.5974" y2="15.5028" gradientUnits="userSpaceOnUse">
<stop stop-color="#F9EC2A"/>
<stop offset="1" stop-color="#706A0E"/>
</linearGradient>
<clipPath id="clip0_1059_1794">
<rect width="28.8821" height="22" fill="white" transform="translate(0.11792)"/>
</clipPath>
</defs>
</svg>
