<svg width="22" height="22" viewBox="0 0 22 22" fill="none" xmlns="http://www.w3.org/2000/svg">
<path d="M14.6136 9.96891C14.8568 9.28085 15.3355 8.70094 15.965 8.33167C16.5945 7.9624 17.3342 7.82756 18.0535 7.95097C18.7728 8.07438 19.4253 8.4481 19.8957 9.00608C20.3661 9.56405 20.6241 10.2704 20.6241 11.0002C20.6241 11.73 20.3661 12.4363 19.8957 12.9942C19.4253 13.5522 18.7728 13.9259 18.0535 14.0494C17.3342 14.1728 16.5945 14.0379 15.965 13.6687C15.3355 13.2994 14.8568 12.7195 14.6136 12.0314H11.8553C11.6112 12.7221 11.13 13.3038 10.4972 13.6729C9.8645 14.042 9.1213 14.1746 8.39994 14.0472L6.91631 16.6707C7.36236 17.2481 7.58994 17.9647 7.55883 18.6937C7.52773 19.4228 7.23993 20.1173 6.7463 20.6547C6.25268 21.1921 5.58499 21.5377 4.86122 21.6305C4.13744 21.7233 3.40417 21.5572 2.79097 21.1617C2.17777 20.7662 1.72411 20.1666 1.51014 19.469C1.29617 18.7714 1.33568 18.0206 1.62167 17.3493C1.90766 16.678 2.42173 16.1294 3.07305 15.8004C3.72437 15.4714 4.47102 15.3832 5.18106 15.5514L6.60419 13.0324C6.11369 12.469 5.84361 11.7472 5.84381 11.0002C5.84381 10.2219 6.13119 9.51241 6.60419 8.96791L5.18106 6.44891C4.47102 6.61712 3.72437 6.52894 3.07305 6.19995C2.42173 5.87096 1.90766 5.32234 1.62167 4.65103C1.33568 3.97972 1.29617 3.22892 1.51014 2.53131C1.72411 1.83369 2.17777 1.23415 2.79097 0.838634C3.40417 0.443114 4.13744 0.277068 4.86122 0.369837C5.58499 0.462605 6.25268 0.808215 6.7463 1.3456C7.23993 1.88299 7.52773 2.57756 7.55883 3.30659C7.58994 4.03562 7.36236 4.75218 6.91631 5.32966L8.39994 7.95316C9.1213 7.82568 9.8645 7.9583 10.4972 8.32743C11.13 8.69655 11.6112 9.27822 11.8553 9.96891H14.6136ZM3.43756 3.43766C3.43756 3.71117 3.54621 3.97347 3.73961 4.16687C3.933 4.36026 4.19531 4.46891 4.46881 4.46891C4.74231 4.46891 5.00462 4.36026 5.19801 4.16687C5.39141 3.97347 5.50006 3.71117 5.50006 3.43766C5.50006 3.16416 5.39141 2.90186 5.19801 2.70846C5.00462 2.51506 4.74231 2.40641 4.46881 2.40641C4.19531 2.40641 3.933 2.51506 3.73961 2.70846C3.54621 2.90186 3.43756 3.16416 3.43756 3.43766ZM8.93756 9.96891C8.66406 9.96891 8.40175 10.0776 8.20836 10.271C8.01496 10.4644 7.90631 10.7267 7.90631 11.0002C7.90631 11.2737 8.01496 11.536 8.20836 11.7294C8.40175 11.9228 8.66406 12.0314 8.93756 12.0314C9.21106 12.0314 9.47337 11.9228 9.66676 11.7294C9.86016 11.536 9.96881 11.2737 9.96881 11.0002C9.96881 10.7267 9.86016 10.4644 9.66676 10.271C9.47337 10.0776 9.21106 9.96891 8.93756 9.96891ZM17.5313 9.96891C17.2578 9.96891 16.9955 10.0776 16.8021 10.271C16.6087 10.4644 16.5001 10.7267 16.5001 11.0002C16.5001 11.2737 16.6087 11.536 16.8021 11.7294C16.9955 11.9228 17.2578 12.0314 17.5313 12.0314C17.8048 12.0314 18.0671 11.9228 18.2605 11.7294C18.4539 11.536 18.5626 11.2737 18.5626 11.0002C18.5626 10.7267 18.4539 10.4644 18.2605 10.271C18.0671 10.0776 17.8048 9.96891 17.5313 9.96891ZM4.46881 17.5314C4.19531 17.5314 3.933 17.6401 3.73961 17.8335C3.54621 18.0269 3.43756 18.2892 3.43756 18.5627C3.43756 18.8362 3.54621 19.0985 3.73961 19.2919C3.933 19.4853 4.19531 19.5939 4.46881 19.5939C4.74231 19.5939 5.00462 19.4853 5.19801 19.2919C5.39141 19.0985 5.50006 18.8362 5.50006 18.5627C5.50006 18.2892 5.39141 18.0269 5.19801 17.8335C5.00462 17.6401 4.74231 17.5314 4.46881 17.5314Z" fill="url(#paint0_linear_1059_2189)"/>
<defs>
<linearGradient id="paint0_linear_1059_2189" x1="10.9991" y1="0.344727" x2="10.9991" y2="21.6556" gradientUnits="userSpaceOnUse">
<stop stop-color="#F9EC2A"/>
<stop offset="1" stop-color="#706A0E"/>
</linearGradient>
</defs>
</svg>
