<svg width="250" height="226" viewBox="0 0 250 226" fill="none" xmlns="http://www.w3.org/2000/svg">
<path d="M236.762 43.7351C235.937 42.3496 235.071 40.9814 234.164 39.6305C222.125 21.7835 201.4 9.57896 181.012 4.06119C172.067 1.68173 162.878 0.341068 153.626 0.065739C93.0344 -2.01252 68.9006 45.7874 48.8766 58.0855C28.8526 70.3835 -1.9784 91.4622 0.0998549 135.62C2.17811 179.778 33.9859 221.348 95.601 223.946C157.216 226.544 161.326 198.789 195.726 188.517C218.494 181.721 234.694 158.767 242.591 137.553C253.388 108.634 252.878 71.0849 236.762 43.7351Z" fill="#03A186" fill-opacity="0.2"/>
<path opacity="0.7" d="M236.762 43.7351C235.937 42.3496 235.071 40.9814 234.164 39.6305C222.125 21.7835 201.4 9.57896 181.012 4.06119C172.067 1.68173 162.878 0.341068 153.626 0.065739C93.0344 -2.01252 68.9006 45.7874 48.8766 58.0855C28.8526 70.3835 -1.9784 91.4622 0.0998549 135.62C2.17811 179.778 33.9859 221.348 95.601 223.946C157.216 226.544 161.326 198.789 195.726 188.517C218.494 181.721 234.694 158.767 242.591 137.553C253.388 108.634 252.878 71.0849 236.762 43.7351Z" fill="white" fill-opacity="0.1"/>
<path d="M223.284 47.9033V46.1939H191.663V20.8496H190.635V46.1939H159.237V47.9033H190.635V71.3668H159.237V73.0814H190.635V96.5449H159.237V98.2543H190.635V122.908H191.663V98.2543H223.284V96.5449H191.663V73.0814H223.284V71.3668H191.663V47.9033H223.284Z" fill="#263238" stroke="#263238" stroke-miterlimit="10"/>
<path d="M157.071 18.792V125.651H225.227V18.792H157.071ZM222.926 122.04H159.372V22.3978H222.926V122.04Z" fill="#263238" stroke="#263238" stroke-miterlimit="10"/>
<path d="M127.393 153.076C127.396 153.069 127.397 153.062 127.397 153.056C127.396 153.049 127.395 153.042 127.392 153.036C127.389 153.029 127.385 153.024 127.38 153.019C127.375 153.014 127.369 153.011 127.362 153.008C127.356 153.006 127.349 153.005 127.342 153.005C127.335 153.005 127.328 153.007 127.322 153.01C127.316 153.013 127.31 153.017 127.305 153.022C127.301 153.027 127.297 153.033 127.295 153.039C125.769 156.695 124.562 160.476 123.689 164.34C122.798 168.204 122.126 172.116 121.678 176.056L121.398 179.018C121.356 179.511 121.299 180.005 121.262 180.498L121.185 181.984C121.143 182.977 121.081 183.969 121.049 184.962L121.081 187.939L121.112 189.425C121.112 189.918 121.169 190.417 121.205 190.911C121.278 191.898 121.34 192.89 121.429 193.877C121.621 195.852 121.917 197.81 122.218 199.769C122.222 199.781 122.228 199.791 122.238 199.798C122.247 199.806 122.259 199.81 122.27 199.811C122.277 199.811 122.285 199.811 122.291 199.808C122.298 199.806 122.304 199.802 122.309 199.797C122.314 199.792 122.318 199.786 122.32 199.78C122.322 199.773 122.323 199.766 122.322 199.759C122.322 198.766 122.276 197.784 122.255 196.792C122.234 195.8 122.141 194.828 122.156 193.841C122.172 192.854 122.156 191.867 122.125 190.885L122.094 189.409V187.933V184.982L122.172 182.036L122.203 180.561C122.203 180.067 122.26 179.579 122.286 179.085L122.468 176.139C122.803 172.216 123.36 168.315 124.136 164.454C124.891 160.575 125.981 156.767 127.393 153.076Z" fill="#263238"/>
<path d="M127.814 168.497C127.818 168.485 127.816 168.472 127.81 168.46C127.805 168.449 127.795 168.44 127.783 168.435C127.776 168.433 127.769 168.431 127.763 168.432C127.756 168.432 127.749 168.434 127.743 168.436C127.736 168.439 127.731 168.443 127.726 168.449C127.721 168.454 127.718 168.46 127.715 168.466C126.031 173.388 124.91 178.484 124.375 183.658C124.115 186.256 123.824 188.823 123.787 191.421C123.726 194.022 123.818 196.624 124.063 199.214C124.066 199.225 124.072 199.234 124.08 199.242C124.088 199.249 124.099 199.254 124.11 199.256C124.116 199.257 124.123 199.257 124.129 199.256C124.136 199.255 124.142 199.252 124.148 199.248C124.153 199.244 124.158 199.239 124.161 199.233C124.164 199.227 124.166 199.221 124.167 199.214C124.468 196.616 124.65 194.05 124.832 191.473C125.014 188.896 125.04 186.313 125.206 183.736C125.559 178.586 126.43 173.484 127.804 168.508L127.814 168.497Z" fill="#263238"/>
<path d="M136.366 173.927C136.356 173.917 136.343 173.912 136.33 173.912C136.316 173.912 136.303 173.917 136.293 173.927C134.155 175.3 132.23 176.978 130.578 178.91C129.749 179.885 129.001 180.928 128.344 182.027L127.887 182.895L127.523 183.799C127.401 184.095 127.297 184.399 127.211 184.708C127.118 185.02 127.014 185.321 126.931 185.633C126.278 188.1 125.883 190.628 125.751 193.177C125.624 195.712 125.718 198.254 126.032 200.773C126.035 200.784 126.042 200.795 126.051 200.802C126.061 200.809 126.072 200.814 126.084 200.814C126.091 200.815 126.097 200.814 126.103 200.812C126.11 200.81 126.116 200.807 126.12 200.803C126.125 200.798 126.129 200.793 126.132 200.787C126.135 200.781 126.136 200.774 126.136 200.768L126.791 193.25C126.968 190.762 127.285 188.287 127.741 185.835C127.809 185.529 127.897 185.238 127.975 184.937C128.045 184.636 128.132 184.339 128.235 184.048L128.541 183.18L128.936 182.359C129.531 181.265 130.216 180.223 130.983 179.242C132.509 177.25 134.317 175.491 136.351 174.02C136.359 174.017 136.367 174.011 136.372 174.003C136.378 173.996 136.382 173.987 136.383 173.978C136.385 173.969 136.384 173.959 136.381 173.95C136.378 173.941 136.373 173.933 136.366 173.927Z" fill="#263238"/>
<path d="M132.225 183.586C131.116 184.395 130.224 185.466 129.627 186.703C128.999 187.921 128.51 189.206 128.167 190.533C128.069 190.86 127.986 191.192 127.913 191.525L127.679 192.522C127.556 193.194 127.47 193.872 127.424 194.554C127.424 195.24 127.398 195.92 127.424 196.601C127.474 197.283 127.562 197.961 127.689 198.633C127.693 198.642 127.698 198.651 127.705 198.658C127.713 198.665 127.721 198.671 127.731 198.674C127.738 198.676 127.745 198.676 127.752 198.674C127.759 198.673 127.765 198.67 127.771 198.667C127.777 198.663 127.782 198.658 127.786 198.652C127.789 198.646 127.792 198.639 127.793 198.633C127.951 197.973 128.072 197.305 128.157 196.632C128.261 195.967 128.365 195.312 128.443 194.653C128.521 193.993 128.625 193.343 128.677 192.683C128.728 192.024 128.817 191.364 128.962 190.72C129.191 189.418 129.564 188.146 130.074 186.927C130.535 185.684 131.282 184.568 132.256 183.669C132.261 183.665 132.265 183.659 132.267 183.654C132.269 183.648 132.271 183.642 132.271 183.635C132.271 183.629 132.269 183.623 132.267 183.617C132.265 183.611 132.261 183.606 132.256 183.602C132.248 183.593 132.237 183.588 132.225 183.586Z" fill="#263238"/>
<path d="M120.234 191.118C119.953 187.783 119.402 184.473 118.883 181.174C118.363 177.875 117.781 174.576 117.179 171.302C116.576 168.029 115.901 164.74 115.189 161.477C115.191 161.47 115.192 161.461 115.191 161.453C115.189 161.445 115.186 161.437 115.181 161.431C115.177 161.424 115.17 161.419 115.163 161.415C115.156 161.411 115.148 161.409 115.139 161.409C115.131 161.409 115.123 161.411 115.116 161.415C115.108 161.419 115.102 161.424 115.097 161.431C115.092 161.437 115.089 161.445 115.088 161.453C115.087 161.461 115.087 161.47 115.09 161.477C115.662 164.771 116.176 168.071 116.649 171.375C117.121 174.679 117.62 177.979 118.041 181.288C118.462 184.598 118.769 187.923 119.179 191.228L120.4 201.167C120.403 201.179 120.409 201.19 120.419 201.198C120.428 201.207 120.44 201.212 120.452 201.214C120.466 201.214 120.48 201.208 120.491 201.199C120.501 201.189 120.508 201.176 120.509 201.162C120.545 200.325 120.545 199.489 120.566 198.647C120.587 197.805 120.53 196.974 120.519 196.137C120.504 194.459 120.358 192.791 120.234 191.118Z" fill="#263238"/>
<path d="M118.233 191.072C118.052 189.747 117.813 188.433 117.558 187.123L117.09 185.175C116.934 184.526 116.789 183.876 116.602 183.232C115.936 180.643 115.081 178.106 114.046 175.641L113.646 174.721L113.204 173.823C112.918 173.22 112.581 172.643 112.253 172.056C111.597 170.889 110.786 169.816 109.842 168.866C109.838 168.861 109.833 168.858 109.827 168.855C109.821 168.853 109.815 168.852 109.809 168.852C109.802 168.852 109.796 168.853 109.79 168.855C109.784 168.858 109.779 168.861 109.775 168.866C109.765 168.876 109.76 168.889 109.76 168.902C109.76 168.916 109.765 168.929 109.775 168.939C110.654 169.923 111.395 171.023 111.978 172.207C112.269 172.799 112.575 173.381 112.825 173.994L113.22 174.903L113.568 175.833C114.491 178.307 115.234 180.844 115.791 183.424C116.093 184.707 116.311 186.022 116.545 187.316L116.857 189.269C116.971 189.919 117.111 190.568 117.199 191.223C117.407 192.527 117.651 193.821 117.875 195.135C118.098 196.45 118.317 197.733 118.597 199.058C118.599 199.07 118.605 199.08 118.613 199.089C118.621 199.097 118.632 199.103 118.644 199.105C118.658 199.105 118.672 199.099 118.683 199.09C118.693 199.08 118.7 199.067 118.701 199.053C118.701 197.719 118.67 196.386 118.607 195.052C118.53 193.722 118.368 192.397 118.233 191.072Z" fill="#263238"/>
<path d="M115.469 191.244C114.851 189.488 114.134 187.774 113.355 186.095C112.569 184.418 111.68 182.79 110.694 181.222C110.692 181.215 110.687 181.208 110.682 181.203C110.677 181.198 110.67 181.194 110.663 181.191C110.656 181.189 110.648 181.188 110.641 181.189C110.633 181.189 110.626 181.192 110.619 181.196C110.613 181.199 110.607 181.205 110.603 181.211C110.599 181.217 110.596 181.224 110.595 181.232C110.593 181.239 110.594 181.247 110.596 181.254C110.598 181.261 110.601 181.268 110.606 181.274C111.464 182.903 112.222 184.582 112.877 186.303C113.552 188.007 114.165 189.743 114.674 191.499C115.183 193.255 115.573 195.047 116.041 196.814C116.508 198.581 116.929 200.363 117.475 202.15C117.478 202.16 117.484 202.169 117.492 202.175C117.501 202.182 117.511 202.186 117.521 202.186C117.536 202.186 117.55 202.181 117.56 202.171C117.571 202.162 117.577 202.149 117.579 202.134C117.598 200.27 117.424 198.409 117.059 196.58C116.673 194.762 116.141 192.977 115.469 191.244Z" fill="#263238"/>
<path d="M115.355 197.079C115.014 195.985 114.519 194.946 113.885 193.993C113.294 193.015 112.574 192.122 111.744 191.338C111.321 190.953 110.865 190.606 110.383 190.299C109.901 189.989 109.376 189.755 108.824 189.602C108.812 189.6 108.8 189.602 108.79 189.608C108.78 189.614 108.771 189.623 108.767 189.634C108.759 189.643 108.754 189.655 108.754 189.667C108.754 189.68 108.759 189.692 108.767 189.701C109.752 190.176 110.625 190.854 111.328 191.691C112.039 192.509 112.638 193.418 113.11 194.393C113.63 195.349 113.879 196.409 114.321 197.401C114.513 197.921 114.705 198.414 114.934 198.923C115.12 199.458 115.344 199.979 115.604 200.482C115.609 200.49 115.616 200.496 115.624 200.501C115.633 200.505 115.642 200.508 115.651 200.508C115.658 200.509 115.664 200.508 115.671 200.506C115.677 200.504 115.683 200.501 115.688 200.496C115.692 200.492 115.696 200.486 115.699 200.48C115.702 200.474 115.703 200.468 115.703 200.461C115.724 199.891 115.703 199.319 115.641 198.752C115.604 198.186 115.49 197.63 115.355 197.079Z" fill="#263238"/>
<path d="M115.563 166.237C113.892 165.775 112.379 164.864 111.189 163.604C109.998 162.344 109.175 160.782 108.808 159.088C107.546 153.196 111.614 155.721 107.967 146.462C104.319 137.204 105.161 135.1 106.408 132.434C107.655 129.769 108.372 130.61 109.494 134.118C110.616 137.625 114.69 143.096 116.249 153.341C117.807 163.587 115.563 166.237 115.563 166.237Z" fill="url(#paint0_linear_2629_7914)"/>
<path d="M126.354 156.282C126.354 156.282 122.717 155.02 122.566 148.146C122.416 141.272 125.232 142.675 125.653 134.118C126.074 125.56 126.635 119.528 128.178 119.388C129.721 119.248 133.789 123.597 135.192 133.136C136.595 142.675 133.368 148.988 130.563 151.793C127.757 154.599 126.354 156.282 126.354 156.282Z" fill="url(#paint1_linear_2629_7914)"/>
<path d="M113.599 174.514C113.599 174.514 112.757 169.464 111.074 167.079C109.39 164.694 105.743 162.59 103.358 157.966C100.973 153.341 98.308 151.092 98.4483 157.685C98.5886 164.278 101.535 167.64 105.203 169.884C108.871 172.129 113.599 174.514 113.599 174.514Z" fill="url(#paint2_linear_2629_7914)"/>
<path d="M112.056 183.211C112.056 183.211 108.689 176.758 103.779 171.988C98.8691 167.219 94.9464 164.834 96.344 167.219C97.7417 169.604 99.4303 169.463 101.815 173.672C104.2 177.88 103.498 180.946 106.865 183.351C110.232 185.757 112.056 183.211 112.056 183.211Z" fill="url(#paint3_linear_2629_7914)"/>
<path d="M111.635 191.488C111.495 191.067 111.354 187.981 106.585 185.456C101.815 182.931 97.3261 183.897 97.8872 185.175C98.4483 186.453 101.394 188.542 104.34 189.804C107.286 191.067 111.635 191.488 111.635 191.488Z" fill="url(#paint4_linear_2629_7914)"/>
<path d="M126.079 174.795C126.079 174.795 123.975 172.129 125.097 166.518C126.219 160.907 128.734 162.31 131.55 159.364C134.366 156.418 133.794 156.002 136.6 152.916C139.406 149.83 141.931 148.146 143.053 149.409C144.175 150.671 142.492 154.604 140.808 156.844C139.125 159.083 136.46 160.205 135.187 162.99C133.914 165.775 134.485 170.264 131.259 172.389C128.032 174.514 126.079 174.795 126.079 174.795Z" fill="url(#paint5_linear_2629_7914)"/>
<path d="M133.108 176.337C133.108 176.337 138.159 170.586 141.806 166.377C145.453 162.169 146.856 158.947 147.002 161.748C147.147 164.548 148.264 166.798 145.318 170.445C142.372 174.093 133.108 176.337 133.108 176.337Z" fill="url(#paint6_linear_2629_7914)"/>
<path d="M130.428 185.596C130.428 185.596 130.287 183.352 138.283 178.161C146.279 172.971 149.646 171.989 148.805 174.093C147.963 176.197 144.456 178.301 140.668 182.089C136.881 185.877 130.428 185.596 130.428 185.596Z" fill="url(#paint7_linear_2629_7914)"/>
<path d="M115.895 165.639C115.895 165.639 114.02 155.58 112.056 148.426C110.092 141.272 108.829 136.923 108.829 136.923" stroke="#263238" stroke-linecap="round" stroke-linejoin="round"/>
<path d="M126.037 156.386C126.037 156.386 129.446 145.476 130.568 138.888C131.69 132.299 130.428 127.384 129.866 124.438" stroke="#263238" stroke-linecap="round" stroke-linejoin="round"/>
<path d="M113.157 174.306C111.646 171.707 109.917 169.243 107.987 166.938C104.901 163.301 102.516 161.327 101.114 157.825" stroke="#263238" stroke-linecap="round" stroke-linejoin="round"/>
<path d="M126.079 174.794C126.079 174.794 127.201 168.04 129.866 164.554C132.532 161.067 137.862 155.581 139.967 152.084" stroke="#263238" stroke-linecap="round" stroke-linejoin="round"/>
<path d="M111.287 191.332C111.287 191.332 106.569 188.262 103.202 186.578" stroke="#263238" stroke-linecap="round" stroke-linejoin="round"/>
<path d="M126.816 221.083H117.069L112.196 196.679H131.69L126.816 221.083Z" fill="#263238" stroke="#263238" stroke-linecap="round" stroke-linejoin="round"/>
<path d="M29.0916 221.084H250" stroke="#263238" stroke-miterlimit="10"/>
<path d="M11.6238 221.084H25.3247" stroke="#263238" stroke-miterlimit="10"/>
<path d="M107.722 71.5485V55.1823H106.242V34.2386C106.242 32.5427 105.909 30.8632 105.26 29.2961C104.612 27.7291 103.661 26.3052 102.462 25.1057C101.263 23.9062 99.8394 22.9547 98.2726 22.3056C96.7058 21.6564 95.0265 21.3223 93.3305 21.3223H23.9582C20.5326 21.3223 17.2473 22.6831 14.825 25.1054C12.4027 27.5277 11.0419 30.813 11.0419 34.2386V199.164C11.0419 202.589 12.4027 205.875 14.825 208.297C17.2473 210.719 20.5326 212.08 23.9582 212.08H93.3305C95.0265 212.08 96.7058 211.746 98.2726 211.097C99.8394 210.448 101.263 209.496 102.462 208.297C103.661 207.097 104.612 205.673 105.26 204.106C105.909 202.539 106.242 200.86 106.242 199.164V85.4988H107.722V75.8297H106.242V71.5485H107.722Z" fill="#707070" stroke="#263238" stroke-linejoin="round"/>
<path d="M91.0652 210.298H26.2183C22.5901 210.298 19.1105 208.857 16.545 206.291C13.9795 203.726 12.5382 200.246 12.5382 196.618V36.7847C12.5382 29.225 16.4142 23.0993 26.2183 23.0993H91.0652C100.059 22.9798 104.751 29.225 104.751 36.7847V196.618C104.751 198.415 104.396 200.194 103.709 201.854C103.021 203.515 102.013 205.023 100.742 206.293C99.471 207.564 97.9623 208.571 96.3019 209.258C94.6416 209.946 92.8621 210.299 91.0652 210.298Z" fill="#263238" stroke="#263238" stroke-linejoin="round"/>
<path d="M63.6634 25.203L63.6374 25.3017C62.8788 28.1281 61.1331 29.9777 59.2003 29.9777H58.0885C56.1557 29.9777 54.4099 28.1489 53.6514 25.3017V25.203L26.5925 25.1094C25.0942 25.1046 23.6098 25.3955 22.2242 25.9654C20.8385 26.5353 19.579 27.3729 18.5176 28.4304C17.4563 29.4879 16.614 30.7444 16.0391 32.1279C15.4642 33.5115 15.1679 34.9948 15.1672 36.4931L15.1309 194.929C15.1309 202.312 20.9084 208.297 28.042 208.297H89.2675C96.4011 208.297 102.184 202.312 102.184 194.929V35.3552C102.184 32.7568 101.16 30.263 99.3331 28.415C97.5064 26.5669 95.0247 25.5136 92.4265 25.4835L63.6634 25.203Z" fill="white" stroke="#263238" stroke-miterlimit="10"/>
<path d="M102.174 38.2336V35.3552C102.174 32.7567 101.149 30.263 99.3227 28.4149C97.496 26.5669 95.0144 25.5136 92.4161 25.4835L63.6634 25.1873L63.6374 25.286C62.8789 28.1125 61.1331 29.9621 59.2003 29.9621H58.0885C56.1557 29.9621 54.41 28.1333 53.6514 25.286V25.1873L26.5925 25.0938C25.0929 25.089 23.6072 25.3804 22.2206 25.9513C20.8339 26.5221 19.5737 27.3612 18.5121 28.4203C17.4506 29.4794 16.6086 30.7378 16.0346 32.1231C15.4606 33.5084 15.1659 34.9935 15.1672 36.493V38.2336H102.174Z" fill="#DBDBDB" stroke="#263238" stroke-miterlimit="10"/>
<path d="M59.59 24.8915C59.59 24.6509 59.5186 24.4156 59.3847 24.2156C59.2509 24.0155 59.0607 23.8597 58.8383 23.7678C58.6158 23.676 58.3711 23.6522 58.1351 23.6995C57.8991 23.7469 57.6825 23.8632 57.5127 24.0337C57.3429 24.2043 57.2275 24.4214 57.1812 24.6576C57.1349 24.8937 57.1597 25.1384 57.2525 25.3604C57.3453 25.5825 57.5019 25.772 57.7026 25.905C57.9032 26.0379 58.1387 26.1084 58.3794 26.1073C58.5388 26.1073 58.6967 26.0758 58.8439 26.0147C58.9911 25.9535 59.1248 25.8639 59.2373 25.7509C59.3498 25.638 59.4388 25.5039 59.4994 25.3564C59.5599 25.2089 59.5907 25.051 59.59 24.8915Z" fill="#707070"/>
<path d="M23.6881 27.978C23.6881 29.2093 22.3113 29.6509 22.3061 30.5758V30.6381H23.6414V31.0486H21.8593V30.7109C21.8593 29.3964 23.2361 29.1522 23.2361 27.9987C23.2361 27.5779 23.0958 27.3597 22.7581 27.3597C22.4204 27.3597 22.2801 27.5987 22.2801 27.9572V28.3157H21.8593V27.9883C21.8593 27.3649 22.1398 26.9492 22.7685 26.9492C23.3972 26.9492 23.6881 27.3857 23.6881 27.978Z" fill="#263238"/>
<path d="M25.9169 27.9727V28.0766C25.9345 28.2545 25.8932 28.4332 25.7993 28.5852C25.7054 28.7373 25.5642 28.8543 25.3974 28.9183C25.5653 28.9808 25.7075 29.0976 25.8016 29.25C25.8957 29.4025 25.9363 29.5819 25.9169 29.76V30.0718C25.9169 30.6952 25.626 31.1109 24.9973 31.1109C24.3686 31.1109 24.0829 30.7056 24.0829 30.0718V29.7964H24.5193V30.1029C24.5193 30.4666 24.67 30.69 24.9973 30.69C25.3246 30.69 25.4701 30.4718 25.4701 30.0614V29.7496C25.4701 29.3444 25.3039 29.1521 24.9506 29.1417H24.7064V28.7365H24.9713C25.0421 28.7373 25.1122 28.7227 25.1767 28.6937C25.2413 28.6648 25.2987 28.6221 25.3452 28.5688C25.3916 28.5154 25.4259 28.4526 25.4457 28.3847C25.4655 28.3167 25.4703 28.2453 25.4597 28.1754V27.9935C25.4597 27.5727 25.3143 27.3596 24.9869 27.3596C24.6596 27.3596 24.5089 27.583 24.5089 27.9519V28.1598H24.0829V27.9727C24.0829 27.3544 24.3738 26.9336 24.9973 26.9336C25.6208 26.9336 25.9169 27.3544 25.9169 27.9727Z" fill="#263238"/>
<path d="M26.7951 28.2842V28.8453H26.3586V28.2842H26.7951ZM26.7951 30.4975V31.0586H26.3586V30.5027L26.7951 30.4975Z" fill="#263238"/>
<path d="M27.7096 28.6476C27.7698 28.5407 27.8585 28.4526 27.9658 28.393C28.0731 28.3334 28.1948 28.3046 28.3174 28.3099C28.837 28.3099 29.0708 28.6944 29.0708 29.2763V30.0712C29.0708 30.6947 28.7747 31.1104 28.1564 31.1104C27.5381 31.1104 27.2419 30.7051 27.2419 30.0712V29.8011H27.6628V30.1024C27.6628 30.4661 27.8187 30.6895 28.1408 30.6895C28.4629 30.6895 28.6188 30.4661 28.6188 30.1024V29.3127C28.6188 28.9438 28.4681 28.7256 28.1408 28.7256C28.0818 28.7228 28.0228 28.732 27.9674 28.7526C27.912 28.7733 27.8614 28.805 27.8187 28.8458C27.7759 28.8866 27.7419 28.9357 27.7187 28.9901C27.6954 29.0444 27.6835 29.1029 27.6836 29.162V29.2503H27.2575L27.3666 26.9902H28.9721V27.3851H27.7771L27.7096 28.6476Z" fill="#263238"/>
<path d="M31.336 27.9673V28.0452H30.91V27.9413C30.91 27.5724 30.7593 27.3594 30.4268 27.3594C30.0943 27.3594 29.9072 27.5776 29.9072 28.0141V28.9441C29.9543 28.8102 30.0436 28.6953 30.1617 28.6165C30.2797 28.5378 30.4202 28.4996 30.5619 28.5076C31.0814 28.5076 31.3204 28.8869 31.3204 29.474V30.0871C31.3204 30.7106 31.0139 31.1262 30.3904 31.1262C29.7669 31.1262 29.4552 30.721 29.4552 30.0871V28.0089C29.4552 27.3646 29.7462 26.9697 30.3904 26.9697C31.0347 26.9697 31.336 27.3438 31.336 27.9673ZM29.9332 29.4896V30.1027C29.9332 30.4664 30.0839 30.6898 30.4164 30.6898C30.7489 30.6898 30.8996 30.4664 30.8996 30.1027V29.4896C30.8996 29.1259 30.7437 28.9025 30.4164 28.9025C30.0891 28.9025 29.9332 29.1259 29.9332 29.4896Z" fill="#263238"/>
<path d="M75.7588 28.1494H74.6106V31.0226H75.7588V28.1494Z" fill="#263238"/>
<path d="M77.2916 27.5723H76.1433V31.0222H77.2916V27.5723Z" fill="#263238"/>
<path d="M78.8243 27.1621H77.676V31.0173H78.8243V27.1621Z" fill="#263238"/>
<path d="M80.3519 26.4502H79.2036V31.0172H80.3519V26.4502Z" fill="#263238"/>
<path d="M94.5722 30.9392H87.6776V26.7256H94.5722V30.9392ZM88.0621 30.56H94.1878V27.1101H88.0621V30.56Z" fill="#263238"/>
<path d="M92.2759 27.5254H88.6389V30.1388H92.2759V27.5254Z" fill="#263238"/>
<path d="M95.2009 28.3359H94.3333V29.3283H95.2009V28.3359Z" fill="#263238"/>
<path d="M85.1525 30.0242C85.1049 30.0252 85.0581 30.0126 85.0174 29.9878C83.6146 29.1513 82.6898 29.9255 82.6482 29.9619C82.6005 30.0091 82.5361 30.0357 82.469 30.0357C82.4018 30.0357 82.3374 30.0091 82.2897 29.9619C82.2421 29.9133 82.2155 29.848 82.2155 29.78C82.2155 29.712 82.2421 29.6467 82.2897 29.5982C82.3417 29.5566 83.5263 28.559 85.2616 29.5982C85.308 29.628 85.3437 29.6719 85.3635 29.7234C85.3833 29.775 85.3862 29.8315 85.3717 29.8847C85.3572 29.938 85.3262 29.9853 85.283 30.0197C85.2399 30.0541 85.1869 30.0739 85.1317 30.0762L85.1525 30.0242Z" fill="#263238"/>
<path d="M85.6721 29.1567C85.6245 29.1577 85.5777 29.145 85.537 29.1203C83.5107 27.9149 82.1443 29.0839 82.1339 29.1203C82.0818 29.1558 82.0185 29.1712 81.9559 29.1635C81.8933 29.1558 81.8357 29.1256 81.7937 29.0785C81.7517 29.0315 81.7283 28.9707 81.7278 28.9077C81.7273 28.8446 81.7497 28.7835 81.791 28.7358C81.791 28.7358 83.4536 27.3122 85.802 28.7046C85.8313 28.7217 85.8569 28.7445 85.8772 28.7717C85.8976 28.7988 85.9123 28.8298 85.9206 28.8627C85.9288 28.8956 85.9303 28.9298 85.9252 28.9634C85.92 28.9969 85.9081 29.029 85.8903 29.0579C85.8652 29.0914 85.832 29.118 85.7939 29.1352C85.7557 29.1525 85.7139 29.1598 85.6721 29.1567Z" fill="#263238"/>
<path d="M86.1397 28.1544C86.0938 28.1547 86.0488 28.1421 86.0098 28.118C83.4432 26.5905 81.7338 28.0297 81.661 28.118C81.6373 28.1422 81.609 28.1615 81.5778 28.1746C81.5466 28.1877 81.5131 28.1945 81.4792 28.1945C81.4453 28.1945 81.4118 28.1877 81.3806 28.1746C81.3493 28.1615 81.3211 28.1422 81.2973 28.118C81.2749 28.0931 81.2577 28.0639 81.2469 28.0321C81.236 28.0004 81.2316 27.9667 81.2341 27.9333C81.2365 27.8998 81.2456 27.8672 81.261 27.8373C81.2763 27.8075 81.2975 27.781 81.3233 27.7595C81.3233 27.7595 83.3704 26.0034 86.2748 27.7284C86.3329 27.7639 86.3747 27.8209 86.3912 27.887C86.4077 27.953 86.3976 28.023 86.3631 28.0817C86.3344 28.1109 86.2992 28.1327 86.2603 28.1454C86.2214 28.158 86.18 28.1611 86.1397 28.1544Z" fill="#263238"/>
<path d="M84.3784 30.4561C84.3793 30.5857 84.3415 30.7125 84.2698 30.8204C84.1982 30.9283 84.0958 31.0123 83.976 31.0616C83.8562 31.1109 83.7244 31.1232 83.5976 31.097C83.4707 31.0708 83.3546 31.0073 83.2641 30.9146C83.1736 30.8218 83.113 30.7042 83.0899 30.5767C83.0668 30.4493 83.0823 30.3178 83.1345 30.1992C83.1868 30.0807 83.2732 29.9804 83.3828 29.9114C83.4925 29.8424 83.6202 29.8077 83.7497 29.8119C83.9178 29.8159 84.0777 29.8856 84.1952 30.006C84.3127 30.1264 84.3784 30.2879 84.3784 30.4561Z" fill="#263238"/>
<path d="M58.5665 97.8691C69.9969 98.0457 79.5205 102.379 87.0283 111.045C87.2698 111.308 87.4557 111.616 87.5746 111.953C87.6936 112.289 87.7431 112.646 87.7203 113.002C87.6975 113.358 87.6027 113.705 87.4418 114.024C87.2809 114.342 87.0572 114.624 86.7841 114.854C86.5199 115.08 86.213 115.251 85.8815 115.357C85.5499 115.463 85.2005 115.501 84.854 115.469C84.5075 115.437 84.171 115.335 83.8644 115.171C83.5578 115.006 83.2874 114.782 83.0692 114.511C80.3902 111.345 77.1335 108.718 73.4728 106.769C67.8435 103.778 61.4453 102.548 55.1084 103.239C48.7714 103.929 42.7881 106.507 37.9346 110.64C36.578 111.846 35.2909 113.128 34.0794 114.48C33.8533 114.753 33.5752 114.98 33.261 115.145C32.9469 115.311 32.6031 115.413 32.2494 115.445C31.8957 115.476 31.5392 115.438 31.2005 115.331C30.8618 115.224 30.5477 115.051 30.2762 114.822C30.0084 114.588 29.7905 114.302 29.6355 113.982C29.4805 113.662 29.3916 113.313 29.3742 112.958C29.3567 112.603 29.411 112.247 29.5339 111.913C29.6567 111.579 29.8456 111.273 30.0892 111.014C36.0983 103.875 44.5757 99.262 53.8333 98.0925C54.5815 97.9938 55.3348 97.9107 56.0882 97.8795C56.8416 97.8483 57.7404 97.8691 58.5665 97.8691Z" fill="#263238"/>
<path d="M59.512 108.463C66.7339 108.65 73.5402 111.731 78.8606 117.903C79.1055 118.162 79.2945 118.469 79.4159 118.804C79.5372 119.139 79.5882 119.496 79.5658 119.852C79.5434 120.208 79.448 120.555 79.2856 120.872C79.1231 121.189 78.8971 121.47 78.6216 121.696C78.3553 121.927 78.0448 122.102 77.7089 122.209C77.373 122.316 77.0188 122.354 76.6678 122.32C76.3169 122.286 75.9765 122.181 75.6675 122.011C75.3584 121.841 75.0872 121.61 74.8703 121.332C72.2028 118.104 68.614 115.766 64.5829 114.63C56.2128 112.365 48.9389 114.433 42.86 120.641C42.6313 120.875 42.4235 121.125 42.2105 121.364C41.9853 121.631 41.7092 121.851 41.3982 122.011C41.0871 122.171 40.7474 122.268 40.3988 122.296C40.0501 122.323 39.6994 122.281 39.3671 122.172C39.0349 122.063 38.7276 121.889 38.4632 121.66C38.1988 121.431 37.9825 121.152 37.8269 120.838C37.6714 120.525 37.5796 120.184 37.557 119.835C37.5344 119.486 37.5814 119.136 37.6953 118.805C37.8091 118.474 37.9876 118.17 38.2202 117.909C40.569 115.123 43.4659 112.85 46.7307 111.232C50.4664 109.377 54.4307 108.478 59.512 108.463Z" fill="#263238"/>
<path d="M71.3893 126.524C71.3916 127.058 71.2313 127.581 70.9297 128.023C70.6282 128.465 70.1996 128.804 69.7008 128.997C69.195 129.197 68.6392 129.234 68.1116 129.101C67.584 128.969 67.1112 128.674 66.76 128.259C65.6632 126.964 64.2838 125.939 62.7282 125.261C58.395 123.422 53.615 124.544 50.3885 128.181C50.0631 128.596 49.6172 128.9 49.1122 129.052C48.6071 129.203 48.0675 129.195 47.5673 129.028C47.1527 128.898 46.7766 128.668 46.4725 128.358C46.1684 128.048 45.9458 127.667 45.8244 127.25C45.703 126.833 45.6867 126.392 45.7768 125.967C45.867 125.542 46.0608 125.146 46.3411 124.814C47.8321 123.021 49.7002 121.579 51.8124 120.591C53.9245 119.602 56.2287 119.092 58.5607 119.096C60.8926 119.1 63.195 119.618 65.3038 120.614C67.4126 121.609 69.2758 123.058 70.7607 124.856C71.0841 125.358 71.3458 125.897 71.54 126.461L71.3893 126.524Z" fill="#263238"/>
<path d="M58.5612 140.39C57.5113 140.393 56.4841 140.084 55.61 139.503C54.7359 138.921 54.0542 138.093 53.6515 137.123C53.2487 136.154 53.1431 135.086 53.3479 134.057C53.5528 133.027 54.0589 132.081 54.802 131.34C55.5451 130.598 56.4918 130.094 57.522 129.891C58.5521 129.688 59.6193 129.796 60.5881 130.2C61.5569 130.605 62.3837 131.288 62.9636 132.164C63.5435 133.039 63.8503 134.067 63.8452 135.117C63.8458 135.81 63.7096 136.497 63.4441 137.138C63.1787 137.779 62.7893 138.361 62.2984 138.851C61.8075 139.341 61.2246 139.729 60.5833 139.993C59.942 140.257 59.2548 140.392 58.5612 140.39Z" fill="#263238"/>
<path d="M58.5924 79.3418C51.1192 79.3408 43.8136 81.5559 37.5995 85.7072C31.3853 89.8584 26.5418 95.7592 23.6815 102.663C20.8212 109.567 20.0725 117.165 21.5302 124.494C22.9879 131.824 26.5864 138.557 31.8708 143.841C37.1551 149.125 43.8878 152.724 51.2174 154.181C58.547 155.639 66.1443 154.89 73.0484 152.03C79.9525 149.17 85.8533 144.326 90.0046 138.112C94.1558 131.898 96.3709 124.592 96.3699 117.119C96.3576 107.104 92.3735 97.5022 85.2915 90.4202C78.2095 83.3383 68.6078 79.3542 58.5924 79.3418ZM26.0053 117.14C25.997 110.81 27.8339 104.614 31.2914 99.3109C34.7489 94.008 39.677 89.8277 45.4729 87.2815C51.2688 84.7352 57.6811 83.9334 63.9255 84.9742C70.1699 86.0149 75.9755 88.8531 80.6323 93.1414L34.5937 139.159C29.0675 133.158 26.0016 125.298 26.0053 117.14ZM58.5924 149.727C51.2622 149.731 44.1469 147.252 38.4073 142.692L84.129 96.9706C87.9285 101.77 90.2983 107.543 90.9664 113.628C91.6345 119.713 90.5739 125.862 87.9062 131.372C85.2386 136.881 81.0719 141.527 75.8843 144.776C70.6966 148.026 64.6981 149.747 58.5768 149.743L58.5924 149.727Z" fill="url(#paint8_linear_2629_7914)"/>
<path d="M217.538 221.082H212.612L211.557 209.36H218.592L217.538 221.082Z" fill="#263238" stroke="#263238" stroke-miterlimit="10"/>
<path d="M238.05 221.082H233.125L232.07 209.36H239.105L238.05 221.082Z" fill="#263238" stroke="#263238" stroke-miterlimit="10"/>
<path d="M188.821 221.082H183.896L182.846 209.36H189.876L188.821 221.082Z" fill="#263238" stroke="#263238" stroke-miterlimit="10"/>
<path d="M166.844 221.082H161.923L160.869 209.36H167.898L166.844 221.082Z" fill="#263238" stroke="#263238" stroke-miterlimit="10"/>
<path d="M190.349 133.842H241.536C241.536 133.842 241.739 151.637 239.105 164.236C236.471 176.836 233.244 184.453 233.244 184.453H184.602C184.602 184.453 191.819 156.583 190.349 133.842Z" fill="white" stroke="#263238" stroke-miterlimit="10"/>
<path d="M211.594 136.56C207.105 136.206 205.323 135.302 201.966 133.442C197.597 131.047 196.662 132.642 196.973 135.037C197.285 137.432 192.728 153.222 191.778 161.171C190.827 169.121 191.149 173.397 191.149 173.397C191.149 173.397 188.343 175.792 190.214 176.587C191.417 177.086 192.674 177.444 193.96 177.652H230.153C230.153 177.652 236.585 144.602 237.208 139.287C237.832 133.972 235.026 133.442 233.462 134.237C231.898 135.032 231.592 135.567 229.405 135.832C224.292 136.492 217.745 137.038 211.594 136.56Z" fill="url(#paint9_linear_2629_7914)"/>
<path d="M199.94 137.095C200.876 136.044 201.535 134.776 201.857 133.406C201.421 133.172 201.021 132.98 200.652 132.824C200.412 134.102 199.826 135.29 198.958 136.259C198.31 137.046 197.507 137.691 196.599 138.155C196.506 138.628 196.402 139.142 196.287 139.714C197.721 139.191 198.985 138.286 199.94 137.095Z" fill="white"/>
<path d="M232.345 147.434C230.054 150.125 230.142 152.515 230.225 154.832C230.308 156.994 230.381 159.03 228.417 161.343C226.453 163.655 224.422 163.899 222.276 164.169C219.98 164.45 217.6 164.746 215.314 167.437C213.028 170.128 213.106 172.518 213.194 174.83C213.259 175.778 213.233 176.73 213.116 177.672H214.425C214.525 176.713 214.544 175.747 214.483 174.784C214.405 172.622 214.327 170.58 216.296 168.274C218.265 165.967 220.286 165.712 222.437 165.447C224.734 165.167 227.113 164.87 229.399 162.179C231.685 159.488 231.602 157.098 231.519 154.78C231.436 152.619 231.363 150.577 233.332 148.27C234.076 147.364 235.028 146.651 236.107 146.192C236.195 145.672 236.283 145.194 236.367 144.722C234.787 145.208 233.388 146.152 232.345 147.434Z" fill="white"/>
<path d="M195.576 177.091C197.877 176.805 200.252 176.509 202.543 173.818C204.834 171.126 204.746 168.736 204.663 166.424C204.58 164.263 204.507 162.221 206.471 159.914C208.435 157.607 210.466 157.353 212.612 157.088C214.908 156.802 217.288 156.511 219.574 153.82C221.86 151.128 221.782 148.733 221.694 146.421C221.616 144.26 221.538 142.218 223.507 139.911C225.476 137.604 227.503 137.349 229.649 137.084C231.794 136.819 233.94 136.565 236.06 134.414C235.65 134.108 235.148 133.95 234.636 133.967C233.462 134.926 232.03 135.517 230.521 135.666C230.158 135.748 229.79 135.811 229.42 135.853L227.861 136.035C225.763 136.349 223.858 137.439 222.525 139.09C220.229 141.786 220.317 144.176 220.405 146.488C220.483 148.65 220.561 150.692 218.592 153.004C216.623 155.316 214.602 155.56 212.451 155.825C210.154 156.111 207.775 156.402 205.489 159.093C203.203 161.784 203.286 164.18 203.369 166.492C203.452 168.653 203.525 170.695 201.561 173.002C199.597 175.309 197.565 175.563 195.42 175.828C193.911 175.926 192.434 176.307 191.066 176.951C191.745 177.188 192.44 177.383 193.144 177.532C193.942 177.325 194.755 177.178 195.576 177.091Z" fill="white"/>
<path d="M192.723 165.458C195.014 162.767 194.926 160.377 194.843 158.064C194.765 155.898 194.687 153.861 196.656 151.549C198.625 149.237 200.646 148.993 202.792 148.728C205.089 148.442 207.468 148.146 209.76 145.455C212.051 142.763 211.963 140.373 211.879 138.061C211.879 137.542 211.843 137.069 211.848 136.575H211.594L210.555 136.477C210.555 137.032 210.555 137.578 210.581 138.124C210.664 140.285 210.736 142.327 208.772 144.634C206.808 146.941 204.777 147.195 202.631 147.46C200.335 147.746 197.955 148.037 195.664 150.728C193.373 153.42 193.461 155.81 193.549 158.127C193.627 160.288 193.7 162.33 191.736 164.637C191.627 164.767 191.518 164.886 191.403 165.001C191.351 165.66 191.305 166.284 191.268 166.866C191.802 166.45 192.29 165.978 192.723 165.458Z" fill="white"/>
<path d="M211.594 136.56C207.105 136.206 205.323 135.302 201.966 133.442C197.597 131.047 196.662 132.642 196.973 135.037C197.285 137.432 192.728 153.222 191.778 161.171C190.827 169.121 191.149 173.397 191.149 173.397C191.149 173.397 188.343 175.792 190.214 176.587C191.417 177.086 192.674 177.444 193.96 177.652H230.153C230.153 177.652 236.585 144.602 237.208 139.287C237.832 133.972 235.026 133.442 233.462 134.237C231.898 135.032 231.592 135.567 229.405 135.832C224.292 136.492 217.745 137.038 211.594 136.56Z" stroke="#263238" stroke-miterlimit="10"/>
<path d="M190.349 133.842H187.455C186.93 133.842 186.42 134.018 186.008 134.344C185.596 134.669 185.306 135.124 185.184 135.634L181.589 150.702C180.924 153.497 178.648 161.55 176.144 162.958C174.606 163.821 172.872 164.273 171.109 164.273H160.261L164.874 211.433H184.618L189.814 136.341C189.831 136.168 189.831 135.994 189.814 135.821H190.401L190.349 133.842Z" fill="white" stroke="#263238" stroke-miterlimit="10"/>
<path d="M163.155 164.268H174.008C175.772 164.268 177.505 163.815 179.043 162.953C181.547 161.545 183.818 153.492 184.488 150.697L188.078 135.629C188.201 135.119 188.491 134.665 188.903 134.34C189.315 134.015 189.824 133.838 190.349 133.837C190.669 133.837 190.985 133.903 191.279 134.03C191.572 134.158 191.836 134.344 192.055 134.578C192.273 134.812 192.441 135.088 192.548 135.39C192.655 135.691 192.699 136.012 192.676 136.331L187.351 211.429H167.607L163.155 164.268Z" fill="white" stroke="#263238" stroke-miterlimit="10"/>
<path d="M209.505 211.455L210.633 177.673L165.373 177.272L166.506 211.455H209.505Z" fill="white" stroke="#263238" stroke-miterlimit="10"/>
<path d="M244.43 133.842H241.536C241.012 133.842 240.502 134.02 240.091 134.345C239.679 134.67 239.388 135.124 239.266 135.634L235.67 150.702C235.005 153.497 232.735 161.55 230.225 162.958C228.688 163.821 226.954 164.274 225.191 164.273H214.342L216.239 211.428H238.486L243.864 136.336C243.884 136.163 243.884 135.989 243.864 135.816H244.451L244.43 133.842Z" fill="white" stroke="#263238" stroke-miterlimit="10"/>
<path d="M217.236 164.268H228.09C229.853 164.268 231.587 163.815 233.125 162.953C235.629 161.545 237.905 153.492 238.57 150.697L242.165 135.629C242.286 135.12 242.576 134.666 242.987 134.34C243.398 134.015 243.906 133.838 244.43 133.837C244.751 133.836 245.067 133.901 245.361 134.029C245.655 134.156 245.919 134.342 246.138 134.576C246.356 134.81 246.524 135.087 246.631 135.389C246.738 135.691 246.781 136.011 246.758 136.331L241.479 210.27C241.456 210.581 241.316 210.872 241.088 211.085C240.86 211.297 240.56 211.416 240.248 211.418H219.008L217.236 164.268Z" fill="white" stroke="#263238" stroke-miterlimit="10"/>
<path d="M210.632 167.666L209.484 211.454H218.987L220.639 167.666C220.639 167.219 220.551 166.777 220.38 166.364C220.209 165.951 219.958 165.577 219.642 165.261C219.326 164.945 218.951 164.695 218.538 164.525C218.125 164.354 217.683 164.267 217.236 164.268H214.036C213.589 164.267 213.147 164.354 212.734 164.525C212.321 164.695 211.946 164.945 211.63 165.261C211.313 165.577 211.063 165.951 210.892 166.364C210.721 166.777 210.632 167.219 210.632 167.666Z" fill="white" stroke="#263238" stroke-miterlimit="10"/>
<path d="M155.418 167.666L157.05 211.454H166.553L165.42 167.666C165.42 166.764 165.062 165.9 164.425 165.263C163.788 164.626 162.923 164.268 162.022 164.268H158.822C158.375 164.267 157.933 164.354 157.52 164.525C157.107 164.695 156.732 164.945 156.416 165.261C156.099 165.577 155.849 165.951 155.678 166.364C155.507 166.777 155.418 167.219 155.418 167.666Z" fill="white" stroke="#263238" stroke-miterlimit="10"/>
<path d="M165.602 192.205H210.201" stroke="#263238" stroke-miterlimit="10"/>
<path d="M143.785 134.016C143.785 134.016 139.66 156.939 138.756 160.815C137.852 164.691 135.639 184.45 135.639 189.36C135.639 194.269 136.023 209.103 136.023 209.103C136.023 209.103 134.345 209.877 134.345 210.521C134.345 211.166 135.639 215.301 135.639 215.301L143.255 218.143C143.255 218.143 144.814 214.507 144.934 213.234C145.053 211.961 144.03 211.425 144.03 209.228C144.03 207.03 147.906 181.462 149.069 177.202C150.233 172.941 153.59 160.155 154.234 158.991C154.878 157.827 158.11 149.306 158.11 149.306L159.918 150.21C159.918 150.21 161.077 177.072 161.726 178.75C162.375 180.428 171.037 207.778 171.037 207.778C171.037 207.778 169.618 208.422 170.517 209.976C171.416 211.529 172.969 215.01 172.969 215.01C172.969 215.01 174.393 213.073 176.087 212.688C177.781 212.304 180.607 213.977 180.607 213.977C180.607 213.977 182.285 210.101 181.896 208.298C181.506 206.495 179.817 203.388 179.703 202.484C179.589 201.58 176.066 175.539 176.066 175.539C176.066 175.539 176.97 139.118 176.97 136.665C176.922 134.992 176.617 133.336 176.066 131.756C170.648 133.615 164.995 134.703 159.274 134.987C150.103 135.372 145.069 131.631 145.069 131.631L143.785 134.016Z" fill="#263238" stroke="#263238" stroke-miterlimit="10"/>
<path d="M135.659 215.317C135.659 215.317 131.394 219.188 130.62 219.708C129.845 220.227 124.421 222.306 124.551 223.345C124.681 224.384 126.11 225.023 126.11 225.023H143.676C143.676 225.023 143.801 224.503 144.061 222.051C144.185 220.461 143.919 218.865 143.287 217.401L135.659 215.317Z" fill="white" stroke="#263238" stroke-miterlimit="10"/>
<path d="M143.931 223.136L124.645 223.655C124.977 224.243 125.486 224.71 126.099 224.991H143.666C143.666 224.991 143.754 224.642 143.931 223.136Z" fill="white" stroke="#263238" stroke-miterlimit="10"/>
<path d="M172.98 215.01C172.98 215.01 172.85 218.236 172.85 219.92C172.85 221.603 172.595 223.557 172.72 223.92C172.845 224.284 173.11 224.96 173.11 224.96H183.314C183.314 224.96 183.698 223.92 183.184 221.988C182.67 220.055 181.76 219.021 181.506 217.312C181.308 216.167 181.006 215.044 180.602 213.955C180.602 213.955 175.562 209.975 172.98 215.01Z" fill="white" stroke="#263238" stroke-miterlimit="10"/>
<path d="M183.449 223.733C179.568 223.733 174.736 223.609 172.684 223.557C172.683 223.679 172.695 223.801 172.72 223.92C172.85 224.31 173.11 224.959 173.11 224.959H183.314C183.426 224.561 183.472 224.147 183.449 223.733Z" fill="white" stroke="#263238" stroke-miterlimit="10"/>
<path d="M140.123 85.3896C140.123 85.3896 129.149 95.6925 129.627 96.6537C130.105 97.6149 133.108 105.414 133.108 105.414C133.108 105.414 133.971 110.609 133.493 113.888C133.201 115.961 133.103 118.057 133.202 120.148C134.21 121.42 135.443 122.496 136.839 123.323C138.959 124.482 140.595 126.503 141.946 123.229C143.297 119.956 142.715 114.08 142.715 114.08C142.715 114.08 144.539 121.208 144.845 122.466C145.152 123.723 143.806 134.021 143.806 134.021C143.806 134.021 150.426 139.611 161.684 138.344C172.943 137.076 176.513 133.148 176.513 133.148C176.513 133.148 175.354 120.533 175.354 119.088C175.343 118.09 175.279 117.093 175.162 116.101C175.162 116.101 179.111 120.148 181.038 119.956C182.966 119.764 186.333 111.867 185.465 110.604C184.597 109.341 181.615 104.239 179.786 100.582C178.684 98.3771 177.766 96.0849 177.043 93.7286C177.043 93.7286 173.863 82.9424 172.886 82.1735C171.91 81.4045 161.092 81.524 159.165 81.046C156.619 80.545 154.046 80.1979 151.459 80.0069C150.815 79.9965 142.242 82.0176 140.123 85.3896Z" fill="url(#paint10_linear_2629_7914)" stroke="#263238" stroke-miterlimit="10"/>
<path d="M172.491 99.8077C172.439 97.0436 172.429 94.8926 172.429 94.8926" stroke="#263238" stroke-miterlimit="10"/>
<path d="M175.193 116.101C174.458 114.602 173.816 113.059 173.271 111.482C172.886 110.333 172.684 106.234 172.575 102.395" stroke="#263238" stroke-miterlimit="10"/>
<path d="M137.229 104.696C136.247 102.982 135.498 101.641 135.405 101.371" stroke="#263238" stroke-miterlimit="10"/>
<path d="M142.726 114.079C142.726 114.079 140.263 109.923 138.195 106.369" stroke="#263238" stroke-miterlimit="10"/>
<path d="M155.242 81.3418C155.639 84.7317 155.672 88.1543 155.341 91.5512" stroke="#263238" stroke-miterlimit="10"/>
<path d="M161.721 128.866C162.879 129.1 164.121 129.313 165.446 129.484" stroke="#263238" stroke-miterlimit="10"/>
<path d="M147.729 122.652C147.729 122.652 150.846 126.071 159.159 128.264" stroke="#263238" stroke-miterlimit="10"/>
<path d="M156.203 129.968C159.773 131.57 163.654 132.36 167.566 132.28" stroke="#263238" stroke-miterlimit="10"/>
<path d="M133.192 69.7875C133.192 69.7875 134.345 75.1805 134.444 76.3392C134.542 77.4978 134.828 79.0357 136.273 81.3426C137.717 83.6494 141.468 88.7567 142.242 89.0477C143.016 89.3386 145.999 88.5645 145.999 88.5645C145.999 88.5645 149.173 94.8252 150.041 94.633C150.909 94.4408 153.122 87.3124 153.413 84.4236C153.596 82.9865 153.628 81.5341 153.507 80.0904L152.161 75.2792C152.161 75.2792 151.007 68.5249 151.007 68.0573C151.007 67.5897 151.678 64.1086 147.926 62.6642C144.175 61.2198 139.546 61.1055 136.465 64.6853C133.384 68.2651 133.192 69.7875 133.192 69.7875Z" fill="white" stroke="#263238" stroke-miterlimit="10"/>
<path d="M143.5 63.7234C142.149 65.7732 140.378 67.5124 138.304 68.8255C134.745 71.1376 136.475 68.6333 136.475 68.6333C136.475 68.6333 133.971 70.192 131.95 71.2311C129.929 72.2702 130.698 72.582 129.929 72.2702C129.16 71.9585 126.292 63.7598 132.729 59.8007C139.167 55.8416 143.863 56.8859 143.863 56.8859C143.863 56.8859 141.068 55.6338 143.572 55.6338C146.077 55.6338 147.137 57.0002 147.137 57.0002C147.137 57.0002 148.482 56.6158 149.059 57.3847C149.311 57.6593 149.627 57.868 149.979 57.9926C153.096 59.3123 154.182 62.2634 154.769 65.3444C155.154 67.3655 153.517 72.1819 153.517 72.1819L150.815 73.6263C150.16 73.0298 149.631 72.3093 149.256 71.5065C149.01 70.7279 148.881 69.9173 148.872 69.1009C148.872 69.1009 147.235 71.2155 146.944 69.6776C146.653 68.1397 145.905 64.191 145.905 64.191C145.905 64.191 146.196 65.7497 145.235 65.7497C144.274 65.7497 143.5 63.7234 143.5 63.7234Z" fill="#263238" stroke="#263238" stroke-miterlimit="10"/>
<path d="M150.618 74.3118C150.618 74.3118 150.524 71.0386 152.452 69.9786C154.379 68.9187 155.725 70.0774 155.143 73.1584C154.561 76.2394 151.101 77.3928 151.101 77.3928" fill="white"/>
<path d="M150.618 74.3118C150.618 74.3118 150.524 71.0386 152.452 69.9786C154.379 68.9187 155.725 70.0774 155.143 73.1584C154.561 76.2394 151.101 77.3928 151.101 77.3928" stroke="#263238" stroke-miterlimit="10"/>
<path d="M145.999 88.564L151.101 83.4619L147.729 91.2606L145.999 88.564Z" fill="#263238" stroke="#263238" stroke-miterlimit="10"/>
<path d="M143.64 83.4051C143.748 83.5939 143.781 83.8167 143.732 84.0286C143.683 84.2406 143.555 84.4262 143.375 84.5482C143.027 84.6884 142.585 84.4027 142.388 83.9091C142.19 83.4155 142.31 82.9011 142.653 82.7609C142.996 82.6206 143.437 82.9115 143.64 83.4051Z" fill="#263238"/>
<path d="M144.97 74.4882C145.157 75.1013 145.022 75.6832 144.674 75.7923C144.326 75.9014 143.879 75.491 143.692 74.8831C143.505 74.2752 143.64 73.6933 143.988 73.5842C144.336 73.475 144.783 73.8803 144.97 74.4882Z" fill="#263238"/>
<path d="M138.647 75.5595C138.834 76.1726 138.699 76.7545 138.346 76.8636C137.992 76.9727 137.556 76.5674 137.369 75.9544C137.182 75.3413 137.312 74.7646 137.665 74.6554C138.018 74.5463 138.455 74.9516 138.647 75.5595Z" fill="#263238"/>
<path d="M138.876 73.1582C139.303 73.5075 139.646 73.9487 139.879 74.4488C140.112 74.949 140.229 75.4953 140.221 76.047C140.221 77.9746 139.93 80.8633 139.93 80.8633L143.401 80.3801" stroke="#263238" stroke-miterlimit="10"/>
<path d="M141.182 71.9063C141.182 71.9063 142.918 68.8253 145.614 69.402" stroke="#263238" stroke-miterlimit="10"/>
<path d="M138.101 72.4835C138.101 72.4835 135.987 71.8133 134.542 72.6758" stroke="#263238" stroke-miterlimit="10"/>
<path d="M197.015 97.2298C197.015 97.2298 199.135 96.4609 199.904 96.1907C200.673 95.9205 201.462 96.3829 202.792 95.7127C204.123 95.0424 205.681 93.6864 205.78 94.6736C205.879 95.6607 205.39 96.0192 204.621 96.5024C203.852 96.9856 202.6 97.9468 202.6 97.9468L202.216 98.908L196.438 98.43C196.438 98.43 196.547 97.526 197.015 97.2298Z" fill="white" stroke="#263238" stroke-miterlimit="10"/>
<path d="M208.627 99.7188C208.627 99.7188 211.282 97.6146 211.667 96.6534C212.051 95.6922 211.376 95.6143 210.705 95.978C210.035 96.3417 207.926 98.0978 207.926 98.0978L208.627 99.7188Z" fill="white" stroke="#263238" stroke-miterlimit="10"/>
<path d="M206.455 100.176C206.455 100.176 208.43 100.384 208.627 99.7187C208.825 99.0537 210.383 94.866 210.129 94.3412C209.874 93.8165 209.38 93.8632 208.835 94.7309C208.251 95.9204 207.748 97.1476 207.328 98.4042C207.328 98.4042 206.008 98.7004 205.676 99.6044C205.343 100.508 206.455 100.176 206.455 100.176Z" fill="white" stroke="#263238" stroke-miterlimit="10"/>
<path d="M203.961 100.696C203.961 100.696 205.796 101.47 206.18 100.888C206.564 100.306 209.261 96.7318 209.162 96.1707C209.064 95.6095 208.586 95.5004 207.817 96.1707C206.912 97.1393 206.076 98.1687 205.312 99.2517C205.312 99.2517 203.961 99.1582 203.385 99.9271C202.808 100.696 203.961 100.696 203.961 100.696Z" fill="white" stroke="#263238" stroke-miterlimit="10"/>
<path d="M177.1 116.49C177.861 113.409 179.796 110.748 182.493 109.076C187.112 106.089 193.378 100.695 193.378 100.695C193.378 100.695 195.498 97.7131 197.015 97.2299C198.532 96.7467 203.561 98.1911 203.561 98.1911C203.561 98.1911 207.609 94.1489 207.718 95.0166C207.827 95.8843 205.796 98.9653 204.829 100.119C203.863 101.272 200.88 101.563 200.21 101.563C199.018 101.599 197.828 101.696 196.646 101.854C196.261 101.948 189.892 110.614 187.018 114.843C184.145 119.072 182.862 119.847 181.049 119.945C179.235 120.044 177.292 118.594 176.809 117.924C176.326 117.254 177.1 116.49 177.1 116.49Z" fill="white" stroke="#263238" stroke-miterlimit="10"/>
<path d="M116.882 100.55L122.951 113.716C123.044 113.904 123.196 114.056 123.384 114.149C123.571 114.243 123.784 114.273 123.99 114.236L129.025 113.306C129.164 113.279 129.296 113.221 129.411 113.137C129.526 113.052 129.621 112.944 129.688 112.818C129.756 112.693 129.795 112.554 129.802 112.412C129.81 112.27 129.785 112.128 129.731 111.996L124.276 99.1474C124.197 98.9577 124.059 98.7987 123.881 98.6947C123.704 98.5906 123.498 98.5471 123.294 98.5707L117.636 99.1994C117.486 99.2174 117.343 99.2706 117.217 99.3546C117.092 99.4387 116.988 99.5512 116.915 99.6829C116.842 99.8147 116.8 99.9619 116.795 100.113C116.789 100.263 116.819 100.413 116.882 100.55Z" fill="#263238" stroke="#263238" stroke-miterlimit="10"/>
<path d="M120.867 111.819C120.867 111.819 118.69 108.484 118.69 107.735C118.69 106.987 119.958 105.216 120.701 103.615C121.444 102.015 121.558 100.945 122.197 101.163C122.837 101.381 122.717 102.015 122.514 103.08C122.124 104.454 121.663 105.807 121.132 107.133L121.345 108.416C121.86 107.378 122.504 106.409 123.263 105.532C124.224 104.576 125.289 102.976 126.037 103.293C126.785 103.61 127.102 103.813 126.463 104.577C125.661 105.538 124.941 106.565 124.312 107.647C123.748 108.571 123.263 109.541 122.863 110.546C123.576 109.863 124.335 109.227 125.133 108.645C126.172 107.897 127.637 106.816 128.25 107.242C128.864 107.668 128.999 108.094 128.36 108.629C127.72 109.164 127.139 109.528 126.281 110.276C125.387 111.169 124.547 112.114 123.767 113.108C124.528 112.52 125.376 112.053 126.281 111.726C128.095 110.983 129.752 111.066 129.82 111.637C129.887 112.209 127.913 112.728 127.913 112.728C126.499 113.051 126.432 113.534 126.432 113.534C126.432 113.534 127.606 115.882 127.393 116.651C127.393 116.651 132.132 115.908 133.945 115.378C135.758 114.848 138.59 115.898 139.447 116.755C141.26 118.568 142.112 121.343 141.156 123.691C140.2 126.04 140.195 125.292 132.62 123.172C125.045 121.052 125.19 120.293 123.341 117.197C122.67 115.991 120.867 111.819 120.867 111.819Z" fill="white" stroke="#263238" stroke-miterlimit="10"/>
<path d="M127.424 116.631L127.263 118.584" stroke="#263238" stroke-miterlimit="10"/>
<defs>
<linearGradient id="paint0_linear_2629_7914" x1="111.071" y1="130.865" x2="111.071" y2="166.237" gradientUnits="userSpaceOnUse">
<stop stop-color="#11ECC7"/>
<stop offset="1" stop-color="#31A28E"/>
</linearGradient>
<linearGradient id="paint1_linear_2629_7914" x1="129.046" y1="119.385" x2="129.046" y2="156.282" gradientUnits="userSpaceOnUse">
<stop stop-color="#11ECC7"/>
<stop offset="1" stop-color="#31A28E"/>
</linearGradient>
<linearGradient id="paint2_linear_2629_7914" x1="106.021" y1="153.566" x2="106.021" y2="174.514" gradientUnits="userSpaceOnUse">
<stop stop-color="#11ECC7"/>
<stop offset="1" stop-color="#31A28E"/>
</linearGradient>
<linearGradient id="paint3_linear_2629_7914" x1="104.057" y1="166.283" x2="104.057" y2="184.385" gradientUnits="userSpaceOnUse">
<stop stop-color="#11ECC7"/>
<stop offset="1" stop-color="#31A28E"/>
</linearGradient>
<linearGradient id="paint4_linear_2629_7914" x1="104.737" y1="183.878" x2="104.737" y2="191.488" gradientUnits="userSpaceOnUse">
<stop stop-color="#11ECC7"/>
<stop offset="1" stop-color="#31A28E"/>
</linearGradient>
<linearGradient id="paint5_linear_2629_7914" x1="134.092" y1="148.986" x2="134.092" y2="174.795" gradientUnits="userSpaceOnUse">
<stop stop-color="#11ECC7"/>
<stop offset="1" stop-color="#31A28E"/>
</linearGradient>
<linearGradient id="paint6_linear_2629_7914" x1="140.219" y1="160.696" x2="140.219" y2="176.337" gradientUnits="userSpaceOnUse">
<stop stop-color="#11ECC7"/>
<stop offset="1" stop-color="#31A28E"/>
</linearGradient>
<linearGradient id="paint7_linear_2629_7914" x1="139.679" y1="173.058" x2="139.679" y2="185.601" gradientUnits="userSpaceOnUse">
<stop stop-color="#11ECC7"/>
<stop offset="1" stop-color="#31A28E"/>
</linearGradient>
<linearGradient id="paint8_linear_2629_7914" x1="58.5872" y1="79.3418" x2="58.5872" y2="154.907" gradientUnits="userSpaceOnUse">
<stop stop-color="#11ECC7"/>
<stop offset="1" stop-color="#31A28E"/>
</linearGradient>
<linearGradient id="paint9_linear_2629_7914" x1="213.434" y1="132.257" x2="213.434" y2="177.652" gradientUnits="userSpaceOnUse">
<stop stop-color="#11ECC7"/>
<stop offset="1" stop-color="#31A28E"/>
</linearGradient>
<linearGradient id="paint10_linear_2629_7914" x1="157.609" y1="80.0068" x2="157.609" y2="138.531" gradientUnits="userSpaceOnUse">
<stop stop-color="#11ECC7"/>
<stop offset="1" stop-color="#31A28E"/>
</linearGradient>
</defs>
</svg>
