<svg width="20" height="20" viewBox="0 0 20 20" fill="none" xmlns="http://www.w3.org/2000/svg">
<path d="M9.99746 17.8208C9.62635 17.8208 9.30968 17.6889 9.04746 17.425C8.78524 17.1617 8.65413 16.845 8.65413 16.475H11.3458C11.3458 16.8472 11.2138 17.1647 10.95 17.4275C10.6855 17.6897 10.368 17.8208 9.99746 17.8208ZM4.16663 15.6408V14.8075H5.51329V8.205C5.51329 7.11611 5.85774 6.15861 6.54663 5.3325C7.23551 4.50639 8.10885 3.99167 9.16663 3.78833V2.5H10.8333V3.39583C10.5877 3.73806 10.398 4.11083 10.2641 4.51417C10.1308 4.91806 10.0641 5.33111 10.0641 5.75333C10.0641 6.86333 10.4516 7.81389 11.2266 8.605C12.0016 9.39611 12.9388 9.8025 14.0383 9.82417H14.2633C14.3377 9.82417 14.4122 9.81861 14.4866 9.8075V14.8075H15.8333V15.6408H4.16663ZM14.1366 7.83667C13.5583 7.83667 13.0661 7.63417 12.66 7.22917C12.2538 6.82417 12.0511 6.33278 12.0516 5.755C12.0522 5.17722 12.2544 4.685 12.6583 4.27833C13.0622 3.87167 13.5538 3.66889 14.1333 3.67C14.7127 3.67111 15.2044 3.87333 15.6083 4.27667C16.0122 4.68 16.2155 5.17167 16.2183 5.75167C16.2211 6.33167 16.0186 6.82361 15.6108 7.2275C15.203 7.63139 14.7113 7.83417 14.1358 7.83583" fill="black"/>
</svg>
