<svg width="101" height="58" viewBox="0 0 101 58" fill="none" xmlns="http://www.w3.org/2000/svg">
<path d="M9.80722 0H7.42249V39.9999H9.80722V0Z" fill="white"/>
<path d="M5.03793 0H2.6532V39.9999H5.03793V0Z" fill="white"/>
<path d="M9.80717 18.8232H2.6532V21.1762H9.80717V18.8232Z" fill="white"/>
<path d="M9.80717 0H2.6532V2.35301H9.80717V0Z" fill="white"/>
<path d="M18.192 0H15.8073V39.9999H18.192V0Z" fill="white"/>
<path d="M22.9613 0H20.5765V39.9999H22.9613V0Z" fill="white"/>
<path d="M27.7306 0H25.3458V39.9999H27.7306V0Z" fill="white"/>
<path d="M27.7306 0H15.8073V2.35301H27.7306V0Z" fill="white"/>
<path d="M36.1153 0H33.7306V39.9999H36.1153V0Z" fill="white"/>
<path d="M40.8846 0H38.4999V39.9999H40.8846V0Z" fill="white"/>
<path d="M40.8846 18.8232H33.7306V21.1762H40.8846V18.8232Z" fill="white"/>
<path d="M40.8846 0H33.7306V2.35301H40.8846V0Z" fill="white"/>
<path d="M54.0386 0H46.8846V2.35301H54.0386V0Z" fill="white"/>
<path d="M46.8846 37.6475V39.9952V40.0004H54.0386V37.6475H46.8846Z" fill="white"/>
<path d="M51.6539 0L46.8846 37.6469V39.9999H49.2694L54.0387 2.35301V0H51.6539Z" fill="white"/>
<path d="M67.1927 0H60.0387V2.35301H67.1927V0Z" fill="white"/>
<path d="M67.1927 37.6475H60.0387V40.0005H67.1927V37.6475Z" fill="white"/>
<path d="M64.8079 0H62.4233V39.9999H64.8079V0Z" fill="white"/>
<path d="M75.5774 0H73.1926V39.9999H75.5774V0Z" fill="white"/>
<path d="M80.3467 0H77.9622V39.9999H80.3467V0Z" fill="white"/>
<path d="M73.1926 0L77.962 39.9999H80.3467L75.5774 0H73.1926Z" fill="white"/>
<path d="M98.2699 0H86.3467V2.35301H98.2699V0Z" fill="white"/>
<path d="M88.7312 0H86.3467V39.9999H88.7312V0Z" fill="white"/>
<path d="M98.2699 37.6475H86.3467V40.0005H98.2699V37.6475Z" fill="white"/>
<path d="M98.2699 4.70605H91.116V7.05906H98.2699V4.70605Z" fill="white"/>
<path d="M98.2697 4.70605H95.8851V40.0002H98.2697V4.70605Z" fill="white"/>
<path d="M93.5007 4.70605H91.116V35.2943H93.5007V4.70605Z" fill="white"/>
<path d="M0.461548 44H100.462C46.6743 44.163 12.4615 48.6339 11.5385 49.1488C10.6155 49.6636 1.64636 50.656 0.461548 57.068V44Z" fill="url(#paint0_radial_2181_6165)" stroke="white" stroke-width="0.4" stroke-linejoin="round"/>
<defs>
<radialGradient id="paint0_radial_2181_6165" cx="0" cy="0" r="1" gradientUnits="userSpaceOnUse" gradientTransform="translate(50.4615 50.534) scale(50 6.53399)">
<stop stop-color="white"/>
<stop offset="1" stop-color="#DCDCDC"/>
</radialGradient>
</defs>
</svg>
