<svg width="20" height="20" viewBox="0 0 20 20" fill="none" xmlns="http://www.w3.org/2000/svg">
<path d="M2.5 4.6875C2.5 4.43886 2.59877 4.2004 2.77459 4.02459C2.9504 3.84877 3.18886 3.75 3.4375 3.75H12.8125C13.0611 3.75 13.2996 3.84877 13.4754 4.02459C13.6512 4.2004 13.75 4.43886 13.75 4.6875C13.75 4.93614 13.6512 5.1746 13.4754 5.35041C13.2996 5.52623 13.0611 5.625 12.8125 5.625H3.4375C3.18886 5.625 2.9504 5.52623 2.77459 5.35041C2.59877 5.1746 2.5 4.93614 2.5 4.6875ZM2.5 14.6875C2.5 14.4389 2.59877 14.2004 2.77459 14.0246C2.9504 13.8488 3.18886 13.75 3.4375 13.75H11.5625C11.8111 13.75 12.0496 13.8488 12.2254 14.0246C12.4012 14.2004 12.5 14.4389 12.5 14.6875C12.5 14.9361 12.4012 15.1746 12.2254 15.3504C12.0496 15.5262 11.8111 15.625 11.5625 15.625H3.4375C3.18886 15.625 2.9504 15.5262 2.77459 15.3504C2.59877 15.1746 2.5 14.9361 2.5 14.6875ZM3.4375 8.75C3.18886 8.75 2.9504 8.84877 2.77459 9.02459C2.59877 9.2004 2.5 9.43886 2.5 9.6875C2.5 9.93614 2.59877 10.1746 2.77459 10.3504C2.9504 10.5262 3.18886 10.625 3.4375 10.625H16.5625C16.8111 10.625 17.0496 10.5262 17.2254 10.3504C17.4012 10.1746 17.5 9.93614 17.5 9.6875C17.5 9.43886 17.4012 9.2004 17.2254 9.02459C17.0496 8.84877 16.8111 8.75 16.5625 8.75H3.4375Z" fill="black" fill-opacity="0.8"/>
</svg>
