<svg width="183" height="61" viewBox="0 0 183 61" fill="none" xmlns="http://www.w3.org/2000/svg">
<path d="M19.9615 0H13.6281V39.9999H19.9615V0Z" fill="black"/>
<path d="M7.29504 0H0.961548V39.9999H7.29504V0Z" fill="black"/>
<path d="M19.9614 18.8232H0.961548V21.1762H19.9614V18.8232Z" fill="black"/>
<path d="M19.9614 0H0.961548V2.35301H19.9614V0Z" fill="black"/>
<path d="M31.7616 0H27.9615V39.9999H31.7616V0Z" fill="black"/>
<path d="M39.3615 0H35.5614V39.9999H39.3615V0Z" fill="black"/>
<path d="M46.9615 0H43.1614V39.9999H46.9615V0Z" fill="black"/>
<path d="M46.9615 0H27.9615V2.35301H46.9615V0Z" fill="black"/>
<path d="M61.295 0H54.9615V39.9999H61.295V0Z" fill="black"/>
<path d="M73.9615 0H67.6281V39.9999H73.9615V0Z" fill="black"/>
<path d="M73.9614 18.8232H54.9615V21.1762H73.9614V18.8232Z" fill="black"/>
<path d="M73.9614 0H54.9615V2.35301H73.9614V0Z" fill="black"/>
<path d="M100.961 0H81.9615V2.35301H100.961V0Z" fill="black"/>
<path d="M81.9615 37.6475V39.9952V40.0004H100.961V37.6475H81.9615Z" fill="black"/>
<path d="M94.6281 0L81.9615 37.6469V39.9999H88.295L100.962 2.35301V0H94.6281Z" fill="black"/>
<path d="M127.962 0H108.962V2.35301H127.962V0Z" fill="black"/>
<path d="M127.962 37.6475H108.962V40.0005H127.962V37.6475Z" fill="black"/>
<path d="M121.628 0H115.295V39.9999H121.628V0Z" fill="black"/>
<path d="M142.295 0H135.962V39.9999H142.295V0Z" fill="black"/>
<path d="M154.962 0H148.629V39.9999H154.962V0Z" fill="black"/>
<path d="M135.962 0L148.628 39.9999H154.961L142.295 0H135.962Z" fill="black"/>
<path d="M181.962 0H162.962V2.35301H181.962V0Z" fill="black"/>
<path d="M166.761 0H162.962V39.9999H166.761V0Z" fill="black"/>
<path d="M181.962 37.6475H162.962V40.0005H181.962V37.6475Z" fill="black"/>
<path d="M181.962 4.70605H170.562V7.05906H181.962V4.70605Z" fill="black"/>
<path d="M181.961 4.70605H178.161V40.0002H181.961V4.70605Z" fill="black"/>
<path d="M174.362 4.70605H170.562V35.2943H174.362V4.70605Z" fill="black"/>
<path d="M0.961548 44H181.962C84.6067 44.1995 22.6814 49.6736 21.0108 50.304C19.3402 50.9344 3.10606 52.1494 0.961548 60V44Z" fill="url(#paint0_radial_2181_6165)" stroke="black" stroke-width="0.4" stroke-linejoin="round"/>
<defs>
<radialGradient id="paint0_radial_2181_6165" cx="0" cy="0" r="1" gradientUnits="userSpaceOnUse" gradientTransform="translate(91.4615 52) scale(90.5 8)">
<stop stop-color="#302C2C"/>
<stop offset="1" stop-color="#0B0B0B"/>
</radialGradient>
</defs>
</svg>
