<svg width="20" height="20" viewBox="0 0 20 20" fill="none" xmlns="http://www.w3.org/2000/svg">
<g clip-path="url(#clip0_1796_13417)">
<path d="M15.25 12.5004C13.875 12.3754 13.125 14.2504 12.125 14.7504C10.5 15.6254 7.49999 12.5004 7.49999 12.5004C7.49999 12.5004 4.37499 9.50035 5.12499 7.87536C5.74999 6.87536 7.62499 6.12535 7.49999 4.75035C7.37499 3.50036 4.62499 -0.999645 3.24999 0.250355C0.249986 3.00036 -1.40471e-05 4.12535 -1.40471e-05 6.37535C-0.125014 10.2504 4.87499 15.1254 4.87499 15.1254C5.37499 15.6254 9.74999 20.1254 13.625 20.0004C15.875 20.0004 17 19.7504 19.75 16.7504C21 15.3754 16.625 12.6254 15.25 12.5004Z" fill="black"/>
</g>
<defs>
<clipPath id="clip0_1796_13417">
<rect width="20" height="20" fill="white"/>
</clipPath>
</defs>
</svg>
