<svg width="32" height="32" viewBox="0 0 32 32" fill="none" xmlns="http://www.w3.org/2000/svg">
<path d="M23.0183 14.5098L12.2283 9.11317C11.9233 8.96053 11.5843 8.88844 11.2436 8.90375C10.9028 8.91906 10.5716 9.02126 10.2815 9.20064C9.99142 9.38002 9.752 9.63061 9.58604 9.9286C9.42008 10.2266 9.33308 10.5621 9.33333 10.9032V21.0965C9.33308 21.4376 9.42008 21.7731 9.58604 22.0711C9.752 22.3691 9.99142 22.6196 10.2815 22.799C10.5716 22.9784 10.9028 23.0806 11.2436 23.0959C11.5843 23.1112 11.9233 23.0391 12.2283 22.8865L23.0183 17.4898C23.2948 17.3513 23.5273 17.1385 23.6897 16.8754C23.8522 16.6122 23.9382 16.3091 23.9382 15.9998C23.9382 15.6906 23.8522 15.3874 23.6897 15.1243C23.5273 14.8612 23.2948 14.6484 23.0183 14.5098Z" stroke="white" stroke-width="1.5" stroke-linecap="round" stroke-linejoin="round"/>
<path d="M16 31C24.2843 31 31 24.2843 31 16C31 7.71573 24.2843 1 16 1C7.71572 1 0.999992 7.71573 0.999992 16C0.999992 24.2843 7.71572 31 16 31Z" stroke="white" stroke-width="1.5"/>
</svg>
