<svg width="20" height="20" viewBox="0 0 20 20" fill="none" xmlns="http://www.w3.org/2000/svg">
<path d="M10 18.3337C8.06949 17.8475 6.4756 16.7398 5.21837 15.0103C3.96115 13.2809 3.33282 11.3609 3.33337 9.25033V4.16699L10 1.66699L16.6667 4.16699V8.33366H15V5.31283L10 3.43783L5.00004 5.31283V9.25033C5.00004 10.9309 5.47226 12.4587 6.41671 13.8337C7.36115 15.2087 8.5556 16.1253 10 16.5837C10.3612 16.4725 10.705 16.3303 11.0317 16.157C11.3584 15.9837 11.6812 15.7787 12 15.542L13.1667 16.7087C12.7084 17.0837 12.212 17.41 11.6775 17.6878C11.1431 17.9656 10.5839 18.1809 10 18.3337ZM17.5 18.3337C17.2639 18.3337 17.0662 18.2537 16.9067 18.0937C16.7473 17.9337 16.6673 17.7359 16.6667 17.5003C16.6662 17.2648 16.7462 17.067 16.9067 16.907C17.0673 16.747 17.265 16.667 17.5 16.667C17.735 16.667 17.9331 16.747 18.0942 16.907C18.2553 17.067 18.335 17.2648 18.3334 17.5003C18.3317 17.7359 18.2517 17.9339 18.0934 18.0945C17.935 18.255 17.7373 18.3348 17.5 18.3337ZM16.6667 15.0003V10.0003H18.3334V15.0003H16.6667ZM10 11.667C10.4584 11.667 10.8509 11.5039 11.1775 11.1778C11.5042 10.8517 11.6673 10.4592 11.6667 10.0003C11.6662 9.54144 11.5031 9.14921 11.1775 8.82366C10.852 8.4981 10.4595 8.33477 10 8.33366C9.5406 8.33255 9.14838 8.49588 8.82337 8.82366C8.49837 9.15144 8.33504 9.54366 8.33337 10.0003C8.33171 10.457 8.49504 10.8495 8.82337 11.1778C9.15171 11.5062 9.54393 11.6692 10 11.667ZM10 13.3337C9.08337 13.3337 8.29865 13.0073 7.64587 12.3545C6.9931 11.7017 6.66671 10.917 6.66671 10.0003C6.66671 9.08366 6.9931 8.29894 7.64587 7.64616C8.29865 6.99338 9.08337 6.66699 10 6.66699C10.9167 6.66699 11.7014 6.99338 12.3542 7.64616C13.007 8.29894 13.3334 9.08366 13.3334 10.0003C13.3334 10.3059 13.2953 10.6012 13.2192 10.8862C13.1431 11.1712 13.0284 11.4453 12.875 11.7087L15.3542 14.167L14.1667 15.3545L11.6667 12.8753C11.4167 13.0281 11.1495 13.1428 10.865 13.2195C10.5806 13.2962 10.2923 13.3342 10 13.3337Z" fill="black"/>
</svg>
