<svg width="22" height="22" viewBox="0 0 22 22" fill="none" xmlns="http://www.w3.org/2000/svg">
<g clip-path="url(#clip0_1059_1605)">
<path d="M3.22146 0.439941C3.07559 0.439941 2.9357 0.497888 2.83255 0.601033C2.72941 0.704178 2.67146 0.844072 2.67146 0.989941V5.28302C3.03798 5.28236 3.40472 5.28082 3.77146 5.28082V1.53994H16.5315V5.27818L17.6315 5.27774V0.989941C17.6315 0.844072 17.5735 0.704178 17.4704 0.601033C17.3672 0.497888 17.2273 0.439941 17.0815 0.439941H3.22146ZM1.43 6.15994C1.2421 6.15954 1.05596 6.19625 0.882286 6.26797C0.708607 6.33969 0.550804 6.445 0.417935 6.57787C0.285067 6.71074 0.179749 6.86855 0.108029 7.04222C0.0363082 7.2159 -0.000402698 7.40204 3.33158e-06 7.58994V13.5299C3.33158e-06 14.3222 0.637783 14.9599 1.43 14.9599H2.67146V21.0099C2.67146 21.1558 2.72941 21.2957 2.83255 21.3989C2.9357 21.502 3.07559 21.5599 3.22146 21.5599H17.0815C17.2273 21.5599 17.3672 21.502 17.4704 21.3989C17.5735 21.2957 17.6315 21.1558 17.6315 21.0099V14.9599H20.57C21.3622 14.9599 22 14.3222 22 13.5299V7.58994C22 6.79772 21.3622 6.15994 20.57 6.15994H1.43ZM19.7868 7.47994H19.8C20.0328 7.48169 20.2554 7.57562 20.4191 7.74117C20.5828 7.90672 20.6743 8.1304 20.6734 8.36322C20.6725 8.59604 20.5794 8.81902 20.4145 8.98334C20.2496 9.14766 20.0262 9.23992 19.7934 9.23992C19.5606 9.23992 19.3373 9.14766 19.1723 8.98334C19.0074 8.81902 18.9143 8.59604 18.9134 8.36322C18.9125 8.1304 19.004 7.90672 19.1677 7.74117C19.3314 7.57562 19.554 7.48169 19.7868 7.47994ZM3.77124 10.5599H4.65124V19.5799H15.8712V10.5599H16.7512V20.4599H3.77124V10.5599ZM6.3657 10.5599H8.8814C8.83674 10.6999 8.77646 10.8728 8.6306 10.8939C9.1344 10.9566 8.4524 11.1339 8.36748 11.3638C8.53974 11.3726 8.63456 10.9826 8.84136 11.2908C8.76898 11.5746 8.67966 11.047 8.54326 11.4472C8.2148 11.6738 8.9045 12.0478 8.90032 12.0522C8.75534 11.7303 8.78284 11.4714 9.01978 11.3733C9.15442 11.1108 9.02 10.8783 9.0893 10.5599H11.6607C11.7553 10.6215 11.8503 10.6858 11.9482 10.7516C12.2617 11.2835 11.3329 11.4674 10.9952 11.3832C10.762 11.4142 10.4403 11.5383 10.3096 11.6265C10.2342 11.966 10.393 12.5837 9.83356 12.653C9.39378 12.7971 9.04596 11.9915 8.74258 12.3065C8.294 12.5316 8.59738 11.6408 8.22052 12.1068C8.0938 12.0881 7.9838 11.6529 8.07136 12.1305C7.9398 12.1582 7.61486 11.9943 7.96114 12.2443C7.91714 12.5613 7.6021 12.0749 7.4382 12.0819C7.5999 11.9244 8.23746 11.9114 7.80208 11.5792C7.5306 11.6509 7.4514 11.4195 7.75808 11.4692C7.92682 11.0796 7.46922 11.0563 7.34448 10.8552C7.39376 11.1346 6.9861 11.0314 6.84332 10.8895C6.90932 11.2406 7.42786 11.0798 7.66392 11.2848C7.93804 11.5961 7.20434 11.3134 7.50728 11.6549C7.05034 11.8608 6.67898 11.2628 6.30454 11.0389C6.1699 10.7986 6.25284 10.6928 6.3657 10.5599ZM7.34448 10.8552C7.33847 10.8182 7.32775 10.7821 7.31258 10.7478C7.31266 10.7859 7.32374 10.8232 7.34448 10.8552ZM14.509 10.5599H14.8353L15.2744 12.9227C14.8661 12.7089 14.7226 12.2071 14.4837 11.925C14.7895 11.6566 14.4153 11.2408 14.6302 10.9042C14.573 10.7656 14.5292 10.6596 14.509 10.5599ZM5.1777 10.8624C4.89918 11.1744 5.48108 11.0301 5.1777 10.8624V10.8624ZM7.53324 10.9262C7.36868 10.9821 7.61794 10.9768 7.53324 10.9262V10.9262ZM5.12138 11.1143C5.48372 11.181 5.36008 11.3645 5.10862 11.3607C5.11126 11.2811 5.08442 11.1905 5.12138 11.1143ZM7.51916 11.115C7.41708 11.2136 7.7385 11.1964 7.51916 11.115V11.115ZM8.60288 11.5095C8.24824 11.5693 9.03936 11.6148 8.60288 11.5095V11.5095ZM6.87148 12.4805C7.32754 12.708 6.74652 13.1331 6.76456 12.82C6.83056 12.6961 6.59692 12.523 6.87148 12.4805ZM9.2455 12.4893C9.17906 12.5393 9.3467 12.5263 9.2455 12.4893V12.4893ZM9.2653 12.5472C9.16542 12.7181 9.3632 12.6004 9.2653 12.5472V12.5472ZM5.30024 12.64C5.45952 12.8312 5.80096 12.5712 5.78138 12.8011C5.99126 12.5811 5.85662 13.1777 5.9829 12.802C6.15142 12.8248 5.8311 13.0517 6.138 12.7995C6.40596 12.7364 6.22886 12.9221 6.3976 12.8402C6.6308 13.2281 6.85696 13.6674 7.348 13.685C7.32226 14.1327 6.63982 14.162 6.35976 14.0641C6.54016 14.342 6.2205 14.0824 6.22446 14.0821C6.17782 14.3457 5.54752 14.1165 5.45842 14.5265C5.65466 14.7963 5.258 14.8722 5.18848 14.8543C5.00236 14.8297 5.1513 13.997 5.10268 13.6824C5.16648 13.3564 4.94362 12.7274 5.30024 12.64ZM5.44324 12.7234C5.21796 12.7311 5.48526 12.8823 5.44324 12.7234V12.7234ZM10.765 13.3786C11.321 13.4936 11.5592 13.9125 12.0256 14.193C12.1728 14.3373 12.3079 14.6132 12.5198 14.6368C12.7107 14.7164 13.0031 14.8972 13.2077 14.6416C13.3903 15 12.7721 15.1498 12.6075 15.0248C12.217 15.0662 11.7253 14.848 11.2763 14.8895C11.0634 15.1813 10.6192 15.4952 10.2936 15.1791C10.0283 15.3331 9.84698 15.9209 9.67098 16.3105C9.49344 16.3459 8.84158 16.916 9.33592 16.5774C9.72818 16.3787 9.18412 16.8172 9.02814 16.8579C8.7747 17.2515 8.22514 17.0484 7.93298 17.3034C7.61002 17.3832 7.23096 17.9238 7.34932 18.0809C7.47274 18.324 7.20896 18.298 7.49012 18.3468C7.48484 18.1928 7.71672 18.4472 7.55898 18.4452C7.78382 18.5899 7.83156 19.0456 7.58494 18.5954C7.41972 18.4146 7.28552 19.2348 7.02394 18.6874C6.996 18.7274 6.74388 19.134 6.75092 18.7626C6.76588 18.6031 6.44952 19.103 6.38506 18.7558C5.9367 18.4648 6.45546 17.9407 6.43236 17.5652C6.20862 17.1993 6.39408 17.255 6.41014 16.9232C6.62794 16.6533 6.57646 16.4289 6.53994 16.0639C6.1644 16.1785 6.63498 15.7361 6.26868 15.9715C6.0896 15.9425 5.55236 15.9306 5.87004 15.7088C6.11534 15.9548 6.41388 15.7266 6.53862 15.5942C6.81956 15.5271 6.2282 15.4431 6.24162 15.6723C5.61022 15.8153 5.83352 15.0358 6.2205 14.8469C6.4669 14.7179 6.56326 14.5947 6.8167 14.5239C6.97158 14.6359 6.69108 14.8099 7.0048 14.6137C7.36934 14.5908 6.98654 15.0638 6.8838 15.1945C6.84266 14.8134 6.2414 15.1007 6.4075 15.3694C6.73926 15.2191 6.79206 15.6521 7.0246 15.2684C7.12712 15.469 6.94584 15.5944 6.92604 15.5663C7.26374 16.1464 7.64544 15.7049 7.78558 15.3529C8.2203 15.1949 7.4635 15.1945 7.37264 15.1894C6.82132 15.2943 7.3227 14.7575 7.43864 14.7076C7.0928 14.543 7.82364 14.4638 7.87094 14.2381C8.02538 14.3453 8.2973 13.9253 8.26716 14.2694C8.30566 14.5516 7.81 14.2049 8.10898 14.5037C8.0707 14.7635 8.08698 14.6662 8.28938 14.5298C8.28322 14.2262 8.49354 14.7395 8.46054 14.8224C8.71618 14.9408 9.04024 15.3515 9.41666 15.3144C8.96676 15.3949 9.21206 16.2516 9.658 15.9211C9.73478 15.7361 9.34274 15.4338 9.78692 15.6021C9.91672 15.3348 10.2434 15.2803 9.99108 14.8636C9.97568 14.4357 10.3145 14.1534 10.4905 13.874C10.613 13.7345 10.5613 13.4298 10.765 13.3786ZM13.9271 14.2797C14.3033 14.6174 14.8656 14.3017 15.2557 14.4524C15.336 15.0123 15.2766 15.6034 15.294 16.1768C14.9816 16.2993 14.7259 16.1422 14.9464 15.8069C14.8865 15.5297 15.0878 14.9753 14.923 14.9731C14.841 15.1298 14.4511 15.073 14.5321 14.8037C14.3106 14.7243 13.9095 14.5932 13.9271 14.2797ZM9.70838 14.6651C9.60498 14.7835 9.81354 14.7707 9.70838 14.6651V14.6651ZM9.69958 14.7692C9.43206 14.9659 9.89692 15.0231 9.69958 14.7692V14.7692ZM9.67912 14.9573C9.77812 15.0572 9.49586 15.2376 9.5623 15.4811C9.35726 15.3889 9.56626 15.0343 9.67912 14.9573ZM9.58166 14.9756C9.52512 15.013 9.65668 15.0235 9.58166 14.9756V14.9756ZM9.5095 14.9954C9.41732 15.1032 9.62434 15.031 9.5095 14.9954V14.9954ZM6.60044 15.0611C6.38484 15.1557 6.84244 15.205 6.60044 15.0611V15.0611ZM5.12578 15.0752C5.36118 15.2435 5.54422 15.2143 5.44588 15.6197C5.5792 15.7627 5.48108 14.9456 5.73672 15.3601C5.86872 15.7614 5.49758 15.854 5.29716 15.9733C5.42784 15.7181 5.32906 15.5975 5.1326 15.5423C5.10906 15.3927 5.0721 15.222 5.12578 15.0752ZM9.71718 15.1082C9.59486 15.1887 9.80958 15.2965 9.71718 15.1082V15.1082ZM9.35198 15.1456C9.21932 15.2864 9.43624 15.2083 9.35198 15.1456V15.1456ZM9.42656 15.1652C9.29544 15.2077 9.52556 15.2393 9.42656 15.1652V15.1652ZM7.1456 15.2347C7.10556 15.3727 7.34272 15.2369 7.1456 15.2347V15.2347ZM7.09588 15.3425C7.05584 15.5124 7.3084 15.4373 7.09588 15.3425V15.3425ZM8.42248 15.3529C8.17762 15.4437 8.56548 15.3815 8.42248 15.3529V15.3529ZM8.23988 15.4857C8.09864 15.7271 8.36506 15.8109 8.23988 15.4857V15.4857ZM5.18628 15.814C4.9324 16.0613 5.3196 16.0681 5.18628 15.814V15.814ZM5.67468 15.8263C5.31498 15.8857 5.83308 16.0606 5.67468 15.8263V15.8263ZM5.99632 15.9411C6.0197 15.9396 6.04317 15.9419 6.06584 15.9477C6.37736 16.0478 5.90238 16.3024 5.92548 16.1482C5.66434 16.135 5.83066 15.9528 5.99632 15.9411ZM5.4274 15.9931C5.4505 15.9902 5.48064 15.9909 5.5198 15.9957C5.82516 16.023 5.47514 16.2472 5.38186 16.303C5.44896 16.2029 5.26526 16.0131 5.4274 15.9931ZM5.13216 16.0516C4.9775 16.2623 5.28902 16.3176 5.13216 16.0516V16.0516ZM6.35294 16.1255C6.67612 16.2168 6.48648 16.9751 6.29134 16.7712C6.1435 16.9987 5.97058 16.8119 6.2227 17.0827C5.88874 17.4162 5.45402 16.9133 5.9411 16.6724C6.07816 16.4839 5.6177 16.2511 6.0951 16.2995C6.24514 16.3257 6.24778 16.1655 6.35294 16.1255ZM5.632 16.2476C5.8432 16.5593 5.59262 17.0147 5.43202 16.8632C5.71692 17.3837 4.83076 16.5959 5.41926 16.8031C5.30794 16.6676 5.72176 16.4612 5.3504 16.52C5.34424 16.3994 5.61572 16.3242 5.632 16.2476ZM15.2819 16.2883C15.2805 16.6733 15.3276 17.5672 15.2566 17.6061C15.0786 17.2728 15.0313 17.0332 15.158 16.6715C15.4345 16.446 15.0568 16.3772 15.2819 16.2883ZM5.11412 16.5138C4.97684 16.9551 5.45314 16.5523 5.11412 16.5138V16.5138ZM6.79712 16.8706C6.62772 17.0224 7.05012 17.1074 6.79712 16.8706V16.8706ZM7.8628 17.4077C7.8848 17.4059 7.91186 17.4072 7.94442 17.4136C7.79658 17.5988 7.70792 17.4206 7.8628 17.4077ZM9.66394 18.386C9.38454 18.6177 9.70882 18.5497 9.66394 18.386V18.386ZM9.54822 18.5748C9.48046 18.6232 9.61598 18.6232 9.54822 18.5748V18.5748ZM7.3381 18.8416C7.20874 18.9534 7.47648 18.9565 7.3381 18.8416V18.8416ZM7.8045 18.8511C7.70814 18.9276 7.9519 18.9813 7.8045 18.8511V18.8511Z" fill="url(#paint0_linear_1059_1605)"/>
</g>
<defs>
<linearGradient id="paint0_linear_1059_1605" x1="15.5" y1="-2.58857e-07" x2="6.5" y2="22" gradientUnits="userSpaceOnUse">
<stop stop-color="#F9EC2A"/>
<stop offset="1" stop-color="#706A0E"/>
</linearGradient>
<clipPath id="clip0_1059_1605">
<rect width="22" height="22" fill="white"/>
</clipPath>
</defs>
</svg>
