<svg width="24" height="24" viewBox="0 0 24 24" fill="none" xmlns="http://www.w3.org/2000/svg">
<path d="M12 8.24999L11.9965 8.25001C11.9068 8.25043 11.864 8.22837 11.8183 8.18267C11.7725 8.13688 11.7498 8.09325 11.75 8.00177C11.7502 7.90751 11.7741 7.86272 11.8193 7.81741C11.8629 7.7736 11.906 7.75 12 7.75C12.094 7.75 12.1371 7.7736 12.1807 7.81741C12.2259 7.86272 12.2498 7.90751 12.25 8.00177C12.2502 8.09405 12.2273 8.13709 12.1827 8.18167C12.138 8.22635 12.0941 8.25 12 8.24999ZM4.75 11.1002V11.1V5.51975L12 2.801L19.25 5.51975V11.1C19.25 13.4728 18.5474 15.6232 17.1313 17.5721C15.759 19.4607 14.0522 20.6654 12.0001 21.2247C9.94861 20.6648 8.24163 19.4597 6.86865 17.571C5.45188 15.6221 4.74938 13.4721 4.75 11.1002ZM11.7732 20.6149L12 20.6869L12.2268 20.6149C14.1355 20.0092 15.7005 18.7975 16.9182 17.0246C18.1381 15.2487 18.75 13.2671 18.75 11.1V6.375V5.85525L18.2633 5.67275L12.2633 3.42275L12 3.324L11.7367 3.42275L5.73666 5.67275L5.25 5.85525V6.375V11.1C5.25 13.2671 5.86193 15.2487 7.08179 17.0246C8.29954 18.7975 9.8645 20.0092 11.7732 20.6149ZM12.25 11.75V16.25H11.75V11.75H12.25Z" stroke="black" stroke-width="1.5"/>
</svg>
