<svg width="129" height="125" viewBox="0 0 129 125" fill="none" xmlns="http://www.w3.org/2000/svg">
<path d="M4.65846 62.4152C6.03174 74.0085 11.3216 87.4886 21.8932 93.6794C37.8782 103.045 36.5296 117.432 67.7058 123.688C72.2528 124.623 76.8878 125.06 81.5293 124.993C83.8 124.954 86.066 124.771 88.3133 124.444C108.13 121.549 121.464 107.775 126.356 91.147C132.794 69.2816 119.94 54.9665 111.42 46.3423C102.9 37.7181 96.6546 10.8402 66.0552 4.44349C61.3875 3.45023 56.6211 2.99773 51.8499 3.09493C40.9598 3.36958 29.0864 6.94012 20.8687 14.3998C20.2516 14.9601 19.651 15.5405 19.0669 16.1411C7.64398 27.8662 2.7908 46.6115 4.65846 62.4152Z" fill="#F4F4F4" fill-opacity="0.4"/>
<path d="M8.93481 63.4795V67.4648" stroke="#263238" stroke-width="0.25" stroke-miterlimit="10"/>
<path d="M10.9261 65.4697H6.9408" stroke="#263238" stroke-width="0.25" stroke-miterlimit="10"/>
<path d="M99.5797 99.0586V101.517" stroke="#263238" stroke-width="0.25" stroke-miterlimit="10"/>
<path d="M100.807 100.285H98.3518" stroke="#263238" stroke-width="0.25" stroke-miterlimit="10"/>
<path d="M112.563 15.8838V18.342" stroke="#263238" stroke-width="0.25" stroke-miterlimit="10"/>
<path d="M113.793 17.1143H111.335" stroke="#263238" stroke-width="0.25" stroke-miterlimit="10"/>
<path d="M79.527 116.208V118.666" stroke="#263238" stroke-width="0.25" stroke-miterlimit="10"/>
<path d="M80.7574 117.438H78.2992" stroke="#263238" stroke-width="0.25" stroke-miterlimit="10"/>
<path d="M111.003 110.73V116.693" stroke="#263238" stroke-width="0.25" stroke-miterlimit="10"/>
<path d="M113.985 113.711H108.023" stroke="#263238" stroke-width="0.25" stroke-miterlimit="10"/>
<path d="M19.8496 24.9199V30.8855" stroke="#263238" stroke-width="0.25" stroke-miterlimit="10"/>
<path d="M22.8324 27.9023H16.8668" stroke="#263238" stroke-width="0.25" stroke-miterlimit="10"/>
<path d="M10.2751 44.6411C10.2751 44.8541 10.212 45.0622 10.0937 45.2393C9.97538 45.4163 9.80723 45.5543 9.6105 45.6358C9.41376 45.7173 9.19729 45.7386 8.98844 45.6971C8.77959 45.6555 8.58774 45.553 8.43717 45.4024C8.2866 45.2518 8.18406 45.06 8.14251 44.8512C8.10097 44.6423 8.12229 44.4258 8.20378 44.2291C8.28527 44.0324 8.42327 43.8642 8.60032 43.7459C8.77738 43.6276 8.98554 43.5645 9.19848 43.5645C9.48403 43.5645 9.75788 43.6779 9.95979 43.8798C10.1617 44.0817 10.2751 44.3556 10.2751 44.6411Z" stroke="#263238" stroke-width="0.25" stroke-miterlimit="10"/>
<path d="M116.537 107.166C116.537 107.313 116.493 107.457 116.412 107.58C116.33 107.702 116.214 107.798 116.077 107.854C115.941 107.91 115.792 107.925 115.647 107.896C115.503 107.867 115.37 107.797 115.266 107.693C115.162 107.588 115.091 107.456 115.063 107.311C115.034 107.167 115.049 107.017 115.105 106.881C115.161 106.745 115.257 106.629 115.379 106.547C115.502 106.466 115.645 106.422 115.793 106.422C115.99 106.422 116.179 106.5 116.319 106.64C116.459 106.779 116.537 106.969 116.537 107.166Z" stroke="#263238" stroke-width="0.25" stroke-miterlimit="10"/>
<path d="M89.4147 112.29C89.4152 112.438 89.3718 112.583 89.2901 112.706C89.2083 112.829 89.0918 112.925 88.9554 112.982C88.8189 113.039 88.6686 113.055 88.5235 113.026C88.3784 112.997 88.2451 112.927 88.1403 112.822C88.0356 112.718 87.9641 112.585 87.9351 112.44C87.906 112.295 87.9207 112.144 87.9771 112.008C88.0336 111.871 88.1293 111.754 88.2523 111.672C88.3752 111.59 88.5197 111.546 88.6676 111.546C88.7656 111.546 88.8627 111.565 88.9533 111.602C89.0439 111.639 89.1263 111.694 89.1957 111.763C89.2651 111.832 89.3202 111.914 89.3577 112.005C89.3953 112.095 89.4147 112.192 89.4147 112.29Z" stroke="#263238" stroke-width="0.25" stroke-miterlimit="10"/>
<path d="M13.1582 49.9889C13.6939 48.7862 13.1532 47.3769 11.9505 46.8411C10.7477 46.3054 9.33843 46.8461 8.80269 48.0488C8.26695 49.2516 8.80765 50.6609 10.0104 51.1966C11.2131 51.7324 12.6224 51.1917 13.1582 49.9889Z" stroke="#263238" stroke-width="0.25" stroke-miterlimit="10"/>
<path d="M119.987 70.0473C121.303 70.0473 122.371 68.98 122.371 67.6633C122.371 66.3467 121.303 65.2793 119.987 65.2793C118.67 65.2793 117.603 66.3467 117.603 67.6633C117.603 68.98 118.67 70.0473 119.987 70.0473Z" stroke="#263238" stroke-width="0.25" stroke-miterlimit="10"/>
<path d="M46.1198 19.5088C46.4212 18.227 45.6264 16.9437 44.3447 16.6424C43.063 16.3411 41.7797 17.1358 41.4783 18.4175C41.177 19.6993 41.9718 20.9826 43.2535 21.2839C44.5352 21.5852 45.8185 20.7905 46.1198 19.5088Z" stroke="#263238" stroke-width="0.25" stroke-miterlimit="10"/>
<path d="M41.3551 32.0439C26.6088 32.0439 14.6118 43.791 14.6118 58.2269V72.9128H22.2225V58.2269C22.2225 47.9054 30.8001 39.5064 41.3441 39.5064C51.8882 39.5064 60.463 47.9054 60.463 58.2269V72.9128H68.0902V58.2269C68.0902 43.791 56.0987 32.0439 41.3551 32.0439Z" stroke="#D1CA66" stroke-width="1.5" stroke-miterlimit="10"/>
<path d="M70.172 112.881V72.9131H32.8187M30.2864 72.9131H11.7855V121.214H70.1775V115.773M43.7143 98.4479L44.7828 109.42H36.6035L37.6719 98.4479C36.6687 97.9264 35.8272 97.1405 35.2385 96.1752C34.6498 95.2098 34.3364 94.1019 34.3321 92.9712C34.3666 91.3082 35.0516 89.7249 36.24 88.5609C37.4284 87.397 39.0256 86.7451 40.689 86.7451C42.3524 86.7451 43.9496 87.397 45.138 88.5609C46.3264 89.7249 47.0114 91.3082 47.0459 92.9712C47.0416 94.1016 46.7284 95.2092 46.1403 96.1744C45.5521 97.1397 44.7113 97.9258 43.7088 98.4479H43.7143Z" stroke="#D1CA66" stroke-width="1.5" stroke-miterlimit="10"/>
<path d="M43.709 98.4469L44.7775 109.419H36.6037L37.6721 98.4469C36.6689 97.9255 35.8274 97.1395 35.2387 96.1742C34.65 95.2089 34.3366 94.1009 34.3323 92.9703C34.3668 91.3072 35.0518 89.7239 36.2402 88.56C37.4286 87.396 39.0258 86.7441 40.6892 86.7441C42.3526 86.7441 43.9498 87.396 45.1382 88.56C46.3266 89.7239 47.0116 91.3072 47.0461 92.9703C47.0418 94.1006 46.7286 95.2082 46.1405 96.1735C45.5523 97.1387 44.7116 97.9248 43.709 98.4469Z" stroke="#D1CA66" stroke-width="1.5" stroke-miterlimit="10"/>
<path d="M43.709 98.4469L44.7775 109.419H36.6037L37.6721 98.4469C36.6689 97.9255 35.8274 97.1395 35.2387 96.1742C34.65 95.2089 34.3366 94.1009 34.3323 92.9703C34.3668 91.3072 35.0518 89.7239 36.2402 88.56C37.4286 87.396 39.0258 86.7441 40.6892 86.7441C42.3526 86.7441 43.9498 87.396 45.1382 88.56C46.3266 89.7239 47.0116 91.3072 47.0461 92.9703C47.0418 94.1006 46.7286 95.2082 46.1405 96.1735C45.5523 97.1387 44.7116 97.9248 43.709 98.4469Z" stroke="#D1CA66" stroke-width="1.5" stroke-miterlimit="10"/>
<path d="M105.221 6.32248C104.054 6.10275 102.529 7.60238 102.021 8.53621C101.977 8.61586 101.436 9.95344 101.458 9.95618C101.48 9.95893 103.54 10.11 104.411 9.78315C105.152 9.50849 106.018 8.9427 106.257 8.13521C106.318 7.94828 106.339 7.75055 106.32 7.55479C106.3 7.35902 106.239 7.16959 106.142 6.99874C106.044 6.82789 105.912 6.67942 105.753 6.56293C105.595 6.44644 105.413 6.36453 105.221 6.32248Z" fill="#263238"/>
<path d="M86.2532 25.9438C86.3301 26.6139 86.418 27.2786 86.5278 27.9295C86.5855 28.2042 86.624 28.4953 86.6954 28.7535C86.7668 29.0117 86.8245 29.2863 86.8904 29.55C87.0415 30.0993 87.1788 30.5909 87.3326 31.0908C87.4095 31.3408 87.4864 31.5797 87.5633 31.8242C87.3738 31.4369 87.0634 30.8272 87.0277 30.775C86.4454 29.8906 84.7948 28.5228 83.6522 28.8524C83.4637 28.9103 83.2895 29.0074 83.141 29.1372C82.9924 29.2669 82.873 29.4266 82.7903 29.6057C82.7076 29.7847 82.6636 29.9792 82.6612 30.1764C82.6587 30.3736 82.6979 30.5692 82.776 30.7502C83.0809 31.5303 83.9928 32.0164 84.7536 32.2306C85.5968 32.4669 87.4397 32.1922 87.6649 32.1565C87.7968 32.563 87.9258 32.9612 88.0577 33.3457H88.7938C88.6454 32.9448 88.4971 32.5218 88.3488 32.1043C88.5548 32.0164 90.1506 31.327 90.7933 30.7036C91.3027 31.0178 91.8311 31.3003 92.3753 31.5495C92.205 32.1537 92.0457 32.7443 91.9056 33.2963C91.9043 33.3128 91.9043 33.3293 91.9056 33.3457H92.628C92.7351 32.8761 92.8559 32.3872 92.985 31.8818C93.213 31.9258 95.0449 32.2526 95.8909 32.0439C96.6599 31.8516 97.5855 31.3929 97.9151 30.6212C97.9985 30.4422 98.0431 30.2477 98.0462 30.0503C98.0492 29.8529 98.0106 29.6571 97.9329 29.4757C97.8551 29.2942 97.7399 29.1312 97.5949 28.9973C97.4499 28.8634 97.2782 28.7616 97.0911 28.6986C95.9568 28.3443 94.2677 29.6599 93.6552 30.5278C93.6167 30.5827 93.2295 31.2913 93.0399 31.6566C93.1251 31.327 93.2075 31.0002 93.3146 30.6596C93.4464 30.168 93.5893 29.6516 93.7486 29.1517C93.8365 28.8963 93.9216 28.6381 94.0232 28.3745C94.1248 28.1108 94.2182 27.8664 94.3144 27.6054C94.4654 27.2292 94.6412 26.8474 94.8142 26.4684C95.3059 26.6331 96.7615 27.0918 97.5251 27.0177C98.2886 26.9435 99.2966 26.6331 99.7388 25.919C99.8484 25.755 99.9223 25.5698 99.9557 25.3754C99.989 25.1809 99.9811 24.9816 99.9324 24.7905C99.8837 24.5993 99.7953 24.4205 99.673 24.2657C99.5507 24.111 99.3972 23.9837 99.2225 23.8921C98.1541 23.373 96.2836 24.4194 95.5503 25.183C95.5256 25.2077 95.3883 25.3862 95.2262 25.5977C95.4047 25.2324 95.586 24.8644 95.7755 24.4991C96.3248 23.4636 96.9263 22.4254 97.5223 21.3817C97.6459 21.1647 97.764 20.945 97.8876 20.728C98.3024 20.8681 99.8734 21.379 100.673 21.3048C101.472 21.2307 102.447 20.9203 102.889 20.2062C102.999 20.0414 103.073 19.8551 103.106 19.6597C103.139 19.4642 103.13 19.2641 103.08 19.0723C103.03 18.8806 102.94 18.7016 102.815 18.5472C102.691 18.3928 102.536 18.2665 102.359 18.1765C101.293 17.6546 99.423 18.7011 98.6869 19.4646C98.6622 19.4921 98.4974 19.7036 98.3134 19.9453C98.6292 19.374 98.9368 18.7999 99.2225 18.2204C99.7162 17.234 100.143 16.2155 100.5 15.1717C100.645 15.2212 102.474 15.8584 103.364 15.776C104.153 15.7018 105.139 15.3887 105.581 14.6774C105.69 14.5132 105.764 14.3278 105.797 14.1332C105.83 13.9387 105.822 13.7393 105.773 13.5481C105.724 13.3569 105.636 13.1782 105.513 13.0235C105.39 12.8688 105.237 12.7417 105.062 12.6504C103.996 12.1313 102.126 13.175 101.392 13.9413C101.34 13.9935 100.747 14.7652 100.546 15.0399C100.55 15.0276 100.554 15.0156 100.56 15.0042C100.889 13.967 101.125 12.9026 101.266 11.8237C101.397 10.8602 101.471 9.88994 101.488 8.9178C101.513 8.01693 101.488 7.19022 101.447 6.45963C101.425 6.06412 101.4 5.70432 101.37 5.361L101.39 5.37748C101.409 5.37748 101.878 4.02617 101.898 3.93554C102.126 2.90008 101.961 0.766002 100.936 0.164504C100.763 0.0722951 100.572 0.017464 100.375 0.00353783C100.179 -0.0103884 99.9824 0.0168986 99.7974 0.0836437C99.6124 0.150389 99.4435 0.255114 99.3014 0.391082C99.1593 0.527049 99.0473 0.691249 98.9725 0.873118C98.6265 1.63392 98.9121 2.62817 99.2884 3.32305C99.6647 4.01793 100.994 5.07811 101.324 5.33079C101.348 5.68235 101.368 6.05588 101.381 6.47336C101.4 7.2012 101.414 8.02517 101.381 8.9233C101.381 9.16225 101.348 9.41768 101.332 9.66762C101.274 9.2419 101.184 8.65963 101.17 8.60195C100.895 7.57748 99.7635 5.75926 98.577 5.70158C98.38 5.69702 98.1843 5.73399 98.0026 5.81007C97.8208 5.88616 97.6571 5.99966 97.5221 6.14319C97.3872 6.28673 97.2839 6.45707 97.2191 6.64314C97.1543 6.82922 97.1294 7.02685 97.1461 7.22317C97.1873 8.04714 97.8986 8.81069 98.5551 9.25563C99.2115 9.70058 100.931 10.0357 101.302 10.1016C101.258 10.6509 101.197 11.2167 101.098 11.8017C100.937 12.864 100.681 13.91 100.335 14.9273C100.313 14.9877 100.285 15.0454 100.263 15.1031C100.263 14.8888 100.228 13.7023 100.214 13.6199C100.055 12.5735 99.1153 10.6399 97.959 10.4504C97.7634 10.4241 97.5645 10.4393 97.3751 10.495C97.1857 10.5507 97.0102 10.6456 96.86 10.7735C96.7097 10.9015 96.5881 11.0597 96.503 11.2378C96.4179 11.4159 96.3712 11.6099 96.366 11.8072C96.3166 12.6312 96.9401 13.4551 97.5443 13.9825C98.2392 14.5757 100.176 15.1223 100.247 15.1443C99.8736 16.1478 99.435 17.1258 98.9341 18.0721C98.566 18.7752 98.165 19.4729 97.7558 20.1677C97.7558 19.8931 97.7173 18.7945 97.7064 18.7066C97.5471 17.6574 96.6215 15.7265 95.4487 15.537C95.2533 15.5112 95.0546 15.5267 94.8656 15.5825C94.6766 15.6384 94.5014 15.7334 94.3514 15.8613C94.2015 15.9893 94.0801 16.1473 93.9952 16.3252C93.9102 16.503 93.8637 16.6968 93.8584 16.8938C93.809 17.7178 94.4325 18.5418 95.034 19.0691C95.7124 19.6459 97.5663 20.1677 97.7228 20.2254C97.5361 20.5413 97.3521 20.8571 97.1735 21.1702C96.5556 22.2002 95.9348 23.2274 95.3526 24.2629C95.1493 24.6199 94.9653 24.9797 94.7758 25.3395C94.7758 24.9193 94.7373 24.1557 94.7291 24.0898C94.5698 23.0406 93.6305 21.1098 92.4714 20.9203C92.276 20.8944 92.0773 20.9099 91.8883 20.9658C91.6993 21.0217 91.5241 21.1167 91.3742 21.2446C91.2242 21.3725 91.1028 21.5306 91.0179 21.7084C90.933 21.8863 90.8864 22.0801 90.8811 22.2771C90.8317 23.1011 91.4552 23.925 92.0567 24.4496C92.6582 24.9742 94.21 25.4494 94.6494 25.5785C94.3418 26.18 94.0507 26.7842 93.7898 27.3912C93.6854 27.6659 93.559 27.9185 93.4712 28.1795C93.3833 28.4404 93.2844 28.6958 93.1965 28.9512C93.0262 29.4841 92.8642 29.9785 92.7159 30.4811C92.6417 30.7338 92.5758 30.9727 92.5044 31.2199C92.5593 30.7914 92.6362 30.1213 92.6362 30.0499C92.6362 28.9897 92.0155 26.9408 90.8866 26.5755C90.6974 26.5199 90.4985 26.5048 90.303 26.5311C90.1075 26.5574 89.9198 26.6246 89.7519 26.7282C89.5841 26.8318 89.4399 26.9695 89.3288 27.1325C89.2176 27.2955 89.142 27.48 89.1069 27.6741C89.0853 27.7753 89.0734 27.8783 89.0712 27.9817C88.563 28.7647 88.2642 29.665 88.2032 30.5964C88.2032 30.6624 88.2664 31.4671 88.3104 31.8791C88.2005 31.555 88.0879 31.2364 87.9808 30.9013C87.8187 30.4179 87.6649 29.9016 87.5111 29.4017C87.4424 29.127 87.371 28.8771 87.3024 28.6107C87.2337 28.3443 87.1843 28.0778 87.1211 27.8059C87.0387 27.4104 86.9755 26.982 86.9096 26.581C87.4122 26.4491 88.8761 26.0316 89.4749 25.5483C90.0737 25.0649 90.7411 24.2491 90.7164 23.4114C90.7154 23.2132 90.6726 23.0173 90.5907 22.8368C90.5088 22.6562 90.3896 22.4951 90.241 22.3638C90.0923 22.2326 89.9176 22.1342 89.7284 22.0753C89.5391 22.0163 89.3394 21.998 89.1426 22.0217C87.9643 22.1755 86.9838 24.0788 86.7915 25.1225C86.7915 25.1582 86.7668 25.3807 86.7503 25.6471C86.6981 25.2434 86.6459 24.8396 86.6075 24.4249C86.4976 23.2549 86.4235 22.0601 86.3328 20.8544C86.3164 20.6044 86.2944 20.3545 86.2779 20.1073C86.7009 19.9947 88.2911 19.558 88.9201 19.0526C89.5491 18.5473 90.1863 17.7508 90.1615 16.9131C90.1622 16.7157 90.1213 16.5204 90.0416 16.3399C89.9618 16.1594 89.845 15.9977 89.6986 15.8653C89.5522 15.7329 89.3796 15.6328 89.192 15.5715C89.0044 15.5102 88.806 15.4891 88.6097 15.5096C87.4342 15.6634 86.4509 17.5667 86.2587 18.6104C86.2587 18.6461 86.234 18.9153 86.212 19.2147C86.1598 18.5665 86.0994 17.9183 86.0197 17.2921C85.8875 16.1922 85.6829 15.1022 85.4072 14.0292C85.5583 13.9907 87.4342 13.5128 88.1291 12.9525C88.7471 12.4581 89.3953 11.6534 89.3733 10.8157C89.3773 10.6173 89.3393 10.4203 89.2617 10.2376C89.1842 10.055 89.0688 9.89079 88.9233 9.75589C88.7778 9.62099 88.6053 9.51842 88.4173 9.45492C88.2293 9.39142 88.03 9.36843 87.8325 9.38747C86.6569 9.54128 85.6737 11.4446 85.4814 12.4883C85.4677 12.5625 85.4017 13.532 85.3908 13.8808V13.8424C85.0938 12.795 84.7032 11.7765 84.2235 10.7992C83.8019 9.92406 83.3287 9.07478 82.8062 8.25588C82.3311 7.48959 81.8504 6.81668 81.4165 6.22617C81.1803 5.90757 80.9606 5.62193 80.7491 5.35551H80.7738C80.7958 5.35551 80.436 3.96026 80.403 3.87511C80.024 2.8836 78.7056 1.19447 77.5219 1.26038C77.3251 1.27644 77.1339 1.33384 76.9609 1.42881C76.7878 1.52378 76.6367 1.6542 76.5175 1.81154C76.3982 1.96888 76.3135 2.1496 76.2689 2.34191C76.2243 2.53421 76.2207 2.73377 76.2584 2.92755C76.3875 3.75152 77.173 4.42443 77.8707 4.79796C78.5683 5.17149 80.2629 5.31981 80.6777 5.34727C80.8919 5.62193 81.1144 5.9268 81.3561 6.26737C81.7735 6.86612 82.2405 7.54452 82.6964 8.31631C82.82 8.5223 82.9408 8.75026 83.0644 8.96724C82.7898 8.64315 82.386 8.20644 82.3421 8.16799C81.5483 7.46487 79.5955 6.57224 78.5793 7.17648C78.4125 7.28188 78.2697 7.42114 78.1602 7.58522C78.0506 7.74931 77.9768 7.93457 77.9434 8.12902C77.91 8.32346 77.9178 8.52275 77.9663 8.71399C78.0148 8.90522 78.1029 9.08414 78.225 9.23915C78.7221 9.91206 79.7301 10.1455 80.5211 10.1565C81.3121 10.1675 82.9353 9.49458 83.2677 9.33254C83.5423 9.81868 83.795 10.324 84.0367 10.8651C84.4873 11.838 84.8504 12.849 85.1216 13.8863C85.1353 13.944 85.1436 14.0099 85.16 14.0704C85.0474 13.8863 84.3553 12.9223 84.3004 12.8619C83.589 12.0736 81.7516 10.9722 80.6694 11.4611C80.492 11.5474 80.3348 11.6701 80.2079 11.8211C80.0811 11.9722 79.9874 12.1482 79.933 12.3378C79.8786 12.5274 79.8647 12.7264 79.8922 12.9217C79.9197 13.117 79.988 13.3044 80.0926 13.4716C80.5101 14.1967 81.4852 14.54 82.2734 14.6362C83.177 14.746 85.0969 14.1363 85.1683 14.1116C85.4097 15.1557 85.5831 16.2145 85.6874 17.2811C85.7698 18.0694 85.8192 18.8714 85.8632 19.6761C85.7094 19.4426 85.0667 18.5473 85.0145 18.4868C84.3031 17.7013 82.4657 16.5999 81.3835 17.0888C81.2059 17.1749 81.0484 17.2974 80.9213 17.4483C80.7941 17.5992 80.7001 17.7752 80.6455 17.9649C80.5908 18.1545 80.5767 18.3535 80.604 18.549C80.6313 18.7444 80.6995 18.9319 80.804 19.0993C81.2242 19.8244 82.1993 20.165 82.9848 20.2611C83.8692 20.371 85.7094 19.7942 85.8659 19.7448C85.8851 20.1101 85.9044 20.4753 85.9209 20.8434C85.9758 22.0409 86.0252 23.2439 86.1076 24.4139C86.1378 24.8259 86.1818 25.2379 86.223 25.6306C85.984 25.2846 85.5363 24.6639 85.4924 24.6144C84.781 23.8289 82.9436 22.7275 81.8614 23.2164C81.6838 23.3024 81.5262 23.4249 81.3991 23.5759C81.272 23.7269 81.1781 23.903 81.1237 24.0927C81.0692 24.2825 81.0554 24.4816 81.0832 24.677C81.1109 24.8724 81.1796 25.0598 81.2847 25.2269C81.7049 25.952 82.6772 26.2926 83.4654 26.3887C84.2537 26.4848 85.8165 26.0756 86.2532 25.9438Z" fill="#263238"/>
<path d="M83.331 9.13997C83.331 9.13997 85.152 8.12099 85.6985 7.36843C86.1627 6.72574 86.5774 5.78092 86.3302 4.97892C86.2792 4.78837 86.1886 4.61072 86.0643 4.45755C85.94 4.30438 85.7848 4.17913 85.6088 4.08998C85.4328 4.00083 85.2401 3.94978 85.043 3.94015C84.846 3.93052 84.6492 3.96253 84.4653 4.0341C83.3667 4.49278 82.9273 6.58841 83.0179 7.64584C83.0261 7.73922 83.3118 9.15095 83.331 9.13997Z" fill="#263238"/>
<path d="M32.8795 93.0546C31.6628 92.8267 30.0725 94.3895 29.5452 95.3618C29.4985 95.4442 28.9354 96.8394 28.9574 96.8422C28.9794 96.8449 31.1272 97.0042 32.0336 96.6636C32.8054 96.3725 33.709 95.7875 33.9562 94.9498C34.021 94.7548 34.0441 94.5483 34.0241 94.3438C34.004 94.1393 33.9411 93.9413 33.8396 93.7626C33.7381 93.5839 33.6002 93.4285 33.4348 93.3066C33.2694 93.1846 33.0802 93.0988 32.8795 93.0546Z" fill="#263238"/>
<path d="M13.1124 113.503C13.1921 114.201 13.2855 114.893 13.409 115.571C13.4695 115.862 13.5107 116.162 13.5848 116.439C13.659 116.716 13.7194 116.988 13.7853 117.263C13.9446 117.826 14.0875 118.362 14.2495 118.87C14.3291 119.131 14.4088 119.378 14.4884 119.633C14.2907 119.23 13.9666 118.595 13.9391 118.535C13.3321 117.615 11.6128 116.189 10.4208 116.521C10.2242 116.582 10.0427 116.683 9.88793 116.819C9.73318 116.955 9.60874 117.121 9.52271 117.308C9.43667 117.495 9.39098 117.698 9.3886 117.903C9.38623 118.109 9.42723 118.313 9.50892 118.502C9.82753 119.326 10.7751 119.82 11.5716 120.045C12.4478 120.29 14.3676 120.004 14.5928 119.968C14.7301 120.391 14.8675 120.806 14.9993 121.204H15.7683C15.6145 120.791 15.4598 120.359 15.3042 119.911C15.5212 119.82 17.1828 119.103 17.8502 118.452C18.3815 118.779 18.9318 119.073 19.4982 119.334C19.3197 119.963 19.1549 120.578 19.0093 121.155C19.0093 121.171 19.0093 121.188 19.0093 121.204H19.7509C19.8635 120.715 19.9871 120.205 20.1217 119.68C20.3606 119.724 22.2695 120.067 23.1429 119.848C23.9421 119.647 24.9089 119.172 25.2495 118.367C25.3365 118.181 25.3834 117.979 25.3871 117.773C25.3908 117.568 25.3512 117.364 25.2709 117.175C25.1906 116.986 25.0713 116.816 24.921 116.676C24.7706 116.536 24.5924 116.429 24.3981 116.362C23.217 115.994 21.4565 117.365 20.8275 118.268C20.7863 118.329 20.3826 119.065 20.1848 119.447C20.2727 119.103 20.3606 118.763 20.4595 118.408C20.5968 117.895 20.7589 117.356 20.9127 116.837L21.1873 116.027C21.2752 115.752 21.3906 115.494 21.4922 115.225C21.6515 114.832 21.8328 114.434 22.014 114.039C22.5276 114.209 24.041 114.687 24.8375 114.615C25.634 114.544 26.6859 114.212 27.1446 113.47C27.2591 113.299 27.336 113.105 27.3703 112.902C27.4046 112.698 27.3955 112.49 27.3436 112.291C27.2917 112.091 27.1982 111.905 27.0693 111.744C26.9403 111.584 26.7788 111.452 26.5953 111.358C25.4967 110.809 23.5356 111.907 22.7693 112.701C22.7446 112.728 22.5991 112.912 22.4315 113.135C22.621 112.753 22.805 112.371 23.011 111.99C23.5878 110.91 24.2113 109.828 24.8293 108.74C24.9584 108.515 25.0847 108.287 25.211 108.059C25.645 108.208 27.2792 108.738 28.1142 108.661C28.9491 108.584 29.9626 108.26 30.4213 107.518C30.5353 107.347 30.6118 107.153 30.6459 106.95C30.68 106.747 30.6708 106.539 30.6189 106.339C30.5671 106.14 30.4737 105.954 30.345 105.793C30.2163 105.632 30.0551 105.5 29.872 105.406C28.7733 104.857 26.8123 105.955 26.046 106.749C26.0185 106.777 25.8455 106.999 25.656 107.249C25.9856 106.653 26.3042 106.057 26.6035 105.453C27.1208 104.421 27.5695 103.357 27.9466 102.267C28.0977 102.319 30.0038 102.981 30.9321 102.896C31.7561 102.819 32.7778 102.495 33.2392 101.75C33.3528 101.579 33.429 101.386 33.4628 101.183C33.4966 100.98 33.4872 100.772 33.4354 100.573C33.3836 100.374 33.2904 100.188 33.162 100.028C33.0335 99.8671 32.8727 99.7353 32.6899 99.6411C31.5776 99.0918 29.6275 100.19 28.864 100.984C28.809 101.039 28.1938 101.847 27.9823 102.14C27.9885 102.128 27.9931 102.115 27.9961 102.102C28.3401 101.022 28.5865 99.9136 28.7321 98.7896C28.868 97.7879 28.945 96.7791 28.9628 95.7684C28.9903 94.8291 28.9628 93.9667 28.9216 93.2059C28.8997 92.7939 28.8722 92.4176 28.842 92.066L28.8612 92.0825C28.8804 92.0825 29.3721 90.6735 29.3913 90.5801C29.6303 89.5007 29.4572 87.2843 28.3888 86.6526C28.2085 86.5535 28.0094 86.4936 27.8043 86.4766C27.5993 86.4597 27.393 86.4862 27.1989 86.5544C27.0048 86.6225 26.8273 86.7308 26.6778 86.8722C26.5284 87.0136 26.4104 87.1849 26.3316 87.3749C25.9691 88.1687 26.2685 89.2014 26.6585 89.9292C27.0485 90.657 28.4382 91.7557 28.7816 92.0221C28.8063 92.3874 28.8283 92.7774 28.842 93.2086C28.8612 93.9694 28.875 94.8291 28.842 95.7629C28.842 96.0129 28.8063 96.2793 28.7898 96.5402C28.7294 96.0952 28.636 95.4883 28.6195 95.4416C28.3449 94.3732 27.1556 92.478 25.9196 92.4203C25.7141 92.4161 25.51 92.4552 25.3205 92.535C25.1311 92.6147 24.9605 92.7335 24.8199 92.8834C24.6792 93.0334 24.5717 93.2112 24.5042 93.4054C24.4368 93.5996 24.4109 93.8058 24.4283 94.0106C24.4722 94.8813 25.211 95.6585 25.8949 96.1255C26.5788 96.5924 28.3668 96.9494 28.7596 97.0071C28.7102 97.5811 28.6497 98.1717 28.5481 98.7814C28.3785 99.8884 28.112 100.978 27.7516 102.039C27.7296 102.099 27.6994 102.16 27.6775 102.22C27.6775 101.995 27.639 100.762 27.6253 100.677C27.4577 99.5779 26.4964 97.5702 25.2742 97.3806C25.0712 97.3548 24.865 97.3719 24.669 97.4307C24.473 97.4895 24.2915 97.5888 24.1362 97.722C23.9809 97.8553 23.8553 98.0197 23.7675 98.2045C23.6797 98.3894 23.6315 98.5905 23.6263 98.7951C23.5741 99.6658 24.225 100.525 24.854 101.061C25.5763 101.679 27.6005 102.248 27.672 102.27C27.2813 103.316 26.8225 104.335 26.2987 105.321C25.9169 106.054 25.4967 106.782 25.071 107.518C25.071 107.227 25.0325 106.079 25.0188 105.997C24.854 104.898 23.8899 102.893 22.6677 102.701C22.4647 102.675 22.2585 102.692 22.0625 102.751C21.8665 102.81 21.685 102.909 21.5297 103.042C21.3745 103.175 21.2488 103.34 21.161 103.525C21.0732 103.709 21.0251 103.911 21.0198 104.115C20.9676 104.986 21.6185 105.843 22.2475 106.378C22.9534 106.983 24.8842 107.537 25.049 107.584C24.854 107.914 24.6617 108.243 24.4667 108.57C23.824 109.644 23.1758 110.715 22.5688 111.792C22.3574 112.165 22.1651 112.542 21.9701 112.915C21.9701 112.479 21.9289 111.679 21.9179 111.611C21.7531 110.512 20.7891 108.507 19.5668 108.315C19.3639 108.289 19.1579 108.307 18.9621 108.366C18.7663 108.425 18.5849 108.524 18.4297 108.657C18.2746 108.79 18.1489 108.955 18.061 109.139C17.973 109.324 17.9246 109.525 17.9189 109.729C17.8695 110.6 18.5177 111.46 19.1466 111.995C19.7756 112.531 21.3906 113.036 21.8465 113.171C21.5279 113.797 21.223 114.426 20.9511 115.06C20.8413 115.335 20.7122 115.61 20.6215 115.884L20.3304 116.689C20.1519 117.238 19.9843 117.76 19.8305 118.282C19.7509 118.557 19.6822 118.796 19.608 119.054C19.6657 118.606 19.7454 117.9 19.7454 117.834C19.7454 116.736 19.0999 114.593 17.9217 114.214C17.7246 114.156 17.5175 114.141 17.314 114.168C17.1104 114.195 16.9149 114.265 16.7402 114.373C16.5655 114.482 16.4156 114.625 16.3002 114.795C16.1848 114.965 16.1065 115.157 16.0705 115.36C16.0467 115.466 16.0338 115.575 16.032 115.684C15.502 116.499 15.1899 117.436 15.1257 118.406C15.1257 118.477 15.1943 119.315 15.2383 119.743C15.1229 119.408 15.0075 119.076 14.8949 118.724C14.7274 118.222 14.5654 117.683 14.4061 117.164C14.3346 116.889 14.2605 116.615 14.1863 116.34C14.1122 116.066 14.0627 115.791 13.9996 115.516C13.9144 115.101 13.8458 114.67 13.7798 114.239C14.3017 114.102 15.8288 113.662 16.4522 113.162C17.0757 112.663 17.7706 111.808 17.7459 110.935C17.747 110.729 17.7047 110.526 17.6219 110.337C17.5391 110.149 17.4175 109.981 17.2652 109.842C17.1128 109.704 16.933 109.6 16.7376 109.536C16.5422 109.472 16.3354 109.45 16.1309 109.471C14.9032 109.633 13.8815 111.616 13.681 112.704C13.681 112.737 13.6562 112.978 13.637 113.253C13.5848 112.83 13.5299 112.407 13.4887 111.979C13.3761 110.759 13.2992 109.507 13.214 108.265C13.1976 108.004 13.1756 107.746 13.1591 107.485C13.5986 107.37 15.2575 106.911 15.9057 106.387C16.5539 105.862 17.224 105.033 17.1993 104.159C17.2 103.954 17.1574 103.75 17.0745 103.562C16.9915 103.374 16.8699 103.206 16.7177 103.068C16.5654 102.93 16.3858 102.825 16.1906 102.761C15.9953 102.697 15.7888 102.674 15.5843 102.695C14.3566 102.857 13.3321 104.84 13.1344 105.928C13.1344 105.966 13.1042 106.244 13.085 106.557C13.03 105.881 12.9669 105.206 12.8817 104.538C12.7468 103.392 12.5339 102.256 12.2445 101.138C12.4011 101.099 14.3566 100.589 15.0817 100.017C15.7271 99.501 16.4028 98.6633 16.3753 97.7899C16.3764 97.5845 16.3342 97.3812 16.2516 97.1932C16.1689 97.0051 16.0476 96.8366 15.8955 96.6985C15.7435 96.5605 15.5641 96.4559 15.369 96.3918C15.1739 96.3276 14.9674 96.3051 14.7631 96.326C13.5354 96.488 12.5109 98.471 12.3132 99.5587C12.2967 99.6356 12.228 100.657 12.217 101.009C12.217 100.995 12.217 100.981 12.217 100.97C11.9078 99.8789 11.5015 98.8172 11.0031 97.7981C10.5604 96.8638 10.0624 95.9567 9.51167 95.0818C9.01729 94.2825 8.51467 93.5821 8.06423 92.9669C7.81979 92.6346 7.58633 92.3379 7.36935 92.0605H7.39132C7.41604 92.0605 7.03976 90.6049 7.00406 90.517C6.60855 89.4843 5.23802 87.7237 4.00206 87.7924C3.79727 87.8095 3.59836 87.8695 3.41824 87.9685C3.23812 88.0675 3.08081 88.2032 2.95651 88.3668C2.83221 88.5305 2.74369 88.7185 2.6967 88.9185C2.6497 89.1186 2.64528 89.3263 2.68371 89.5282C2.82104 90.3906 3.63952 91.091 4.36736 91.4783C5.0952 91.8655 6.85849 92.0276 7.29245 92.0523C7.51492 92.3434 7.74563 92.6593 7.99831 93.0109C8.43227 93.6343 8.91841 94.3429 9.39357 95.1504C9.52266 95.3647 9.649 95.5981 9.77809 95.8261C9.48421 95.4883 9.06948 95.0323 9.02553 95.0021C8.20156 94.2688 6.1691 93.3377 5.10344 93.9694C4.92944 94.0789 4.78046 94.2238 4.66619 94.3947C4.55192 94.5655 4.47491 94.7586 4.44019 94.9612C4.40547 95.1638 4.41382 95.3715 4.46468 95.5706C4.51554 95.7698 4.60778 95.9561 4.7354 96.1172C5.2545 96.8203 6.30368 97.062 7.12765 97.073C7.95162 97.084 9.64351 96.3836 10.0033 96.2271C10.278 96.7325 10.5526 97.2598 10.8053 97.8228C11.2744 98.8395 11.653 99.8955 11.9369 100.979C11.9369 101.042 11.9616 101.108 11.9753 101.171C11.8572 100.981 11.1376 99.9761 11.08 99.913C10.3384 99.089 8.42403 97.9464 7.29519 98.4545C7.11038 98.5446 6.94656 98.6725 6.81436 98.8299C6.68216 98.9873 6.58453 99.1708 6.52782 99.3684C6.4711 99.566 6.45656 99.7733 6.48513 99.9769C6.51371 100.181 6.58477 100.376 6.6937 100.55C7.13315 101.305 8.14663 101.649 8.96785 101.761C9.90992 101.877 11.9094 101.24 11.9891 101.212C12.2437 102.298 12.4272 103.399 12.5384 104.508C12.6235 105.332 12.6757 106.156 12.7224 107.005C12.5631 106.757 11.8984 105.826 11.838 105.763C11.0964 104.939 9.18208 103.797 8.05325 104.307C7.86821 104.397 7.70412 104.524 7.57169 104.681C7.43926 104.839 7.34147 105.022 7.2847 105.219C7.22794 105.417 7.21347 105.624 7.24226 105.828C7.27104 106.031 7.34243 106.226 7.45175 106.4C7.88845 107.156 8.90468 107.499 9.72316 107.614C10.646 107.727 12.5631 107.125 12.7252 107.065C12.7444 107.447 12.7664 107.829 12.7828 108.21C12.8405 109.457 12.8899 110.71 12.9778 111.943C13.008 112.369 13.0547 112.789 13.0987 113.209C12.8487 112.849 12.3846 112.201 12.3379 112.152C11.5963 111.328 9.68196 110.185 8.55312 110.693C8.3656 110.781 8.19899 110.909 8.06435 111.066C7.92971 111.224 7.83012 111.408 7.7722 111.607C7.71427 111.806 7.69933 112.015 7.72837 112.22C7.75742 112.425 7.82977 112.622 7.94064 112.797C8.37734 113.555 9.39357 113.909 10.212 114.011C11.0305 114.113 12.6592 113.64 13.1124 113.503Z" fill="#263238"/>
<path d="M10.0665 95.9908C10.0665 95.9908 11.9643 94.9307 12.5384 94.1452C13.0245 93.4777 13.4557 92.4972 13.2003 91.6568C13.1471 91.458 13.0526 91.2728 12.9231 91.113C12.7935 90.9532 12.6317 90.8226 12.4482 90.7295C12.2647 90.6365 12.0637 90.5832 11.8582 90.5731C11.6528 90.5629 11.4475 90.5962 11.2557 90.6708C10.1132 91.1514 9.65173 93.3322 9.74511 94.4336C9.74786 94.5324 10.0472 96.0018 10.0665 95.9908Z" fill="#263238"/>
<path d="M54.8711 22.8633H119.863V99.8275C119.863 100.511 119.592 101.166 119.108 101.649C118.625 102.132 117.97 102.404 117.287 102.404H57.4501C56.7668 102.404 56.1116 102.132 55.6284 101.649C55.1453 101.166 54.8738 100.511 54.8738 99.8275V22.8633H54.8711Z" fill="#263238" stroke="#263238" stroke-width="0.25" stroke-linecap="round" stroke-linejoin="round"/>
<path d="M53.5115 21.6738H118.503V98.6381C118.503 99.3213 118.232 99.9766 117.749 100.46C117.266 100.943 116.61 101.214 115.927 101.214H56.0905C55.4072 101.214 54.7519 100.943 54.2688 100.46C53.7856 99.9766 53.5142 99.3213 53.5142 98.6381V21.6738H53.5115Z" fill="white" stroke="#263238" stroke-width="0.25" stroke-miterlimit="10"/>
<path d="M115.974 21.6738V101.214H116.111C116.746 101.214 117.354 100.962 117.803 100.514C118.251 100.065 118.503 99.4566 118.503 98.8221V21.6738H115.974Z" fill="white" stroke="#263238" stroke-width="0.25" stroke-miterlimit="10"/>
<path d="M118.503 42.8506H115.974V59.2778H118.503V42.8506Z" fill="white" stroke="#263238" stroke-width="0.25" stroke-miterlimit="10"/>
<path d="M118.503 21.6738H53.5115V27.2988H118.503V21.6738Z" fill="#263238" stroke="#263238" stroke-width="0.25" stroke-miterlimit="10"/>
<path d="M111.385 24.5446C111.385 24.3848 111.338 24.2284 111.25 24.0952C111.161 23.9621 111.035 23.8582 110.888 23.7966C110.74 23.7351 110.578 23.7187 110.421 23.7496C110.264 23.7804 110.12 23.8571 110.007 23.9699C109.894 24.0827 109.817 24.2266 109.785 24.3833C109.754 24.54 109.77 24.7025 109.831 24.8502C109.892 24.998 109.995 25.1242 110.128 25.2131C110.261 25.3019 110.417 25.3494 110.577 25.3494C110.791 25.3494 110.996 25.2647 111.147 25.1138C111.298 24.963 111.384 24.7583 111.385 24.5446Z" fill="white" stroke="#263238" stroke-width="0.25" stroke-miterlimit="10"/>
<path d="M113.109 25.3478C113.554 25.3478 113.914 24.9875 113.914 24.543C113.914 24.0986 113.554 23.7383 113.109 23.7383C112.665 23.7383 112.304 24.0986 112.304 24.543C112.304 24.9875 112.665 25.3478 113.109 25.3478Z" fill="white" stroke="#263238" stroke-width="0.25" stroke-miterlimit="10"/>
<path d="M115.642 25.3478C116.086 25.3478 116.446 24.9875 116.446 24.543C116.446 24.0986 116.086 23.7383 115.642 23.7383C115.197 23.7383 114.837 24.0986 114.837 24.543C114.837 24.9875 115.197 25.3478 115.642 25.3478Z" fill="white" stroke="#263238" stroke-width="0.25" stroke-miterlimit="10"/>
<path d="M82.8695 84.5375C76.9232 80.967 72.2376 76.6439 68.9472 71.6946C66.4258 67.9016 65.6513 65.0863 65.5167 64.5535L65.3519 63.8888V38.6067L85.7534 29.8809L106.155 38.6067V63.8971L105.987 64.5617C105.858 65.0863 105.081 67.9016 102.557 71.7028C99.261 76.6466 94.5919 80.9725 88.6373 84.5457L85.7534 86.2761L82.8695 84.5375Z" fill="#CFCFCF" stroke="white" stroke-width="0.25" stroke-linecap="round" stroke-linejoin="round"/>
<path d="M84.3115 82.1344C70.8945 74.0787 68.3375 64.2982 68.2358 63.8862L68.1534 63.5539V40.4553L85.7534 32.9297L103.353 40.4553V63.5539L103.271 63.8862C103.169 64.2982 100.61 74.0787 87.1954 82.1344L85.7534 82.9968L84.3115 82.1344Z" fill="white"/>
<path d="M85.7535 36.0684L70.9523 42.1767V63.2209C70.9523 63.2209 73.1797 72.1912 85.7535 79.7415C98.3273 72.1829 100.552 63.2209 100.552 63.2209V42.1767L85.7535 36.0684Z" fill="url(#paint0_linear_1924_9895)"/>
<path d="M93.0113 61.4121C97.1033 57.3201 97.1033 50.6857 93.0113 46.5938C88.9193 42.5018 82.285 42.5018 78.193 46.5938C74.101 50.6857 74.101 57.3201 78.193 61.4121C82.285 65.5041 88.9193 65.5041 93.0113 61.4121Z" fill="white"/>
<path d="M89.5154 51.2624C90.0549 49.1035 88.7421 46.916 86.5832 46.3765C84.4243 45.8371 82.2369 47.1499 81.6974 49.3088C81.1579 51.4676 82.4707 53.6551 84.6296 54.1946C86.7885 54.734 88.9759 53.4212 89.5154 51.2624Z" fill="#263238"/>
<path d="M85.6025 64.4814C88.2914 64.4852 90.878 63.4512 92.8232 61.5947C92.6132 59.8276 91.7623 58.1989 90.4318 57.0171C89.1012 55.8353 87.3834 55.1826 85.6039 55.1826C83.8243 55.1826 82.1065 55.8353 80.776 57.0171C79.4454 58.1989 78.5946 59.8276 78.3845 61.5947C80.329 63.4505 82.9146 64.4845 85.6025 64.4814Z" fill="#263238"/>
<path opacity="0.19" d="M88.6374 84.5375C94.5837 80.967 99.2666 76.6439 102.557 71.6946C105.081 67.9016 105.853 65.0863 105.987 64.5535L106.155 63.8888V38.6067L85.7535 29.8809V86.2678L88.6374 84.5375Z" fill="black"/>
<path d="M60.9823 96.4226V89.6057H62.6742C63.0152 89.5894 63.3542 89.6663 63.6547 89.8281C63.8977 89.9797 64.0848 90.2063 64.1875 90.4736C64.3073 90.7996 64.3642 91.1454 64.3551 91.4925C64.3626 91.8141 64.2979 92.1332 64.1656 92.4264C64.0503 92.6818 63.8583 92.8949 63.6163 93.0361C63.3321 93.188 63.0127 93.262 62.6907 93.2503H61.9409V96.4226H60.9823ZM61.9326 92.5774H62.3693C62.5892 92.5851 62.8087 92.5535 63.0175 92.4841C63.0929 92.4558 63.1617 92.4125 63.2197 92.3567C63.2778 92.301 63.3239 92.2341 63.3553 92.16C63.4314 91.9517 63.4659 91.7306 63.457 91.509C63.4643 91.2571 63.4403 91.0052 63.3855 90.7592C63.3656 90.6804 63.3284 90.607 63.2766 90.5443C63.2248 90.4816 63.1598 90.4312 63.0862 90.3967C62.8587 90.3176 62.6181 90.2831 62.3776 90.295H61.9326V92.5774Z" fill="#263238"/>
<path d="M65.0197 96.4219V89.6049H66.3929C66.7764 89.5933 67.1586 89.6548 67.519 89.7862C67.8027 89.8941 68.0378 90.1009 68.1809 90.3684C68.3367 90.6945 68.4102 91.0538 68.3952 91.4149C68.3981 91.6574 68.3695 91.8993 68.31 92.1345C68.2611 92.336 68.1672 92.5238 68.0354 92.6838C67.9067 92.835 67.7383 92.9473 67.5492 93.0079L68.516 96.4246H67.5987L66.717 93.2249H65.9782V96.4219H65.0197ZM65.9727 92.5437H66.3325C66.5557 92.5504 66.7782 92.516 66.9889 92.4421C67.1528 92.3793 67.2858 92.2552 67.3597 92.096C67.4489 91.8805 67.4892 91.6479 67.4778 91.4149C67.5038 91.1109 67.4264 90.807 67.2581 90.5525C67.1125 90.3767 66.8241 90.2778 66.3929 90.2778H65.9727V92.5437Z" fill="#263238"/>
<path d="M69.4388 96.4234V89.6064H70.3727V96.4234H69.4388Z" fill="#263238"/>
<path d="M72.6606 96.4234L71.139 89.6064H72.0289L73.1083 94.6299L74.1328 89.6064H75.0007L73.4956 96.4234H72.6606Z" fill="#263238"/>
<path d="M75.1188 96.4234L76.5662 89.6064H77.4836L78.9392 96.4234H78.0384L77.728 94.7068H76.33L76.0032 96.4234H75.1188ZM76.4646 94.0257H77.6017L77.0276 90.9605L76.4646 94.0257Z" fill="#263238"/>
<path d="M81.3042 96.4967C80.9067 96.5219 80.512 96.4158 80.1808 96.1946C79.913 95.987 79.7201 95.6977 79.6315 95.3706C79.5253 94.9983 79.4735 94.6125 79.4777 94.2253V91.8193C79.4712 91.413 79.523 91.0079 79.6315 90.6163C79.7193 90.2963 79.9129 90.0155 80.1808 89.8198C80.5182 89.6152 80.9104 89.5193 81.3042 89.5452C81.6575 89.5264 82.009 89.6083 82.3177 89.7814C82.5717 89.937 82.7653 90.1742 82.867 90.4543C82.9844 90.7922 83.0403 91.1485 83.0318 91.5062V92.0555H82.1309V91.5749C82.1322 91.3518 82.1194 91.1289 82.0924 90.9075C82.0797 90.7375 82.0067 90.5778 81.8865 90.457C81.7259 90.3339 81.5248 90.276 81.3234 90.295C81.1119 90.2767 80.9012 90.3385 80.7329 90.468C80.6002 90.5992 80.5159 90.7716 80.4939 90.9569C80.4553 91.2003 80.4369 91.4465 80.439 91.693V94.3928C80.4296 94.6701 80.4582 94.9473 80.5242 95.2168C80.5599 95.3878 80.6577 95.5395 80.7988 95.6425C80.9572 95.7335 81.1382 95.7773 81.3207 95.7689C81.4191 95.7777 81.5183 95.7669 81.6126 95.7372C81.7069 95.7075 81.7943 95.6595 81.87 95.5958C81.9889 95.4641 82.0621 95.2974 82.0787 95.1207C82.1105 94.8868 82.1252 94.6509 82.1227 94.4148V93.9094H83.0235V94.4148C83.0298 94.7868 82.9779 95.1575 82.8697 95.5134C82.7839 95.8115 82.6013 96.0724 82.3506 96.255C82.035 96.4412 81.6695 96.5256 81.3042 96.4967Z" fill="#263238"/>
<path d="M84.9706 96.4234V94.0174L83.4984 89.6064H84.3828L85.4265 92.9023L86.4537 89.6064H87.3436L85.8797 94.0174V96.4234H84.9706Z" fill="#263238"/>
<path d="M89.9036 96.4228V89.6058H91.5927C91.9337 89.5888 92.2729 89.6658 92.5732 89.8283C92.8177 89.9789 93.0058 90.2057 93.1088 90.4737C93.2286 90.7998 93.2854 91.1455 93.2763 91.4927C93.2839 91.8143 93.2191 92.1334 93.0868 92.4266C92.9702 92.681 92.7785 92.8938 92.5375 93.0363C92.2532 93.1879 91.9339 93.2617 91.6119 93.2505H90.8621V96.4228H89.9036ZM90.8539 92.5776H91.2906C91.5105 92.5853 91.73 92.5536 91.9388 92.4842C92.0141 92.4559 92.0829 92.4126 92.141 92.3569C92.1991 92.3012 92.2452 92.2342 92.2766 92.1601C92.3516 91.9517 92.3852 91.7305 92.3755 91.5092C92.3842 91.2572 92.3602 91.0052 92.3041 90.7594C92.2861 90.6801 92.2499 90.6061 92.1985 90.5432C92.147 90.4802 92.0816 90.4302 92.0074 90.3968C91.7799 90.318 91.5393 90.2835 91.2988 90.2952H90.8539V92.5776Z" fill="#263238"/>
<path d="M95.6822 96.4977C95.297 96.5154 94.9151 96.4199 94.5836 96.2231C94.3054 96.0416 94.0979 95.7701 93.9958 95.454C93.8702 95.0761 93.8098 94.6795 93.8173 94.2812V91.7022C93.8082 91.3091 93.8696 90.9175 93.9985 90.5459C94.1067 90.2396 94.3147 89.9784 94.5891 89.8044C94.9242 89.6181 95.3048 89.5296 95.6877 89.5489C96.0714 89.5277 96.4531 89.6184 96.7863 89.8098C97.057 89.9854 97.2625 90.2449 97.3713 90.5487C97.499 90.9195 97.5595 91.3102 97.5499 91.7022V94.295C97.5583 94.6897 97.4979 95.0828 97.3713 95.4568C97.2642 95.7694 97.059 96.0391 96.7863 96.2258C96.4538 96.4249 96.0691 96.5196 95.6822 96.4977ZM95.6822 95.7507C95.8857 95.765 96.0881 95.7098 96.2562 95.5941C96.3894 95.4816 96.4812 95.328 96.5171 95.1574C96.564 94.94 96.5861 94.7179 96.5831 94.4955V91.51C96.5865 91.2903 96.5644 91.0709 96.5171 90.8563C96.481 90.6904 96.3889 90.542 96.2562 90.4361C96.0806 90.3387 95.883 90.2876 95.6822 90.2876C95.4813 90.2876 95.2838 90.3387 95.1082 90.4361C94.9682 90.5377 94.8705 90.6873 94.8335 90.8563C94.7863 91.0709 94.7642 91.2903 94.7676 91.51V94.4955C94.7645 94.7179 94.7866 94.94 94.8335 95.1574C94.8703 95.331 94.9677 95.4858 95.1082 95.5941C95.2763 95.7098 95.4786 95.765 95.6822 95.7507Z" fill="#263238"/>
<path d="M98.4755 96.4234V89.6064H99.4285V95.7423H101.17V96.4234H98.4755Z" fill="#263238"/>
<path d="M101.873 96.4234V89.6064H102.807V96.4234H101.873Z" fill="#263238"/>
<path d="M105.614 96.4967C105.216 96.5219 104.822 96.4158 104.49 96.1946C104.223 95.987 104.03 95.6977 103.941 95.3706C103.833 94.9986 103.782 94.6126 103.787 94.2253V91.8193C103.779 91.413 103.831 91.0076 103.941 90.6163C104.029 90.2963 104.222 90.0155 104.49 89.8198C104.828 89.6152 105.22 89.5193 105.614 89.5452C105.967 89.5264 106.319 89.6083 106.627 89.7814C106.881 89.937 107.075 90.1742 107.177 90.4543C107.294 90.7922 107.35 91.1485 107.341 91.5062V92.0555H106.44V91.5749C106.442 91.3518 106.429 91.1289 106.402 90.9075C106.389 90.7375 106.316 90.5778 106.196 90.457C106.035 90.3339 105.834 90.276 105.633 90.295C105.421 90.2767 105.211 90.3385 105.042 90.468C104.91 90.5992 104.825 90.7716 104.804 90.9569C104.765 91.2003 104.746 91.4465 104.749 91.693V94.3928C104.739 94.6701 104.768 94.9473 104.834 95.2168C104.869 95.3878 104.967 95.5395 105.108 95.6425C105.267 95.7335 105.448 95.7773 105.63 95.7689C105.729 95.7777 105.828 95.7669 105.922 95.7372C106.016 95.7075 106.104 95.6595 106.18 95.5958C106.298 95.4641 106.372 95.2974 106.388 95.1207C106.42 94.8868 106.435 94.6509 106.432 94.4148V93.9094H107.333V94.4148C107.339 94.7868 107.287 95.1575 107.179 95.5134C107.094 95.8126 106.91 96.074 106.657 96.255C106.343 96.4417 105.978 96.5262 105.614 96.4967Z" fill="#263238"/>
<path d="M109.289 96.4234V94.0174L107.817 89.6064H108.701L109.745 92.9023L110.769 89.6064H111.662L110.198 94.0174V96.4234H109.289Z" fill="#263238"/>
<path d="M46.7659 92.3623C46.7659 92.3623 46.4254 97.4737 47.1614 100.028C47.8975 102.582 52.5584 114.739 52.5584 114.739C52.5584 114.739 52.671 116.895 52.5008 117.123C52.3305 117.351 51.534 118.6 50.4573 119.111C49.3807 119.622 47.1065 120.927 47.6174 121.097C48.1282 121.267 52.671 120.756 53.1819 120.984C53.6928 121.212 55.9642 120.303 56.5327 120.075C57.1012 119.847 56.5327 118.427 56.5327 118.427C55.8426 116.072 55.2742 113.683 54.8298 111.27C54.319 108.147 53.5225 103.832 53.0693 101.673C52.7809 100.346 52.3423 99.0559 51.7619 97.828L52.3305 92.4914L46.7659 92.3623Z" fill="white" stroke="#263238" stroke-width="0.25" stroke-miterlimit="10"/>
<path d="M51.1934 119.849L50.6111 119.025C50.5589 119.055 50.5095 119.082 50.4573 119.107C49.3779 119.618 47.1065 120.922 47.6174 121.093C48.1282 121.263 52.671 120.752 53.1819 120.98C53.6928 121.208 55.9642 120.299 56.5327 120.071C57.1012 119.843 56.5327 118.423 56.5327 118.423C56.5327 118.423 56.475 118.231 56.3816 117.898C55.6038 118.246 54.8722 118.689 54.2036 119.217C53.0116 120.247 51.1934 119.849 51.1934 119.849Z" fill="#263238" stroke="#263238" stroke-width="0.25" stroke-miterlimit="10"/>
<path d="M50.3722 92.7604C50.3722 92.7604 50.8254 97.9789 51.5065 99.8026C52.1877 101.626 52.1877 114 52.1877 115.021C52.1877 116.043 50.5397 117.691 50.5397 117.691C50.5397 117.691 47.6998 119.792 46.906 120.02C46.1123 120.248 45.4861 120.531 45.8816 120.872C46.2771 121.212 50.1992 121.212 51.5615 121.212C52.9238 121.212 54.6843 121.267 54.8573 120.984C54.997 120.618 55.0893 120.236 55.132 119.847C55.132 119.847 54.7914 116.669 54.904 115.249C55.0166 113.829 57.0628 105.197 56.8925 102.302C56.7531 100.378 56.4097 98.4738 55.8681 96.6221C55.8131 96.3941 56.2663 92.4775 56.2663 92.4775L50.3722 92.7604Z" fill="white" stroke="#263238" stroke-width="0.25" stroke-miterlimit="10"/>
<path d="M55.143 119.847C55.143 119.847 55.1265 119.712 55.1045 119.484C52.553 119.682 49.2351 119.847 49.2351 119.847L48.8506 118.886C48.087 119.402 47.2768 119.913 46.9088 120.02C46.1123 120.245 45.4888 120.531 45.8843 120.872C46.2798 121.212 50.2019 121.212 51.5642 121.212C52.9265 121.212 54.687 121.267 54.8601 120.984C55.0026 120.619 55.0977 120.237 55.143 119.847Z" fill="#263238" stroke="#263238" stroke-width="0.25" stroke-miterlimit="10"/>
<path d="M44.7582 78.7537C44.7582 78.7537 44.36 82.8488 44.5303 84.6671C44.7006 86.4853 45.1757 95.5105 45.1757 95.5105C45.1757 95.5105 48.3974 97.4935 51.2978 97.6638C54.1982 97.8341 58.5789 96.2905 58.5789 96.2905C58.5789 96.2905 59.5457 85.5789 58.9772 82.7252C58.4087 79.8716 58.123 78.5175 58.123 78.5175C58.123 78.5175 50.4326 78.1193 48.4551 77.6084C46.4776 77.0975 45.9832 76.8064 45.9832 76.8064L45.3295 76.7295L44.7582 78.7537Z" fill="#263238" stroke="#263238" stroke-width="0.25" stroke-linecap="round" stroke-linejoin="round"/>
<path d="M45.9531 77.6937C45.9531 77.6937 48.9112 79.1136 53.2892 78.5451L53.0145 70.2422L54.9509 57.6712L51.8225 57.5586L48.2959 58.811L46.1921 74.7411L45.9531 77.6937Z" fill="white" stroke="#263238" stroke-width="0.25" stroke-linecap="round" stroke-linejoin="round"/>
<path d="M48.7683 56.3248C48.7683 56.3248 48.0075 59.7662 48.1421 60.2111C48.2766 60.6561 49.6609 63.0264 50.6002 62.8478C51.5396 62.6693 53.55 59.4064 53.8192 58.7829C54.0884 58.1595 53.5446 57.0828 53.5061 56.8603C53.4676 56.6379 52.9238 54.3115 52.9238 54.3115C52.9238 54.3115 50.787 56.1462 48.7683 56.3248Z" fill="white" stroke="#263238" stroke-width="0.25" stroke-linecap="round" stroke-linejoin="round"/>
<path d="M49.032 58.4072C49.032 58.4072 48.208 65.1226 48.1613 67.7455C48.1146 70.3685 46.6233 82.3545 46.6233 82.3545C46.6233 82.3545 46.42 82.7116 45.0852 82.3023C44.3012 82.0683 43.6056 81.6043 43.0884 80.9703C43.0884 80.9703 45.3928 72.3598 45.445 71.9505C45.4972 71.5413 45.0357 67.5423 45.0357 67.5423L40.4215 71.5386C40.4215 71.5386 40.5259 69.3852 40.9351 68.9238C41.3444 68.4624 44.4205 62.7221 44.6759 62.159C44.9314 61.596 44.6238 59.9041 45.5466 59.3905C46.4694 58.8769 49.032 58.4072 49.032 58.4072Z" fill="url(#paint1_linear_1924_9895)" stroke="#263238" stroke-width="0.25" stroke-linecap="round" stroke-linejoin="round"/>
<path d="M44.5579 76.9707L46.5079 77.6189L46.4365 78.1243L44.7007 77.6931" stroke="#263238" stroke-width="0.25" stroke-linecap="round" stroke-linejoin="round"/>
<path d="M47.9058 70.6563C47.9058 70.6563 47.0818 62.7105 47.1889 60.917L47.9058 70.6563Z" fill="white"/>
<path d="M47.9058 70.6563C47.9058 70.6563 47.0818 62.7105 47.1889 60.917" stroke="#263238" stroke-width="0.25" stroke-linecap="round" stroke-linejoin="round"/>
<path d="M53.7477 58.0037C53.7477 58.0037 50.9297 67.6386 50.9297 69.8414C50.9297 72.0441 51.479 82.8271 51.479 82.8271C51.479 82.8271 54.0306 83.5907 56.0301 83.3325C58.0296 83.0743 60.6992 81.94 60.6992 81.94L57.9829 73.8404C57.9829 73.8404 62.3224 63.4803 62.3224 62.7635C62.3224 62.0466 62.8855 60.7145 62.3224 60.3547C61.7594 59.9949 56.8897 58.3552 56.2223 58.0476C55.5549 57.74 54.5689 57.2786 53.7477 58.0037Z" fill="url(#paint2_linear_1924_9895)" stroke="#263238" stroke-width="0.25" stroke-linecap="round" stroke-linejoin="round"/>
<path d="M57.9939 77.9082L53.2891 78.5454L53.5884 79.2101L56.2608 78.9217" stroke="#263238" stroke-width="0.25" stroke-linecap="round" stroke-linejoin="round"/>
<path d="M56.4312 58.1403C56.3378 58.1018 56.2581 58.0716 56.2087 58.0469C55.5413 57.7393 54.5608 57.2778 53.7368 57.9974C53.7368 57.9974 50.9188 67.6324 50.9188 69.8351C50.9188 70.2032 50.949 70.8074 51.0012 71.5572C51.2319 70.7855 51.7538 69.5797 52.7123 67.1188C53.9703 63.9218 55.7885 59.6509 56.4312 58.1403Z" fill="url(#paint3_linear_1924_9895)" stroke="#263238" stroke-width="0.25" stroke-linecap="round" stroke-linejoin="round"/>
<path d="M46.5242 44.9962C46.5242 44.9962 43.72 46.8639 43.5497 48.2234C43.3794 49.583 43.5057 50.3904 43.5057 51.7088C43.5057 53.0272 42.7834 57.147 43.4645 58.6768C44.1457 60.2067 45.1125 61.5662 46.4857 61.948C47.859 62.3298 48.6967 61.9919 49.0346 61.6514C49.2854 61.3602 49.4867 61.0299 49.6306 60.6736C49.6306 60.6736 48.9082 60.7587 48.9082 59.91C48.9082 59.0614 49.7157 56.4686 49.7157 56.4686C49.7157 56.4686 47.8892 55.532 47.5487 54.6394C47.2081 53.7467 46.1891 49.0309 46.2743 48.6491C46.3594 48.2674 47.8892 47.4159 47.9222 46.3557C47.9552 45.2956 47.2877 44.6556 46.5242 44.9962Z" fill="#263238" stroke="#263238" stroke-width="0.25" stroke-linecap="round" stroke-linejoin="round"/>
<path d="M46.2689 46.8624C46.2689 46.8624 45.5465 48.4362 45.758 49.7106C45.9695 50.985 46.3952 53.1932 46.6095 54.0858C46.8237 54.9785 47.9251 55.9563 48.4771 56.4671C49.0292 56.978 50.007 57.6976 50.7293 57.5273C51.4516 57.357 52.5146 55.6047 52.5146 55.6047C52.5146 55.6047 53.3633 54.6269 53.5775 53.7782C53.7917 52.9295 53.0666 51.4409 52.5997 49.8699C52.3753 49.0323 51.9294 48.2707 51.3088 47.6651C50.6882 47.0595 49.9159 46.6323 49.0731 46.4284C47.1615 45.9697 46.5655 46.5658 46.2689 46.8624Z" fill="white" stroke="#263238" stroke-width="0.25" stroke-linecap="round" stroke-linejoin="round"/>
<path d="M47.8838 51.3682C47.8838 51.3682 48.477 52.3459 48.4331 52.6426C48.3892 52.9392 48.0925 54.2164 48.2628 54.2905C48.4331 54.3647 49.0264 54.2466 49.0264 54.2466" stroke="#263238" stroke-width="0.25" stroke-linecap="round" stroke-linejoin="round"/>
<path d="M49.0291 55.1495C49.0291 55.1495 49.9217 55.2346 50.677 54.2568" stroke="#263238" stroke-width="0.25" stroke-linecap="round" stroke-linejoin="round"/>
<path d="M47.5845 51.3252C47.5845 51.3252 46.8621 51.0258 46.5243 51.6218" stroke="#263238" stroke-width="0.25" stroke-linecap="round" stroke-linejoin="round"/>
<path d="M48.7765 51.1556C48.7765 51.1556 48.9028 50.5596 49.9658 50.8562" stroke="#263238" stroke-width="0.25" stroke-linecap="round" stroke-linejoin="round"/>
<path d="M49.9629 51.96C50.0398 52.1825 49.9932 52.3995 49.8586 52.4462C49.724 52.4929 49.5565 52.35 49.4795 52.1276C49.4026 51.9051 49.4493 51.6881 49.5839 51.6414C49.7185 51.5947 49.8751 51.7431 49.9629 51.96Z" fill="#263238"/>
<path d="M47.6696 52.3869C47.7465 52.6094 47.6999 52.8264 47.568 52.873C47.4362 52.9197 47.2659 52.7769 47.189 52.5544C47.1121 52.332 47.1588 52.115 47.2906 52.0683C47.4225 52.0216 47.5955 52.1672 47.6696 52.3869Z" fill="#263238"/>
<path d="M45.8019 46.6076C45.8019 46.6076 47.4993 49.0795 49.1994 50.1781C50.8996 51.2767 52.5557 51.5514 52.5997 52.5566C52.6436 53.5619 51.8334 55.8717 52.4733 57.5279C53.1133 59.1841 54.2998 59.7801 55.956 59.4505C57.6122 59.1209 58.3785 57.5801 58.3785 57.5801C58.3785 57.5801 57.4446 58.2173 57.1453 57.495C56.8459 56.7726 56.1675 55.7097 57.0189 53.9684C57.8703 52.2271 58.3785 51.4196 56.8074 48.5302C55.2364 45.6408 53.3632 43.9736 51.8856 43.3364C50.4079 42.6992 45.758 43.7209 45.8019 46.6076Z" fill="#263238" stroke="#263238" stroke-width="0.25" stroke-linecap="round" stroke-linejoin="round"/>
<path d="M45.1784 70.3471L44.9806 68.3613L44.2253 69.1166L45.1784 70.3471Z" fill="white" stroke="#263238" stroke-width="0.25" stroke-linecap="round" stroke-linejoin="round"/>
<path d="M43.0225 65.4424L43.8464 66.541L43.2065 67.527C43.2065 67.527 43.1186 67.6451 43.5553 68.351C43.8604 68.82 44.2109 69.2579 44.6017 69.6583C44.6017 69.6583 45.9915 66.7333 46.0959 66.2059C46.2002 65.6786 43.7723 62.5859 43.7723 62.5859C43.7723 62.5859 42.9373 64.1927 43.0225 65.4424Z" fill="white" stroke="#263238" stroke-width="0.25" stroke-linecap="round" stroke-linejoin="round"/>
<path d="M40.6934 59.8522L44.8022 64.7329L47.5268 64.9087L43.6294 59.7451L40.6934 59.8522Z" fill="white" stroke="#263238" stroke-width="0.25" stroke-linecap="round" stroke-linejoin="round"/>
<path d="M42.8 62.626C42.8 62.626 42.2864 62.9418 42.4072 63.2192C42.5281 63.4966 43.3932 64.1256 44.0249 64.2053C44.6566 64.2849 44.3463 63.9004 44.3435 63.6971C44.3408 63.4939 42.8 62.626 42.8 62.626Z" fill="white" stroke="#263238" stroke-width="0.25" stroke-linecap="round" stroke-linejoin="round"/>
<path d="M42.605 63.5352C42.605 63.5352 42.2095 63.9691 42.3303 64.285C42.4512 64.6008 43.9508 65.0348 44.2255 65.076C44.3003 65.0896 44.3775 65.0757 44.4429 65.037C44.5083 64.9982 44.5575 64.9372 44.5816 64.8651C44.6056 64.793 44.6028 64.7146 44.5737 64.6444C44.5447 64.5741 44.4912 64.5167 44.4232 64.4827C44.025 64.2053 42.605 63.5352 42.605 63.5352Z" fill="white" stroke="#263238" stroke-width="0.25" stroke-linecap="round" stroke-linejoin="round"/>
<path d="M42.6433 64.6807C42.6433 64.6807 42.5252 65.23 42.7998 65.4305C43.0745 65.631 44.3571 65.4799 44.5686 65.3975C44.7801 65.3151 44.2226 65.0762 44.2226 65.0762L42.6433 64.6807Z" fill="white" stroke="#263238" stroke-width="0.25" stroke-linecap="round" stroke-linejoin="round"/>
<path d="M51.0041 67.2289L49.4825 65.798C49.4825 65.798 48.9909 64.1501 48.7684 63.6529C48.5459 63.1558 48.3674 63.0267 47.8291 62.5351C47.2907 62.0434 46.9364 62.2604 46.8458 62.5818L46.7579 62.8949C46.7579 62.8949 44.1652 62.7603 43.7642 62.5818C43.3632 62.4032 42.9155 61.9995 42.6903 62.2687C42.465 62.5378 42.7809 62.8949 43.1379 63.1173C43.5117 63.3643 43.9174 63.5592 44.3437 63.6969C44.7007 63.7875 45.1484 63.8754 45.1484 63.8754L43.2725 63.6007C43.2488 63.6804 43.249 63.7652 43.2729 63.8447C43.2968 63.9243 43.3434 63.9951 43.4071 64.0484L43.9866 64.628C44.1426 64.9086 44.3388 65.1649 44.5689 65.3888C44.8075 65.5949 45.0761 65.7634 45.3654 65.8886C45.7417 66.0672 46.0878 66.1935 46.0878 66.1935C45.7434 66.1919 45.3998 66.1616 45.0605 66.1029C44.6128 66.0122 44.2091 65.7898 44.2558 66.1029C44.3025 66.416 44.6128 66.5505 45.1045 66.6384C45.5961 66.7263 47.6972 66.9955 47.8758 67.0422C48.0543 67.0889 50.3779 69.2394 50.3779 69.2394L51.0041 67.2289Z" fill="white" stroke="#263238" stroke-width="0.25" stroke-linecap="round" stroke-linejoin="round"/>
<path d="M46.7577 62.8945C47.1829 63.0151 47.5889 63.1954 47.9634 63.4301L46.7577 62.8945Z" fill="white"/>
<path d="M46.7577 62.8945C47.1829 63.0151 47.5889 63.1954 47.9634 63.4301" stroke="#263238" stroke-width="0.25" stroke-linecap="round" stroke-linejoin="round"/>
<path d="M45.1483 63.876L46.3101 64.1451" stroke="#263238" stroke-width="0.25" stroke-linecap="round" stroke-linejoin="round"/>
<path d="M43.9865 64.6367C43.9865 64.6367 45.4614 65.1284 46.2222 65.3069" stroke="#263238" stroke-width="0.25" stroke-linecap="round" stroke-linejoin="round"/>
<path d="M62.5533 60.958C62.2544 63.4135 61.7705 65.8428 61.1058 68.2254C60.0841 71.752 59.554 74.927 59.3425 75.1742C59.131 75.4214 56.8377 74.537 54.97 73.4082C53.1023 72.2793 49.3258 69.563 49.3258 69.563L50.9133 66.528L56.5218 69.8788C56.5218 69.8788 56.6976 69.4916 56.9448 69.4202C57.0925 69.3794 57.2346 69.3203 57.3678 69.2444L57.8978 62.4714" fill="url(#paint4_linear_1924_9895)"/>
<path d="M62.5533 60.958C62.2544 63.4135 61.7705 65.8428 61.1058 68.2254C60.0841 71.752 59.554 74.927 59.3425 75.1742C59.131 75.4214 56.8377 74.537 54.97 73.4082C53.1023 72.2793 49.3258 69.563 49.3258 69.563L50.9133 66.528L56.5218 69.8788C56.5218 69.8788 56.6976 69.4916 56.9448 69.4202C57.0925 69.3794 57.2346 69.3203 57.3678 69.2444L57.8978 62.4714" stroke="#263238" stroke-width="0.25" stroke-linecap="round" stroke-linejoin="round"/>
<path d="M43.1982 67.5312L45.1785 70.3465C45.1785 70.3465 44.5825 72.1729 43.9865 72.8871C43.3905 73.6012 41.4459 73.9198 40.8114 73.1617C40.177 72.4037 40.3335 71.2556 40.6933 70.6211C41.0531 69.9867 43.1982 67.5312 43.1982 67.5312Z" fill="url(#paint5_linear_1924_9895)" stroke="#263238" stroke-width="0.25" stroke-linecap="round" stroke-linejoin="round"/>
<path d="M0.123779 121.215H122.879" stroke="#263238" stroke-width="0.25" stroke-miterlimit="10"/>
<defs>
<linearGradient id="paint0_linear_1924_9895" x1="85.7521" y1="36.0684" x2="85.7521" y2="79.7415" gradientUnits="userSpaceOnUse">
<stop stop-color="#D7D069"/>
<stop offset="1" stop-color="#A29D50"/>
</linearGradient>
<linearGradient id="paint1_linear_1924_9895" x1="44.7267" y1="58.4072" x2="44.7267" y2="82.4988" gradientUnits="userSpaceOnUse">
<stop stop-color="#D7D069"/>
<stop offset="1" stop-color="#A29D50"/>
</linearGradient>
<linearGradient id="paint2_linear_1924_9895" x1="56.7512" y1="57.6172" x2="56.7512" y2="83.3858" gradientUnits="userSpaceOnUse">
<stop stop-color="#D7D069"/>
<stop offset="1" stop-color="#A29D50"/>
</linearGradient>
<linearGradient id="paint3_linear_1924_9895" x1="53.675" y1="57.6152" x2="53.675" y2="71.5572" gradientUnits="userSpaceOnUse">
<stop stop-color="#D7D069"/>
<stop offset="1" stop-color="#A29D50"/>
</linearGradient>
<linearGradient id="paint4_linear_1924_9895" x1="55.9395" y1="60.958" x2="55.9395" y2="75.216" gradientUnits="userSpaceOnUse">
<stop stop-color="#D7D069"/>
<stop offset="1" stop-color="#A29D50"/>
</linearGradient>
<linearGradient id="paint5_linear_1924_9895" x1="42.7789" y1="67.5312" x2="42.7789" y2="73.5982" gradientUnits="userSpaceOnUse">
<stop stop-color="#D7D069"/>
<stop offset="1" stop-color="#A29D50"/>
</linearGradient>
</defs>
</svg>
