<svg width="128" height="121" viewBox="0 0 128 121" fill="none" xmlns="http://www.w3.org/2000/svg">
<path d="M118.111 67.4241C116.644 59.6829 111.901 54.0285 105.729 49.4814C101.323 46.2334 97.7451 41.9859 94.6755 37.4623C90.3876 31.1381 86.83 23.2253 79.8966 19.3143C70.035 13.7541 60.5538 21.3169 52.5602 26.6516C48.3665 29.4519 43.8934 32.3734 38.8179 33.1811C31.5816 34.3389 24.2342 31.1617 17.0585 33.0734C15.6649 33.1365 14.2948 33.4548 13.0162 34.0125C13.0162 34.0125 3.92874 37.0416 1.23616 52.524C-1.45643 68.0063 0.899585 91.2299 13.6894 104.693C26.4791 118.156 36.5763 119.839 43.3078 120.175C43.4929 120.175 43.6746 120.175 43.8564 120.175C48.3227 120.848 53.617 120.512 59.6753 118.829C79.1562 113.417 78.0724 100.97 95.3891 98.2642C112.706 95.5582 121.086 83.1151 118.111 67.4241Z" fill="#92E3A9"/>
<path opacity="0.7" d="M118.111 67.4241C116.644 59.6829 111.901 54.0285 105.729 49.4814C101.323 46.2334 97.7451 41.9859 94.6755 37.4623C90.3876 31.1381 86.83 23.2253 79.8966 19.3143C70.035 13.7541 60.5538 21.3169 52.5602 26.6516C48.3665 29.4519 43.8934 32.3734 38.8179 33.1811C31.5816 34.3389 24.2342 31.1617 17.0585 33.0734C15.6649 33.1365 14.2948 33.4548 13.0162 34.0125C13.0162 34.0125 3.92874 37.0416 1.23616 52.524C-1.45643 68.0063 0.899585 91.2299 13.6894 104.693C26.4791 118.156 36.5763 119.839 43.3078 120.175C43.4929 120.175 43.6746 120.175 43.8564 120.175C48.3227 120.848 53.617 120.512 59.6753 118.829C79.1562 113.417 78.0724 100.97 95.3891 98.2642C112.706 95.5582 121.086 83.1151 118.111 67.4241Z" fill="white"/>
<path d="M55.1282 6.96528C55.1282 6.96528 56.6697 5.74688 57.0669 4.96603C57.4035 4.29289 57.6458 3.35722 57.2991 2.65041C57.2243 2.47995 57.1143 2.32721 56.9764 2.20217C56.8385 2.07713 56.6758 1.98261 56.4988 1.92479C56.3218 1.86697 56.1347 1.84716 55.9495 1.86664C55.7644 1.88612 55.5855 1.94446 55.4244 2.03785C54.4719 2.63022 54.371 4.64293 54.6133 5.61226C54.6335 5.7065 55.1114 6.97874 55.1282 6.96528Z" fill="#92E3A9"/>
<path d="M40.8678 17.1132C40.9317 17.1738 42.0323 17.9714 42.0357 17.9512C42.0391 17.931 42.6516 16.0833 42.5507 15.2149C42.4631 14.4744 42.1468 13.5522 41.4669 13.1551C41.3103 13.0551 41.1343 12.9893 40.9505 12.962C40.7668 12.9348 40.5793 12.9466 40.4004 12.9968C40.2215 13.047 40.0553 13.1345 39.9125 13.2534C39.7697 13.3723 39.6537 13.52 39.572 13.6869C39.1041 14.7033 40.1307 16.44 40.8678 17.1132Z" fill="#92E3A9"/>
<path d="M73.1888 8.80957C73.1888 8.80957 67.5411 14.639 67.5714 21.7979C67.6017 28.9568 73.2932 34.7391 73.2932 34.7391C73.2932 34.7391 78.9408 28.9097 78.9106 21.7508C78.8803 14.5919 73.1888 8.80957 73.1888 8.80957Z" fill="#92E3A9"/>
<path d="M65.1378 26.0894C65.2108 26.0075 65.2783 25.9209 65.3398 25.8302C65.7504 25.2075 66.1004 24.3022 65.8379 23.5583C65.7822 23.381 65.6897 23.2174 65.5665 23.0782C65.4433 22.939 65.2921 22.8273 65.1229 22.7504C64.9536 22.6736 64.77 22.6333 64.5841 22.6321C64.3982 22.631 64.2142 22.6691 64.044 22.7438C63.2766 23.1073 62.903 24.3358 62.8222 25.3422C62.5159 25.2715 62.24 25.2176 62.001 25.1772C61.9 24.9517 61.799 24.7195 61.6947 24.5041C61.5904 24.2887 61.5062 24.0262 61.4086 23.7838C61.274 23.4271 61.1528 23.0501 61.0283 22.6765C61.4759 22.4746 62.7785 21.8687 63.2631 21.3302C63.7478 20.7917 64.2459 19.9334 64.0978 19.1593C64.0696 18.9756 64.003 18.7999 63.9024 18.6437C63.8017 18.4875 63.6693 18.3542 63.5137 18.2526C63.3581 18.151 63.1828 18.0833 62.9993 18.054C62.8158 18.0246 62.6282 18.0343 62.4486 18.0823C61.375 18.4189 60.7456 20.3171 60.722 21.3168C60.722 21.3504 60.722 21.5625 60.7624 21.8115C60.6547 21.4413 60.5436 21.0744 60.4494 20.6975C60.1734 19.6238 59.9243 18.5232 59.6719 17.4226C59.6214 17.1904 59.5642 16.9649 59.5103 16.7495C59.8873 16.5845 61.3009 15.9383 61.8091 15.3762C62.3174 14.8142 62.7953 13.9795 62.6472 13.2053C62.6186 13.0215 62.5516 12.8458 62.4506 12.6895C62.3496 12.5333 62.2168 12.4001 62.061 12.2985C61.9051 12.1969 61.7296 12.1293 61.5459 12.1C61.3622 12.0706 61.1744 12.0803 60.9946 12.1283C59.9243 12.4649 59.2949 14.3632 59.2714 15.3628C59.2714 15.3964 59.2916 15.6489 59.3185 15.9316C59.1704 15.3359 59.0189 14.7435 58.8507 14.1578C58.5648 13.1547 58.2118 12.1719 57.7938 11.2162C57.9285 11.159 59.6012 10.4354 60.1667 9.80933C60.6682 9.25735 61.1495 8.41255 61.0014 7.63843C60.9732 7.45474 60.9066 7.27906 60.8059 7.12283C60.7053 6.9666 60.5728 6.83334 60.4172 6.73172C60.2616 6.63011 60.0864 6.56242 59.9028 6.53307C59.7193 6.50372 59.5317 6.51338 59.3522 6.5614C58.2819 6.89797 57.6491 8.79624 57.6289 9.79587C57.6289 9.86655 57.7097 10.7787 57.7501 11.1051V11.0715C57.3185 10.1417 56.8037 9.25289 56.2119 8.41591C55.6935 7.66457 55.1316 6.9442 54.5291 6.25848C53.9737 5.61899 53.4251 5.06365 52.9371 4.57562C52.6678 4.31646 52.4188 4.08086 52.1865 3.86545H52.2101C52.2303 3.86545 51.685 2.61676 51.6413 2.54272C51.1431 1.67773 49.6656 0.304508 48.5717 0.52328C48.3914 0.568212 48.2225 0.650541 48.0761 0.76493C47.9296 0.879319 47.8089 1.02321 47.7216 1.18728C47.6343 1.35135 47.5825 1.53192 47.5695 1.7173C47.5565 1.90268 47.5826 2.08872 47.6462 2.26336C47.8919 3.01392 48.7198 3.51878 49.4266 3.76111C50.1334 4.00344 51.7254 3.89238 52.1192 3.85535C52.3582 4.08422 52.6106 4.33329 52.8832 4.60927C53.3612 5.10404 53.893 5.66948 54.4382 6.31907C54.5796 6.49072 54.7276 6.68593 54.8757 6.86768C54.5627 6.60852 54.1319 6.26185 54.0848 6.23156C53.2434 5.69641 51.298 5.15789 50.4397 5.87142C50.2995 5.99352 50.1867 6.14387 50.1086 6.31262C50.0306 6.48137 49.9891 6.66471 49.9869 6.85062C49.9847 7.03653 50.0218 7.22081 50.0957 7.39138C50.1697 7.56195 50.2789 7.71496 50.4161 7.84037C50.9782 8.39572 51.9509 8.45967 52.688 8.35197C53.4251 8.24426 54.832 7.37927 55.1315 7.18742C55.4513 7.59804 55.771 8.02886 56.0773 8.49669C56.6402 9.33731 57.1279 10.2259 57.5347 11.1523C57.5582 11.2061 57.5751 11.2633 57.5986 11.3172C57.4674 11.1623 56.6798 10.3714 56.6192 10.3075C55.8417 9.68143 53.9704 8.93087 53.0347 9.5468C52.8822 9.65315 52.7539 9.79044 52.6581 9.94972C52.5623 10.109 52.5011 10.2867 52.4785 10.4712C52.456 10.6557 52.4726 10.8429 52.5272 11.0205C52.5819 11.1982 52.6734 11.3624 52.7957 11.5023C53.2972 12.1149 54.2531 12.2865 54.9969 12.2596C55.8585 12.2293 57.5481 11.3744 57.6121 11.3441C57.9935 12.2779 58.3128 13.2358 58.5679 14.2117C58.7598 14.932 58.9281 15.6724 59.0863 16.4129C58.9113 16.2177 58.1809 15.4806 58.1203 15.4335C57.3428 14.8074 55.4715 14.0569 54.5358 14.6728C54.3834 14.7792 54.255 14.9164 54.1592 15.0757C54.0634 15.235 54.0022 15.4127 53.9796 15.5972C53.9571 15.7817 53.9737 15.9689 54.0283 16.1465C54.083 16.3242 54.1745 16.4884 54.2968 16.6283C54.7983 17.2409 55.7542 17.4125 56.498 17.3856C57.3395 17.3553 58.9617 16.5442 59.0997 16.4768C59.1738 16.8134 59.2445 17.15 59.3151 17.4866C59.544 18.5905 59.7695 19.7012 60.0219 20.7883C60.1094 21.1653 60.2104 21.5322 60.3114 21.9024C60.0354 21.6163 59.5272 21.1047 59.4801 21.0643C58.7026 20.4417 56.8279 19.6911 55.8956 20.3037C55.7431 20.41 55.6148 20.5473 55.519 20.7066C55.4231 20.8659 55.362 21.0435 55.3394 21.2281C55.3169 21.4126 55.3334 21.5997 55.3881 21.7774C55.4428 21.9551 55.5342 22.1192 55.6566 22.2592C56.1547 22.8717 57.1139 23.0467 57.8578 23.0164C58.6016 22.9862 59.9883 22.3433 60.3753 22.1481C60.5436 22.7607 60.7119 23.3665 60.9341 23.9521C61.0283 24.2045 61.1091 24.4671 61.2134 24.7027L61.3716 25.0763L61.1562 25.0561C61.1562 25.0561 61.1562 25.3927 61.173 25.9749C60.3518 25.3893 59.1536 24.8844 58.3963 25.2412C58.2298 25.3233 58.0825 25.4396 57.9639 25.5824C57.8453 25.7252 57.758 25.8913 57.7079 26.0701C57.6577 26.2488 57.6457 26.4361 57.6727 26.6198C57.6997 26.8034 57.7651 26.9794 57.8645 27.1361C57.9148 27.2205 57.9722 27.3005 58.0362 27.3751C58.1853 28.2378 58.5513 29.0486 59.0997 29.7311C59.1401 29.7816 59.6988 30.2965 59.9917 30.5523C59.7089 30.4009 59.4296 30.2494 59.1401 30.0878C58.7194 29.8522 58.2852 29.5931 57.8611 29.344L57.2082 28.93C56.9861 28.792 56.7875 28.6372 56.5721 28.4891C56.2624 28.2636 55.9528 28.0179 55.6465 27.7722C55.909 27.3616 56.6562 26.1365 56.7673 25.4162C56.8784 24.6959 56.8144 23.7064 56.2658 23.141C56.1414 23.0027 55.9894 22.892 55.8195 22.8163C55.6496 22.7406 55.4656 22.7015 55.2796 22.7015C55.0936 22.7015 54.9097 22.7406 54.7398 22.8163C54.5699 22.892 54.4178 23.0027 54.2935 23.141C53.5766 23.9992 54.1084 25.9446 54.63 26.7894C54.63 26.8164 54.7781 26.9846 54.9363 27.1799C54.6435 26.9308 54.3473 26.6851 54.0579 26.4226C53.2366 25.6821 52.4221 24.8979 51.6042 24.1204L51.0893 23.6357C51.3114 23.2992 52.136 21.9529 52.2505 21.2225C52.3649 20.4922 52.301 19.5127 51.749 18.9473C51.6246 18.8095 51.4728 18.6994 51.3032 18.624C51.1336 18.5486 50.9501 18.5096 50.7645 18.5096C50.5789 18.5096 50.3954 18.5486 50.2258 18.624C50.0562 18.6994 49.9044 18.8095 49.78 18.9473C49.0631 19.8055 49.5915 21.7509 50.1166 22.5957C50.1368 22.626 50.295 22.8246 50.47 23.0467C50.0224 22.6294 49.5646 22.2188 49.1035 21.825C48.3113 21.1463 47.4747 20.5212 46.5994 19.9536C46.6802 19.8325 47.6764 18.3044 47.801 17.4731C47.9154 16.7326 47.8515 15.7633 47.3028 15.1979C47.1768 15.0623 47.0242 14.9541 46.8546 14.8802C46.6849 14.8062 46.5018 14.7681 46.3167 14.7681C46.1316 14.7681 45.9485 14.8062 45.7788 14.8802C45.6091 14.9541 45.4565 15.0623 45.3305 15.1979C44.6136 16.0561 45.1454 18.0015 45.6671 18.8463C45.7041 18.9069 46.2763 19.6204 46.4917 19.856L46.4614 19.8358C45.588 19.3003 44.669 18.843 43.715 18.4693C42.8641 18.1317 41.9943 17.844 41.1099 17.6077C40.292 17.3789 39.528 17.2207 38.8515 17.086C38.488 17.0154 38.1514 16.9581 37.8418 16.9076H37.862C37.862 16.9076 36.7378 16.1537 36.6604 16.1167C35.7651 15.6724 33.776 15.3392 32.9951 16.1403C32.8693 16.277 32.7737 16.4387 32.7144 16.6148C32.6551 16.791 32.6334 16.9776 32.6509 17.1626C32.6683 17.3476 32.7245 17.5269 32.8157 17.6888C32.9069 17.8507 33.0311 17.9917 33.1802 18.1025C33.7995 18.5939 34.7689 18.5569 35.4925 18.3717C36.2161 18.1866 37.4816 17.2072 37.7913 16.9649C38.1279 17.0221 38.4644 17.0894 38.8448 17.1702C39.5179 17.3183 40.2718 17.5068 41.083 17.739C41.2984 17.8029 41.5273 17.8837 41.7561 17.9544C41.3522 17.9106 40.8003 17.8602 40.7464 17.8602C39.7367 17.8602 37.8283 18.4996 37.5052 19.5699C37.4561 19.7492 37.4452 19.9368 37.4734 20.1205C37.5017 20.3042 37.5683 20.4799 37.6689 20.6361C37.7696 20.7924 37.9021 20.9256 38.0577 21.0273C38.2133 21.1289 38.3886 21.1966 38.5721 21.2259C39.3463 21.3773 40.1944 20.8893 40.7498 20.3979C41.3051 19.9065 42.0018 18.4054 42.1466 18.0789C42.6379 18.2472 43.1563 18.4155 43.6544 18.6511C44.5916 19.04 45.4926 19.5107 46.347 20.058C46.3941 20.0916 46.4412 20.132 46.4917 20.1623C46.2965 20.1085 45.2026 19.8796 45.1252 19.8729C44.1155 19.7786 42.1533 20.1859 41.7157 21.2192C41.6477 21.392 41.6166 21.5772 41.6247 21.7628C41.6328 21.9483 41.6797 22.1302 41.7626 22.2964C41.8454 22.4627 41.9622 22.6097 42.1055 22.728C42.2487 22.8462 42.4152 22.933 42.5942 22.9828C43.3481 23.2184 44.2434 22.8313 44.8492 22.4005C45.5493 21.899 46.4883 20.2532 46.5321 20.1926C47.3636 20.7622 48.1573 21.3851 48.9083 22.0572C49.4704 22.552 50.0156 23.0669 50.5575 23.6088C50.3017 23.5415 49.2853 23.3295 49.2112 23.3227C48.2015 23.2319 46.2426 23.6391 45.8017 24.669C45.7337 24.8419 45.7026 25.0271 45.7107 25.2126C45.7188 25.3982 45.7657 25.58 45.8485 25.7463C45.9314 25.9126 46.0482 26.0596 46.1915 26.1778C46.3347 26.2961 46.5012 26.3829 46.6802 26.4327C47.4341 26.6683 48.3294 26.2846 48.9352 25.8504C49.6084 25.3624 50.5272 23.7872 50.6181 23.6559L51.3586 24.3796C52.1596 25.1772 52.9573 25.9783 53.7684 26.7356C54.0511 27.0015 54.3372 27.2539 54.6233 27.5063C54.2396 27.4188 53.5328 27.2707 53.4689 27.2674C52.476 27.1731 50.5003 27.5804 50.0594 28.6137C49.9913 28.7867 49.9605 28.9721 49.9687 29.1579C49.977 29.3437 50.0243 29.5256 50.1074 29.6919C50.1906 29.8582 50.3078 30.0052 50.4514 30.1233C50.5951 30.2413 50.7619 30.3279 50.9412 30.3773C51.6951 30.6095 52.587 30.2258 53.1929 29.795C53.7987 29.3642 54.5964 28.0516 54.8152 27.6813C55.2931 28.0987 55.7778 28.5026 56.2759 28.8762C56.4947 29.0344 56.7067 29.2128 56.9221 29.3474L57.565 29.7748C58.0126 30.0542 58.43 30.3133 58.854 30.5624L59.4801 30.9225C59.1031 30.7745 58.5006 30.5523 58.4434 30.5389C57.4741 30.2965 55.4614 30.3975 54.869 31.35C54.7759 31.5105 54.7174 31.6888 54.6975 31.8734C54.6776 32.0579 54.6967 32.2446 54.7535 32.4213C54.8103 32.598 54.9035 32.7608 55.0272 32.8992C55.1509 33.0376 55.3022 33.1485 55.4715 33.2247C56.1816 33.5613 57.124 33.3257 57.7871 32.9891C58.5208 32.6189 59.6248 31.2524 59.7594 31.0841C60.2744 31.3769 60.7691 31.6563 61.2504 31.9087C62.5193 32.5819 63.6064 33.1305 64.4815 33.531C67.2717 35.9442 71.213 36.2236 71.213 36.2236C71.213 36.2236 71.4217 31.5115 68.6517 28.4285C67.6675 27.3989 66.4675 26.6 65.1378 26.0894ZM60.1566 30.6735C60.2441 30.4783 60.9105 28.9906 60.9576 28.1425C61.1124 28.1155 61.2706 28.0819 61.4221 28.0482C61.7046 29.5334 62.2938 30.9434 63.1521 32.1881C62.6438 31.9457 62.0952 31.6798 61.513 31.3837C61.0788 31.1615 60.6244 30.9225 60.1566 30.6735Z" fill="#92E3A9"/>
<path d="M85.716 25.1875C85.716 25.1875 81.004 25.3322 78.133 28.3244C75.262 31.3165 75.2822 36.0319 75.2822 36.0319C75.2822 36.0319 79.9943 35.8872 82.8652 32.895C85.7362 29.9029 85.716 25.1875 85.716 25.1875Z" fill="#92E3A9"/>
<g opacity="0.5">
<path d="M55.1282 6.96528C55.1282 6.96528 56.6697 5.74688 57.0669 4.96603C57.4035 4.29289 57.6458 3.35722 57.2991 2.65041C57.2243 2.47995 57.1143 2.32721 56.9764 2.20217C56.8385 2.07713 56.6758 1.98261 56.4988 1.92479C56.3218 1.86697 56.1347 1.84716 55.9495 1.86664C55.7644 1.88612 55.5855 1.94446 55.4244 2.03785C54.4719 2.63022 54.371 4.64293 54.6133 5.61226C54.6335 5.7065 55.1114 6.97874 55.1282 6.96528Z" fill="white"/>
<path d="M40.8678 17.1132C40.9317 17.1738 42.0323 17.9714 42.0357 17.9512C42.0391 17.931 42.6516 16.0833 42.5507 15.2149C42.4631 14.4744 42.1468 13.5522 41.4669 13.1551C41.3103 13.0551 41.1343 12.9893 40.9505 12.962C40.7668 12.9348 40.5793 12.9466 40.4004 12.9968C40.2215 13.047 40.0553 13.1345 39.9125 13.2534C39.7697 13.3723 39.6537 13.52 39.572 13.6869C39.1041 14.7033 40.1307 16.44 40.8678 17.1132Z" fill="white"/>
<path d="M73.1888 8.80957C73.1888 8.80957 67.5411 14.639 67.5714 21.7979C67.6017 28.9568 73.2932 34.7391 73.2932 34.7391C73.2932 34.7391 78.9408 28.9097 78.9106 21.7508C78.8803 14.5919 73.1888 8.80957 73.1888 8.80957Z" fill="white"/>
<path d="M65.1378 26.0894C65.2108 26.0075 65.2783 25.9209 65.3398 25.8302C65.7504 25.2075 66.1004 24.3022 65.8379 23.5583C65.7822 23.381 65.6897 23.2174 65.5665 23.0782C65.4433 22.939 65.2921 22.8273 65.1229 22.7504C64.9536 22.6736 64.77 22.6333 64.5841 22.6321C64.3982 22.631 64.2142 22.6691 64.044 22.7438C63.2766 23.1073 62.903 24.3358 62.8222 25.3422C62.5159 25.2715 62.24 25.2176 62.001 25.1772C61.9 24.9517 61.799 24.7195 61.6947 24.5041C61.5904 24.2887 61.5062 24.0262 61.4086 23.7838C61.274 23.4271 61.1528 23.0501 61.0283 22.6765C61.4759 22.4746 62.7785 21.8687 63.2631 21.3302C63.7478 20.7917 64.2459 19.9334 64.0978 19.1593C64.0696 18.9756 64.003 18.7999 63.9024 18.6437C63.8017 18.4875 63.6693 18.3542 63.5137 18.2526C63.3581 18.151 63.1828 18.0833 62.9993 18.054C62.8158 18.0246 62.6282 18.0343 62.4486 18.0823C61.375 18.4189 60.7456 20.3171 60.722 21.3168C60.722 21.3504 60.722 21.5625 60.7624 21.8115C60.6547 21.4413 60.5436 21.0744 60.4494 20.6975C60.1734 19.6238 59.9243 18.5232 59.6719 17.4226C59.6214 17.1904 59.5642 16.9649 59.5103 16.7495C59.8873 16.5845 61.3009 15.9383 61.8091 15.3762C62.3174 14.8142 62.7953 13.9795 62.6472 13.2053C62.6186 13.0215 62.5516 12.8458 62.4506 12.6895C62.3496 12.5333 62.2168 12.4001 62.061 12.2985C61.9051 12.1969 61.7296 12.1293 61.5459 12.1C61.3622 12.0706 61.1744 12.0803 60.9946 12.1283C59.9243 12.4649 59.2949 14.3632 59.2714 15.3628C59.2714 15.3964 59.2916 15.6489 59.3185 15.9316C59.1704 15.3359 59.0189 14.7435 58.8507 14.1578C58.5648 13.1547 58.2118 12.1719 57.7938 11.2162C57.9285 11.159 59.6012 10.4354 60.1667 9.80933C60.6682 9.25735 61.1495 8.41255 61.0014 7.63843C60.9732 7.45474 60.9066 7.27906 60.8059 7.12283C60.7053 6.9666 60.5728 6.83334 60.4172 6.73172C60.2616 6.63011 60.0864 6.56242 59.9028 6.53307C59.7193 6.50372 59.5317 6.51338 59.3522 6.5614C58.2819 6.89797 57.6491 8.79624 57.6289 9.79587C57.6289 9.86655 57.7097 10.7787 57.7501 11.1051V11.0715C57.3185 10.1417 56.8037 9.25289 56.2119 8.41591C55.6935 7.66457 55.1316 6.9442 54.5291 6.25848C53.9737 5.61899 53.4251 5.06365 52.9371 4.57562C52.6678 4.31646 52.4188 4.08086 52.1865 3.86545H52.2101C52.2303 3.86545 51.685 2.61676 51.6413 2.54272C51.1431 1.67773 49.6656 0.304508 48.5717 0.52328C48.3914 0.568212 48.2225 0.650541 48.0761 0.76493C47.9296 0.879319 47.8089 1.02321 47.7216 1.18728C47.6343 1.35135 47.5825 1.53192 47.5695 1.7173C47.5565 1.90268 47.5826 2.08872 47.6462 2.26336C47.8919 3.01392 48.7198 3.51878 49.4266 3.76111C50.1334 4.00344 51.7254 3.89238 52.1192 3.85535C52.3582 4.08422 52.6106 4.33329 52.8832 4.60927C53.3612 5.10404 53.893 5.66948 54.4382 6.31907C54.5796 6.49072 54.7276 6.68593 54.8757 6.86768C54.5627 6.60852 54.1319 6.26185 54.0848 6.23156C53.2434 5.69641 51.298 5.15789 50.4397 5.87142C50.2995 5.99352 50.1867 6.14387 50.1086 6.31262C50.0306 6.48137 49.9891 6.66471 49.9869 6.85062C49.9847 7.03653 50.0218 7.22081 50.0957 7.39138C50.1697 7.56195 50.2789 7.71496 50.4161 7.84037C50.9782 8.39572 51.9509 8.45967 52.688 8.35197C53.4251 8.24426 54.832 7.37927 55.1315 7.18742C55.4513 7.59804 55.771 8.02886 56.0773 8.49669C56.6402 9.33731 57.1279 10.2259 57.5347 11.1523C57.5582 11.2061 57.5751 11.2633 57.5986 11.3172C57.4674 11.1623 56.6798 10.3714 56.6192 10.3075C55.8417 9.68143 53.9704 8.93087 53.0347 9.5468C52.8822 9.65315 52.7539 9.79044 52.6581 9.94972C52.5623 10.109 52.5011 10.2867 52.4785 10.4712C52.456 10.6557 52.4726 10.8429 52.5272 11.0205C52.5819 11.1982 52.6734 11.3624 52.7957 11.5023C53.2972 12.1149 54.2531 12.2865 54.9969 12.2596C55.8585 12.2293 57.5481 11.3744 57.6121 11.3441C57.9935 12.2779 58.3128 13.2358 58.5679 14.2117C58.7598 14.932 58.9281 15.6724 59.0863 16.4129C58.9113 16.2177 58.1809 15.4806 58.1203 15.4335C57.3428 14.8074 55.4715 14.0569 54.5358 14.6728C54.3834 14.7792 54.255 14.9164 54.1592 15.0757C54.0634 15.235 54.0022 15.4127 53.9796 15.5972C53.9571 15.7817 53.9737 15.9689 54.0283 16.1465C54.083 16.3242 54.1745 16.4884 54.2968 16.6283C54.7983 17.2409 55.7542 17.4125 56.498 17.3856C57.3395 17.3553 58.9617 16.5442 59.0997 16.4768C59.1738 16.8134 59.2445 17.15 59.3151 17.4866C59.544 18.5905 59.7695 19.7012 60.0219 20.7883C60.1094 21.1653 60.2104 21.5322 60.3114 21.9024C60.0354 21.6163 59.5272 21.1047 59.4801 21.0643C58.7026 20.4417 56.8279 19.6911 55.8956 20.3037C55.7431 20.41 55.6148 20.5473 55.519 20.7066C55.4231 20.8659 55.362 21.0435 55.3394 21.2281C55.3169 21.4126 55.3334 21.5997 55.3881 21.7774C55.4428 21.9551 55.5342 22.1192 55.6566 22.2592C56.1547 22.8717 57.1139 23.0467 57.8578 23.0164C58.6016 22.9862 59.9883 22.3433 60.3753 22.1481C60.5436 22.7607 60.7119 23.3665 60.9341 23.9521C61.0283 24.2045 61.1091 24.4671 61.2134 24.7027L61.3716 25.0763L61.1562 25.0561C61.1562 25.0561 61.1562 25.3927 61.173 25.9749C60.3518 25.3893 59.1536 24.8844 58.3963 25.2412C58.2298 25.3233 58.0825 25.4396 57.9639 25.5824C57.8453 25.7252 57.758 25.8913 57.7079 26.0701C57.6577 26.2488 57.6457 26.4361 57.6727 26.6198C57.6997 26.8034 57.7651 26.9794 57.8645 27.1361C57.9148 27.2205 57.9722 27.3005 58.0362 27.3751C58.1853 28.2378 58.5513 29.0486 59.0997 29.7311C59.1401 29.7816 59.6988 30.2965 59.9917 30.5523C59.7089 30.4009 59.4296 30.2494 59.1401 30.0878C58.7194 29.8522 58.2852 29.5931 57.8611 29.344L57.2082 28.93C56.9861 28.792 56.7875 28.6372 56.5721 28.4891C56.2624 28.2636 55.9528 28.0179 55.6465 27.7722C55.909 27.3616 56.6562 26.1365 56.7673 25.4162C56.8784 24.6959 56.8144 23.7064 56.2658 23.141C56.1414 23.0027 55.9894 22.892 55.8195 22.8163C55.6496 22.7406 55.4656 22.7015 55.2796 22.7015C55.0936 22.7015 54.9097 22.7406 54.7398 22.8163C54.5699 22.892 54.4178 23.0027 54.2935 23.141C53.5766 23.9992 54.1084 25.9446 54.63 26.7894C54.63 26.8164 54.7781 26.9846 54.9363 27.1799C54.6435 26.9308 54.3473 26.6851 54.0579 26.4226C53.2366 25.6821 52.4221 24.8979 51.6042 24.1204L51.0893 23.6357C51.3114 23.2992 52.136 21.9529 52.2505 21.2225C52.3649 20.4922 52.301 19.5127 51.749 18.9473C51.6246 18.8095 51.4728 18.6994 51.3032 18.624C51.1336 18.5486 50.9501 18.5096 50.7645 18.5096C50.5789 18.5096 50.3954 18.5486 50.2258 18.624C50.0562 18.6994 49.9044 18.8095 49.78 18.9473C49.0631 19.8055 49.5915 21.7509 50.1166 22.5957C50.1368 22.626 50.295 22.8246 50.47 23.0467C50.0224 22.6294 49.5646 22.2188 49.1035 21.825C48.3113 21.1463 47.4747 20.5212 46.5994 19.9536C46.6802 19.8325 47.6764 18.3044 47.801 17.4731C47.9154 16.7326 47.8515 15.7633 47.3028 15.1979C47.1768 15.0623 47.0242 14.9541 46.8546 14.8802C46.6849 14.8062 46.5018 14.7681 46.3167 14.7681C46.1316 14.7681 45.9485 14.8062 45.7788 14.8802C45.6091 14.9541 45.4565 15.0623 45.3305 15.1979C44.6136 16.0561 45.1454 18.0015 45.6671 18.8463C45.7041 18.9069 46.2763 19.6204 46.4917 19.856L46.4614 19.8358C45.588 19.3003 44.669 18.843 43.715 18.4693C42.8641 18.1317 41.9943 17.844 41.1099 17.6077C40.292 17.3789 39.528 17.2207 38.8515 17.086C38.488 17.0154 38.1514 16.9581 37.8418 16.9076H37.862C37.862 16.9076 36.7378 16.1537 36.6604 16.1167C35.7651 15.6724 33.776 15.3392 32.9951 16.1403C32.8693 16.277 32.7737 16.4387 32.7144 16.6148C32.6551 16.791 32.6334 16.9776 32.6509 17.1626C32.6683 17.3476 32.7245 17.5269 32.8157 17.6888C32.9069 17.8507 33.0311 17.9917 33.1802 18.1025C33.7995 18.5939 34.7689 18.5569 35.4925 18.3717C36.2161 18.1866 37.4816 17.2072 37.7913 16.9649C38.1279 17.0221 38.4644 17.0894 38.8448 17.1702C39.5179 17.3183 40.2718 17.5068 41.083 17.739C41.2984 17.8029 41.5273 17.8837 41.7561 17.9544C41.3522 17.9106 40.8003 17.8602 40.7464 17.8602C39.7367 17.8602 37.8283 18.4996 37.5052 19.5699C37.4561 19.7492 37.4452 19.9368 37.4734 20.1205C37.5017 20.3042 37.5683 20.4799 37.6689 20.6361C37.7696 20.7924 37.9021 20.9256 38.0577 21.0273C38.2133 21.1289 38.3886 21.1966 38.5721 21.2259C39.3463 21.3773 40.1944 20.8893 40.7498 20.3979C41.3051 19.9065 42.0018 18.4054 42.1466 18.0789C42.6379 18.2472 43.1563 18.4155 43.6544 18.6511C44.5916 19.04 45.4926 19.5107 46.347 20.058C46.3941 20.0916 46.4412 20.132 46.4917 20.1623C46.2965 20.1085 45.2026 19.8796 45.1252 19.8729C44.1155 19.7786 42.1533 20.1859 41.7157 21.2192C41.6477 21.392 41.6166 21.5772 41.6247 21.7628C41.6328 21.9483 41.6797 22.1302 41.7626 22.2964C41.8454 22.4627 41.9622 22.6097 42.1055 22.728C42.2487 22.8462 42.4152 22.933 42.5942 22.9828C43.3481 23.2184 44.2434 22.8313 44.8492 22.4005C45.5493 21.899 46.4883 20.2532 46.5321 20.1926C47.3636 20.7622 48.1573 21.3851 48.9083 22.0572C49.4704 22.552 50.0156 23.0669 50.5575 23.6088C50.3017 23.5415 49.2853 23.3295 49.2112 23.3227C48.2015 23.2319 46.2426 23.6391 45.8017 24.669C45.7337 24.8419 45.7026 25.0271 45.7107 25.2126C45.7188 25.3982 45.7657 25.58 45.8485 25.7463C45.9314 25.9126 46.0482 26.0596 46.1915 26.1778C46.3347 26.2961 46.5012 26.3829 46.6802 26.4327C47.4341 26.6683 48.3294 26.2846 48.9352 25.8504C49.6084 25.3624 50.5272 23.7872 50.6181 23.6559L51.3586 24.3796C52.1596 25.1772 52.9573 25.9783 53.7684 26.7356C54.0511 27.0015 54.3372 27.2539 54.6233 27.5063C54.2396 27.4188 53.5328 27.2707 53.4689 27.2674C52.476 27.1731 50.5003 27.5804 50.0594 28.6137C49.9913 28.7867 49.9605 28.9721 49.9687 29.1579C49.977 29.3437 50.0243 29.5256 50.1074 29.6919C50.1906 29.8582 50.3078 30.0052 50.4514 30.1233C50.5951 30.2413 50.7619 30.3279 50.9412 30.3773C51.6951 30.6095 52.587 30.2258 53.1929 29.795C53.7987 29.3642 54.5964 28.0516 54.8152 27.6813C55.2931 28.0987 55.7778 28.5026 56.2759 28.8762C56.4947 29.0344 56.7067 29.2128 56.9221 29.3474L57.565 29.7748C58.0126 30.0542 58.43 30.3133 58.854 30.5624L59.4801 30.9225C59.1031 30.7745 58.5006 30.5523 58.4434 30.5389C57.4741 30.2965 55.4614 30.3975 54.869 31.35C54.7759 31.5105 54.7174 31.6888 54.6975 31.8734C54.6776 32.0579 54.6967 32.2446 54.7535 32.4213C54.8103 32.598 54.9035 32.7608 55.0272 32.8992C55.1509 33.0376 55.3022 33.1485 55.4715 33.2247C56.1816 33.5613 57.124 33.3257 57.7871 32.9891C58.5208 32.6189 59.6248 31.2524 59.7594 31.0841C60.2744 31.3769 60.7691 31.6563 61.2504 31.9087C62.5193 32.5819 63.6064 33.1305 64.4815 33.531C67.2717 35.9442 71.213 36.2236 71.213 36.2236C71.213 36.2236 71.4217 31.5115 68.6517 28.4285C67.6675 27.3989 66.4675 26.6 65.1378 26.0894ZM60.1566 30.6735C60.2441 30.4783 60.9105 28.9906 60.9576 28.1425C61.1124 28.1155 61.2706 28.0819 61.4221 28.0482C61.7046 29.5334 62.2938 30.9434 63.1521 32.1881C62.6438 31.9457 62.0952 31.6798 61.513 31.3837C61.0788 31.1615 60.6244 30.9225 60.1566 30.6735Z" fill="white"/>
<path d="M85.716 25.1875C85.716 25.1875 81.004 25.3322 78.133 28.3244C75.262 31.3165 75.2822 36.0319 75.2822 36.0319C75.2822 36.0319 79.9943 35.8872 82.8652 32.895C85.7362 29.9029 85.716 25.1875 85.716 25.1875Z" fill="white"/>
</g>
<path d="M73.4209 28.2197L78.0387 24.0664L77.8435 23.8443L73.4176 27.8226L73.394 22.3802L73.4176 22.397L77.3252 16.682L77.0829 16.5137L73.3907 21.909L73.3368 8.80957L73.0406 8.81293L73.0776 17.7018L70.136 15.1573L69.9442 15.3795L73.081 18.0956L73.1079 24.4501L68.6483 20.5088L68.4531 20.7276L73.1079 24.8473L73.1349 30.6363L69.7826 28.0077L69.6008 28.2399L73.1349 31.0133L73.1517 34.7391H73.4479L73.4176 28.2164L73.4209 28.2197Z" fill="white"/>
<path d="M69.1631 29.8221L68.8703 29.7884L68.4967 33.0767L66.5143 30.8621H66.5177L66.0128 26.8804L65.72 26.9175L66.171 30.4784L61.2402 24.9653L61.0181 25.1639L64.3636 28.9032L62.2466 28.9302L62.2499 29.2263L64.6261 29.1961L66.972 31.818L63.6602 31.8213V32.1175L67.2379 32.1141L69.3684 34.4971L67.0326 34.6384L67.0528 34.9346L69.6209 34.7798L71.0412 36.3684L71.2633 36.1698L68.7626 33.3729L69.1631 29.8221Z" fill="white"/>
<path d="M80.3272 30.9933L84.2584 30.1956L84.2011 29.9062L80.684 30.6197L85.8133 25.2917L85.5979 25.0864L82.1178 28.7012L81.936 26.5909L81.6398 26.6178L81.8451 28.9839L79.405 31.5183L79.1559 28.2166L78.8597 28.2401L79.129 31.8044L76.911 34.1099L76.598 31.791L76.3051 31.8313L76.6484 34.3826L75.1709 35.9173L75.3863 36.1227L77.988 33.42L81.559 33.558L81.5725 33.2618L78.264 33.1339L80.3272 30.9899V30.9933Z" fill="white"/>
<path d="M35.0886 76.6529C35.3545 77.9756 38.5317 78.5074 38.5317 78.5074L40.8877 77.1611C41.8739 85.4408 42.749 92.1992 43.0418 92.7882C43.8361 94.3768 49.6622 92.2598 50.1906 89.6109C50.406 88.5406 49.3626 81.3212 48.0466 73.102L56.2792 68.4304C56.2792 68.4304 56.6394 67.249 54.078 67.7068C53.1827 67.8683 50.5709 68.841 47.562 70.0998C45.7108 58.7573 43.5702 46.7215 43.5702 46.7215C43.5702 46.7215 71.6337 77.1678 72.9598 77.1678C74.2859 77.1678 76.137 76.9053 75.3427 74.5224C74.5484 72.1394 43.5702 42.4874 43.5702 42.4874C43.5702 42.4874 38.2759 42.2215 37.2191 44.6044C37.2191 44.6044 38.8717 59.9252 40.4334 73.2939C37.3335 74.8051 34.9876 76.148 35.0886 76.6529Z" fill="#263238"/>
<path d="M97.6845 68.8475C97.6497 67.4773 97.5136 66.1115 97.2772 64.7615C96.809 62.0603 95.9484 59.4421 94.7226 56.99C94.1239 55.7746 93.4389 54.6037 92.6729 53.4863C91.9233 52.3731 91.1026 51.3096 90.2159 50.3023C89.3445 49.2974 88.4127 48.3465 87.4257 47.4549C85.4764 45.6979 83.367 44.1271 81.1251 42.7631C72.2194 37.3543 61.9404 34.8738 51.7625 35.0219C49.2172 35.0925 46.6816 35.3648 44.1795 35.8364C41.6744 36.2968 39.2251 37.0211 36.8725 37.9972C34.5338 38.9782 32.3259 40.2456 30.2992 41.7702C28.2953 43.2703 26.4663 44.9908 24.8467 46.8995C24.8179 46.9306 24.8018 46.9715 24.8018 47.014C24.8018 47.0564 24.8179 47.0973 24.8467 47.1284C24.8624 47.1442 24.881 47.1567 24.9015 47.1652C24.922 47.1738 24.944 47.1782 24.9662 47.1782C24.9884 47.1782 25.0104 47.1738 25.0309 47.1652C25.0514 47.1567 25.0701 47.1442 25.0857 47.1284C26.7821 45.3511 28.6732 43.7705 30.7233 42.4164C32.7568 41.0386 34.952 39.9161 37.2595 39.0742C41.8807 37.3913 46.8317 36.7552 51.7322 36.8023C56.654 36.8761 61.544 37.6073 66.2721 38.9766C71.0059 40.3207 75.521 42.3408 79.6778 44.9743C83.7941 47.6299 87.5065 50.9889 90.1991 55.0715C90.8763 56.0892 91.4792 57.1544 92.0031 58.2589C93.0659 60.4592 93.8018 62.8029 94.1875 65.2158C94.3808 66.4216 94.4854 67.6399 94.5005 68.8609C94.5129 70.0811 94.4477 71.3008 94.3053 72.5127C94.2144 73.1152 94.1303 73.7177 94.0125 74.3168L93.8072 75.2053L93.7062 75.6496L93.5749 76.0871C92.8908 78.4299 91.8596 80.6569 90.5155 82.6941C87.8229 86.7666 83.9961 90.028 79.762 92.4547C75.4862 94.8693 70.8441 96.5678 66.0197 97.4831C61.1946 98.4187 56.2657 98.7017 51.3653 98.3245C50.7494 98.2976 50.1402 98.2134 49.531 98.1596C49.2247 98.1259 48.9184 98.099 48.6155 98.062L47.7068 97.924C47.1009 97.823 46.4917 97.7557 45.8926 97.6278L44.1088 97.2879C43.8079 97.2278 43.5102 97.1525 43.2169 97.0624L42.3317 96.8167C41.7393 96.6517 41.147 96.4969 40.5714 96.2849L38.8313 95.6891L37.1249 94.9992C36.8422 94.8814 36.5561 94.7703 36.2767 94.6458L35.4454 94.2587C34.8934 93.9894 34.3314 93.7438 33.7895 93.4577C32.7158 92.8619 31.6219 92.3032 30.5988 91.6233L29.8213 91.1353L29.4309 90.8896L29.0573 90.6237L27.5595 89.5467C27.058 89.1899 26.5969 88.7827 26.1156 88.4023L25.4021 87.8234C25.1597 87.635 24.9443 87.4128 24.7289 87.2109L23.3826 85.9655L22.1037 84.6294C21.895 84.4039 21.6762 84.1918 21.4776 83.9562L20.8886 83.2494L20.2996 82.5426C20.1078 82.3036 19.8991 82.0781 19.7308 81.8223L18.6605 80.3279L18.3913 79.9544L18.1523 79.5606L17.6609 78.7764C17.0268 77.7282 16.4461 76.6486 15.9208 75.5419C14.8933 73.3175 14.1786 70.9615 13.797 68.5412C13.4408 66.1164 13.4533 63.6518 13.8341 61.2308C14.2182 58.8051 14.9281 56.4423 15.9444 54.2065C16.9689 51.9745 18.2316 49.8598 19.7106 47.8992C22.6988 43.9826 26.3168 40.5898 30.417 37.8592C30.4533 37.8357 30.4789 37.7989 30.4884 37.7568C30.4978 37.7146 30.4903 37.6704 30.4675 37.6337C30.4445 37.596 30.4076 37.569 30.3648 37.5583C30.322 37.5476 30.2767 37.5541 30.2386 37.5765C28.092 38.8513 26.0474 40.2906 24.1231 41.8812C22.1903 43.4971 20.4092 45.2861 18.8019 47.226C17.1658 49.1909 15.7599 51.3365 14.6115 53.6209C13.4415 55.9448 12.5912 58.4164 12.0839 60.9683C11.5891 63.565 11.4938 66.222 11.8012 68.8475C12.1339 71.4796 12.8294 74.053 13.8677 76.4944C14.9168 78.9026 16.2199 81.192 17.7551 83.3235C17.9335 83.5994 18.1489 83.8451 18.3475 84.1043L18.9601 84.8751L19.5693 85.6424C19.7779 85.8949 20.0068 86.1305 20.2222 86.3728L21.5483 87.8201L22.9586 89.1664C23.1975 89.3885 23.423 89.6275 23.6721 89.8395L24.4193 90.4723C24.9208 90.8862 25.4021 91.3305 25.9238 91.7209L27.4888 92.9124L27.8826 93.2052L28.2865 93.4745L29.1044 94.013C30.1747 94.7636 31.3325 95.3593 32.4701 96.0324C33.0423 96.3421 33.6347 96.6147 34.2169 96.9109L35.0954 97.3417C35.3916 97.4797 35.6945 97.6009 35.994 97.7288L37.7981 98.4894L39.6458 99.1626C40.2584 99.3982 40.8878 99.5732 41.5172 99.7583L42.4596 100.034C42.7726 100.129 43.089 100.219 43.4121 100.287L45.3306 100.728C45.9734 100.876 46.6297 100.96 47.2793 101.064L48.2554 101.226C48.592 101.273 48.8982 101.303 49.218 101.344C49.8608 101.411 50.5037 101.508 51.1499 101.549C53.7334 101.786 56.3309 101.833 58.9214 101.69C61.5198 101.558 64.1061 101.248 66.6626 100.765C71.8497 99.8108 76.8449 98.0108 81.4482 95.4367C86.0424 92.7812 90.2395 89.1697 93.2686 84.5654C94.7818 82.2437 95.9379 79.708 96.6983 77.043L96.843 76.5449L96.9609 76.0366L97.1863 75.0269C97.3176 74.3538 97.4119 73.6537 97.5229 72.9705C97.6748 71.6017 97.7288 70.2239 97.6845 68.8475Z" fill="#263238"/>
<path d="M51.3555 46.7215C51.4501 46.922 51.5996 47.0916 51.7866 47.2107C51.9737 47.3299 52.1906 47.3936 52.4123 47.3946C52.5922 47.3958 52.7699 47.3543 52.9306 47.2735L57.6427 44.9612L60.729 47.5865C60.8458 47.6936 60.983 47.776 61.1323 47.8289C61.2817 47.8818 61.4402 47.904 61.5984 47.8941C61.7565 47.8843 61.9111 47.8427 62.0527 47.7717C62.1944 47.7008 62.3203 47.602 62.423 47.4813C62.5256 47.3605 62.6028 47.2203 62.6499 47.0691C62.6971 46.9178 62.7133 46.7586 62.6975 46.6009C62.6817 46.4433 62.6342 46.2904 62.558 46.1515C62.4817 46.0126 62.3782 45.8905 62.2537 45.7925L59.9448 43.827L62.5465 42.5446C62.6869 42.4748 62.8121 42.378 62.915 42.2598C63.0179 42.1415 63.0965 42.0042 63.1464 41.8556C63.1962 41.707 63.2163 41.55 63.2055 41.3936C63.1947 41.2373 63.1532 41.0845 63.0834 40.9442C63.0135 40.8039 62.9167 40.6787 62.7985 40.5757C62.6803 40.4728 62.543 40.3942 62.3943 40.3443C62.2457 40.2945 62.0888 40.2744 61.9324 40.2852C61.776 40.296 61.6233 40.3375 61.483 40.4074L57.9658 42.1407L55.4953 40.0371C55.2574 39.8345 54.9488 39.7347 54.6373 39.7596C54.3258 39.7846 54.037 39.9322 53.8343 40.1701C53.6317 40.408 53.5319 40.7166 53.5568 41.0281C53.5817 41.3396 53.7294 41.6284 53.9673 41.8311L55.6501 43.275L51.8671 45.1362C51.589 45.2786 51.3789 45.5256 51.283 45.8229C51.1871 46.1202 51.2131 46.4434 51.3555 46.7215Z" fill="#263238"/>
<path opacity="0.3" d="M124.759 117.146L102.616 107.473C99.9229 105.181 96.7356 102.535 96.2206 102.404C95.285 102.168 95.7528 101 97.3919 98.1901C99.031 95.3797 87.4866 89.9979 84.5348 90.284C82.1788 90.5162 79.3718 90.0416 78.3587 89.8464C79.2035 87.339 80.0752 84.8517 80.0752 84.8517L68.6015 79.83L59.4635 65.8892L56.6094 66.7979C56.6094 66.7979 60.6079 75.9258 65.2963 86.3764C63.5663 85.8244 60.0491 85.0738 59.6991 87.8876C59.2313 91.6303 62.0383 94.4406 64.8453 94.4406C66.3936 94.4406 67.8745 94.37 68.8842 94.306C74.0035 105.571 78.9814 116.133 79.8295 116.671C81.7043 117.843 88.2439 119.478 88.4896 117.843C88.7353 116.207 81.9365 104.269 81.9365 104.269C81.9365 104.269 117.977 118.543 121.73 118.543C125.482 118.543 124.759 117.146 124.759 117.146ZM90.5965 97.0121C90.5965 97.0121 89.5531 100.011 89.7046 101.825L83.5588 99.1325L90.5965 97.0121ZM73.9799 84.6093L73.1587 86.8038L71.2806 83.9362L73.9799 84.6093Z" fill="black"/>
<path d="M110.757 44.6312C110.757 44.6312 111.487 43.0763 111.029 41.8848C110.571 40.6933 102.15 38.7715 102.15 38.7715C102.15 38.7715 100.225 38.7715 100.316 39.8687C100.407 40.9659 107.367 45.1798 107.916 45.5467C108.465 45.9136 110.571 46.7382 110.757 44.6312Z" fill="white" stroke="#263238" stroke-linecap="round" stroke-linejoin="round"/>
<path d="M104.53 43.7155C104.791 43.2542 105.145 42.8529 105.571 42.5374C105.996 42.222 106.484 41.9996 107.001 41.8846C108.741 41.5177 111.04 42.7092 111.305 44.631C111.571 46.5528 110.114 47.4683 109.199 47.4683C108.283 47.4683 107.458 46.186 107.458 46.186C107.458 46.186 104.53 45.0887 104.53 43.7155Z" fill="white" stroke="#263238" stroke-linecap="round" stroke-linejoin="round"/>
<path d="M102.275 52.7524C102.627 53.5938 103.163 54.3457 103.843 54.9532C104.523 55.5606 105.331 56.0081 106.206 56.2629C109.296 57.2457 115.051 55.8422 118.421 56.2629L120.945 58.9319L117.017 61.4562C114.115 60.497 111.162 59.7004 108.172 59.0699C103.507 58.1107 100.592 53.7352 100.592 53.7352L102.275 52.7524Z" fill="#263238"/>
<path d="M58.4769 65.4985L56.6123 66.7977L57.5042 67.4439L58.965 66.9593L58.4769 65.4985Z" fill="#263238" stroke="#263238" stroke-linecap="round" stroke-linejoin="round"/>
<path d="M100.838 34.2577C100.838 34.2577 100.037 33.9649 99.3097 33.6014C98.5827 33.2379 99.3803 34.9107 99.6732 34.9847C99.966 35.0588 100.683 35.2035 100.683 35.2035L100.838 34.2577Z" fill="white" stroke="#263238" stroke-linecap="round" stroke-linejoin="round"/>
<path d="M61.7717 60.4534L58.1569 65.2563C58.0318 65.4215 57.9554 65.6184 57.9363 65.8248C57.9173 66.0312 57.9564 66.2388 58.0492 66.4242C58.1564 66.6385 58.33 66.8126 58.544 66.9206C58.758 67.0285 59.0012 67.0645 59.2373 67.0233L64.4811 66.1111L121.204 33.5006C121.853 33.1227 122.419 32.6185 122.869 32.0177C123.32 31.4169 123.645 30.7318 123.826 30.003C124.007 29.2742 124.039 28.5165 123.922 27.7749C123.805 27.0332 123.539 26.3227 123.142 25.6854C122.748 25.0538 122.232 24.5072 121.624 24.0773C121.016 23.6474 120.328 23.3429 119.602 23.1816C118.875 23.0202 118.123 23.0053 117.39 23.1375C116.658 23.2698 115.958 23.5467 115.334 23.952L61.7717 60.4534Z" fill="#92E3A9" stroke="#263238" stroke-linecap="round" stroke-linejoin="round"/>
<path d="M115.334 23.952L100.215 34.3858C100.357 37.0043 101.481 40.471 106.062 42.0024L121.207 33.4905C121.872 33.124 122.456 32.6264 122.922 32.0278C123.389 31.4292 123.729 30.7421 123.923 30.0081C124.116 29.2741 124.158 28.5084 124.047 27.7576C123.936 27.0067 123.673 26.2863 123.275 25.64C122.877 24.9936 122.352 24.4348 121.732 23.9974C121.111 23.5599 120.409 23.253 119.666 23.0952C118.924 22.9374 118.157 22.9319 117.412 23.0792C116.668 23.2265 115.961 23.5234 115.334 23.952Z" fill="#263238" stroke="#263238" stroke-linecap="round" stroke-linejoin="round"/>
<path d="M58.0495 66.4244C58.1567 66.6388 58.3302 66.8129 58.5443 66.9208C58.7583 67.0288 59.0014 67.0648 59.2376 67.0235L64.4814 66.1114C60.2406 64.4622 61.7888 60.4536 61.7888 60.4536L58.174 65.2565C58.0462 65.4201 57.9667 65.6162 57.9447 65.8227C57.9227 66.0291 57.959 66.2376 58.0495 66.4244Z" fill="#92E3A9" stroke="#263238" stroke-linecap="round" stroke-linejoin="round"/>
<path d="M96.1863 35.9307C96.1863 35.9307 95.3718 35.9307 95.3718 36.3009C95.3718 36.6711 95.1598 37.9838 95.631 37.9467C96.1022 37.9097 96.0584 37.0817 96.0988 36.7923C96.1392 36.5028 96.1863 35.9307 96.1863 35.9307Z" fill="white" stroke="#263238" stroke-linecap="round" stroke-linejoin="round"/>
<path d="M97.0784 34.5878C97.0784 34.5878 96.348 34.3657 96.1831 34.8133C96.0182 35.261 95.8465 37.3848 96.348 37.3309C96.8495 37.277 96.9639 35.3586 97.0784 34.5878Z" fill="white" stroke="#263238" stroke-linecap="round" stroke-linejoin="round"/>
<path d="M98.1956 34.7022C98.1956 34.7022 97.3575 33.9752 97.0781 34.5877C96.7988 35.2003 96.7416 36.9437 97.0781 36.9437C97.4147 36.9437 97.9162 36.2167 98.0273 35.8263C98.1111 35.4563 98.1674 35.0805 98.1956 34.7022Z" fill="white" stroke="#263238" stroke-linecap="round" stroke-linejoin="round"/>
<path d="M99.3706 35.022C99.3706 35.022 98.3071 34.1267 98.1388 34.295C97.9705 34.4633 97.3007 36.1865 97.8022 36.5332C98.3037 36.8799 98.9432 35.335 98.9432 35.335L99.3706 35.022Z" fill="white" stroke="#263238" stroke-linecap="round" stroke-linejoin="round"/>
<path d="M86.0221 43.322C86.0221 43.322 86.1399 45.1193 86.6178 45.5367C86.9063 45.7884 87.168 46.0692 87.3987 46.3748C87.4629 46.8311 87.5022 47.2907 87.5165 47.7513C87.5165 48.2899 87.8766 48.2326 88.1896 48.2326C88.5026 48.2326 89.0277 49.2424 89.3272 49.727C89.6537 50.1697 90.0915 50.518 90.5961 50.7367C91.1346 51.0329 92.0299 49.8987 92.0299 49.8987L93.2146 51.8676L97.4656 49.1145L95.3721 45.0453C95.2485 43.6336 94.8189 42.2657 94.1133 41.0367C92.9185 38.8826 91.2995 37.671 88.607 38.4619C85.9144 39.2529 86.0221 43.322 86.0221 43.322Z" fill="white" stroke="#263238" stroke-linecap="round" stroke-linejoin="round"/>
<path d="M92.7838 50.6859L90.9629 48.855" stroke="#263238" stroke-linecap="round" stroke-linejoin="round"/>
<path d="M89.6402 45.422C89.4639 45.5381 89.2573 45.6 89.0462 45.6C88.835 45.6 88.6285 45.5381 88.4521 45.422C88.1095 45.1909 87.8324 44.8752 87.6478 44.5054C87.4632 44.1357 87.3774 43.7244 87.3987 43.3117C87.3987 42.3861 86.2106 42.7833 86.2106 42.7833C86.2106 42.7833 84.8878 44.2339 83.9656 43.7055C83.0434 43.1771 82.5116 42.1236 85.1537 38.8218C87.7958 35.52 90.3033 35.6547 92.4136 36.974C94.5239 38.2934 95.3586 45.0518 95.3586 45.0518C95.3586 45.0518 95.3182 46.3408 93.6017 46.7346C91.8852 47.1284 89.6402 46.7414 89.6402 45.422Z" fill="#263238" stroke="#263238" stroke-linecap="round" stroke-linejoin="round"/>
<path d="M89.3138 46.5566C89.3138 46.5566 88.7147 44.2813 89.6706 44.5809C90.6264 44.8804 91.1683 46.9133 91.1077 47.1523C91.0471 47.3913 90.5692 47.5124 90.3302 47.4519" fill="white"/>
<path d="M89.3138 46.5566C89.3138 46.5566 88.7147 44.2813 89.6706 44.5809C90.6264 44.8804 91.1683 46.9133 91.1077 47.1523C91.0471 47.3913 90.5692 47.5124 90.3302 47.4519" stroke="#263238" stroke-linecap="round" stroke-linejoin="round"/>
<path d="M96.2303 47.3808C95.1135 48.0066 94.0468 48.7178 93.0396 49.5079C92.0299 50.4066 91.1245 53.0992 91.1245 53.0992C91.1245 53.0992 97.2905 48.9088 98.3676 48.3097C99.4446 47.7106 99.6836 47.4145 99.6836 47.4145C99.6836 47.4145 97.4285 47.0812 96.2303 47.3808Z" fill="white" stroke="#263238" stroke-linecap="round" stroke-linejoin="round"/>
<path d="M81.0407 63.4692C81.0407 63.4692 79.2973 62.6614 77.2846 61.5878C75.2719 60.5141 73.1245 59.3092 73.1245 59.3092C72.5455 59.2381 71.96 59.2381 71.3811 59.3092C70.3666 59.5621 69.3351 59.741 68.2947 59.8443C67.6215 59.8443 67.221 60.5175 67.6215 60.7833C68.0221 61.0492 70.1728 60.7833 70.1728 60.7833L66.807 62.3955C66.807 62.3955 66.4065 63.1999 67.3456 63.1999C68.2846 63.1999 68.6919 63.0653 69.7588 63.1999C70.8257 63.3346 72.9798 61.9916 72.9798 61.9916C72.9798 61.9916 78.6611 68.538 79.9805 68.6188C81.2999 68.6995 83.9958 65.6165 81.0407 63.4692Z" fill="white" stroke="#263238" stroke-linecap="round" stroke-linejoin="round"/>
<path d="M82.8315 62.2104C82.8315 62.2104 79.8999 63.0351 79.3513 64.3174C78.8027 65.5997 78.8936 67.5216 79.9908 68.6188C81.088 69.716 81.5491 69.992 82.7372 69.5343C83.9253 69.0765 84.2047 68.3462 84.2956 67.6124C84.3864 66.8787 85.0427 64.4083 82.8315 62.2104Z" fill="white" stroke="#263238" stroke-linecap="round" stroke-linejoin="round"/>
<path d="M122.035 113.74C121.8 114.124 121.586 114.522 121.396 114.931C121.305 115.207 119.289 115.48 119.565 116.395C119.841 117.311 121.945 118.045 122.954 118.135C123.964 118.226 125.983 116.853 126.34 116.486C126.556 116.271 126.879 114.85 126.707 113.74C126.594 113.223 126.34 112.748 125.973 112.367C125.973 112.367 124.233 109.711 122.035 113.74Z" fill="white" stroke="#263238" stroke-linecap="round" stroke-linejoin="round"/>
<path d="M126.707 113.739C126.613 113.276 126.398 112.845 126.084 112.491C125.705 112.493 125.331 112.573 124.983 112.725C124.636 112.877 124.324 113.099 124.065 113.376C123.15 114.473 123.607 116.944 122.507 117.31C121.689 117.583 120.258 116.583 119.585 116.058C119.548 116.167 119.548 116.286 119.585 116.395C119.861 117.31 121.965 118.044 122.975 118.135C123.984 118.226 126.004 116.853 126.36 116.486C126.556 116.27 126.879 114.85 126.707 113.739Z" fill="white" stroke="#263238" stroke-linecap="round" stroke-linejoin="round"/>
<path d="M124.327 114.382C123.96 116.028 124.418 117.129 122.954 118.135C123.964 118.226 125.983 116.853 126.34 116.486C126.555 116.27 126.879 114.85 126.707 113.739C126.668 113.511 126.591 113.29 126.481 113.086H126.34C126.34 113.086 124.691 112.733 124.327 114.382Z" fill="#263238" stroke="#263238" stroke-linecap="round" stroke-linejoin="round"/>
<path d="M118.784 101.563C117.411 98.8161 111.854 91.4182 111.854 91.4182C111.854 91.4182 109.293 75.4007 109.198 74.2968C109.023 72.1831 107.667 68.9924 107.667 68.9924C107.667 68.9924 103.248 68.0702 94.8232 73.0144L94.9141 75.7609L100.787 83.0039C101.07 82.7717 101.235 82.6303 101.235 82.6303C101.235 82.6303 104.988 92.0544 105.812 93.8921C106.637 95.7297 110.706 102.236 112.726 103.582C113.85 104.333 122.035 113.74 122.035 113.74C122.035 113.74 123.593 112.367 124.6 112.367H125.973C125.973 112.367 120.157 104.309 118.784 101.563Z" fill="#263238" stroke="#263238" stroke-linecap="round" stroke-linejoin="round"/>
<g opacity="0.35">
<path d="M120.302 109.873C121.419 111.283 122.156 112.336 122.156 112.336" stroke="white" stroke-linecap="round" stroke-linejoin="round"/>
<path d="M103.581 83.6064C103.581 83.6064 105.031 87.3794 106.919 91.7313C108.808 96.0832 111.127 101.31 114.61 103.922C116.081 105.023 117.639 106.695 118.986 108.257" stroke="white" stroke-linecap="round" stroke-linejoin="round"/>
<path d="M107.552 79.7896L101.235 82.6269L107.936 82.3004" stroke="white" stroke-linecap="round" stroke-linejoin="round"/>
</g>
<path d="M106.452 43.076C104.897 43.2578 100.868 46.0042 100.592 46.2802C100.316 46.5562 99.2188 47.1957 98.7611 47.5626C98.7611 47.5626 89.337 53.4223 88.5057 53.9574C87.6744 54.4926 86.0352 55.6033 86.1261 55.9769C86.217 56.3505 81.2727 64.3912 81.2727 64.3912C81.2727 64.3912 79.8086 66.313 81.1819 68.0531C82.5551 69.7932 83.8374 68.6017 84.4769 68.2382C85.1164 67.8747 90.1549 63.1089 90.1549 63.1089L94.803 74.2158C94.803 74.2158 101.238 69.9009 108.104 70.1769L103.527 52.2308C103.527 52.2308 109.844 47.4683 110.026 45.8359C110.208 44.2036 108.01 42.8909 106.452 43.076Z" fill="white"/>
<mask id="mask0_1951_13722" style="mask-type:luminance" maskUnits="userSpaceOnUse" x="80" y="43" width="31" height="32">
<path d="M106.452 43.076C104.897 43.2578 100.868 46.0042 100.592 46.2802C100.316 46.5562 99.2188 47.1957 98.7611 47.5626C98.7611 47.5626 89.337 53.4223 88.5057 53.9574C87.6744 54.4926 86.0352 55.6033 86.1261 55.9769C86.217 56.3505 81.2727 64.3912 81.2727 64.3912C81.2727 64.3912 79.8086 66.313 81.1819 68.0531C82.5551 69.7932 83.8374 68.6017 84.4769 68.2382C85.1164 67.8747 90.1549 63.1089 90.1549 63.1089L94.803 74.2158C94.803 74.2158 101.238 69.9009 108.104 70.1769L103.527 52.2308C103.527 52.2308 109.844 47.4683 110.026 45.8359C110.208 44.2036 108.01 42.8909 106.452 43.076Z" fill="white"/>
</mask>
<g mask="url(#mask0_1951_13722)">
<path d="M106.452 43.076C105.829 43.1467 104.809 43.6314 103.793 44.2069C104.025 44.1624 104.264 44.1872 104.482 44.2782C104.7 44.3691 104.886 44.5223 105.018 44.7185C105.775 45.6912 104.153 48.8213 104.153 48.8213C104.153 48.8213 103.48 44.493 103.507 45.7922C103.534 47.0914 103.17 51.0831 103.17 51.0831C103.17 51.0831 101.009 48.4915 101.117 49.1411C101.225 49.7907 102.628 55.8355 103.493 58.104C104.358 60.3725 102.844 66.7438 101.982 68.5815C101.12 70.4192 101.645 60.8067 100.686 63.1795C99.7269 65.5524 96.4857 72.1526 95.7284 72.8022C94.9711 73.4517 95.9708 63.9941 96.24 62.7622C95.9034 63.7921 93.6787 70.3149 93.6787 70.3149L90.6495 62.5401C90.6495 62.5401 85.4663 58.3262 86.0048 59.0835C86.5433 59.8407 87.8425 62.2169 87.8425 62.2169C87.8425 62.2169 84.709 61.5674 85.2509 61.7828C85.7928 61.9982 88.1656 63.1863 88.1656 63.1863C88.1656 63.1863 83.3089 66.6597 81.9054 67.0771C81.528 67.1883 81.1399 67.2593 80.7476 67.2891C80.8488 67.5713 80.9955 67.835 81.1817 68.07C82.555 69.81 83.8373 68.6186 84.4768 68.2551C85.1163 67.8916 90.1548 63.1257 90.1548 63.1257L94.8028 74.2158C94.8028 74.2158 101.238 69.9009 108.104 70.1769L103.527 52.2308C103.527 52.2308 109.844 47.4683 110.026 45.8359C110.208 44.2036 108.01 42.8909 106.452 43.076Z" fill="#92E3A9"/>
<path opacity="0.5" d="M106.452 43.076C105.829 43.1467 104.809 43.6314 103.793 44.2069C104.025 44.1624 104.264 44.1872 104.482 44.2782C104.7 44.3691 104.886 44.5223 105.018 44.7185C105.775 45.6912 104.153 48.8213 104.153 48.8213C104.153 48.8213 103.48 44.493 103.507 45.7922C103.534 47.0914 103.17 51.0831 103.17 51.0831C103.17 51.0831 101.009 48.4915 101.117 49.1411C101.225 49.7907 102.628 55.8355 103.493 58.104C104.358 60.3725 102.844 66.7438 101.982 68.5815C101.12 70.4192 101.645 60.8067 100.686 63.1795C99.7269 65.5524 96.4857 72.1526 95.7284 72.8022C94.9711 73.4517 95.9708 63.9941 96.24 62.7622C95.9034 63.7921 93.6787 70.3149 93.6787 70.3149L90.6495 62.5401C90.6495 62.5401 85.4663 58.3262 86.0048 59.0835C86.5433 59.8407 87.8425 62.2169 87.8425 62.2169C87.8425 62.2169 84.709 61.5674 85.2509 61.7828C85.7928 61.9982 88.1656 63.1863 88.1656 63.1863C88.1656 63.1863 83.3089 66.6597 81.9054 67.0771C81.528 67.1883 81.1399 67.2593 80.7476 67.2891C80.8488 67.5713 80.9955 67.835 81.1817 68.07C82.555 69.81 83.8373 68.6186 84.4768 68.2551C85.1163 67.8916 90.1548 63.1257 90.1548 63.1257L94.8028 74.2158C94.8028 74.2158 101.238 69.9009 108.104 70.1769L103.527 52.2308C103.527 52.2308 109.844 47.4683 110.026 45.8359C110.208 44.2036 108.01 42.8909 106.452 43.076Z" fill="white"/>
</g>
<path d="M106.452 43.076C104.897 43.2578 100.868 46.0042 100.592 46.2802C100.316 46.5562 99.2188 47.1957 98.7611 47.5626C98.7611 47.5626 89.337 53.4223 88.5057 53.9574C87.6744 54.4926 86.0352 55.6033 86.1261 55.9769C86.217 56.3505 81.2727 64.3912 81.2727 64.3912C81.2727 64.3912 79.8086 66.313 81.1819 68.0531C82.5551 69.7932 83.8374 68.6017 84.4769 68.2382C85.1164 67.8747 90.1549 63.1089 90.1549 63.1089L94.803 74.2158C94.803 74.2158 101.238 69.9009 108.104 70.1769L103.527 52.2308C103.527 52.2308 109.844 47.4683 110.026 45.8359C110.208 44.2036 108.01 42.8909 106.452 43.076Z" stroke="#263238" stroke-linecap="round" stroke-linejoin="round"/>
<path d="M94.803 74.2157C94.5324 71.6926 94.6619 69.1425 95.1867 66.6597L94.803 74.2157Z" fill="white"/>
<path d="M94.803 74.2157C94.5324 71.6926 94.6619 69.1425 95.1867 66.6597" stroke="#263238" stroke-linecap="round" stroke-linejoin="round"/>
<path d="M93.9316 68.6053C93.9316 68.6053 93.9316 67.0571 95.6717 62.2104L93.9316 68.6053Z" fill="white"/>
<path d="M93.9316 68.6053C93.9316 68.6053 93.9316 67.0571 95.6717 62.2104" stroke="#263238" stroke-linecap="round" stroke-linejoin="round"/>
<path d="M86.584 59.0972L90.1551 63.1259L86.4932 60.4704" fill="white"/>
<path d="M86.584 59.0972L90.1551 63.1259L86.4932 60.4704" stroke="#263238" stroke-linecap="round" stroke-linejoin="round"/>
<path d="M103.524 47.1052V52.2312L104.712 45.6377" fill="white"/>
<path d="M103.524 47.1052V52.2312L104.712 45.6377" stroke="#263238" stroke-linecap="round" stroke-linejoin="round"/>
<path d="M96.2705 62.6481C96.2566 62.6852 96.2464 62.7235 96.2402 62.7626C96.2806 62.6381 96.2941 62.5909 96.2705 62.6481Z" fill="#263238"/>
<path d="M98.3639 40.7001C98.1115 40.702 97.8652 40.6227 97.6612 40.474C97.4572 40.3252 97.3064 40.1149 97.231 39.874C97.1556 39.6331 97.1596 39.3743 97.2424 39.1359C97.3252 38.8974 97.4823 38.6918 97.6908 38.5494L111.265 29.2398C111.392 29.1514 111.536 29.089 111.688 29.0561C111.839 29.0232 111.996 29.0206 112.149 29.0482C112.301 29.0759 112.447 29.1333 112.577 29.2173C112.708 29.3013 112.821 29.4102 112.909 29.5377C112.997 29.6652 113.06 29.8089 113.093 29.9605C113.126 30.1121 113.128 30.2688 113.101 30.4214C113.073 30.5741 113.015 30.7198 112.931 30.8503C112.847 30.9808 112.739 31.0934 112.611 31.1818L99.0371 40.4948C98.8389 40.6302 98.604 40.7019 98.3639 40.7001Z" fill="#263238"/>
<path d="M101.888 38.7344L112.443 31.4712" stroke="white" stroke-linecap="round" stroke-linejoin="round"/>
<path d="M100.697 36.5196L111.252 29.2598" stroke="white" stroke-linecap="round" stroke-linejoin="round"/>
<path d="M94.9141 75.7471C94.9141 75.7471 84.7462 87.5709 84.5241 90.2635C84.3019 92.956 86.318 95.6486 88.7851 96.3218C91.2522 96.9949 115.304 97.5301 115.304 97.5301L115.078 93.0436L93.7226 89.8158L100.791 82.9901" fill="#263238"/>
<path d="M94.9141 75.7471C94.9141 75.7471 84.7462 87.5709 84.5241 90.2635C84.3019 92.956 86.318 95.6486 88.7851 96.3218C91.2522 96.9949 115.304 97.5301 115.304 97.5301L115.078 93.0436L93.7226 89.8158L100.791 82.9901" stroke="#263238" stroke-linecap="round" stroke-linejoin="round"/>
<g opacity="0.35">
<path d="M110.807 95.0298L112.433 95.2149" stroke="white" stroke-linecap="round" stroke-linejoin="round"/>
<path d="M87.9405 89.4019L87.4761 89.9909C87.4761 89.9909 90.3773 89.8461 89.7984 90.425C89.4138 90.8797 89.1623 91.4318 89.0714 92.0204L90.8115 91.5862C90.8115 91.5862 89.8018 93.6057 90.5221 93.4744C91.0734 93.3386 91.6083 93.1434 92.1174 92.8921L108.946 94.8139" stroke="white" stroke-linecap="round" stroke-linejoin="round"/>
<path d="M97.6338 73.728C97.6338 73.728 94.8739 75.6162 96.1832 75.9057C97.4925 76.1951 99.0844 75.7609 98.6469 76.3398C98.012 77.0502 97.3378 77.7244 96.6275 78.3593L90.1484 86.5851" stroke="white" stroke-linecap="round" stroke-linejoin="round"/>
<path d="M96.1831 75.9153C96.1831 75.9153 97.7785 73.593 101.407 73.4482" stroke="white" stroke-linecap="round" stroke-linejoin="round"/>
</g>
<path d="M114.614 93.0031C114.614 93.0031 117.142 92.4276 117.603 93.232C118.064 94.0364 118.293 95.9885 118.293 96.9074C118.293 97.8262 118.966 99.3206 118.865 100.701C118.764 102.081 116.684 103.572 115.994 103.572C115.304 103.572 115.321 99.435 114.614 97.8262C113.907 96.2174 113.813 93.922 114.614 93.0031Z" fill="white" stroke="#263238" stroke-linecap="round" stroke-linejoin="round"/>
<path d="M116.209 103.535C117.037 103.306 118.76 101.956 118.865 100.701C118.982 99.3208 118.292 97.8264 118.292 96.9076C118.292 95.9887 118.06 94.0366 117.602 93.2322C117.397 92.8721 116.778 92.7879 116.155 92.8047C115.988 92.9755 115.863 93.1825 115.79 93.4097C115.716 93.6368 115.696 93.8779 115.731 94.114C115.893 95.43 117.209 100.775 116.717 102.256C116.573 102.692 116.403 103.119 116.209 103.535Z" fill="white" stroke="#263238" stroke-linecap="round" stroke-linejoin="round"/>
<path d="M117.603 93.2492C117.478 93.0728 117.29 92.9521 117.078 92.9126C116.643 93.5064 116.433 94.2351 116.485 94.9691C116.63 97.1601 117.071 98.9171 117.216 100.815C117.321 101.65 117.192 102.497 116.842 103.262C117.704 102.747 118.784 101.707 118.862 100.721C118.979 99.3411 118.289 97.8468 118.289 96.9279C118.289 96.0091 118.06 94.0368 117.603 93.2492Z" fill="#263238" stroke="#263238" stroke-linecap="round" stroke-linejoin="round"/>
</svg>
