<svg width="25" height="24" viewBox="0 0 25 24" fill="none" xmlns="http://www.w3.org/2000/svg">
<path d="M14.5 6H22.5M18.5 2V10M6.599 19.5C5.29967 19.372 4.324 18.9813 3.672 18.328C2.5 17.157 2.5 15.271 2.5 11.5V11C2.5 7.229 2.5 5.343 3.672 4.172C4.844 3.001 6.729 3 10.5 3H12M7 18C6.795 19.002 5.878 21.166 6.816 21.865C7.306 22.222 8.087 21.841 9.65 21.079C10.746 20.544 11.856 19.931 13.055 19.655C13.493 19.555 13.94 19.512 14.5 19.5C18.271 19.5 20.157 19.5 21.328 18.328C22.447 17.21 22.498 15.44 22.5 12M8.5 14H14.5M8.5 9H11.5" stroke="white" stroke-width="2" stroke-linecap="round" stroke-linejoin="round"/>
</svg>
