<svg width="300" height="221" viewBox="0 0 300 221" fill="none" xmlns="http://www.w3.org/2000/svg">
<path d="M300 194.051H0V194.199H300V194.051Z" fill="#EBEBEB"/>
<path d="M98.7541 203.189H78.8821V203.337H98.7541V203.189Z" fill="#EBEBEB"/>
<path d="M155.304 201.583H150.09V201.731H155.304V201.583Z" fill="#EBEBEB"/>
<path d="M42.9901 199.083H31.4761V199.231H42.9901V199.083Z" fill="#EBEBEB"/>
<path d="M249.468 198.087H233.82V198.235H249.468V198.087Z" fill="#EBEBEB"/>
<path d="M228.474 198.087H214.41V198.235H228.474V198.087Z" fill="#EBEBEB"/>
<path d="M269.946 205.199H213.738V205.347H269.946V205.199Z" fill="#EBEBEB"/>
<path d="M142.2 167.616H26.346C25.4384 167.614 24.5686 167.257 23.9274 166.622C23.2862 165.988 22.926 165.128 22.926 164.231V3.35469C22.9339 2.46328 23.2975 1.61095 23.9379 0.982827C24.5782 0.354707 25.4436 0.00152703 26.346 0H142.2C143.109 0 143.98 0.356562 144.623 0.991245C145.265 1.62593 145.626 2.48674 145.626 3.38432V164.231C145.626 165.129 145.265 165.99 144.623 166.625C143.98 167.259 143.109 167.616 142.2 167.616ZM26.346 0.118541C25.4782 0.120111 24.6465 0.461752 24.0334 1.06848C23.4204 1.6752 23.076 2.49743 23.076 3.35469V164.231C23.076 165.089 23.4204 165.911 24.0334 166.518C24.6465 167.124 25.4782 167.466 26.346 167.468H142.2C143.068 167.466 143.901 167.125 144.515 166.518C145.129 165.911 145.474 165.089 145.476 164.231V3.35469C145.474 2.49689 145.129 1.67467 144.515 1.06812C143.901 0.46156 143.068 0.120107 142.2 0.118541H26.346Z" fill="#EBEBEB"/>
<path d="M271.986 167.616H156.126C155.218 167.614 154.347 167.257 153.705 166.623C153.063 165.988 152.702 165.129 152.7 164.231V3.35469C152.709 2.46274 153.074 1.61041 153.716 0.982456C154.357 0.354499 155.223 0.00151037 156.126 0H271.986C272.887 0.00308471 273.751 0.356954 274.39 0.984907C275.029 1.61286 275.392 2.4643 275.4 3.35469V164.231C275.4 165.127 275.041 165.986 274.401 166.62C273.761 167.255 272.892 167.613 271.986 167.616ZM156.126 0.118541C155.258 0.120107 154.425 0.46156 153.811 1.06812C153.197 1.67467 152.852 2.49689 152.85 3.35469V164.231C152.852 165.089 153.197 165.911 153.811 166.518C154.425 167.125 155.258 167.466 156.126 167.468H271.986C272.854 167.466 273.687 167.125 274.301 166.518C274.915 165.911 275.26 165.089 275.262 164.231V3.35469C275.26 2.49689 274.915 1.67467 274.301 1.06812C273.687 0.46156 272.854 0.120107 271.986 0.118541H156.126Z" fill="#EBEBEB"/>
<path d="M56.814 100.101H50.496V129.724H56.814V100.101Z" fill="#B8B8B8"/>
<path d="M55.794 102.383H51.51V122.469H55.794V102.383Z" fill="#FAFAFA"/>
<path d="M56.808 129.73H70.296V100.107H56.808V129.73Z" fill="#E0E0E0"/>
<path d="M64.4461 100.101H58.1281V129.724H64.4461V100.101Z" fill="#B8B8B8"/>
<path d="M63.4319 102.383H59.1479V122.469H63.4319V102.383Z" fill="#FAFAFA"/>
<path d="M64.446 129.73H77.934V100.107H64.446V129.73Z" fill="#E0E0E0"/>
<path d="M73.296 88.5674H71.01V194.044H73.296V88.5674Z" fill="#EBEBEB"/>
<path d="M34.974 88.5674H32.688V194.044H34.974V88.5674Z" fill="#EBEBEB"/>
<path d="M83.142 88.5674H80.856V194.044H83.142V88.5674Z" fill="#EBEBEB"/>
<path d="M44.8199 88.5674H42.5339V194.044H44.8199V88.5674Z" fill="#EBEBEB"/>
<path d="M46.2479 144.198H39.9299V173.821H46.2479V144.198Z" fill="#B8B8B8"/>
<path d="M45.234 146.48H40.95V166.567H45.234V146.48Z" fill="#FAFAFA"/>
<path d="M46.248 173.827H59.736L59.736 144.204H46.248V173.827Z" fill="#E0E0E0"/>
<path d="M53.886 144.198H47.568V173.821H53.886V144.198Z" fill="#B8B8B8"/>
<path d="M52.866 146.48H48.582V166.567H52.866V146.48Z" fill="#FAFAFA"/>
<path d="M53.88 173.827H67.368V144.204H53.88V173.827Z" fill="#E0E0E0"/>
<path d="M83.142 85.6328H31.476V88.5726H83.142V85.6328Z" fill="#B8B8B8"/>
<path d="M83.1421 129.73H31.4761V132.67H83.1421V129.73Z" fill="#B8B8B8"/>
<path d="M83.142 173.827H31.476V176.767H83.142V173.827Z" fill="#B8B8B8"/>
<path d="M48.582 62.8677L83.892 62.8677V19.0256L48.582 19.0256L48.582 62.8677Z" fill="#B8B8B8"/>
<path d="M40.782 62.8677L82.536 62.8677V19.0256L40.782 19.0256L40.782 62.8677Z" fill="#F5F5F5"/>
<path d="M44.286 22.4819V59.4131H79.044V22.4819H44.286Z" fill="#C0C0C0" fill-opacity="0.4"/>
<path d="M61.662 48.696C65.9963 48.696 69.51 45.225 69.51 40.9434C69.51 36.6618 65.9963 33.1909 61.662 33.1909C57.3276 33.1909 53.814 36.6618 53.814 40.9434C53.814 45.225 57.3276 48.696 61.662 48.696Z" fill="#B8B8B8"/>
<path d="M129.996 89.3081L263.658 89.3081V12.4822L129.996 12.4822V89.3081Z" fill="#B8B8B8"/>
<path d="M110.634 89.3081L259.95 89.3081V12.4822L110.634 12.4822V89.3081Z" fill="#F5F5F5"/>
<path d="M119.322 18.5398V83.2568L251.262 83.2568V18.5398L119.322 18.5398Z" fill="#C0C0C0" fill-opacity="0.4"/>
<path d="M119.322 18.5399V39.1777L251.262 39.1777V18.5399L119.322 18.5399Z" fill="#FAFAFA"/>
<path d="M119.322 55.963V83.2568L251.262 83.2568V55.963L119.322 55.963Z" fill="#B8B8B8"/>
<path d="M262.896 135.332H258.954V194.044H262.896V135.332Z" fill="#E6E6E6"/>
<path d="M264.138 135.332H261.402V194.044H264.138V135.332Z" fill="#B8B8B8"/>
<path d="M160.974 141.958H264.984V135.337H160.974V141.958Z" fill="#B8B8B8"/>
<path d="M159.21 141.951H155.268V194.044H159.21V141.951Z" fill="#E6E6E6"/>
<path d="M160.452 141.951H157.716V194.044H160.452V141.951Z" fill="#B8B8B8"/>
<path d="M134.274 141.951H130.332V194.044H134.274V141.951Z" fill="#E6E6E6"/>
<path d="M135.516 141.951H132.78V194.044H135.516V141.951Z" fill="#E6E6E6"/>
<path d="M237.96 141.951H234.018V194.044H237.96V141.951Z" fill="#E6E6E6"/>
<path d="M239.202 141.951H236.466V194.044H239.202V141.951Z" fill="#E6E6E6"/>
<path d="M160.974 135.332H130.332V141.952H160.974V135.332Z" fill="#E6E6E6"/>
<path d="M239.292 121.901C235.938 125.605 223.914 129.464 220.362 117.823C217.776 109.365 232.23 103.106 240.882 102.745C250.2 102.359 255.708 105.602 255.708 105.602C249.929 110.724 244.449 116.166 239.292 121.901Z" fill="#E6E6E6"/>
<path d="M220.356 124.366C225.078 124.864 233.106 121.302 229.926 111.511C226.746 101.719 220.254 100.806 215.958 99.9884C210.48 98.9452 199.53 103.367 199.53 103.367C199.53 103.367 215.64 123.874 220.356 124.366Z" fill="#E6E6E6"/>
<path d="M232.71 106.479C226.764 109.146 221.778 110.035 224.592 101.738C227.406 93.4397 230.832 89.439 236.418 87.7498C243.534 85.5923 251.982 90.2273 251.982 90.2273C251.982 90.2273 238.65 103.812 232.71 106.479Z" fill="#E6E6E6"/>
<path d="M224.64 105.915C229.176 107.243 232.752 106.965 229.368 98.9572C225.984 90.9498 223.728 89.9481 219.846 88.413C212.646 85.574 206.646 90.6712 206.646 90.6712C206.646 90.6712 220.098 104.588 224.64 105.915Z" fill="#E6E6E6"/>
<path d="M234.516 92.704C229.584 96.9714 225.042 99.6741 225.246 93.0418C225.45 86.4095 228.936 80.4588 234.246 77.7857C237.9 75.9424 245.976 76.7722 245.976 76.7722C245.976 76.7722 239.448 88.4365 234.516 92.704Z" fill="#E6E6E6"/>
<path d="M221.802 91.5958C225.03 94.1385 227.802 95.478 226.812 90.0844C225.822 84.6908 223.992 83.2446 220.908 81.3421C218.425 79.8998 215.477 79.4523 212.67 80.0915C212.67 80.0915 218.574 89.0531 221.802 91.5958Z" fill="#E6E6E6"/>
<path d="M244.02 121.771H211.608L215.874 135.332H239.754L244.02 121.771Z" fill="#B8B8B8"/>
<path d="M150 220.817C214.249 220.817 266.334 217.813 266.334 214.107C266.334 210.402 214.249 207.398 150 207.398C85.7505 207.398 33.666 210.402 33.666 214.107C33.666 217.813 85.7505 220.817 150 220.817Z" fill="#F5F5F5"/>
<path d="M172.554 77.134L171.816 78.1001C171.576 78.4083 171.324 78.6928 171.078 78.9951C170.592 79.5878 170.07 80.1805 169.554 80.7258C168.493 81.8722 167.374 82.9642 166.2 83.9975C165.6 84.525 165 85.0406 164.334 85.5444C163.668 86.0482 162.99 86.5283 162.258 87.0025C160.616 88.1047 158.787 88.9076 156.858 89.3733L156.648 89.4207C156.451 89.4659 156.25 89.4917 156.048 89.4977C155.069 89.531 154.094 89.3614 153.186 88.9999C152.551 88.7514 151.947 88.4312 151.386 88.0456C150.518 87.4416 149.714 86.7526 148.986 85.989C147.752 84.691 146.636 83.2888 145.65 81.7986C144.708 80.3761 143.85 78.9417 143.082 77.4778C142.299 76.0139 141.594 74.5103 140.97 72.9732C140.751 72.4521 140.726 71.8707 140.902 71.3335C141.078 70.7964 141.442 70.3388 141.928 70.0431C142.415 69.7473 142.993 69.6328 143.557 69.7201C144.122 69.8075 144.636 70.0909 145.008 70.5195L145.062 70.5787L148.152 74.0283C149.19 75.1662 150.228 76.2864 151.284 77.3355C152.263 78.3363 153.31 79.271 154.416 80.1331C154.837 80.4639 155.294 80.7481 155.778 80.9806C155.878 81.0337 155.989 81.0622 156.102 81.0636C156.102 81.0636 155.964 80.951 155.592 80.951L154.77 81.0814C155.579 80.676 156.34 80.183 157.038 79.6115C157.982 78.8417 158.885 78.0246 159.744 77.1636C160.638 76.2568 161.544 75.3085 162.426 74.3246L163.734 72.8369L164.982 71.3848L165.132 71.2129C165.947 70.2948 167.09 69.7229 168.322 69.6163C169.553 69.5096 170.779 69.8766 171.743 70.6407C172.708 71.4047 173.337 72.507 173.499 73.7177C173.661 74.9285 173.344 76.1543 172.614 77.1399L172.554 77.134Z" fill="#263238"/>
<path d="M141.882 71.4908C139.566 71.8465 137.364 68.1362 137.364 68.1362L135.63 66.0973C135.349 65.7647 135.195 65.3452 135.195 64.9119C135.195 64.4786 135.349 64.059 135.63 63.7265L137.124 62.0076C137.286 61.8217 137.484 61.6696 137.707 61.5602C137.929 61.4507 138.172 61.3861 138.42 61.3701C138.668 61.3541 138.916 61.3871 139.151 61.467C139.386 61.547 139.603 61.6723 139.788 61.8357L141.774 63.6138C142.129 63.9285 142.411 64.3145 142.602 64.7459L143.376 66.524C143.7 67.2615 143.805 68.0745 143.68 68.8686C143.554 69.6628 143.203 70.4056 142.668 71.0107L142.524 71.1767C142.35 71.3465 142.125 71.4566 141.882 71.4908Z" fill="#FFC3BD"/>
<path d="M198.36 156.378C195.426 134.91 194.268 122.173 192.36 111.499L173.874 111.226C173.874 111.226 182.172 145.46 186.12 159.436C190.068 173.412 212.4 208.121 212.4 208.121L217.308 205.24C217.308 205.24 203.64 172.636 198.36 156.378Z" fill="#263238"/>
<path d="M209.118 213.514C209.118 213.514 212.814 209.051 212.754 207.54L216.822 205.169L219.06 209.585L217.098 210.77L216.498 210.586L216.072 211.369C214.044 212.554 210.78 214.368 209.262 214.646C209.144 214.485 209.068 214.296 209.043 214.098C209.018 213.901 209.044 213.7 209.118 213.514Z" fill="#263238"/>
<path d="M191.556 68.2793C185.022 67.4792 175.68 67.5503 169.416 68.6231C167.852 68.904 166.416 69.6633 165.313 70.7939C164.209 71.9245 163.493 73.3691 163.266 74.9235C161.946 84.2645 163.08 100.593 163.926 117.005C178.224 121.842 193.326 116.94 193.326 116.94C193.848 113.621 192.678 102.757 191.886 96.9601C193.086 90.9679 195.57 84.1104 197.226 76.1563C197.424 75.2671 197.432 74.3467 197.248 73.4544C197.064 72.5622 196.693 71.7178 196.159 70.9757C195.625 70.2337 194.94 69.6104 194.147 69.1459C193.354 68.6815 192.471 68.3863 191.556 68.2793Z" fill="#263238"/>
<path d="M174.708 67.9941C173.825 69.0041 173.271 70.2538 173.118 71.5799C172.446 75.3732 173.208 81.2231 175.23 87.9266C177.168 82.5271 181.338 75.3791 183.906 71.2302C185.106 69.2624 185.964 67.9644 186.042 67.8459C182.308 66.9844 178.418 67.0353 174.708 67.9941Z" fill="url(#paint0_linear_1819_7616)"/>
<path d="M185.088 55.9448L177.648 61.9726C178.608 64.5034 178.914 67.135 174.708 68.1485C173.658 69.5236 175.512 71.112 177.252 71.8114C180.06 71.4677 184.014 70.543 185.724 68.2552C185.184 66.3823 184.368 59.6848 185.088 55.9448Z" fill="#FFC3BD"/>
<path d="M175.476 70.2885C175.786 71.1712 176.316 71.9622 177.018 72.5881C178.152 72.5881 179.814 71.3257 179.814 71.3257C179.814 71.3257 179.172 69.5476 178.272 69.186C175.968 69.7432 175.476 70.2885 175.476 70.2885Z" fill="#C0C0C0" fill-opacity="0.4"/>
<path d="M178.068 71.8119C177.891 71.6794 177.689 71.5833 177.473 71.5294C177.258 71.4754 177.034 71.4647 176.814 71.4978C175.326 73.59 174.378 76.8321 173.46 80.578C173.899 83.0609 174.49 85.5152 175.23 87.9275C176.06 85.6988 177.026 83.5216 178.122 81.4077C177.703 78.2236 177.685 75.0005 178.068 71.8119Z" fill="#C0C0C0" fill-opacity="0.4"/>
<path opacity="0.2" d="M181.986 58.458L177.648 61.9668C177.883 62.5526 178.058 63.1602 178.17 63.7805C179.85 63.899 182.19 62.2217 182.298 60.7043C182.334 59.943 182.228 59.1817 181.986 58.458Z" fill="black"/>
<path d="M173.94 45.9698C171.54 47.3448 172.782 48.714 172.782 48.714C172.782 48.714 171.756 51.4404 173.118 53.3192C179.502 45.7682 173.94 45.9698 173.94 45.9698Z" fill="#263238"/>
<path d="M186.156 51.8322C185.478 56.4434 185.316 59.1758 182.748 61.345C178.872 64.599 173.256 61.9377 172.548 57.1961C171.888 52.9405 173.106 46.1126 177.864 44.6842C178.917 44.3727 180.032 44.3298 181.107 44.5596C182.181 44.7893 183.178 45.2842 184.007 45.9981C184.835 46.7119 185.466 47.6214 185.842 48.6416C186.218 49.6619 186.326 50.7595 186.156 51.8322Z" fill="#FFC3BD"/>
<path d="M186.048 54.712C183.048 55.0202 183.606 50.1423 184.632 49.1821C181.704 49.2355 182.268 47.3033 182.628 46.592C177.75 47.6056 174.3 47.8189 172.098 45.4066C170.466 43.6285 168.732 45.62 168.216 43.7589C169.416 44.3931 171.582 41.2222 173.046 42.538C174.51 43.8538 175.968 39.2544 178.182 41.2222C181.182 43.8597 189.054 36.6762 188.334 44.5946C192.444 48.0145 186.918 50.1779 187.278 53.8111C186.15 55.4766 186.048 54.712 186.048 54.712Z" fill="#263238"/>
<path d="M186.756 45.5777C186.684 45.5772 186.614 45.5513 186.559 45.5046C186.504 45.4579 186.467 45.3935 186.456 45.3228C186.446 45.245 186.467 45.1664 186.516 45.1042C186.564 45.042 186.635 45.0012 186.714 44.9909C187.685 44.737 188.535 44.1537 189.114 43.3432C189.287 43.1023 189.404 42.826 189.455 42.5346C189.506 42.2433 189.49 41.9443 189.408 41.6599C189.388 41.5837 189.398 41.5027 189.437 41.434C189.477 41.3654 189.541 41.3146 189.618 41.2925C189.655 41.2816 189.695 41.2783 189.733 41.2826C189.772 41.2869 189.81 41.2988 189.844 41.3175C189.878 41.3363 189.908 41.3615 189.932 41.3918C189.956 41.4221 189.974 41.4568 189.984 41.494C190.087 41.86 190.108 42.244 190.045 42.6188C189.982 42.9936 189.836 43.3502 189.618 43.6633C188.945 44.6243 187.937 45.3061 186.786 45.5777H186.756Z" fill="#263238"/>
<path d="M187.74 55.4115C187.298 56.3872 186.482 57.1501 185.472 57.5333C184.128 58.0312 183.318 56.8695 183.582 55.5478C183.822 54.3624 184.782 52.6791 186.21 52.7502C186.517 52.77 186.813 52.8647 187.074 53.0258C187.334 53.187 187.55 53.4095 187.701 53.6733C187.853 53.9372 187.936 54.2342 187.943 54.5376C187.95 54.841 187.88 55.1413 187.74 55.4115Z" fill="#FFC3BD"/>
<path d="M179.154 51.9974C179.118 52.3768 178.89 52.6672 178.644 52.6435C178.398 52.6198 178.212 52.2938 178.248 51.9144C178.284 51.5351 178.506 51.2506 178.758 51.2743C179.01 51.298 179.184 51.624 179.154 51.9974Z" fill="#263238"/>
<path d="M174.6 51.8909C174.564 52.2703 174.336 52.5548 174.09 52.5311C173.844 52.5074 173.658 52.1873 173.694 51.808C173.73 51.4286 173.952 51.1441 174.204 51.1619C174.456 51.1797 174.6 51.5116 174.6 51.8909Z" fill="#263238"/>
<path d="M175.956 52.395C175.405 53.5088 174.698 54.5403 173.856 55.4593C174.1 55.6683 174.388 55.8222 174.699 55.9102C175.01 55.9982 175.336 56.0183 175.656 55.969L175.956 52.395Z" fill="#ED847E"/>
<path d="M180.714 50.8651C180.751 50.8742 180.791 50.8742 180.828 50.8651C180.883 50.8427 180.928 50.7997 180.951 50.7454C180.975 50.6911 180.976 50.6298 180.954 50.5747C180.828 50.2428 180.624 49.945 180.36 49.706C180.095 49.4669 179.776 49.2934 179.43 49.1996C179.401 49.1936 179.372 49.1932 179.343 49.1986C179.314 49.204 179.286 49.215 179.262 49.231C179.237 49.247 179.216 49.2677 179.2 49.2918C179.183 49.3159 179.172 49.343 179.166 49.3715C179.153 49.4297 179.165 49.4903 179.197 49.5403C179.23 49.5902 179.281 49.6255 179.34 49.6382C179.614 49.7151 179.866 49.8551 180.074 50.0467C180.283 50.2384 180.443 50.4762 180.54 50.7407C180.557 50.7736 180.581 50.8021 180.612 50.8238C180.642 50.8454 180.677 50.8596 180.714 50.8651Z" fill="#263238"/>
<path d="M172.902 50.4502C172.937 50.4617 172.975 50.4644 173.012 50.4582C173.048 50.452 173.083 50.4371 173.112 50.4147C173.333 50.2411 173.592 50.1225 173.869 50.0688C174.146 50.0152 174.431 50.0281 174.702 50.1065C174.73 50.1167 174.76 50.1213 174.789 50.12C174.819 50.1187 174.848 50.1114 174.875 50.0987C174.902 50.086 174.926 50.068 174.946 50.046C174.966 50.0239 174.981 49.9981 174.99 49.9702C175.01 49.9151 175.007 49.8546 174.982 49.8016C174.958 49.7485 174.913 49.7069 174.858 49.6857C174.516 49.5841 174.155 49.5651 173.804 49.63C173.453 49.695 173.123 49.8421 172.842 50.0591C172.794 50.0945 172.761 50.1475 172.752 50.2063C172.743 50.2652 172.758 50.3252 172.794 50.3732C172.823 50.4072 172.86 50.4337 172.902 50.4502Z" fill="#263238"/>
<path d="M186.048 67.8403C185.97 67.9589 185.118 69.2569 183.912 71.2246C182.687 72.3396 181.187 73.1164 179.562 73.4769C179.808 72.6827 179.088 70.0037 178.29 69.1798C180.938 69.2141 183.569 68.7599 186.048 67.8403Z" fill="url(#paint1_linear_1819_7616)"/>
<path opacity="0.3" d="M186.048 67.8403C185.97 67.9589 185.118 69.2569 183.912 71.2246C182.687 72.3396 181.187 73.1164 179.562 73.4769C179.808 72.6827 179.088 70.0037 178.29 69.1798C180.938 69.2141 183.569 68.7599 186.048 67.8403Z" fill="#C0C0C0" fill-opacity="0.4"/>
<path d="M178.272 69.185C177.412 69.5556 176.637 70.095 175.994 70.7705C175.352 71.4461 174.855 72.2436 174.534 73.1146C174.202 72.9722 173.903 72.7617 173.659 72.4971C173.415 72.2325 173.231 71.9197 173.118 71.5795C173.271 70.2534 173.825 69.0037 174.708 67.9937C175.14 68.5389 176.328 69.0783 178.272 69.185Z" fill="url(#paint2_linear_1819_7616)"/>
<path opacity="0.3" d="M178.272 69.185C177.412 69.5556 176.637 70.095 175.994 70.7705C175.352 71.4461 174.855 72.2436 174.534 73.1146C174.202 72.9722 173.903 72.7617 173.659 72.4971C173.415 72.2325 173.231 71.9197 173.118 71.5795C173.271 70.2534 173.825 69.0037 174.708 67.9937C175.14 68.5389 176.328 69.0783 178.272 69.185Z" fill="#C0C0C0" fill-opacity="0.4"/>
<path d="M196.11 71.0284C197.31 72.3798 198.336 73.6778 199.38 75.0588C200.424 76.4398 201.408 77.8326 202.344 79.3084C203.326 80.8069 204.22 82.3604 205.02 83.9611C205.456 84.8218 205.846 85.7041 206.19 86.6046C206.601 87.6638 206.901 88.7622 207.084 89.8822L207.132 90.1726C207.228 90.7703 207.168 91.3823 206.958 91.9507C206.272 93.7416 205.291 95.4079 204.054 96.882C203.514 97.5506 202.935 98.1878 202.32 98.7905C201.72 99.3832 201.12 99.9759 200.52 100.48C199.288 101.518 197.992 102.478 196.638 103.354C195.296 104.24 193.892 105.033 192.438 105.725C191.928 106.012 191.33 106.104 190.756 105.985C190.182 105.865 189.672 105.542 189.323 105.077C188.973 104.611 188.809 104.036 188.86 103.458C188.911 102.881 189.174 102.342 189.6 101.944L189.708 101.831C190.638 100.835 191.664 99.7625 192.588 98.7135C193.512 97.6644 194.436 96.5975 195.258 95.5188C196.062 94.5006 196.792 93.4271 197.442 92.3064C197.985 91.3959 198.39 90.4113 198.642 89.3843L198.516 91.4292C198.348 90.952 198.148 90.4866 197.916 90.0363C197.622 89.4792 197.316 88.8509 196.92 88.2582C196.524 87.6655 196.146 87.0313 195.72 86.4149C195.294 85.7985 194.868 85.1702 194.418 84.5479C193.512 83.3092 192.576 82.0526 191.61 80.8139L188.73 77.1451L188.67 77.068C187.888 76.0952 187.524 74.8582 187.656 73.6231C187.788 72.388 188.405 71.2533 189.375 70.4629C190.345 69.6725 191.59 69.2896 192.843 69.3965C194.096 69.5034 195.256 70.0914 196.074 71.0343L196.11 71.0284Z" fill="#263238"/>
<path d="M192 104.736C192.014 104.481 191.935 104.229 191.778 104.025L190.47 102.247C190.346 102.076 190.175 101.944 189.977 101.867C189.779 101.789 189.563 101.769 189.354 101.808L187.494 102.152C185.691 102.491 183.982 103.208 182.484 104.256L181.992 104.6C181.789 104.742 181.617 104.922 181.486 105.131C181.355 105.339 181.267 105.571 181.228 105.814C181.189 106.056 181.199 106.304 181.258 106.542C181.317 106.78 181.424 107.005 181.572 107.202L182.934 109.021C183.197 109.373 183.578 109.621 184.009 109.721C184.439 109.821 184.892 109.766 185.286 109.567L187.686 108.346C187.686 108.346 191.862 107.048 192 104.736Z" fill="#FFC3BD"/>
<path d="M190.974 101.191C190.102 101.078 189.218 101.096 188.352 101.245C187.818 102.602 190.086 106.686 191.25 107.397C191.994 107.225 193.686 105.791 193.686 105.791C192.69 104.481 191.658 102.193 190.974 101.191Z" fill="url(#paint3_linear_1819_7616)"/>
<path d="M145.068 70.531C145.087 69.6634 144.972 68.7979 144.726 67.9646C143.304 67.5912 139.446 70.2643 138.858 71.4853C139.11 72.1965 140.742 73.702 140.742 73.702C141.954 72.5759 144.138 71.3075 145.068 70.531Z" fill="url(#paint4_linear_1819_7616)"/>
<path d="M212.184 208.428L217.728 205.376L216.462 201.986L210.3 206.111L212.184 208.428Z" fill="url(#paint5_linear_1819_7616)"/>
<path d="M180.198 158.31C181.518 136.653 184.05 122.156 182.994 111.487L164.532 111.214C164.532 111.214 166.404 145.591 167.532 159.887C168.66 174.183 174.9 209.532 174.9 209.532H180.612C180.612 209.532 182.202 175.072 180.198 158.31Z" fill="#263238"/>
<path d="M165.636 212.53C165.636 212.53 174.918 210.551 175.506 209.223H180.24L180.39 214.154H176.532L176.064 213.704L175.344 214.154C172.986 214.154 166.8 214.066 165.3 213.562C165.255 213.376 165.263 213.181 165.322 213C165.381 212.818 165.49 212.655 165.636 212.53Z" fill="#263238"/>
<path d="M174.612 209.703L180.972 209.875L181.266 206.319L173.886 206.757L174.612 209.703Z" fill="url(#paint6_linear_1819_7616)"/>
<path d="M177.42 57.3264C177.175 57.3345 176.931 57.3227 176.688 57.2908C176.671 57.2881 176.656 57.282 176.642 57.2728C176.628 57.2637 176.616 57.2518 176.607 57.2378C176.598 57.2239 176.592 57.2082 176.589 57.1918C176.587 57.1754 176.588 57.1587 176.592 57.1427C176.598 57.109 176.617 57.079 176.645 57.0591C176.673 57.0391 176.708 57.0308 176.742 57.036C177.29 57.1137 177.849 57.0694 178.377 56.9063C178.905 56.7432 179.39 56.4656 179.796 56.0936C179.806 56.0776 179.819 56.0639 179.834 56.0536C179.85 56.0433 179.868 56.0366 179.887 56.034C179.905 56.0313 179.924 56.0329 179.942 56.0384C179.96 56.044 179.977 56.0535 179.99 56.0662C180.004 56.0789 180.015 56.0945 180.022 56.1118C180.029 56.1291 180.031 56.1477 180.03 56.1662C180.029 56.1848 180.023 56.2028 180.014 56.2189C180.004 56.2351 179.991 56.249 179.976 56.2595C179.286 56.9146 178.376 57.2945 177.42 57.3264Z" fill="#263238"/>
<path d="M214.044 151.594H209.076V152.187H214.044V151.594Z" fill="url(#paint7_linear_1819_7616)"/>
<path d="M228.882 151.594H217.722V152.187H228.882V151.594Z" fill="url(#paint8_linear_1819_7616)"/>
<path d="M232.512 127.579H162.912L151.692 148.056C151.58 148.263 151.523 148.495 151.527 148.729C151.532 148.964 151.598 149.193 151.719 149.395C151.839 149.597 152.011 149.765 152.216 149.883C152.422 150 152.655 150.063 152.892 150.066H232.512L238.2 138.804L232.512 127.579Z" fill="url(#paint9_linear_1819_7616)"/>
<path d="M154.482 28.354C166.512 29.4461 177.744 34.7703 186.134 43.3569C194.523 51.9435 199.512 63.2211 200.19 75.1359C200.2 75.3623 200.268 75.5824 200.387 75.7764C200.505 75.9703 200.671 76.1318 200.869 76.2461C201.067 76.3604 201.291 76.4239 201.521 76.4308C201.75 76.4378 201.977 76.3879 202.182 76.2857L210.636 72.1368C210.95 71.9762 211.299 71.8924 211.653 71.8924C212.007 71.8924 212.356 71.9762 212.67 72.1368L220.968 76.2324C221.183 76.3391 221.423 76.3884 221.663 76.3754C221.904 76.3623 222.136 76.2873 222.338 76.1579C222.54 76.0285 222.705 75.8491 222.815 75.6376C222.925 75.426 222.977 75.1898 222.966 74.9522C222.218 57.0748 214.783 40.1072 202.1 27.3332C189.417 14.5592 172.388 6.88708 154.308 5.80176L148.686 16.909L154.482 28.354Z" fill="url(#paint10_linear_1819_7616)"/>
<path opacity="0.6" d="M154.482 28.354C166.512 29.4461 177.744 34.7703 186.134 43.3569C194.523 51.9435 199.512 63.2211 200.19 75.1359C200.2 75.3623 200.268 75.5824 200.387 75.7764C200.505 75.9703 200.671 76.1318 200.869 76.2461C201.067 76.3604 201.291 76.4239 201.521 76.4308C201.75 76.4378 201.977 76.3879 202.182 76.2857L210.636 72.1368C210.95 71.9762 211.299 71.8924 211.653 71.8924C212.007 71.8924 212.356 71.9762 212.67 72.1368L220.968 76.2324C221.183 76.3391 221.423 76.3884 221.663 76.3754C221.904 76.3623 222.136 76.2873 222.338 76.1579C222.54 76.0285 222.705 75.8491 222.815 75.6376C222.925 75.426 222.977 75.1898 222.966 74.9522C222.218 57.0748 214.783 40.1072 202.1 27.3332C189.417 14.5592 172.388 6.88708 154.308 5.80176L148.686 16.909L154.482 28.354Z" fill="#C0C0C0" fill-opacity="0.4"/>
<path d="M99.81 73.3816C100.916 61.4971 106.306 50.4005 115 42.1129C123.693 33.8254 135.111 28.8985 147.174 28.2297C147.402 28.2169 147.623 28.1485 147.818 28.0306C148.013 27.9126 148.174 27.7488 148.289 27.5537C148.404 27.3587 148.468 27.1386 148.475 26.9131C148.483 26.6877 148.434 26.4639 148.332 26.2619L144.102 17.9107C143.945 17.5975 143.863 17.2527 143.863 16.9031C143.863 16.5536 143.945 16.2088 144.102 15.8956L148.254 7.70443C148.36 7.49126 148.409 7.25438 148.395 7.01709C148.38 6.7798 148.304 6.55029 148.172 6.35114C148.041 6.15198 147.859 5.99005 147.645 5.88127C147.431 5.77249 147.192 5.72061 146.952 5.73074C128.864 6.48427 111.7 13.8327 98.7757 26.3566C85.8516 38.8804 78.0842 55.6912 76.974 73.5416L88.2 79.0952L99.81 73.3816Z" fill="url(#paint11_linear_1819_7616)"/>
<path opacity="0.4" d="M99.81 73.3816C100.916 61.4971 106.306 50.4005 115 42.1129C123.693 33.8254 135.111 28.8985 147.174 28.2297C147.402 28.2169 147.623 28.1485 147.818 28.0306C148.013 27.9126 148.174 27.7488 148.289 27.5537C148.404 27.3587 148.468 27.1386 148.475 26.9131C148.483 26.6877 148.434 26.4639 148.332 26.2619L144.102 17.9107C143.945 17.5975 143.863 17.2527 143.863 16.9031C143.863 16.5536 143.945 16.2088 144.102 15.8956L148.254 7.70443C148.36 7.49126 148.409 7.25438 148.395 7.01709C148.38 6.7798 148.304 6.55029 148.172 6.35114C148.041 6.15198 147.859 5.99005 147.645 5.88127C147.431 5.77249 147.192 5.72061 146.952 5.73074C128.864 6.48427 111.7 13.8327 98.7757 26.3566C85.8516 38.8804 78.0842 55.6912 76.974 73.5416L88.2 79.0952L99.81 73.3816Z" fill="#C0C0C0" fill-opacity="0.4"/>
<path d="M145.392 127.382C133.362 126.291 122.129 120.969 113.738 112.383C105.348 103.798 100.358 92.5208 99.6781 80.6062C99.6672 80.3806 99.5995 80.1613 99.4812 79.9681C99.3628 79.7749 99.1976 79.614 99.0004 79.4998C98.8032 79.3856 98.5802 79.3218 98.3518 79.3142C98.1233 79.3067 97.8966 79.3555 97.6921 79.4563L89.2441 83.6052C88.9259 83.7641 88.5746 83.8474 88.2181 83.8482C87.8655 83.8466 87.5182 83.7634 87.204 83.6052L78.9 79.5097C78.6847 79.4048 78.4455 79.3569 78.2058 79.3708C77.9661 79.3847 77.7342 79.4599 77.5328 79.589C77.3314 79.718 77.1673 79.8966 77.0568 80.1071C76.9462 80.3176 76.8929 80.5529 76.902 80.7899C77.6128 98.2719 84.7478 114.899 96.972 127.56H61.8L67.56 138.946L62.004 149.952H145.56L151.2 138.827L145.392 127.382Z" fill="url(#paint12_linear_1819_7616)"/>
<path opacity="0.2" d="M145.392 127.382C133.362 126.291 122.129 120.969 113.738 112.383C105.348 103.798 100.358 92.5208 99.6781 80.6062C99.6672 80.3806 99.5995 80.1613 99.4812 79.9681C99.3628 79.7749 99.1976 79.614 99.0004 79.4998C98.8032 79.3856 98.5802 79.3218 98.3518 79.3142C98.1233 79.3067 97.8966 79.3555 97.6921 79.4563L89.2441 83.6052C88.9259 83.7641 88.5746 83.8474 88.2181 83.8482C87.8655 83.8466 87.5182 83.7634 87.204 83.6052L78.9 79.5097C78.6847 79.4048 78.4455 79.3569 78.2058 79.3708C77.9661 79.3847 77.7342 79.4599 77.5328 79.589C77.3314 79.718 77.1673 79.8966 77.0568 80.1071C76.9462 80.3176 76.8929 80.5529 76.902 80.7899C77.6128 98.2719 84.7478 114.899 96.972 127.56H61.8L67.56 138.946L62.004 149.952H145.56L151.2 138.827L145.392 127.382Z" fill="#C0C0C0" fill-opacity="0.4"/>
<path d="M200.064 82.3485C198.957 94.2309 193.567 105.325 184.875 113.612C176.182 121.898 164.767 126.824 152.706 127.494C152.477 127.506 152.256 127.574 152.06 127.692C151.865 127.809 151.702 127.973 151.586 128.168C151.471 128.363 151.407 128.584 151.399 128.81C151.391 129.036 151.44 129.26 151.542 129.462L155.742 137.813C155.899 138.126 155.981 138.469 155.981 138.818C155.981 139.167 155.899 139.51 155.742 139.823L151.596 148.02C151.488 148.232 151.438 148.469 151.451 148.706C151.464 148.944 151.54 149.174 151.671 149.373C151.802 149.573 151.984 149.735 152.198 149.844C152.412 149.953 152.651 150.004 152.892 149.993C170.988 149.255 188.163 141.912 201.094 129.386C214.025 116.859 221.792 100.04 222.894 82.1825L211.65 76.6289L200.064 82.3485Z" fill="url(#paint13_linear_1819_7616)"/>
<path opacity="0.8" d="M200.064 82.3485C198.957 94.2309 193.567 105.325 184.875 113.612C176.182 121.898 164.767 126.824 152.706 127.494C152.477 127.506 152.256 127.574 152.06 127.692C151.865 127.809 151.702 127.973 151.586 128.168C151.471 128.363 151.407 128.584 151.399 128.81C151.391 129.036 151.44 129.26 151.542 129.462L155.742 137.813C155.899 138.126 155.981 138.469 155.981 138.818C155.981 139.167 155.899 139.51 155.742 139.823L151.596 148.02C151.488 148.232 151.438 148.469 151.451 148.706C151.464 148.944 151.54 149.174 151.671 149.373C151.802 149.573 151.984 149.735 152.198 149.844C152.412 149.953 152.651 150.004 152.892 149.993C170.988 149.255 188.163 141.912 201.094 129.386C214.025 116.859 221.792 100.04 222.894 82.1825L211.65 76.6289L200.064 82.3485Z" fill="#C0C0C0" fill-opacity="0.4"/>
<path d="M149.43 76.6656L146.148 67.3898L141.156 67.8462C139.972 66.1177 138.559 64.5529 136.956 63.1935L137.982 58.3452L129 54.0777L125.796 57.8888C123.718 57.4908 121.595 57.3711 119.484 57.5332L116.742 53.3843L107.352 56.6263L107.814 61.5576C106.064 62.7275 104.48 64.1228 103.104 65.7065L98.19 64.693L93.87 73.5479L97.734 76.713C97.331 78.766 97.2099 80.8632 97.374 82.9482L93.174 85.6568L96.456 94.9326L101.442 94.4762C102.627 96.2062 104.039 97.7728 105.642 99.1348L104.616 103.983L113.58 108.251L116.784 104.434C118.86 104.832 120.981 104.951 123.09 104.789L125.838 108.938L135.228 105.696L134.766 100.771C136.514 99.5985 138.098 98.2035 139.476 96.6218L144.384 97.6353L148.704 88.7804L144.846 85.6213C145.249 83.5683 145.37 81.471 145.206 79.3861L149.43 76.6656ZM124.926 91.3882C122.88 92.0949 120.669 92.1865 118.57 91.6513C116.472 91.1162 114.582 89.9785 113.138 88.382C111.695 86.7855 110.763 84.802 110.46 82.6823C110.158 80.5626 110.499 78.4019 111.44 76.4735C112.38 74.5451 113.879 72.9357 115.746 71.8487C117.613 70.7617 119.764 70.246 121.927 70.3668C124.091 70.4876 126.17 71.2394 127.901 72.5273C129.632 73.8152 130.937 75.5812 131.652 77.602C132.609 80.3113 132.438 83.285 131.177 85.8699C129.915 88.4548 127.667 90.4395 124.926 91.3882Z" fill="url(#paint14_linear_1819_7616)"/>
<path d="M88.86 82.5276C88.578 82.9662 88.2599 83.5412 87.9059 84.0568C87.5519 84.5725 87.27 85.1355 86.964 85.6867C86.364 86.7832 85.764 87.8975 85.2 89.0296C84.0696 91.288 83.0681 93.6071 82.2 95.976C81.822 96.9125 82.2 96.3554 81.762 95.7686C81.558 95.5256 81.426 95.5315 81.498 95.573C81.6319 95.6473 81.7782 95.6975 81.93 95.7212C83.0462 95.9035 84.1815 95.9434 85.3079 95.8397C87.7979 95.6915 90.4319 95.3181 92.9879 94.9092H93C93.3271 94.8549 93.663 94.9221 93.9431 95.0978C94.2231 95.2735 94.4275 95.5452 94.5168 95.8608C94.6062 96.1764 94.5742 96.5135 94.4271 96.8072C94.28 97.101 94.0281 97.3306 93.7199 97.4518C91.1643 98.5048 88.5121 99.3126 85.8 99.8641C85.104 99.9945 84.3899 100.107 83.6399 100.178C82.8421 100.26 82.0378 100.26 81.2399 100.178C80.7282 100.125 80.2247 100.011 79.7399 99.8404C79.0029 99.5822 78.3584 99.1165 77.8859 98.5009C77.5985 98.111 77.3944 97.6673 77.2859 97.197C77.192 96.787 77.1637 96.365 77.202 95.9464C77.2315 95.6293 77.2917 95.3157 77.382 95.0099L77.526 94.5121C78.2695 91.8664 79.2162 89.2807 80.3579 86.7773C80.9219 85.5267 81.558 84.2939 82.212 83.0907C82.548 82.4862 82.8959 81.8935 83.2559 81.3126C83.6279 80.7199 83.9759 80.1568 84.4559 79.5345C84.8694 78.9853 85.4809 78.6141 86.1637 78.4978C86.8466 78.3815 87.5485 78.5289 88.1243 78.9097C88.7002 79.2904 89.1058 79.8753 89.2572 80.5432C89.4087 81.2111 89.2943 81.911 88.9379 82.498L88.86 82.5276Z" fill="#7F3E3B"/>
<path d="M99.0539 97.5878L97.7999 98.6132C97.569 98.8052 97.2947 98.9393 97.0002 99.0043C96.7056 99.0693 96.3996 99.0632 96.1079 98.9866L93.3419 98.2694C92.7978 98.1265 92.2961 97.8572 91.8786 97.484C91.4612 97.1108 91.14 96.6445 90.9419 96.1239L90.6959 95.4719C92.6519 93.6286 96.1379 93.0537 96.1379 93.0537L97.1159 92.787C97.3148 92.7249 97.5242 92.7026 97.732 92.7212C97.9397 92.7399 98.1416 92.7993 98.3259 92.8958C98.5102 92.9923 98.6732 93.1242 98.8054 93.2835C98.9376 93.4429 99.0363 93.6267 99.0959 93.8242L99.6959 95.7267C99.786 96.0649 99.7732 96.4219 99.659 96.7529C99.5448 97.084 99.3343 97.3744 99.0539 97.5878Z" fill="#7F3E3B"/>
<path d="M92.322 62.8677C93.186 66.0149 94.242 71.7582 92.172 73.88C92.172 73.88 90.582 76.8436 99.972 76.3516C106.572 76.0197 102.066 73.88 102.066 73.88C98.466 73.0384 98.346 70.4365 98.784 67.9945L92.322 62.8677Z" fill="#7F3E3B"/>
<path d="M78.4739 194.495L72.3839 192.278C71.8499 196.925 69.9419 204.019 69.9419 204.019L74.2139 205.797C74.2139 205.797 77.0579 197.322 78.4739 194.495Z" fill="#7F3E3B"/>
<path d="M75.2099 212.78C71.9519 210.409 72.2099 210.539 70.4099 209.152C68.8799 207.967 68.3759 207.89 67.1339 206.947C66.0959 206.165 66.7979 205.169 67.8899 204.174C68.3039 203.8 68.8259 203.385 69.4199 202.846C69.5869 202.696 69.8016 202.608 70.0272 202.597C70.2527 202.586 70.475 202.653 70.6559 202.787L74.4719 205.543C74.6114 205.645 74.7247 205.778 74.8028 205.932C74.8809 206.085 74.9217 206.254 74.9219 206.426C74.9418 207.34 75.15 208.241 75.5337 209.074C75.9174 209.906 76.4687 210.653 77.1539 211.268C78.7739 212.78 76.5119 213.722 75.2099 212.78Z" fill="#263238"/>
<path d="M104.856 107.279C104.856 107.279 98.4419 139.907 93.4559 155.11C88.236 171.113 80.604 188.853 77.142 199.255C76.068 199.391 73.002 198.128 71.502 196.884C71.502 196.884 73.788 169.62 81.612 155.513C80.832 114.356 88.752 107.279 88.752 107.279H104.856Z" fill="url(#paint15_linear_1819_7616)"/>
<path opacity="0.3" d="M104.856 107.279C104.856 107.279 98.4419 139.907 93.4559 155.11C88.236 171.113 80.604 188.853 77.142 199.255C76.068 199.391 73.002 198.128 71.502 196.884C71.502 196.884 73.788 169.62 81.612 155.513C80.832 114.356 88.752 107.279 88.752 107.279H104.856Z" fill="black"/>
<path opacity="0.2" d="M92.94 119.489L99.54 131.935C98.028 138.455 96.348 145.253 94.74 150.777C89.958 137.507 92.94 119.489 92.94 119.489Z" fill="black"/>
<path d="M78.4619 197.292C78.2587 198.002 78.1142 198.728 78.0299 199.461C78.0235 199.524 78.0029 199.584 77.9695 199.637C77.936 199.691 77.8907 199.736 77.837 199.77C77.7832 199.804 77.7225 199.825 77.6592 199.832C77.596 199.839 77.5319 199.832 77.4719 199.811C75.1319 199.218 72.0719 197.44 71.0699 196.847C70.9804 196.795 70.9079 196.719 70.8611 196.628C70.8143 196.536 70.7951 196.434 70.8059 196.332L71.0759 194.245C71.0872 194.182 71.1133 194.121 71.1519 194.069C71.1906 194.017 71.2409 193.975 71.2989 193.945C71.3569 193.915 71.4211 193.899 71.4865 193.898C71.5519 193.896 71.6167 193.91 71.6759 193.937L78.1079 196.687C78.2299 196.73 78.3325 196.815 78.3973 196.925C78.4622 197.036 78.4851 197.166 78.4619 197.292Z" fill="#263238"/>
<path d="M110.19 197.286L104.34 197.713C105.3 202.324 106.302 209.602 106.302 209.602H110.946C110.946 209.602 110.118 200.445 110.19 197.286Z" fill="#7F3E3B"/>
<path d="M115.86 214.154C111.822 214.154 112.11 214.095 109.86 214.018C107.916 213.953 107.46 214.19 105.888 214.154C104.586 214.154 104.634 212.898 105.042 211.475C105.192 210.93 105.414 210.29 105.642 209.513C105.702 209.292 105.833 209.097 106.017 208.958C106.2 208.819 106.425 208.743 106.656 208.743H111.384C111.553 208.74 111.72 208.78 111.87 208.857C112.02 208.935 112.148 209.048 112.242 209.187C112.756 209.918 113.425 210.529 114.202 210.978C114.979 211.427 115.846 211.704 116.742 211.789C118.89 212.08 117.474 214.154 115.86 214.154Z" fill="#263238"/>
<path d="M109.836 107.279C109.836 107.279 110.568 135.729 111.222 153.421C111.876 171.113 110.472 202.426 110.472 202.426C110.34 203.285 105.774 202.941 105 202.426C105 202.426 96.2699 177.058 99.5999 155.11C87.9119 126.661 91.2839 107.979 91.2839 107.979L109.836 107.279Z" fill="url(#paint16_linear_1819_7616)"/>
<path opacity="0.3" d="M109.836 107.279C109.836 107.279 110.568 135.729 111.222 153.421C111.876 171.113 110.472 202.426 110.472 202.426C110.34 203.285 105.774 202.941 105 202.426C105 202.426 96.2699 177.058 99.5999 155.11C87.9119 126.661 91.2839 107.979 91.2839 107.979L109.836 107.279Z" fill="black"/>
<path d="M111.096 200.019C111.096 200.612 111.15 201.649 111.204 202.39C111.211 202.513 111.17 202.634 111.09 202.729C111.01 202.824 110.896 202.884 110.772 202.899C108.76 203.063 106.738 203.041 104.73 202.834C104.633 202.826 104.542 202.787 104.471 202.723C104.399 202.659 104.351 202.573 104.334 202.479L103.926 200.386C103.91 200.316 103.91 200.243 103.926 200.173C103.942 200.103 103.973 200.037 104.018 199.981C104.063 199.924 104.12 199.878 104.185 199.845C104.25 199.813 104.321 199.795 104.394 199.794L110.628 199.545C110.691 199.541 110.755 199.551 110.814 199.574C110.873 199.596 110.927 199.631 110.971 199.676C111.016 199.721 111.05 199.775 111.071 199.834C111.093 199.893 111.101 199.956 111.096 200.019Z" fill="#263238"/>
<path d="M89.8799 102.289C89.7808 103.953 89.5805 105.609 89.2799 107.25H109.62L109.836 102.135C109.836 102.135 94.1399 101.257 89.8799 102.289Z" fill="#7F3E3B"/>
<path d="M111.792 81.4015C111.914 84.4917 111.866 87.5862 111.648 90.6713C111.48 94.7017 112.248 95.6856 111.648 102.288C109.416 103.574 94.734 103.527 87.516 102.602C87.954 96.8947 88.488 93.048 84.576 80.2042C83.67 77.2407 85.692 74.3661 88.926 74.0579C89.79 73.9808 90.726 73.9097 91.644 73.8682C94.9422 73.6487 98.2517 73.6487 101.55 73.8682C102.624 73.9571 103.74 74.0875 104.808 74.2239C108.636 74.7217 111.672 77.8334 111.792 81.4015Z" fill="#263238"/>
<path d="M141.504 96.3677L140.694 94.9749C140.541 94.7176 140.329 94.4997 140.074 94.339C139.82 94.1783 139.531 94.0794 139.23 94.0503L136.386 93.7836C135.827 93.7313 135.263 93.8116 134.741 94.0178C134.219 94.2239 133.755 94.55 133.386 94.969L132.924 95.5024C134.124 97.8732 137.196 99.6513 137.196 99.6513L138.018 100.244C138.183 100.369 138.372 100.461 138.573 100.514C138.774 100.567 138.984 100.58 139.19 100.552C139.397 100.525 139.596 100.457 139.775 100.354C139.955 100.25 140.112 100.112 140.238 99.9477L141.438 98.3533C141.648 98.0664 141.766 97.7242 141.778 97.3705C141.79 97.0168 141.694 96.6676 141.504 96.3677Z" fill="#7F3E3B"/>
<path d="M113.646 82.842L113.91 83.245C114.024 83.4169 114.132 83.5947 114.264 83.7726C114.516 84.1282 114.798 84.4779 115.086 84.8276C115.683 85.5345 116.316 86.2111 116.982 86.8546C117.66 87.5006 118.374 88.1289 119.124 88.7275C119.874 89.3262 120.66 89.9129 121.458 90.4345L120.99 90.2211C122.096 90.6171 123.221 90.9574 124.362 91.2406C125.562 91.5429 126.762 91.8333 127.962 92.1296L131.64 92.995C132.87 93.2913 134.106 93.5877 135.33 93.8781C135.653 93.9532 135.936 94.1434 136.125 94.4122C136.314 94.681 136.396 95.0094 136.355 95.3343C136.315 95.6592 136.153 95.9577 135.903 96.1725C135.653 96.3873 135.331 96.5031 135 96.4978C133.698 96.4978 132.42 96.4386 131.136 96.3793C129.852 96.32 128.568 96.2074 127.278 96.0889C125.988 95.9703 124.704 95.8162 123.408 95.6147C122.05 95.4274 120.707 95.1481 119.388 94.779C119.267 94.745 119.15 94.6973 119.04 94.6368L118.914 94.5656C118.428 94.2871 117.936 94.0203 117.45 93.7359C116.964 93.4514 116.484 93.1432 116.022 92.8172C115.072 92.1818 114.166 91.4848 113.31 90.7309C112.433 89.9681 111.615 89.142 110.862 88.2593C110.484 87.8088 110.118 87.3465 109.77 86.8487C109.596 86.6057 109.422 86.3449 109.26 86.0782C109.176 85.9418 109.098 85.8114 109.014 85.6573C108.93 85.5032 108.864 85.3966 108.738 85.1358C108.434 84.5247 108.379 83.8216 108.585 83.1717C108.791 82.5219 109.241 81.9749 109.844 81.6439C110.446 81.3129 111.154 81.2232 111.821 81.3932C112.489 81.5632 113.065 81.98 113.43 82.5575L113.646 82.842Z" fill="#7F3E3B"/>
<path d="M105.696 74.5142C109.656 75.5514 113.052 78.9061 117.696 85.5265C117.048 88.2293 111.096 91.3528 111.096 91.3528C111.096 91.3528 98.6999 79.155 105.696 74.5142Z" fill="#263238"/>
<path d="M102.69 57.0239C102.834 57.4329 103.176 57.6996 103.446 57.6166C103.716 57.5337 103.812 57.1484 103.662 56.7394C103.512 56.3305 103.176 56.0578 102.906 56.1467C102.636 56.2356 102.54 56.615 102.69 57.0239Z" fill="#263238"/>
<path d="M102.798 56.2002L103.68 55.6431C103.68 55.6431 103.452 56.5499 102.798 56.2002Z" fill="#263238"/>
<path d="M103.002 57.7881C103.705 58.6184 104.511 59.3572 105.402 59.987C105.242 60.1962 105.035 60.3664 104.798 60.4846C104.561 60.6027 104.3 60.6657 104.034 60.6686L103.002 57.7881Z" fill="#630F0F"/>
<path d="M102.06 53.6274C102.091 53.622 102.12 53.6102 102.146 53.5928C102.172 53.5755 102.194 53.5529 102.21 53.5266C102.243 53.4683 102.251 53.3997 102.233 53.3354C102.215 53.2711 102.172 53.2164 102.114 53.1829C101.765 52.9633 101.371 52.8252 100.96 52.779C100.55 52.7328 100.134 52.7797 99.744 52.9162C99.7141 52.9293 99.6873 52.9485 99.6654 52.9725C99.6435 52.9965 99.6269 53.0247 99.6167 53.0555C99.6065 53.0862 99.603 53.1187 99.6063 53.1508C99.6096 53.183 99.6197 53.2141 99.636 53.2421C99.6681 53.3018 99.7215 53.3475 99.7857 53.3705C99.85 53.3935 99.9207 53.3921 99.984 53.3666C100.293 53.2623 100.623 53.2289 100.947 53.269C101.271 53.309 101.582 53.4215 101.856 53.5978C101.918 53.6333 101.991 53.6439 102.06 53.6274Z" fill="#263238"/>
<path d="M88.4759 59.3414C90.4559 64.1304 91.1879 66.193 94.5599 68.0008C99.6299 70.7153 105.18 67.6155 104.694 62.4235C104.262 57.753 101.094 50.7117 95.5619 50.1131C94.378 49.9465 93.1705 50.0956 92.0645 50.545C90.9586 50.9943 89.9943 51.7275 89.2716 52.6687C88.5489 53.6099 88.094 54.7249 87.9541 55.8981C87.8142 57.0713 87.9944 58.2601 88.4759 59.3414Z" fill="#7F3E3B"/>
<path d="M99.732 59.2285C101.358 62.7491 101.148 72.7302 92.07 69.6363C82.992 66.5424 83.628 61.6763 86.07 57.7823C81.144 53.426 87.51 49.9705 93.36 48.3999C99.21 46.8292 104.346 48.2398 99.732 59.2285Z" fill="#263238"/>
<path d="M90.84 58.9204C90.9977 59.6622 90.9291 60.4336 90.6426 61.1369C90.3561 61.8402 89.8648 62.4436 89.2308 62.8707C88.5969 63.2979 87.8488 63.5295 87.0815 63.5363C86.3141 63.5431 85.562 63.3247 84.9204 62.9088C84.2788 62.493 83.7766 61.8983 83.4774 61.2002C83.1783 60.5021 83.0956 59.7321 83.2399 58.9875C83.3843 58.243 83.7491 57.5575 84.2881 57.018C84.8272 56.4785 85.5162 56.1092 86.268 55.9569C87.2715 55.7567 88.3145 55.9556 89.1705 56.5104C90.0265 57.0653 90.6264 57.9313 90.84 58.9204Z" fill="url(#paint17_linear_1819_7616)"/>
<path d="M87.9899 65.1266C89.7899 61.5704 88.3259 57.1488 85.5359 54.292C80.2559 48.8806 72.9359 52.4368 74.9759 57.7889C77.3759 64.1723 64.7279 70.7335 72.1019 74.5149C79.3019 78.2193 91.3019 71.6878 87.9299 65.257C87.9479 65.1977 87.9719 65.1977 87.9899 65.1266Z" fill="#263238"/>
<path d="M97.7159 59.4892C97.9758 59.9166 98.3238 60.2852 98.7373 60.5711C99.1507 60.857 99.6204 61.0538 100.116 61.1488C101.316 61.3384 101.712 59.9634 101.178 58.6357C100.692 57.4503 99.4739 55.9389 98.3399 56.3538C97.2059 56.7687 96.9959 58.3631 97.7159 59.4892Z" fill="#7F3E3B"/>
<path d="M88.7039 74.0879C85.1519 74.6272 83.7299 75.6941 80.8319 82.7413C82.1459 85.367 88.3079 87.886 88.3079 87.886C88.3079 87.886 92.3999 78.7821 88.7039 74.0879Z" fill="#263238"/>
<path d="M109.872 108.79C102.595 109.584 95.2512 109.568 87.9779 108.743C87.9022 108.731 87.8302 108.703 87.7675 108.659C87.7049 108.615 87.6532 108.558 87.6167 108.492C87.5801 108.425 87.5595 108.351 87.5566 108.275C87.5537 108.2 87.5685 108.124 87.5999 108.055C87.7799 107.64 87.9539 107.226 88.1279 106.811C88.1659 106.72 88.2324 106.643 88.3177 106.592C88.4029 106.54 88.5025 106.518 88.6019 106.526C95.5967 107.288 102.655 107.288 109.65 106.526C109.712 106.521 109.775 106.529 109.834 106.548C109.894 106.567 109.949 106.598 109.996 106.638C110.043 106.678 110.082 106.727 110.11 106.782C110.139 106.837 110.155 106.897 110.16 106.959C110.202 107.392 110.25 107.818 110.292 108.251C110.307 108.377 110.272 108.505 110.193 108.605C110.115 108.706 109.999 108.773 109.872 108.79Z" fill="#263238"/>
<defs>
<linearGradient id="paint0_linear_1819_7616" x1="179.461" y1="67.2354" x2="179.461" y2="87.9266" gradientUnits="userSpaceOnUse">
<stop stop-color="#69FFF3"/>
<stop offset="1" stop-color="#06BFB0"/>
</linearGradient>
<linearGradient id="paint1_linear_1819_7616" x1="182.169" y1="67.8403" x2="182.169" y2="73.4769" gradientUnits="userSpaceOnUse">
<stop stop-color="#69FFF3"/>
<stop offset="1" stop-color="#06BFB0"/>
</linearGradient>
<linearGradient id="paint2_linear_1819_7616" x1="175.695" y1="67.9937" x2="175.695" y2="73.1146" gradientUnits="userSpaceOnUse">
<stop stop-color="#69FFF3"/>
<stop offset="1" stop-color="#06BFB0"/>
</linearGradient>
<linearGradient id="paint3_linear_1819_7616" x1="190.979" y1="101.118" x2="190.979" y2="107.397" gradientUnits="userSpaceOnUse">
<stop stop-color="#69FFF3"/>
<stop offset="1" stop-color="#06BFB0"/>
</linearGradient>
<linearGradient id="paint4_linear_1819_7616" x1="141.964" y1="67.9292" x2="141.964" y2="73.702" gradientUnits="userSpaceOnUse">
<stop stop-color="#69FFF3"/>
<stop offset="1" stop-color="#06BFB0"/>
</linearGradient>
<linearGradient id="paint5_linear_1819_7616" x1="214.014" y1="201.986" x2="214.014" y2="208.428" gradientUnits="userSpaceOnUse">
<stop stop-color="#69FFF3"/>
<stop offset="1" stop-color="#06BFB0"/>
</linearGradient>
<linearGradient id="paint6_linear_1819_7616" x1="177.576" y1="206.319" x2="177.576" y2="209.875" gradientUnits="userSpaceOnUse">
<stop stop-color="#69FFF3"/>
<stop offset="1" stop-color="#06BFB0"/>
</linearGradient>
<linearGradient id="paint7_linear_1819_7616" x1="211.56" y1="151.594" x2="211.56" y2="152.187" gradientUnits="userSpaceOnUse">
<stop stop-color="#69FFF3"/>
<stop offset="1" stop-color="#06BFB0"/>
</linearGradient>
<linearGradient id="paint8_linear_1819_7616" x1="223.302" y1="151.594" x2="223.302" y2="152.187" gradientUnits="userSpaceOnUse">
<stop stop-color="#69FFF3"/>
<stop offset="1" stop-color="#06BFB0"/>
</linearGradient>
<linearGradient id="paint9_linear_1819_7616" x1="194.864" y1="127.579" x2="194.864" y2="150.066" gradientUnits="userSpaceOnUse">
<stop stop-color="#69FFF3"/>
<stop offset="1" stop-color="#06BFB0"/>
</linearGradient>
<linearGradient id="paint10_linear_1819_7616" x1="185.827" y1="5.80176" x2="185.827" y2="76.4315" gradientUnits="userSpaceOnUse">
<stop stop-color="#69FFF3"/>
<stop offset="1" stop-color="#06BFB0"/>
</linearGradient>
<linearGradient id="paint11_linear_1819_7616" x1="112.725" y1="5.72949" x2="112.725" y2="79.0952" gradientUnits="userSpaceOnUse">
<stop stop-color="#69FFF3"/>
<stop offset="1" stop-color="#06BFB0"/>
</linearGradient>
<linearGradient id="paint12_linear_1819_7616" x1="106.5" y1="79.3135" x2="106.5" y2="149.952" gradientUnits="userSpaceOnUse">
<stop stop-color="#69FFF3"/>
<stop offset="1" stop-color="#06BFB0"/>
</linearGradient>
<linearGradient id="paint13_linear_1819_7616" x1="187.146" y1="76.6289" x2="187.146" y2="149.995" gradientUnits="userSpaceOnUse">
<stop stop-color="#69FFF3"/>
<stop offset="1" stop-color="#06BFB0"/>
</linearGradient>
<linearGradient id="paint14_linear_1819_7616" x1="121.302" y1="53.3843" x2="121.302" y2="108.938" gradientUnits="userSpaceOnUse">
<stop stop-color="#69FFF3"/>
<stop offset="1" stop-color="#06BFB0"/>
</linearGradient>
<linearGradient id="paint15_linear_1819_7616" x1="88.179" y1="107.279" x2="88.179" y2="199.265" gradientUnits="userSpaceOnUse">
<stop stop-color="#69FFF3"/>
<stop offset="1" stop-color="#06BFB0"/>
</linearGradient>
<linearGradient id="paint16_linear_1819_7616" x1="101.114" y1="107.279" x2="101.114" y2="202.949" gradientUnits="userSpaceOnUse">
<stop stop-color="#69FFF3"/>
<stop offset="1" stop-color="#06BFB0"/>
</linearGradient>
<linearGradient id="paint17_linear_1819_7616" x1="87.0468" y1="55.8809" x2="87.0468" y2="63.5365" gradientUnits="userSpaceOnUse">
<stop stop-color="#69FFF3"/>
<stop offset="1" stop-color="#06BFB0"/>
</linearGradient>
</defs>
</svg>
