<svg width="21" height="21" viewBox="0 0 21 21" fill="none" xmlns="http://www.w3.org/2000/svg">
<path d="M17.5907 3.7213L17.9429 4.11869L18.3184 3.7432L20 2.0616V7.02246H15.0391L16.5371 5.52445L16.8632 5.19843L16.5646 4.8471C15.1045 3.12911 12.9409 2.02246 10.5 2.02246C6.24726 2.02246 2.77315 5.33501 2.51535 9.52246H1.01293C1.27287 4.50765 5.42042 0.522461 10.5 0.522461C13.3266 0.522461 15.8528 1.7606 17.5907 3.7213ZM4.46285 14.5205L4.13683 14.8465L4.43541 15.1978C5.8955 16.9158 8.05911 18.0225 10.5 18.0225C14.7527 18.0225 18.2268 14.7099 18.4847 10.5225H19.9871C19.7271 15.5373 15.5796 19.5225 10.5 19.5225C7.67719 19.5225 5.14715 18.2842 3.40933 16.3236L3.0571 15.9262L2.6816 16.3017L1 17.9833V13.0225H5.96086L4.46285 14.5205Z" stroke="white"/>
</svg>
