<svg width="23" height="22" viewBox="0 0 23 22" fill="none" xmlns="http://www.w3.org/2000/svg">
<g clip-path="url(#clip0_1061_2730)">
<path d="M17 6.875H11.5V5.5H17V6.875ZM11.5 11H17V12.375H11.5V11ZM12.9072 20.625L14.2822 22H3.25V0H19.75V13.7822L18.375 15.1572V1.375H4.625V20.625H12.9072ZM10.6084 4.6084L8.0625 7.1543L6.2041 5.2959L7.1709 4.3291L8.0625 5.2207L9.6416 3.6416L10.6084 4.6084ZM10.6084 10.1084L8.0625 12.6543L6.2041 10.7959L7.1709 9.8291L8.0625 10.7207L9.6416 9.1416L10.6084 10.1084ZM8.0625 16.2207L9.6416 14.6416L10.6084 15.6084L8.0625 18.1543L6.2041 16.2959L7.1709 15.3291L8.0625 16.2207ZM22.2959 15.6084L16.3125 21.6025L13.4229 18.7021L14.3896 17.7354L16.3125 19.6475L21.3291 14.6416L22.2959 15.6084Z" fill="#03A186"/>
</g>
<defs>
<clipPath id="clip0_1061_2730">
<rect width="22" height="22" fill="white" transform="translate(0.5)"/>
</clipPath>
</defs>
</svg>
