<svg width="20" height="20" viewBox="0 0 20 20" fill="none" xmlns="http://www.w3.org/2000/svg">
<path d="M5.00004 15.834V8.33398C5.00004 7.0079 5.52682 5.73613 6.46451 4.79845C7.40219 3.86077 8.67396 3.33398 10 3.33398C11.3261 3.33398 12.5979 3.86077 13.5356 4.79845C14.4733 5.73613 15 7.0079 15 8.33398V15.834M5.00004 15.834H15M5.00004 15.834H3.33337M15 15.834H16.6667M9.16671 18.334H10.8334" stroke="black" stroke-width="1.5" stroke-linecap="round" stroke-linejoin="round"/>
<path d="M10.0001 3.33366C10.4603 3.33366 10.8334 2.96056 10.8334 2.50033C10.8334 2.04009 10.4603 1.66699 10.0001 1.66699C9.53984 1.66699 9.16675 2.04009 9.16675 2.50033C9.16675 2.96056 9.53984 3.33366 10.0001 3.33366Z" stroke="black" stroke-width="1.5"/>
</svg>
