<svg width="20" height="20" viewBox="0 0 20 20" fill="none" xmlns="http://www.w3.org/2000/svg">
<path d="M17.5 5.83333H2.5V2.5H17.5V5.83333ZM11.3583 10.8333H7.5V9.58333C7.5 9.35 7.68333 9.16667 7.91667 9.16667H12.0833C12.2667 9.16667 12.4167 9.28333 12.475 9.44167C13.275 8.75 14.3083 8.33333 15.4167 8.33333C15.8333 8.33333 16.25 8.4 16.6667 8.51667V6.66667H3.33333V17.5H12.6583C11.7667 16.1917 10.8333 14.4583 10.8333 12.9167C10.8333 12.175 11.025 11.4667 11.3583 10.8333ZM18.3333 12.9167C18.3333 15.0833 15.4167 18.3333 15.4167 18.3333C15.4167 18.3333 12.5 15.0833 12.5 12.9167C12.5 11.3333 13.8333 10 15.4167 10C17 10 18.3333 11.3333 18.3333 12.9167ZM16.4167 13C16.4167 12.5 15.9167 12 15.4167 12C14.9167 12 14.4167 12.4167 14.4167 13C14.4167 13.5 14.8333 14 15.4167 14C16 14 16.5 13.5 16.4167 13Z" fill="black"/>
</svg>
