<svg width="24" height="24" viewBox="0 0 24 24" fill="none" xmlns="http://www.w3.org/2000/svg">
<path d="M14.317 7.559L12 9.875L5.62604 3.501C5.44031 3.3152 5.2198 3.16781 4.97709 3.06725C4.73439 2.96669 4.47425 2.91493 4.21154 2.91493C3.94883 2.91493 3.68869 2.96669 3.44599 3.06725C3.20328 3.16781 2.98277 3.3152 2.79704 3.501L2.09004 4.208L14.317 16.435C13.9546 17.2896 13.9008 18.2437 14.1647 19.1337C14.4286 20.0237 14.9938 20.7942 15.7635 21.3131C16.5331 21.8321 17.4594 22.0672 18.3834 21.9781C19.3074 21.8891 20.1717 21.4814 20.8281 20.825C21.4845 20.1686 21.8921 19.3043 21.9812 18.3803C22.0702 17.4563 21.8351 16.5301 21.3162 15.7604C20.7972 14.9907 20.0267 14.4255 19.1367 14.1616C18.2467 13.8977 17.2927 13.9516 16.438 14.314L14.121 11.997L16.438 9.68001C17.2928 10.0423 18.2469 10.096 19.1368 9.83198C20.0268 9.56793 20.7973 9.00255 21.3161 8.23274C21.8349 7.46294 22.0698 6.53663 21.9806 5.61261C21.8913 4.68858 21.4835 3.82438 20.8269 3.1681C20.1703 2.51183 19.3059 2.10437 18.3818 2.01555C17.4578 1.92673 16.5316 2.16208 15.762 2.68128C14.9924 3.20047 14.4274 3.97116 14.1638 4.86127C13.9002 5.75138 13.9543 6.70446 14.317 7.559ZM18 7.997C17.4696 7.997 16.9609 7.78629 16.5858 7.41122C16.2108 7.03615 16 6.52744 16 5.997C16 5.46657 16.2108 4.95786 16.5858 4.58279C16.9609 4.20772 17.4696 3.997 18 3.997C18.5305 3.997 19.0392 4.20772 19.4143 4.58279C19.7893 4.95786 20 5.46657 20 5.997C20 6.52744 19.7893 7.03615 19.4143 7.41122C19.0392 7.78629 18.5305 7.997 18 7.997ZM18 19.997C17.4696 19.997 16.9609 19.7863 16.5858 19.4112C16.2108 19.0361 16 18.5274 16 17.997C16 17.4666 16.2108 16.9579 16.5858 16.5828C16.9609 16.2077 17.4696 15.997 18 15.997C18.5305 15.997 19.0392 16.2077 19.4143 16.5828C19.7893 16.9579 20 17.4666 20 17.997C20 18.5274 19.7893 19.0361 19.4143 19.4112C19.0392 19.7863 18.5305 19.997 18 19.997ZM8.46504 13.41L2.09004 19.785L2.79704 20.492C2.98277 20.6778 3.20328 20.8252 3.44599 20.9258C3.68869 21.0263 3.94883 21.0781 4.21154 21.0781C4.47425 21.0781 4.73439 21.0263 4.97709 20.9258C5.2198 20.8252 5.44031 20.6778 5.62604 20.492L10.586 15.532L8.46504 13.41Z" fill="white"/>
</svg>
