<svg width="21" height="20" viewBox="0 0 21 20" fill="none" xmlns="http://www.w3.org/2000/svg">
<path d="M12.1808 6.29915L10.25 8.22915L4.93835 2.91748C4.78357 2.76265 4.59981 2.63982 4.39756 2.55602C4.19531 2.47222 3.97852 2.42909 3.7596 2.42909C3.54067 2.42909 3.32389 2.47222 3.12163 2.55602C2.91938 2.63982 2.73562 2.76265 2.58085 2.91748L1.99168 3.50665L12.1808 13.6958C11.8788 14.408 11.834 15.2031 12.0539 15.9447C12.2738 16.6864 12.7448 17.3285 13.3862 17.7609C14.0276 18.1934 14.7994 18.3893 15.5695 18.3151C16.3395 18.2409 17.0597 17.9012 17.6067 17.3542C18.1537 16.8072 18.4934 16.0869 18.5676 15.3169C18.6418 14.5469 18.4459 13.7751 18.0135 13.1337C17.581 12.4923 16.9389 12.0212 16.1973 11.8013C15.4556 11.5814 14.6605 11.6263 13.9483 11.9283L12.0175 9.99748L13.9483 8.06665C14.6606 8.36856 15.4557 8.41334 16.1974 8.1933C16.939 7.97326 17.581 7.50211 18.0134 6.8606C18.4457 6.21909 18.6415 5.44718 18.5671 4.67715C18.4927 3.90713 18.1529 3.18696 17.6057 2.64007C17.0586 2.09317 16.3382 1.75362 15.5682 1.6796C14.7981 1.60559 14.0263 1.80172 13.385 2.23438C12.7437 2.66704 12.2728 3.30928 12.0531 4.05104C11.8334 4.79279 11.8786 5.58703 12.1808 6.29915ZM15.25 6.66415C14.808 6.66415 14.3841 6.48856 14.0715 6.17599C13.7589 5.86343 13.5833 5.43951 13.5833 4.99748C13.5833 4.55546 13.7589 4.13153 14.0715 3.81897C14.3841 3.50641 14.808 3.33082 15.25 3.33082C15.692 3.33082 16.116 3.50641 16.4285 3.81897C16.7411 4.13153 16.9167 4.55546 16.9167 4.99748C16.9167 5.43951 16.7411 5.86343 16.4285 6.17599C16.116 6.48856 15.692 6.66415 15.25 6.66415ZM15.25 16.6641C14.808 16.6641 14.3841 16.4886 14.0715 16.176C13.7589 15.8634 13.5833 15.4395 13.5833 14.9975C13.5833 14.5555 13.7589 14.1315 14.0715 13.819C14.3841 13.5064 14.808 13.3308 15.25 13.3308C15.692 13.3308 16.116 13.5064 16.4285 13.819C16.7411 14.1315 16.9167 14.5555 16.9167 14.9975C16.9167 15.4395 16.7411 15.8634 16.4285 16.176C16.116 16.4886 15.692 16.6641 15.25 16.6641ZM7.30418 11.175L1.99168 16.4875L2.58085 17.0766C2.73562 17.2315 2.91938 17.3543 3.12163 17.4381C3.32389 17.5219 3.54067 17.565 3.7596 17.565C3.97852 17.565 4.19531 17.5219 4.39756 17.4381C4.59981 17.3543 4.78357 17.2315 4.93835 17.0766L9.07168 12.9433L7.30418 11.175Z" fill="black" fill-opacity="0.8"/>
</svg>
