<svg width="15" height="14" viewBox="0 0 15 14" fill="none" xmlns="http://www.w3.org/2000/svg">
<path d="M7.49996 12.8334C7.96663 12.8334 8.43329 12.7751 8.84163 12.6584C8.60829 12.3667 8.37496 12.0167 8.25829 11.6084C8.02496 11.6667 7.73329 11.6667 7.49996 11.6667C4.93329 11.6667 2.83329 9.56675 2.83329 7.00008C2.83329 4.43341 4.93329 2.33341 7.49996 2.33341C7.96663 2.33341 8.37496 2.39175 8.78329 2.50841L9.71663 1.57508C9.01663 1.34175 8.25829 1.16675 7.49996 1.16675C4.29163 1.16675 1.66663 3.79175 1.66663 7.00008C1.66663 10.2084 4.29163 12.8334 7.49996 12.8334ZM4.29163 6.70842L5.10829 5.89175L6.91663 7.70008L11.9333 2.68341L12.75 3.50008L6.91663 9.33342L4.29163 6.70842ZM11.5833 8.16675L10.8483 9.77092L9.24996 10.5001L10.8483 11.2351L11.5833 12.8334L12.3125 11.2351L13.9166 10.5001L12.3125 9.77092L11.5833 8.16675Z" fill="white"/>
</svg>
