<svg width="22" height="22" viewBox="0 0 22 22" fill="none" xmlns="http://www.w3.org/2000/svg">
<path d="M16.4542 15.9042L19.0438 13.3146C19.2118 13.1465 19.4221 13.0625 19.6745 13.0625C19.9268 13.0625 20.1444 13.1465 20.3271 13.3146C20.5105 13.4979 20.6021 13.7158 20.6021 13.9682C20.6021 14.2206 20.5105 14.4381 20.3271 14.6208L17.0959 17.8521C16.9125 18.0354 16.6987 18.1271 16.4542 18.1271C16.2098 18.1271 15.9959 18.0354 15.8125 17.8521L14.5063 16.5458C14.323 16.3625 14.2313 16.1486 14.2313 15.9042C14.2313 15.6597 14.323 15.4458 14.5063 15.2625C14.6896 15.0944 14.9035 15.0104 15.148 15.0104C15.3924 15.0104 15.6063 15.0944 15.7896 15.2625L16.4542 15.9042ZM7.33337 19.25C6.82921 19.25 6.39776 19.0706 6.03904 18.7119C5.68032 18.3532 5.50065 17.9214 5.50004 17.4167V15.5833H3.66671C3.16254 15.5833 2.7311 15.404 2.37237 15.0452C2.01365 14.6865 1.83399 14.2548 1.83337 13.75V10.0833C1.83337 9.30417 2.10074 8.65119 2.63546 8.12442C3.17018 7.59764 3.81949 7.33394 4.58337 7.33333H17.4167C18.1959 7.33333 18.8492 7.59703 19.3765 8.12442C19.9039 8.65181 20.1673 9.30478 20.1667 10.0833C20.1667 10.2514 20.1016 10.3776 19.9715 10.4619C19.8413 10.5462 19.7001 10.5499 19.548 10.4729C19.2271 10.3507 18.891 10.2551 18.5396 10.186C18.1882 10.1169 17.8368 10.0827 17.4855 10.0833C16.3855 10.0833 15.3771 10.3736 14.4605 10.9542C13.5438 11.5347 12.841 12.3139 12.3521 13.2917C12.2757 13.4292 12.1764 13.5398 12.0542 13.6235C11.932 13.7072 11.7945 13.7494 11.6417 13.75H7.33337V17.4167H12.0084C12.2681 17.4167 12.486 17.5047 12.662 17.6807C12.838 17.8567 12.9257 18.0742 12.925 18.3333C12.9244 18.5924 12.8367 18.8103 12.662 18.9869C12.4872 19.1635 12.2693 19.2512 12.0084 19.25H7.33337ZM6.41671 6.41667C6.15698 6.41667 5.93943 6.32867 5.76404 6.15267C5.58865 5.97667 5.50065 5.75911 5.50004 5.5V4.58333C5.50004 4.07917 5.67971 3.64772 6.03904 3.289C6.39837 2.93028 6.82982 2.75061 7.33337 2.75H14.6667C15.1709 2.75 15.6026 2.92967 15.962 3.289C16.3213 3.64833 16.5007 4.07978 16.5 4.58333V5.5C16.5 5.75972 16.412 5.97758 16.236 6.15358C16.06 6.32958 15.8425 6.41728 15.5834 6.41667H6.41671Z" fill="url(#paint0_linear_1059_1607)"/>
<defs>
<linearGradient id="paint0_linear_1059_1607" x1="11.2177" y1="2.75" x2="11.2177" y2="19.25" gradientUnits="userSpaceOnUse">
<stop stop-color="#F9EC2A"/>
<stop offset="1" stop-color="#706A0E"/>
</linearGradient>
</defs>
</svg>
