<svg width="22" height="22" viewBox="0 0 22 22" fill="none" xmlns="http://www.w3.org/2000/svg">
<path d="M14.8867 10.5508L16.3258 9.11163L12.8883 5.67413L11.4492 7.11329L7.65417 3.32746C6.93917 2.61246 5.775 2.61246 5.06 3.32746L3.31833 5.06913C2.60333 5.78413 2.60333 6.94829 3.31833 7.66329L7.10417 11.4491L2.75 15.8125V19.25H6.1875L10.5508 14.8866L14.3367 18.6725C15.2075 19.5433 16.3808 19.2225 16.9308 18.6725L18.6725 16.9308C19.3875 16.2158 19.3875 15.0516 18.6725 14.3366L14.8867 10.5508ZM8.415 10.1475L4.62 6.36163L6.3525 4.61996L7.51667 5.78413L6.435 6.87496L7.7275 8.16746L8.81833 7.07663L10.1475 8.40579L8.415 10.1475ZM15.6383 17.38L11.8525 13.5941L13.5942 11.8525L14.9233 13.1816L13.8325 14.2725L15.125 15.565L16.2158 14.4741L17.38 15.6383L15.6383 17.38ZM18.9842 6.45329C19.0691 6.36849 19.1366 6.26776 19.1826 6.15687C19.2286 6.04597 19.2522 5.9271 19.2522 5.80704C19.2522 5.68699 19.2286 5.56811 19.1826 5.45722C19.1366 5.34633 19.0691 5.2456 18.9842 5.16079L16.8392 3.01579C16.4083 2.58496 15.8125 2.74996 15.5467 3.01579L13.8692 4.69329L17.3067 8.13079L18.9842 6.45329Z" fill="url(#paint0_linear_1061_3061)"/>
<defs>
<linearGradient id="paint0_linear_1061_3061" x1="11.0011" y1="2.75098" x2="11.0011" y2="19.25" gradientUnits="userSpaceOnUse">
<stop stop-color="#EADB00"/>
<stop offset="1" stop-color="#998F01"/>
</linearGradient>
</defs>
</svg>
