<svg width="25" height="25" viewBox="0 0 25 25" fill="none" xmlns="http://www.w3.org/2000/svg">
<path d="M22.3159 5.0551C20.5559 4.4781 15.9999 2.98511 15.9999 3.00011C15.9999 3.79576 15.6839 4.55881 15.1213 5.12142C14.5587 5.68403 13.7956 6.0001 13 6.0001C12.2043 6.0001 11.4413 5.68403 10.8787 5.12142C10.3161 4.55881 9.99998 3.79576 9.99998 3.00011C9.99998 2.98511 5.44401 4.4781 3.68302 5.0551C3.48333 5.12023 3.30954 5.24718 3.18676 5.4176C3.06398 5.58801 2.99858 5.79306 3.00002 6.0031L3.00002 9.71907C3.00007 9.87097 3.03471 10.0209 3.10133 10.1574C3.16795 10.2939 3.26479 10.4134 3.3845 10.5069C3.50421 10.6004 3.64365 10.6654 3.79223 10.697C3.94082 10.7285 4.09463 10.7258 4.24202 10.6891L7 10.0001L7 22C7 22.2652 7.10536 22.5196 7.29289 22.7071C7.48043 22.8946 7.73478 23 8 23H17.9999C18.2652 23 18.5195 22.8946 18.707 22.7071C18.8946 22.5196 18.9999 22.2652 18.9999 22V10.0001L21.7579 10.6891C21.9053 10.7258 22.0591 10.7285 22.2077 10.697C22.3563 10.6654 22.4957 10.6004 22.6154 10.5069C22.7351 10.4134 22.832 10.2939 22.8986 10.1574C22.9652 10.0209 22.9999 9.87097 22.9999 9.71907V6.0031C23.0013 5.79294 22.9357 5.58779 22.8128 5.41736C22.6898 5.24693 22.5158 5.12006 22.3159 5.0551Z" fill="white"/>
<path d="M16.3582 11.0152L16.7105 11.4126L17.086 11.0371L17.5 10.6231V12.25H15.8731L16.1954 11.9278L16.5214 11.6017L16.2228 11.2504C15.4483 10.3391 14.2983 9.75 13 9.75C10.8208 9.75 9.02628 11.3875 8.77906 13.5H8.52745C8.77612 11.2498 10.6834 9.5 13 9.5C14.3383 9.5 15.5344 10.0858 16.3582 11.0152ZM9.80465 16.0722L9.47863 16.3983L9.77721 16.7496C10.5517 17.6609 11.7017 18.25 13 18.25C15.1792 18.25 16.9737 16.6125 17.2209 14.5H17.4725C17.2239 16.7502 15.3166 18.5 13 18.5C11.6635 18.5 10.4655 17.9141 9.64175 16.9848L9.28952 16.5874L8.91402 16.9629L8.5 17.3769V15.75H10.1269L9.80465 16.0722Z" stroke="#FFC725"/>
</svg>
