<svg width="20" height="20" viewBox="0 0 20 20" fill="none" xmlns="http://www.w3.org/2000/svg">
<path d="M7.82812 1.07031L7.06641 7.14883H8.73828L10.6562 1.42344L7.82812 1.07031ZM11.4102 1.38281L9.48047 7.14883L15.3281 7.15273L16.668 3.14453L11.4102 1.38281ZM7.03125 1.79844L4.22266 2.10469L4.77344 7.14883H6.36328L7.03125 1.79844ZM2.5 5.97695C2.05078 5.97695 1.75078 6.3207 1.66914 6.64883C1.62852 6.81289 1.65156 6.9457 1.69766 7.01992C1.74336 7.09023 1.80664 7.14883 2.03125 7.14883H4.06641L3.9375 5.97695H2.5ZM16.4609 5.97695L16.0703 7.14883H17.9258C17.8242 6.95352 17.7812 6.74648 17.8086 6.53945C17.8359 6.33633 17.9141 6.15273 18.0156 5.97695H16.4609ZM1.60156 7.85195V17.4965C1.60156 17.6957 1.71055 17.9301 1.88945 18.1098C2.06875 18.2895 2.30469 18.3988 2.5 18.3988L17.5 18.4027C17.6953 18.4027 17.9297 18.2934 18.1094 18.1137C18.2891 17.934 18.3984 17.6996 18.3984 17.5004V14.727H15C13.2812 14.727 13.2812 11.5238 15 11.5238H18.3984V7.85586L1.60156 7.85195ZM15 12.227C14.2188 12.227 14.2188 14.0238 15 14.0238H15.8711C15.5195 13.8754 15.2734 13.5277 15.2734 13.1254C15.2734 12.723 15.5195 12.3754 15.8711 12.227H15ZM16.6289 12.227C16.9805 12.3754 17.2266 12.723 17.2266 13.1254C17.2266 13.5277 16.9805 13.8754 16.6289 14.0238H19.0234V12.227H16.6289ZM16.25 12.852C16.0938 12.852 15.9766 12.9691 15.9766 13.1254C15.9766 13.2816 16.0938 13.3988 16.25 13.3988C16.4062 13.3988 16.5234 13.2816 16.5234 13.1254C16.5234 12.9691 16.4062 12.852 16.25 12.852Z" fill="black"/>
</svg>
