<svg width="20" height="20" viewBox="0 0 20 20" fill="none" xmlns="http://www.w3.org/2000/svg">
<path d="M2.5 5.41634C2.5 4.86381 2.71949 4.3339 3.11019 3.9432C3.50089 3.5525 4.0308 3.33301 4.58333 3.33301H16.0717C16.2383 3.33301 16.3208 3.33301 16.3883 3.35634C16.4473 3.37712 16.5009 3.4109 16.545 3.45519C16.5891 3.49948 16.6227 3.55313 16.6433 3.61217C16.6667 3.67884 16.6667 3.76217 16.6667 3.92884C16.6667 4.92551 16.6667 5.42467 16.5267 5.82551C16.4025 6.1799 16.2001 6.50177 15.9345 6.76722C15.6689 7.03268 15.347 7.23489 14.9925 7.35884C14.5917 7.49967 14.0917 7.49967 13.095 7.49967H12.5M2.5 5.41634C2.5 5.96888 2.71949 6.49878 3.11019 6.88948C3.50089 7.28018 4.0308 7.49967 4.58333 7.49967H15.8333C16.6192 7.49967 17.0117 7.49967 17.2558 7.74384C17.5 7.98801 17.5 8.38051 17.5 9.16634V10.833M2.5 5.41634V14.1663C2.5 15.738 2.5 16.523 2.98833 17.0113C3.47667 17.4997 4.26167 17.4997 5.83333 17.4997H15.8333C16.6192 17.4997 17.0117 17.4997 17.2558 17.2555C17.5 17.0113 17.5 16.6188 17.5 15.833V14.1663M17.5 10.833H14.1667C13.3808 10.833 12.9883 10.833 12.7442 11.0772C12.5 11.3213 12.5 11.7138 12.5 12.4997C12.5 13.2855 12.5 13.678 12.7442 13.9222C12.9883 14.1663 13.3808 14.1663 14.1667 14.1663H17.5M17.5 10.833V14.1663" stroke="black" stroke-width="1.5"/>
</svg>
